<svg xmlns="http://www.w3.org/2000/svg" xmlns:xlink="http://www.w3.org/1999/xlink" width="776.098" height="523.753" viewBox="0 0 776.098 523.753"><defs><linearGradient id="linear-gradient" x1="98.964" y1="0.612" x2="98.956" y2="0.963" gradientUnits="objectBoundingBox"><stop offset="0.004" stop-color="#fcb3b3"></stop><stop offset="1" stop-color="#fc8e8e"></stop></linearGradient><linearGradient id="linear-gradient-2" x1="90.033" y1="0.299" x2="90.043" y2="0.94" xlink:href="#linear-gradient"></linearGradient><linearGradient id="linear-gradient-3" x1="421.425" y1="0.5" x2="422.425" y2="0.5" xlink:href="#linear-gradient"></linearGradient></defs><g id="Group_510" data-name="Group 510" transform="translate(-180.436 -218.69)"><g id="Group_509" data-name="Group 509"><g id="Group_508" data-name="Group 508"><g id="Group_507" data-name="Group 507"><g id="Group_123" data-name="Group 123"><g id="Group_3" data-name="Group 3"><path id="Path_1" data-name="Path 1" d="M848.106,232.016v11.652H605.1V232.016a6.138,6.138,0,0,1,6.066-6.134h230.8A6.152,6.152,0,0,1,848.106,232.016Z" fill="#c8c8ee"></path><g id="Group_2" data-name="Group 2"><g id="Group_1" data-name="Group 1"><path id="Path_2" data-name="Path 2" d="M580.574,250.585V701.713a6.95,6.95,0,0,0,6.95,6.95h220.6V243.635h-220.6A6.95,6.95,0,0,0,580.574,250.585Z" fill="#f0f6ff"></path><path id="Rectangle_1" data-name="Rectangle 1" d="M2.1,0H207.911a2.1,2.1,0,0,1,2.1,2.1V39.328a2.1,2.1,0,0,1-2.1,2.1H2.1a2.1,2.1,0,0,1-2.1-2.1V2.1A2.1,2.1,0,0,1,2.1,0Z" transform="translate(587.967 371.442)" fill="#c8c8ee"></path><path id="Path_3" data-name="Path 3" d="M795.879,371.442H738.465a61.231,61.231,0,0,0,46.68,21.605h12.836v-19.5A2.1,2.1,0,0,0,795.879,371.442Z" fill="#b3b3e0" opacity="0.5"></path><path id="Path_4" data-name="Path 4" d="M865.683,243.635H808.125V708.663h57.558a6.95,6.95,0,0,0,6.95-6.95V250.585A6.95,6.95,0,0,0,865.683,243.635Z" fill="#dadaf5"></path></g><path id="Path_5" data-name="Path 5" d="M605.1,733.911V708.63H848.106v25.281a6.138,6.138,0,0,1-6.066,6.134h-230.8A6.152,6.152,0,0,1,605.1,733.911Z" fill="#c8c8ee"></path></g></g><path id="Path_6" data-name="Path 6" d="M617.434,716.484v15.737a2.8,2.8,0,0,1-5.607,0V716.484a2.8,2.8,0,1,1,5.607,0Z" fill="#f0f6ff"></path><path id="Path_7" data-name="Path 7" d="M631.43,716.484v15.737a2.8,2.8,0,0,1-5.606,0V716.484a2.8,2.8,0,1,1,5.606,0Z" fill="#f0f6ff"></path><path id="Path_8" data-name="Path 8" d="M645.427,716.484v15.737a2.8,2.8,0,0,1-5.606,0V716.484a2.8,2.8,0,1,1,5.606,0Z" fill="#f0f6ff"></path><path id="Path_9" data-name="Path 9" d="M659.423,716.484v15.737a2.8,2.8,0,0,1-5.606,0V716.484a2.8,2.8,0,1,1,5.606,0Z" fill="#f0f6ff"></path><path id="Path_10" data-name="Path 10" d="M673.42,716.484v15.737a2.8,2.8,0,0,1-5.606,0V716.484a2.8,2.8,0,1,1,5.606,0Z" fill="#f0f6ff"></path><path id="Path_11" data-name="Path 11" d="M687.417,716.484v15.737a2.8,2.8,0,0,1-5.607,0V716.484a2.8,2.8,0,1,1,5.607,0Z" fill="#f0f6ff"></path><path id="Path_12" data-name="Path 12" d="M701.413,716.484v15.737a2.8,2.8,0,0,1-5.606,0V716.484a2.8,2.8,0,1,1,5.606,0Z" fill="#f0f6ff"></path><path id="Path_13" data-name="Path 13" d="M715.41,716.484v15.737a2.8,2.8,0,0,1-5.606,0V716.484a2.8,2.8,0,1,1,5.606,0Z" fill="#f0f6ff"></path><path id="Path_14" data-name="Path 14" d="M729.407,716.484v15.737a2.8,2.8,0,0,1-5.607,0V716.484a2.8,2.8,0,1,1,5.607,0Z" fill="#f0f6ff"></path><path id="Path_15" data-name="Path 15" d="M743.4,716.484v15.737a2.8,2.8,0,0,1-5.606,0V716.484a2.8,2.8,0,1,1,5.606,0Z" fill="#f0f6ff"></path><path id="Path_16" data-name="Path 16" d="M757.4,716.484v15.737a2.8,2.8,0,0,1-5.606,0V716.484a2.8,2.8,0,1,1,5.606,0Z" fill="#f0f6ff"></path><path id="Path_17" data-name="Path 17" d="M771.4,716.484v15.737a2.8,2.8,0,0,1-5.606,0V716.484a2.8,2.8,0,1,1,5.606,0Z" fill="#f0f6ff"></path><path id="Path_18" data-name="Path 18" d="M785.393,716.484v15.737a2.8,2.8,0,0,1-5.606,0V716.484a2.8,2.8,0,1,1,5.606,0Z" fill="#f0f6ff"></path><path id="Path_19" data-name="Path 19" d="M799.39,716.484v15.737a2.8,2.8,0,0,1-5.607,0V716.484a2.8,2.8,0,1,1,5.607,0Z" fill="#f0f6ff"></path><path id="Path_20" data-name="Path 20" d="M813.386,716.484v15.737a2.8,2.8,0,0,1-5.606,0V716.484a2.8,2.8,0,1,1,5.606,0Z" fill="#f0f6ff"></path><path id="Path_21" data-name="Path 21" d="M827.383,716.484v15.737a2.8,2.8,0,0,1-5.606,0V716.484a2.8,2.8,0,1,1,5.606,0Z" fill="#f0f6ff"></path><path id="Path_22" data-name="Path 22" d="M841.38,716.484v15.737a2.8,2.8,0,0,1-5.607,0V716.484a2.8,2.8,0,1,1,5.607,0Z" fill="#f0f6ff"></path><rect id="Rectangle_2" data-name="Rectangle 2" width="210.033" height="41.417" rx="2.115" transform="translate(589.333 266.12)" fill="#dadaf5"></rect><path id="Path_23" data-name="Path 23" d="M793.528,275.007v23.65a3.033,3.033,0,0,1-3.036,3.036H708.273a3.015,3.015,0,0,1-3.036-3.036v-23.65a3.015,3.015,0,0,1,3.036-3.036h82.219A3.034,3.034,0,0,1,793.528,275.007Z" fill="#c8c8ee"></path><path id="Path_24" data-name="Path 24" d="M786.988,286.818a3.452,3.452,0,0,1-3.445,3.445H756.682a3.431,3.431,0,0,1,0-6.862h26.861A3.446,3.446,0,0,1,786.988,286.818Z" fill="#f0f6ff"></path><circle id="Ellipse_1" data-name="Ellipse 1" cx="5.591" cy="5.591" r="5.591" transform="translate(690.404 281.241)" fill="#c8c8ee"></circle><circle id="Ellipse_2" data-name="Ellipse 2" cx="5.591" cy="5.591" r="5.591" transform="translate(672.124 281.241)" fill="#c8c8ee"></circle><circle id="Ellipse_3" data-name="Ellipse 3" cx="5.591" cy="5.591" r="5.591" transform="translate(653.844 281.241)" fill="#0072ff"></circle><circle id="Ellipse_4" data-name="Ellipse 4" cx="5.591" cy="5.591" r="5.591" transform="translate(635.564 281.241)" fill="#c8c8ee"></circle><circle id="Ellipse_5" data-name="Ellipse 5" cx="12.37" cy="12.37" r="12.37" transform="translate(599.83 274.463)" fill="#0072ff"></circle><rect id="Rectangle_3" data-name="Rectangle 3" width="210.033" height="41.417" rx="2.115" transform="translate(589.333 318.788)" fill="#dadaf5"></rect><path id="Path_25" data-name="Path 25" d="M793.528,327.674v23.65a3.034,3.034,0,0,1-3.036,3.037H708.273a3.016,3.016,0,0,1-3.036-3.037v-23.65a3.015,3.015,0,0,1,3.036-3.036h82.219A3.034,3.034,0,0,1,793.528,327.674Z" fill="#c8c8ee"></path><path id="Path_26" data-name="Path 26" d="M786.988,339.485a3.452,3.452,0,0,1-3.445,3.445H756.682a3.431,3.431,0,0,1,0-6.861h26.861A3.446,3.446,0,0,1,786.988,339.485Z" fill="#f0f6ff"></path><circle id="Ellipse_6" data-name="Ellipse 6" cx="5.591" cy="5.591" r="5.591" transform="translate(690.404 333.908)" fill="#c8c8ee"></circle><circle id="Ellipse_7" data-name="Ellipse 7" cx="5.591" cy="5.591" r="5.591" transform="translate(672.124 333.908)" fill="#c8c8ee"></circle><circle id="Ellipse_8" data-name="Ellipse 8" cx="5.591" cy="5.591" r="5.591" transform="translate(653.844 333.908)" fill="#0072ff"></circle><circle id="Ellipse_9" data-name="Ellipse 9" cx="5.591" cy="5.591" r="5.591" transform="translate(635.564 333.908)" fill="#c8c8ee"></circle><circle id="Ellipse_10" data-name="Ellipse 10" cx="12.37" cy="12.37" r="12.37" transform="translate(599.83 327.13)" fill="#0072ff"></circle><rect id="Rectangle_4" data-name="Rectangle 4" width="210.033" height="41.417" rx="2.115" transform="translate(530.547 371.455)" fill="#dadaf5"></rect><path id="Path_27" data-name="Path 27" d="M734.743,380.342v23.649a3.034,3.034,0,0,1-3.036,3.037H649.488a3.016,3.016,0,0,1-3.037-3.037V380.342a3.016,3.016,0,0,1,3.037-3.036h82.219A3.034,3.034,0,0,1,734.743,380.342Z" fill="#c8c8ee"></path><path id="Path_28" data-name="Path 28" d="M728.2,392.153a3.451,3.451,0,0,1-3.445,3.444H697.9a3.431,3.431,0,0,1,0-6.861h26.861A3.445,3.445,0,0,1,728.2,392.153Z" fill="#f0f6ff"></path><path id="Path_29" data-name="Path 29" d="M642.8,392.167a5.592,5.592,0,1,1-5.592-5.592A5.592,5.592,0,0,1,642.8,392.167Z" fill="#c8c8ee"></path><path id="Path_30" data-name="Path 30" d="M624.521,392.167a5.591,5.591,0,1,1-5.592-5.592A5.592,5.592,0,0,1,624.521,392.167Z" fill="#c8c8ee"></path><path id="Path_31" data-name="Path 31" d="M606.241,392.167a5.592,5.592,0,1,1-5.592-5.592A5.592,5.592,0,0,1,606.241,392.167Z" fill="#0072ff"></path><path id="Path_32" data-name="Path 32" d="M587.961,392.167a5.591,5.591,0,1,1-5.592-5.592A5.592,5.592,0,0,1,587.961,392.167Z" fill="#c8c8ee"></path><circle id="Ellipse_11" data-name="Ellipse 11" cx="12.37" cy="12.37" r="12.37" transform="translate(535.921 392.167) rotate(-45)" fill="#0072ff"></circle><rect id="Rectangle_5" data-name="Rectangle 5" width="210.033" height="41.417" rx="2.115" transform="translate(589.333 424.122)" fill="#dadaf5"></rect><path id="Path_33" data-name="Path 33" d="M793.528,433.009v23.649a3.034,3.034,0,0,1-3.036,3.037H708.273a3.016,3.016,0,0,1-3.036-3.037V433.009a3.015,3.015,0,0,1,3.036-3.036h82.219A3.034,3.034,0,0,1,793.528,433.009Z" fill="#c8c8ee"></path><path id="Path_34" data-name="Path 34" d="M786.988,444.82a3.452,3.452,0,0,1-3.445,3.445H756.682a3.431,3.431,0,0,1,0-6.862h26.861A3.446,3.446,0,0,1,786.988,444.82Z" fill="#f0f6ff"></path><circle id="Ellipse_12" data-name="Ellipse 12" cx="5.591" cy="5.591" r="5.591" transform="translate(690.404 439.243)" fill="#c8c8ee"></circle><circle id="Ellipse_13" data-name="Ellipse 13" cx="5.591" cy="5.591" r="5.591" transform="translate(672.124 439.243)" fill="#c8c8ee"></circle><circle id="Ellipse_14" data-name="Ellipse 14" cx="5.591" cy="5.591" r="5.591" transform="translate(653.844 439.243)" fill="#0072ff"></circle><circle id="Ellipse_15" data-name="Ellipse 15" cx="5.591" cy="5.591" r="5.591" transform="translate(635.564 439.243)" fill="#c8c8ee"></circle><circle id="Ellipse_16" data-name="Ellipse 16" cx="12.37" cy="12.37" r="12.37" transform="translate(599.83 432.464)" fill="#0072ff"></circle><rect id="Rectangle_6" data-name="Rectangle 6" width="210.033" height="41.417" rx="2.115" transform="translate(589.333 476.789)" fill="#dadaf5"></rect><path id="Path_35" data-name="Path 35" d="M793.528,485.676v23.65a3.034,3.034,0,0,1-3.036,3.036H708.273a3.015,3.015,0,0,1-3.036-3.036v-23.65a3.015,3.015,0,0,1,3.036-3.036h82.219A3.034,3.034,0,0,1,793.528,485.676Z" fill="#c8c8ee"></path><path id="Path_36" data-name="Path 36" d="M786.988,497.487a3.452,3.452,0,0,1-3.445,3.445H756.682a3.431,3.431,0,0,1,0-6.862h26.861A3.446,3.446,0,0,1,786.988,497.487Z" fill="#f0f6ff"></path><circle id="Ellipse_17" data-name="Ellipse 17" cx="5.591" cy="5.591" r="5.591" transform="translate(690.404 491.91)" fill="#c8c8ee"></circle><circle id="Ellipse_18" data-name="Ellipse 18" cx="5.591" cy="5.591" r="5.591" transform="translate(672.124 491.91)" fill="#c8c8ee"></circle><circle id="Ellipse_19" data-name="Ellipse 19" cx="5.591" cy="5.591" r="5.591" transform="translate(653.844 491.91)" fill="#0072ff"></circle><circle id="Ellipse_20" data-name="Ellipse 20" cx="5.591" cy="5.591" r="5.591" transform="translate(635.564 491.91)" fill="#c8c8ee"></circle><circle id="Ellipse_21" data-name="Ellipse 21" cx="12.37" cy="12.37" r="12.37" transform="translate(599.83 485.132)" fill="#0072ff"></circle><rect id="Rectangle_7" data-name="Rectangle 7" width="210.033" height="41.417" rx="2.115" transform="translate(589.333 529.456)" fill="#dadaf5"></rect><path id="Path_37" data-name="Path 37" d="M793.528,538.343v23.65a3.034,3.034,0,0,1-3.036,3.037H708.273a3.016,3.016,0,0,1-3.036-3.037v-23.65a3.015,3.015,0,0,1,3.036-3.036h82.219A3.034,3.034,0,0,1,793.528,538.343Z" fill="#c8c8ee"></path><path id="Path_38" data-name="Path 38" d="M786.988,550.154a3.452,3.452,0,0,1-3.445,3.445H756.682a3.431,3.431,0,0,1,0-6.861h26.861A3.446,3.446,0,0,1,786.988,550.154Z" fill="#f0f6ff"></path><circle id="Ellipse_22" data-name="Ellipse 22" cx="5.591" cy="5.591" r="5.591" transform="translate(690.404 544.577)" fill="#c8c8ee"></circle><circle id="Ellipse_23" data-name="Ellipse 23" cx="5.591" cy="5.591" r="5.591" transform="translate(672.124 544.577)" fill="#c8c8ee"></circle><circle id="Ellipse_24" data-name="Ellipse 24" cx="5.591" cy="5.591" r="5.591" transform="translate(653.844 544.577)" fill="#0072ff"></circle><circle id="Ellipse_25" data-name="Ellipse 25" cx="5.591" cy="5.591" r="5.591" transform="translate(635.564 544.577)" fill="#c8c8ee"></circle><circle id="Ellipse_26" data-name="Ellipse 26" cx="12.37" cy="12.37" r="12.37" transform="translate(597.447 559.569) rotate(-77.504)" fill="#0072ff"></circle><rect id="Rectangle_8" data-name="Rectangle 8" width="210.033" height="41.417" rx="2.115" transform="translate(589.333 582.124)" fill="#dadaf5"></rect><path id="Path_39" data-name="Path 39" d="M793.528,591.01v23.65a3.034,3.034,0,0,1-3.036,3.037H708.273a3.016,3.016,0,0,1-3.036-3.037V591.01a3.015,3.015,0,0,1,3.036-3.035h82.219A3.034,3.034,0,0,1,793.528,591.01Z" fill="#c8c8ee"></path><path id="Path_40" data-name="Path 40" d="M786.988,602.821a3.452,3.452,0,0,1-3.445,3.445H756.682a3.431,3.431,0,0,1,0-6.861h26.861A3.446,3.446,0,0,1,786.988,602.821Z" fill="#f0f6ff"></path><circle id="Ellipse_27" data-name="Ellipse 27" cx="5.591" cy="5.591" r="5.591" transform="translate(690.404 597.244)" fill="#c8c8ee"></circle><circle id="Ellipse_28" data-name="Ellipse 28" cx="5.591" cy="5.591" r="5.591" transform="translate(672.124 597.244)" fill="#c8c8ee"></circle><circle id="Ellipse_29" data-name="Ellipse 29" cx="5.591" cy="5.591" r="5.591" transform="translate(653.844 597.244)" fill="#0072ff"></circle><circle id="Ellipse_30" data-name="Ellipse 30" cx="5.591" cy="5.591" r="5.591" transform="translate(635.564 597.244)" fill="#c8c8ee"></circle><circle id="Ellipse_31" data-name="Ellipse 31" cx="12.37" cy="12.37" r="12.37" transform="translate(599.83 590.466)" fill="#0072ff"></circle><rect id="Rectangle_9" data-name="Rectangle 9" width="210.033" height="41.417" rx="2.115" transform="translate(589.333 634.791)" fill="#dadaf5"></rect><path id="Path_41" data-name="Path 41" d="M793.528,643.678v23.65a3.034,3.034,0,0,1-3.036,3.036H708.273a3.015,3.015,0,0,1-3.036-3.036v-23.65a3.015,3.015,0,0,1,3.036-3.036h82.219A3.034,3.034,0,0,1,793.528,643.678Z" fill="#c8c8ee"></path><path id="Path_42" data-name="Path 42" d="M786.988,655.489a3.452,3.452,0,0,1-3.445,3.445H756.682a3.431,3.431,0,0,1,0-6.862h26.861A3.446,3.446,0,0,1,786.988,655.489Z" fill="#f0f6ff"></path><circle id="Ellipse_32" data-name="Ellipse 32" cx="5.591" cy="5.591" r="5.591" transform="translate(690.404 649.912)" fill="#c8c8ee"></circle><circle id="Ellipse_33" data-name="Ellipse 33" cx="5.591" cy="5.591" r="5.591" transform="translate(672.124 649.912)" fill="#c8c8ee"></circle><circle id="Ellipse_34" data-name="Ellipse 34" cx="5.591" cy="5.591" r="5.591" transform="translate(653.844 649.912)" fill="#0072ff"></circle><circle id="Ellipse_35" data-name="Ellipse 35" cx="5.591" cy="5.591" r="5.591" transform="translate(635.564 649.912)" fill="#c8c8ee"></circle><circle id="Ellipse_36" data-name="Ellipse 36" cx="12.37" cy="12.37" r="12.37" transform="translate(599.83 643.133)" fill="#00c5ff"></circle><g id="Group_4" data-name="Group 4"><path id="Path_43" data-name="Path 43" d="M513.845,708.268a55.357,55.357,0,0,1-26.174-6.676c-17.412-9.423-27.583-25.663-33.05-37.627-7.214-15.788-10.524-32.784-13.025-48.8a579.738,579.738,0,0,1-6.875-96.811c.033-2.495.082-4.992.131-7.49.253-12.973.516-26.387-1.578-39.341-1.973-12.216-7.077-29.227-20.182-40.9-12.281-10.935-29.859-14.051-42.746-7.578a.8.8,0,0,1-.718-1.428c13.46-6.759,31.77-3.546,44.527,7.812,13.456,11.981,18.683,29.364,20.7,41.836,2.115,13.1,1.852,26.582,1.6,39.626-.049,2.495-.1,4.988-.13,7.479a578.132,578.132,0,0,0,6.855,96.544c2.484,15.9,5.766,32.77,12.9,48.381,5.365,11.742,15.334,27.674,32.357,36.885,15.366,8.317,34.014,8.666,47.506.9,8.615-4.962,15.187-12.908,21.543-20.593l.353-.427c7.185-8.686,13.859-16.253,22.783-20.889,9.683-5.03,23.51-10.949,31.763-4.29a.8.8,0,1,1-1,1.244c-7.523-6.07-20.737-.359-30.022,4.465-8.658,4.5-15.216,11.94-22.289,20.489l-.352.427c-6.447,7.794-13.112,15.853-21.977,20.959A45.872,45.872,0,0,1,513.845,708.268Z" fill="#0072ff"></path></g><g id="Group_28" data-name="Group 28"><g id="Group_5" data-name="Group 5"><path id="Path_44" data-name="Path 44" d="M433.138,379.362a5.314,5.314,0,0,1,1.005,1.312,1.207,1.207,0,0,1-.871,1.7c-.848.314-1.733.529-2.6.78-.2.057-.4.086-.756.158.5.27.882.442,1.227.666a1.244,1.244,0,0,1,.081,2.187,6.743,6.743,0,0,1-3.546,1.016c-.548.049-1.106.005-1.65.077a21.245,21.245,0,0,1-9.068-.944,12.955,12.955,0,0,0-7.5.167,13.237,13.237,0,0,0-1.725.706c-2.184.966-4.365,1.941-6.548,2.908a.934.934,0,0,1-.274.007c-.042-.224-.094-.448-.123-.675-.453-3.585-.894-7.172-1.365-10.754-.071-.54.056-.7.606-.86,2.018-.6,4.006-1.294,6-1.965.474-.16.927-.379,1.4-.542a5.83,5.83,0,0,0,2.8-2.217,23.061,23.061,0,0,1,5.235-4.605,22.734,22.734,0,0,1,7.1-3.322,11.833,11.833,0,0,0,4.841-2.475,5.786,5.786,0,0,1,1.474-.875.681.681,0,0,1,1.027.621,3.983,3.983,0,0,1-1.235,3.091,16.105,16.105,0,0,1-5.452,3.455l-.928.435a1.007,1.007,0,0,0,1.025,1.132,33.5,33.5,0,0,0,4.737.086c4.715-.452,9.414-1.065,14.127-1.534a5.362,5.362,0,0,1,2.4.421.723.723,0,0,1,.092,1.359,12.642,12.642,0,0,1-2.8,1.214c-1.792.524-3.611.966-5.436,1.357-1.573.336-3.168.566-4.758.818-.9.142-1.813.233-2.866.365.174.215.246.4.352.42a14.3,14.3,0,0,0,1.54.245,32.841,32.841,0,0,1,4.193.415c1.677.388,1.8,1.605,1.116,2.64a2.234,2.234,0,0,1-1.8.881C433.83,379.261,433.454,379.323,433.138,379.362Z" fill="#fcb3b3"></path><path id="Path_45" data-name="Path 45" d="M391.56,377.71l12.352-3.288a7.228,7.228,0,0,1,8.838,5.122l.192.724a7.213,7.213,0,0,1-5.126,8.823l-12.351,3.288a7.211,7.211,0,0,1-8.819-5.111l-.193-.724A7.223,7.223,0,0,1,391.56,377.71Z" fill="#f0f2fc"></path><path id="Path_46" data-name="Path 46" d="M403.938,392.516a11.589,11.589,0,0,0-11.569-18.588l-41.175,9.31-41.726-28.029a11.589,11.589,0,1,0-12.924,19.24l45.871,30.814a11.6,11.6,0,0,0,9.018,1.684l46.046-10.41A11.547,11.547,0,0,0,403.938,392.516Z" fill="#0072ff"></path></g><g id="Group_9" data-name="Group 9"><g id="Group_6" data-name="Group 6"><path id="Path_47" data-name="Path 47" d="M299.8,690.892l11.643.183c.764,8.235-6.309,25.785,4.656,30.988,13.422,6.367,18.932,8.683,21.536,16.205a1.325,1.325,0,0,1-1.247,1.777l-38.835-.608a1.278,1.278,0,0,1-1.248-1.543C297.124,734.147,301.484,697.821,299.8,690.892Z" fill="#0072ff"></path><path id="Path_48" data-name="Path 48" d="M237.145,689.061l11.641.29c.688,8.242-6.547,25.726,4.37,31.029,13.363,6.491,18.851,8.858,21.385,16.4a1.325,1.325,0,0,1-1.263,1.766l-38.828-.966a1.278,1.278,0,0,1-1.233-1.555C234.067,732.289,238.762,696.005,237.145,689.061Z" fill="#0072ff"></path></g><g id="Group_8" data-name="Group 8"><g id="Group_7" data-name="Group 7"><path id="Path_49" data-name="Path 49" d="M314.069,703.463c-.446.992-8.293,1.046-13.084.974-2.13-.024-3.655-.074-3.655-.074l-8.012-64.406c-.412-4.681-1.081-9.338-1.842-13.977C283.921,604.523,283.5,518.3,283.5,518.3l-8.78-.318s-10.245,70.163-12.068,89.669a77.077,77.077,0,0,1-1.509,9.261,37.623,37.623,0,0,0-.721,10.931c.311,7.413-8.691,76.625-8.691,76.625l-16.5-1.551s2.029-83.618,3.667-101.111c1.411-15.03,1.021-95.4.877-117.653,0-.338,0-.666-.006-.973-.024-3.022-.031-4.753-.031-4.753l1.033.067,72.549,3.9s.008.882.008,2.469c.005.615.006,1.352.016,2.172l0,.1c-.005.184,0,.369,0,.564.016,1.741.023,3.871.032,6.32.1,22.976.4,73.315.851,87.932C314.889,601.141,314.678,702.086,314.069,703.463Z" fill="#002450"></path></g><path id="Path_50" data-name="Path 50" d="M261.139,616.917a76.1,76.1,0,0,0,1.512-9.269c1.737-18.633,11.227-83.913,12.066-89.667l-8.288,0a43.447,43.447,0,0,0-4.64,14.643c-1.532,13.8-2.1,27.687-2.674,41.557-2.052,50.776-7.786,79.258-9.877,130.05l2.495.235s9-69.215,8.687-76.621A37.764,37.764,0,0,1,261.139,616.917Z" fill="#002450"></path><path id="Path_51" data-name="Path 51" d="M291.362,609.577c-3.346-29.842-7.533-61.906-1.6-91.109L283.5,518.3c.059,9.511.642,87.549,3.976,107.677.764,4.642,1.429,9.294,1.84,13.98l8.014,64.407s1.526.046,3.653.072C299.278,665.57,295.7,648.251,291.362,609.577Z" fill="#002450"></path></g></g><g id="Group_12" data-name="Group 12"><path id="Path_52" data-name="Path 52" d="M313.3,489.96c-5.424,1.387-14.728,4.732-31.352,3.167-12.813-1.21-34.111-2.219-42.183-8.972,0-.338,0-.666-.006-.973-.024-3.022-.031-4.753-.031-4.753l1.033.067c8.023,7.028,29.125,6.537,41.927,7.747,16.41,1.539,25.185.853,30.63-1.373.01,0,.031,0,.041-.009,0,.829-.017,1.475-.025,2.181l0,.1C313.316,487.9,313.3,488.742,313.3,489.96Z" fill="#002450"></path><rect id="Rectangle_10" data-name="Rectangle 10" width="2.206" height="13.536" transform="translate(265.799 481.468) rotate(5.38)" fill="#002450"></rect><rect id="Rectangle_11" data-name="Rectangle 11" width="2.206" height="13.536" transform="translate(296.323 484.958) rotate(5.38)" fill="#002450"></rect><g id="Group_11" data-name="Group 11"><g id="Group_10" data-name="Group 10"><path id="Path_53" data-name="Path 53" d="M284.887,496.749l-7.8-.712a2.281,2.281,0,0,1-2.064-2.476l.371-4.067a2.283,2.283,0,0,1,2.479-2.063l7.8.711a2.282,2.282,0,0,1,2.063,2.478l-.371,4.067A2.282,2.282,0,0,1,284.887,496.749Zm-7.091-8.525a1.484,1.484,0,0,0-1.61,1.342l-.371,4.067a1.481,1.481,0,0,0,1.34,1.61l7.8.712a1.483,1.483,0,0,0,1.61-1.341l.372-4.067a1.484,1.484,0,0,0-1.341-1.611Z" fill="#e4e8fd"></path></g></g><rect id="Rectangle_12" data-name="Rectangle 12" width="0.79" height="16.294" transform="matrix(0.996, 0.094, -0.094, 0.996, 280.289, 495.992)" fill="#e4e8fd"></rect></g><g id="Group_13" data-name="Group 13"><path id="Path_54" data-name="Path 54" d="M313.4,483.378c-.587,9.769-74.081,4.392-73.481-5.377,3.707-62.817-12.475-107.422-2.806-117.533,1.075-1.125,4.616-8.017,20.362-13.656.622-.225,1.271-.45,1.934-.661.216-.075.446-.149.675-.224.486-.121.931-.217,1.4-.312.04,0,.108-.024.148-.023A73.417,73.417,0,0,1,270.2,344.5a71.357,71.357,0,0,1,7.214-.136c.322.008.643.016.964.038.63.016,1.258.059,1.9.1.508.039,1.017.052,1.564.147a59.8,59.8,0,0,1,6.933.889c.761.14,1.534.294,2.294.461q.979.205,1.958.452c6.725,1.7,13.068,4.679,17.322,9.68C314.911,382.074,312.407,437.631,313.4,483.378Z" fill="#0072ff"></path></g><g id="Group_27" data-name="Group 27"><g id="Group_16" data-name="Group 16"><path id="Path_55" data-name="Path 55" d="M293.024,346.453a12.352,12.352,0,0,1-5.037,7.215,21.867,21.867,0,0,1-12.366,3.971c-.443.015-.9.017-1.34.006-8.653-.223-15.505-4.755-16.81-10.833.622-.225,1.271-.45,1.934-.661.216-.075.446-.149.675-.224.486-.121.931-.217,1.4-.312.04,0,.108-.024.148-.023A73.417,73.417,0,0,1,270.2,344.5c2.709-.051,5.457-.1,8.178-.1.63.016,1.258.059,1.9.1.508.039,1.017.052,1.564.147a59.8,59.8,0,0,1,6.933.889c.761.14,1.534.294,2.294.461Q292.045,346.206,293.024,346.453Z" fill="#f0f6ff"></path><path id="Path_56" data-name="Path 56" d="M291.066,346c-1.2,5.277-7.628,9.427-15.5,9.64-8.235.23-15.138-3.928-16.16-9.49.216-.075.446-.149.675-.224.486-.121.931-.217,1.4-.312.04,0,.108-.024.148-.023q1.839-.355,3.715-.588l.776-30.176a8.876,8.876,0,1,1,17.747.456l-.758,29.467c1.858.168,3.755.431,5.662.789C289.533,345.68,290.306,345.834,291.066,346Z" fill="url(#linear-gradient)"></path><g id="Group_15" data-name="Group 15"><path id="Path_57" data-name="Path 57" d="M290.3,297.074l2.167,21.782a16.323,16.323,0,1,1-32.486,3.233l-2.168-21.781a16.324,16.324,0,0,1,32.487-3.234Z" fill="url(#linear-gradient-2)"></path><path id="Path_58" data-name="Path 58" d="M260.662,314.963c-1.617.265-3.04-1.037-4-2.365a19.017,19.017,0,0,1-3.288-7.789c-.2-1.157-.2-2.613.775-3.316a2.121,2.121,0,0,1,2.038-.218,4.639,4.639,0,0,1,1.731,1.234,8.961,8.961,0,0,1,2.35,5.543Z" fill="url(#linear-gradient-3)"></path><g id="Group_14" data-name="Group 14"><path id="Path_59" data-name="Path 59" d="M297.488,297.287c-7.077,4.683-33.826.569-34.287.373-.044,0-.1.122-.12.338-.272,2.2.06,14.436-1.119,16.289-1.282,2.019-1.236-2.408-1.634-3.516-.376-1.1-2.14-8.1-2.14-8.1a19.546,19.546,0,0,0-1.767-6.04c-1.459-2.822-4.289-9.4-1.038-13.785,3.23-4.39,7.3-2,7.3-2s9.343-10.646,19.2-9.587,5.684,8.722,5.684,8.722,4.971-1.323,8.542-.527c1.8.366,3.219,1.285,3.5,3.145C299.614,282.6,304.568,292.584,297.488,297.287Z" fill="#002450"></path><path id="Path_60" data-name="Path 60" d="M297.488,297.287c-7.077,4.683-33.826.569-34.287.373-.044,0-.1.122-.12.338a2.852,2.852,0,0,1-.413-.476c.628-.639,2.12-.258,2.948-.245,1.2.025,2.4.028,3.582-.013a44.978,44.978,0,0,0,7.115-.683,25.546,25.546,0,0,0,13.239-6.351,29.107,29.107,0,0,0,6.56-10.777c1.8.366,3.219,1.285,3.5,3.145C299.614,282.6,304.568,292.584,297.488,297.287Z" fill="#002450"></path></g></g></g><g id="Group_26" data-name="Group 26"><g id="Group_17" data-name="Group 17"><path id="Path_61" data-name="Path 61" d="M287.059,305.73a7.891,7.891,0,0,1-5.809-.412c-.365-.188-.341-.518.048-.651a7.95,7.95,0,0,1,5.8.411C287.471,305.265,287.448,305.6,287.059,305.73Z" fill="#121c7c"></path></g><g id="Group_18" data-name="Group 18"><path id="Path_62" data-name="Path 62" d="M271.666,305.307a7.88,7.88,0,0,1-5.777.768c-.4-.106-.437-.44-.081-.653a7.932,7.932,0,0,1,5.765-.768C271.969,304.76,272.022,305.093,271.666,305.307Z" fill="#121c7c"></path></g><g id="Group_25" data-name="Group 25"><g id="Group_19" data-name="Group 19"><path id="Path_63" data-name="Path 63" d="M274.534,331.107a5.119,5.119,0,0,1-4.387-2.6.616.616,0,0,1,1.078-.6,3.829,3.829,0,0,0,4.676,1.7.617.617,0,1,1,.415,1.162A5.422,5.422,0,0,1,274.534,331.107Z" fill="#fff"></path></g><g id="Group_20" data-name="Group 20"><path id="Path_64" data-name="Path 64" d="M272.784,313.844a1.173,1.173,0,1,1-1.185-1.159A1.172,1.172,0,0,1,272.784,313.844Z" fill="#121c7c"></path></g><g id="Group_21" data-name="Group 21"><path id="Path_65" data-name="Path 65" d="M284.4,313.713a1.173,1.173,0,1,1-1.185-1.159A1.173,1.173,0,0,1,284.4,313.713Z" fill="#121c7c"></path></g><g id="Group_22" data-name="Group 22"><path id="Path_66" data-name="Path 66" d="M284.474,320.287a5.838,5.838,0,1,1,5.773-5.9A5.845,5.845,0,0,1,284.474,320.287Zm-.12-10.688a4.851,4.851,0,1,0,4.9,4.8A4.855,4.855,0,0,0,284.354,309.6Z" fill="#fff"></path></g><g id="Group_23" data-name="Group 23"><path id="Path_67" data-name="Path 67" d="M271.156,320.437a5.838,5.838,0,1,1,5.772-5.9A5.845,5.845,0,0,1,271.156,320.437Zm-.12-10.689a4.851,4.851,0,1,0,4.9,4.8A4.857,4.857,0,0,0,271.036,309.748Z" fill="#fff"></path></g><g id="Group_24" data-name="Group 24"><path id="Path_68" data-name="Path 68" d="M276.64,314.907l-.661-.733A2.687,2.687,0,0,1,278,313.3a2.074,2.074,0,0,1,1.455.91l-.788.6a1.126,1.126,0,0,0-.76-.523A1.853,1.853,0,0,0,276.64,314.907Z" fill="#fff"></path></g></g></g></g></g><g id="Group_114" data-name="Group 114"><g id="Group_113" data-name="Group 113" style="isolation: isolate"><g id="Group_29" data-name="Group 29"><path id="Path_69" data-name="Path 69" d="M289.071,409.443l.011,3.862a2.408,2.408,0,0,0,1.41,1.979l57.309,33.3a7.556,7.556,0,0,0,6.872,0l83.161-48.02a2.421,2.421,0,0,0,1.433-2l-.011-3.862a2.43,2.43,0,0,1-1.422,2l-83.173,48.02a7.556,7.556,0,0,1-6.872,0L290.48,411.421A2.4,2.4,0,0,1,289.071,409.443Z" fill="#dadaf5"></path></g><g id="Group_30" data-name="Group 30"><path id="Path_70" data-name="Path 70" d="M290.505,407.446c-1.9,1.1-1.909,2.878-.022,3.974L347.8,444.726a7.563,7.563,0,0,0,6.861,0l83.172-48.019c1.9-1.1,1.909-2.878.022-3.974l-57.312-33.307a7.569,7.569,0,0,0-6.861,0Z" fill="#eaeafa"></path></g><g id="Group_31" data-name="Group 31"><path id="Path_71" data-name="Path 71" d="M328.639,392.049c-.357.207-.366.528-.018.731l15.525,9.277a1.389,1.389,0,0,0,1.269,0l25.142-14.516c.351-.2.36-.532.011-.735l-15.525-9.278a1.39,1.39,0,0,0-1.262.008Z" fill="#dadaf5"></path></g><g id="Group_112" data-name="Group 112"><g id="Group_32" data-name="Group 32"><path id="Path_72" data-name="Path 72" d="M356.149,438.863c.337-.194.345-.51.011-.705l-1.653-.96a1.342,1.342,0,0,0-1.217,0l-3.545,2.046c-.336.2-.338.507,0,.7l1.652.961a1.333,1.333,0,0,0,1.211,0Z" fill="#121c7c"></path></g><g id="Group_33" data-name="Group 33"><path id="Path_73" data-name="Path 73" d="M352.241,436.592c.336-.194.345-.511.01-.705l-3.521-2.047a1.347,1.347,0,0,0-1.218,0l-3.544,2.047a.37.37,0,0,0,0,.7l3.522,2.046a1.324,1.324,0,0,0,1.21,0Z" fill="#121c7c"></path></g><g id="Group_34" data-name="Group 34"><path id="Path_74" data-name="Path 74" d="M349.175,431.836a.37.37,0,0,0,0-.7l-3.521-2.047a1.333,1.333,0,0,0-1.211,0l-6.112,3.529a.37.37,0,0,0,0,.7l3.522,2.047a1.331,1.331,0,0,0,1.21,0Z" fill="#121c7c"></path></g><g id="Group_35" data-name="Group 35"><path id="Path_75" data-name="Path 75" d="M341.65,416.421c.337-.195.345-.5.011-.7l-3.968-2.3a1.324,1.324,0,0,0-1.21,0l-3.545,2.046a.37.37,0,0,0,0,.7l3.967,2.306a1.315,1.315,0,0,0,1.2,0Z" fill="#002450"></path></g><g id="Group_36" data-name="Group 36"><path id="Path_76" data-name="Path 76" d="M348.113,419.572c.337-.194.345-.51.01-.7l-3.521-2.046a1.342,1.342,0,0,0-1.217,0l-3.538,2.042a.37.37,0,0,0,0,.7l3.521,2.046a1.333,1.333,0,0,0,1.211,0Z" fill="#002450"></path></g><g id="Group_37" data-name="Group 37"><path id="Path_77" data-name="Path 77" d="M350.585,424.5a.375.375,0,0,0,0-.709l-3.521-2.046a1.344,1.344,0,0,0-1.218,0l-3.537,2.042c-.337.2-.345.511-.011.705l3.522,2.047a1.358,1.358,0,0,0,1.223,0Z" fill="#002450"></path></g><g id="Group_38" data-name="Group 38"><path id="Path_78" data-name="Path 78" d="M344.77,427.854a.373.373,0,0,0,0-.705l-3.521-2.047a1.333,1.333,0,0,0-1.211,0l-7.34,4.238a.37.37,0,0,0,0,.7l3.521,2.046a1.339,1.339,0,0,0,1.217,0Z" fill="#002450"></path></g><g id="Group_43" data-name="Group 43" style="isolation: isolate"><g id="Group_39" data-name="Group 39"><path id="Path_79" data-name="Path 79" d="M362,435.487c.337-.2.345-.511.011-.7l-1.653-.96a1.342,1.342,0,0,0-1.217,0l-3.544,2.047a.37.37,0,0,0,0,.7l1.652.96a1.33,1.33,0,0,0,1.211,0Z" fill="#121c7c"></path></g><g id="Group_40" data-name="Group 40"><path id="Path_80" data-name="Path 80" d="M367.852,432.106a.37.37,0,0,0,0-.7l-1.652-.96a1.333,1.333,0,0,0-1.211,0l-3.545,2.046c-.336.2-.344.511-.01.706l1.653.96a1.343,1.343,0,0,0,1.216,0Z" fill="#121c7c"></path></g><g id="Group_41" data-name="Group 41"><path id="Path_81" data-name="Path 81" d="M358.109,433.2c.336-.194.345-.511.01-.705l-3.521-2.046a1.344,1.344,0,0,0-1.218,0l-3.537,2.043a.37.37,0,0,0,0,.7l3.521,2.047a1.333,1.333,0,0,0,1.211,0Z" fill="#121c7c"></path></g><g id="Group_42" data-name="Group 42"><path id="Path_82" data-name="Path 82" d="M363.726,429.961c.337-.194.345-.511.01-.7l-3.521-2.047a1.345,1.345,0,0,0-1.217,0l-3.545,2.047a.37.37,0,0,0,0,.7l3.522,2.046a1.324,1.324,0,0,0,1.21,0Z" fill="#121c7c"></path></g></g><g id="Group_44" data-name="Group 44"><path id="Path_83" data-name="Path 83" d="M329.584,423.387c.337-.194.345-.5.011-.7l-3.968-2.306a1.331,1.331,0,0,0-1.21,0l-3.545,2.047a.37.37,0,0,0,0,.7l3.967,2.305a1.312,1.312,0,0,0,1.2,0Z" fill="#002450"></path></g><g id="Group_45" data-name="Group 45"><path id="Path_84" data-name="Path 84" d="M335.617,419.9c.337-.195.345-.5.011-.7L331.66,416.9a1.327,1.327,0,0,0-1.21,0l-3.545,2.046c-.337.2-.345.511-.01.705l3.967,2.306a1.328,1.328,0,0,0,1.21-.008Z" fill="#002450"></path></g><g id="Group_46" data-name="Group 46"><path id="Path_85" data-name="Path 85" d="M341.467,423.227a.37.37,0,0,0,0-.7l-3.522-2.047a1.331,1.331,0,0,0-1.21,0l-9.472,5.469a.37.37,0,0,0,0,.7l3.521,2.046a1.33,1.33,0,0,0,1.211,0Z" fill="#002450"></path></g><g id="Group_47" data-name="Group 47"><path id="Path_86" data-name="Path 86" d="M356.1,421.314a.373.373,0,0,0,0-.7l-3.521-2.046a1.327,1.327,0,0,0-1.211,0l-3.538,2.042c-.337.195-.345.511-.01.7l3.521,2.047a1.36,1.36,0,0,0,1.224,0Z" fill="#121c7c"></path></g><g id="Group_48" data-name="Group 48"><path id="Path_87" data-name="Path 87" d="M360.462,425.319c.337-.194.345-.51.011-.7l-3.522-2.046a1.339,1.339,0,0,0-1.217,0l-3.538,2.042c-.336.195-.345.511-.01.7l3.521,2.047a1.347,1.347,0,0,0,1.218,0Z" fill="#121c7c"></path></g><g id="Group_49" data-name="Group 49"><path id="Path_88" data-name="Path 88" d="M354.951,428.5c.337-.194.345-.51.01-.705l-3.521-2.046a1.342,1.342,0,0,0-1.217,0l-3.538,2.042c-.337.2-.345.511-.011.705l3.522,2.047a1.345,1.345,0,0,0,1.217,0Z" fill="#121c7c"></path></g><g id="Group_50" data-name="Group 50"><path id="Path_89" data-name="Path 89" d="M373.7,428.73a.37.37,0,0,0,0-.7l-1.652-.96a1.327,1.327,0,0,0-1.211,0l-3.544,2.046a.37.37,0,0,0,0,.7l1.652.961a1.33,1.33,0,0,0,1.211,0Z" fill="#121c7c"></path></g><g id="Group_51" data-name="Group 51"><path id="Path_90" data-name="Path 90" d="M366.08,422.076a.37.37,0,0,0,0-.7l-3.522-2.047a1.333,1.333,0,0,0-1.211,0l-3.544,2.047c-.337.194-.345.511-.011.7l3.522,2.046a1.342,1.342,0,0,0,1.217,0Z" fill="#121c7c"></path></g><g id="Group_52" data-name="Group 52"><path id="Path_91" data-name="Path 91" d="M361.714,418.071a.373.373,0,0,0,0-.705l-3.521-2.047a1.333,1.333,0,0,0-1.211,0l-3.544,2.047c-.337.194-.345.511-.011.705l3.522,2.046a1.351,1.351,0,0,0,1.223,0Z" fill="#121c7c"></path></g><g id="Group_53" data-name="Group 53"><path id="Path_92" data-name="Path 92" d="M397.093,415.224c.337-.194.345-.51.011-.7l-1.653-.96a1.342,1.342,0,0,0-1.217,0l-3.538,2.042c-.337.195-.345.511-.011.7l1.653.961a1.345,1.345,0,0,0,1.217,0Z" fill="#121c7c"></path></g><g id="Group_54" data-name="Group 54"><path id="Path_93" data-name="Path 93" d="M348.244,412.614c.337-.2.345-.5.011-.7l-3.968-2.3a1.324,1.324,0,0,0-1.21,0L338.41,412.3a.37.37,0,0,0,0,.7l3.967,2.306a1.318,1.318,0,0,0,1.2,0Z" fill="#002450"></path></g><g id="Group_55" data-name="Group 55"><path id="Path_94" data-name="Path 94" d="M388.435,389.409c.337-.194.345-.5.011-.7l-3.967-2.306a1.333,1.333,0,0,0-1.211,0l-3.644,2.1a.37.37,0,0,0,0,.7l3.967,2.306a1.318,1.318,0,0,0,1.2,0Z" fill="#121c7c"></path></g><g id="Group_56" data-name="Group 56"><path id="Path_95" data-name="Path 95" d="M382.561,392.8c.33-.191.345-.5.01-.7L378.6,389.8a1.339,1.339,0,0,0-1.211,0l-4.666,2.694a.37.37,0,0,0,0,.7l3.967,2.306a1.318,1.318,0,0,0,1.2,0Z" fill="#121c7c"></path></g><g id="Group_57" data-name="Group 57"><path id="Path_96" data-name="Path 96" d="M387.413,396.882a.37.37,0,0,0,0-.7l-3.522-2.046a1.324,1.324,0,0,0-1.21,0l-3.545,2.046a.37.37,0,0,0,0,.7l3.522,2.047a1.333,1.333,0,0,0,1.211,0Z" fill="#121c7c"></path></g><g id="Group_58" data-name="Group 58"><path id="Path_97" data-name="Path 97" d="M408.8,408.467a.37.37,0,0,0,0-.7l-1.653-.96a1.331,1.331,0,0,0-1.21,0l-3.545,2.046a.371.371,0,0,0,0,.7l1.653.96a1.331,1.331,0,0,0,1.21,0Z" fill="#121c7c"></path></g><g id="Group_59" data-name="Group 59"><path id="Path_98" data-name="Path 98" d="M402.948,411.844a.37.37,0,0,0,0-.7l-1.653-.961a1.331,1.331,0,0,0-1.21,0l-3.545,2.047a.37.37,0,0,0,0,.7l1.653.961a1.328,1.328,0,0,0,1.21,0Z" fill="#121c7c"></path></g><g id="Group_60" data-name="Group 60"><path id="Path_99" data-name="Path 99" d="M399.763,402.629a.37.37,0,0,0,0-.7l-3.522-2.046a1.327,1.327,0,0,0-1.211,0l-3.544,2.046c-.337.194-.345.511-.011.7L395,404.68a1.345,1.345,0,0,0,1.217,0Z" fill="#121c7c"></path></g><g id="Group_61" data-name="Group 61"><path id="Path_100" data-name="Path 100" d="M395.4,398.624a.373.373,0,0,0,0-.7l-3.521-2.046a1.327,1.327,0,0,0-1.211,0l-3.544,2.046c-.337.194-.345.511-.011.7l3.522,2.047a1.358,1.358,0,0,0,1.223,0Z" fill="#121c7c"></path></g><g id="Group_62" data-name="Group 62"><path id="Path_101" data-name="Path 101" d="M416.942,386.185a.373.373,0,0,0,0-.7l-3.522-2.046a1.325,1.325,0,0,0-1.21,0l-7.334,4.234c-.336.194-.344.51-.01.7l3.522,2.046a1.351,1.351,0,0,0,1.223,0Z" fill="#121c7c"></path></g><g id="Group_63" data-name="Group 63"><path id="Path_102" data-name="Path 102" d="M420.492,401.715c.337-.2.339-.507,0-.7l-1.652-.961a1.333,1.333,0,0,0-1.211,0l-3.544,2.047a.37.37,0,0,0,0,.7l1.652.96a1.327,1.327,0,0,0,1.211,0Z" fill="#121c7c"></path></g><g id="Group_64" data-name="Group 64"><path id="Path_103" data-name="Path 103" d="M399.506,389.9c.336-.194.344-.511.01-.7l-3.522-2.047a1.345,1.345,0,0,0-1.217,0l-3.538,2.043a.37.37,0,0,0,0,.7l3.522,2.047a1.333,1.333,0,0,0,1.211,0Z" fill="#121c7c"></path></g><g id="Group_65" data-name="Group 65"><path id="Path_104" data-name="Path 104" d="M401.443,395.133a.373.373,0,0,0,0-.7l-3.522-2.046a1.327,1.327,0,0,0-1.211,0l-3.544,2.046a.37.37,0,0,0,0,.7l3.522,2.047a1.345,1.345,0,0,0,1.217,0Z" fill="#121c7c"></path></g><g id="Group_76" data-name="Group 76" style="isolation: isolate"><g id="Group_66" data-name="Group 66"><path id="Path_105" data-name="Path 105" d="M408.637,404.032c.336-.2.345-.511.01-.705l-3.521-2.047a1.347,1.347,0,0,0-1.218,0l-3.544,2.046a.371.371,0,0,0,0,.7l3.522,2.046a1.324,1.324,0,0,0,1.21,0Z" fill="#121c7c"></path></g><g id="Group_67" data-name="Group 67"><path id="Path_106" data-name="Path 106" d="M414.247,400.792c.337-.194.345-.51.011-.7l-3.522-2.046a1.342,1.342,0,0,0-1.217,0l-3.538,2.042c-.337.2-.345.511-.01.7l3.521,2.047a1.345,1.345,0,0,0,1.217,0Z" fill="#121c7c"></path></g><g id="Group_68" data-name="Group 68"><path id="Path_107" data-name="Path 107" d="M426.34,398.338c.337-.194.346-.51.011-.705l-1.652-.96a1.344,1.344,0,0,0-1.218,0l-3.544,2.046a.37.37,0,0,0,0,.7l1.652.961a1.333,1.333,0,0,0,1.211,0Z" fill="#121c7c"></path></g><g id="Group_69" data-name="Group 69"><path id="Path_108" data-name="Path 108" d="M405.373,399.39a.37.37,0,0,0,0-.7l-3.521-2.047a1.333,1.333,0,0,0-1.211,0l-3.538,2.043c-.337.194-.345.511-.01.705l3.521,2.046a1.342,1.342,0,0,0,1.217,0Z" fill="#121c7c"></path></g><g id="Group_70" data-name="Group 70"><path id="Path_109" data-name="Path 109" d="M420.194,397.359c.337-.2.339-.507,0-.7l-3.521-2.047a1.333,1.333,0,0,0-1.211,0l-3.538,2.043c-.336.194-.345.51-.01.705l3.521,2.046a1.341,1.341,0,0,0,1.218,0Z" fill="#121c7c"></path></g><g id="Group_71" data-name="Group 71"><path id="Path_110" data-name="Path 110" d="M432.2,394.958a.37.37,0,0,0,0-.7l-1.652-.96a1.327,1.327,0,0,0-1.211,0l-3.544,2.046c-.337.194-.345.511-.011.705l1.653.96a1.339,1.339,0,0,0,1.217,0Z" fill="#121c7c"></path></g><g id="Group_72" data-name="Group 72"><path id="Path_111" data-name="Path 111" d="M411.426,395.895a.37.37,0,0,0,0-.7l-3.522-2.046a1.324,1.324,0,0,0-1.21,0l-3.545,2.046c-.336.2-.345.511-.01.7l3.521,2.047a1.347,1.347,0,0,0,1.218,0Z" fill="#121c7c"></path></g><g id="Group_73" data-name="Group 73"><path id="Path_112" data-name="Path 112" d="M428.287,392.687a.371.371,0,0,0,0-.7l-3.522-2.046a1.331,1.331,0,0,0-1.21,0l-6.113,3.529c-.336.194-.345.511-.01.705l3.521,2.046a1.344,1.344,0,0,0,1.218,0Z" fill="#121c7c"></path></g><g id="Group_74" data-name="Group 74"><path id="Path_113" data-name="Path 113" d="M417.037,392.656a.37.37,0,0,0,0-.7l-3.521-2.047a1.333,1.333,0,0,0-1.211,0l-3.544,2.047a.37.37,0,0,0,0,.7l3.521,2.047a1.333,1.333,0,0,0,1.211,0Z" fill="#121c7c"></path></g><g id="Group_75" data-name="Group 75"><path id="Path_114" data-name="Path 114" d="M422.654,389.413a.37.37,0,0,0,0-.7l-3.522-2.047a1.333,1.333,0,0,0-1.211,0l-3.544,2.047c-.337.194-.345.51-.011.7l3.522,2.046a1.342,1.342,0,0,0,1.217,0Z" fill="#121c7c"></path></g></g><g id="Group_94" data-name="Group 94" style="isolation: isolate"><g id="Group_77" data-name="Group 77"><path id="Path_115" data-name="Path 115" d="M386.181,417a.37.37,0,0,0,0-.7l-3.521-2.046a1.327,1.327,0,0,0-1.211,0l-3.545,2.046a.37.37,0,0,0,0,.7l3.521,2.047a1.333,1.333,0,0,0,1.211,0Z" fill="#121c7c"></path></g><g id="Group_78" data-name="Group 78"><path id="Path_116" data-name="Path 116" d="M377.307,415.594a.37.37,0,0,0,0-.7l-3.521-2.047a1.333,1.333,0,0,0-1.211,0l-3.545,2.047c-.336.194-.344.51-.01.7l3.522,2.046a1.342,1.342,0,0,0,1.217,0Z" fill="#121c7c"></path></g><g id="Group_79" data-name="Group 79"><path id="Path_117" data-name="Path 117" d="M391.792,413.757c.337-.194.345-.511.01-.7l-3.521-2.046a1.342,1.342,0,0,0-1.217,0l-3.538,2.043c-.337.194-.345.511-.011.7l3.522,2.047a1.345,1.345,0,0,0,1.217,0Z" fill="#121c7c"></path></g><g id="Group_80" data-name="Group 80"><path id="Path_118" data-name="Path 118" d="M382.918,412.355a.371.371,0,0,0,0-.7l-3.522-2.046a1.331,1.331,0,0,0-1.21,0l-3.538,2.043c-.337.194-.345.51-.011.705l3.522,2.046a1.342,1.342,0,0,0,1.217,0Z" fill="#121c7c"></path></g><g id="Group_81" data-name="Group 81"><path id="Path_119" data-name="Path 119" d="M372.942,411.589a.373.373,0,0,0,0-.7l-3.521-2.047a1.333,1.333,0,0,0-1.211,0l-3.545,2.047c-.336.194-.345.51-.01.7l3.521,2.046a1.36,1.36,0,0,0,1.224,0Z" fill="#121c7c"></path></g><g id="Group_82" data-name="Group 82"><path id="Path_120" data-name="Path 120" d="M397.409,410.514a.37.37,0,0,0,0-.7l-3.522-2.047a1.331,1.331,0,0,0-1.21,0l-3.545,2.047a.37.37,0,0,0,0,.7l3.522,2.046a1.324,1.324,0,0,0,1.21,0Z" fill="#121c7c"></path></g><g id="Group_83" data-name="Group 83"><path id="Path_121" data-name="Path 121" d="M364.958,409.847c.336-.194.345-.511.01-.7l-3.521-2.046a1.344,1.344,0,0,0-1.218,0l-3.544,2.047a.37.37,0,0,0,0,.7l3.522,2.046a1.327,1.327,0,0,0,1.21,0Z" fill="#121c7c"></path></g><g id="Group_84" data-name="Group 84"><path id="Path_122" data-name="Path 122" d="M388.535,409.112a.371.371,0,0,0,0-.7l-3.522-2.046a1.331,1.331,0,0,0-1.21,0l-3.545,2.046c-.336.2-.345.511-.01.7l3.521,2.047a1.345,1.345,0,0,0,1.217,0Z" fill="#121c7c"></path></g><g id="Group_85" data-name="Group 85"><path id="Path_123" data-name="Path 123" d="M378.552,408.349a.373.373,0,0,0,0-.7l-3.522-2.046a1.333,1.333,0,0,0-1.211,0l-3.538,2.043c-.336.194-.344.51-.01.705l3.522,2.046a1.358,1.358,0,0,0,1.223,0Z" fill="#121c7c"></path></g><g id="Group_86" data-name="Group 86"><path id="Path_124" data-name="Path 124" d="M403.02,407.275c.336-.2.344-.511.01-.7l-3.521-2.047a1.347,1.347,0,0,0-1.218,0l-3.538,2.043c-.336.194-.345.51-.01.7l3.521,2.046a1.341,1.341,0,0,0,1.218,0Z" fill="#121c7c"></path></g><g id="Group_87" data-name="Group 87"><path id="Path_125" data-name="Path 125" d="M370.568,406.608c.337-.2.345-.511.011-.7l-3.522-2.047a1.345,1.345,0,0,0-1.217,0L362.3,405.9c-.337.194-.345.51-.01.7l3.521,2.046a1.339,1.339,0,0,0,1.217,0Z" fill="#121c7c"></path></g><g id="Group_88" data-name="Group 88"><path id="Path_126" data-name="Path 126" d="M394.146,405.872a.37.37,0,0,0,0-.7l-3.521-2.046a1.327,1.327,0,0,0-1.211,0l-3.538,2.042c-.336.2-.345.511-.01.705l3.521,2.047a1.347,1.347,0,0,0,1.218,0Z" fill="#121c7c"></path></g><g id="Group_89" data-name="Group 89"><path id="Path_127" data-name="Path 127" d="M384.169,405.106a.373.373,0,0,0,0-.7l-3.522-2.046a1.324,1.324,0,0,0-1.21,0L375.89,404.4c-.337.2-.345.511-.01.7l3.521,2.047a1.36,1.36,0,0,0,1.224,0Z" fill="#121c7c"></path></g><g id="Group_90" data-name="Group 90"><path id="Path_128" data-name="Path 128" d="M376.185,403.365a.37.37,0,0,0,0-.7l-3.521-2.046a1.333,1.333,0,0,0-1.211,0l-3.544,2.046a.37.37,0,0,0,0,.7l3.521,2.046a1.333,1.333,0,0,0,1.211,0Z" fill="#121c7c"></path></g><g id="Group_91" data-name="Group 91"><path id="Path_129" data-name="Path 129" d="M389.78,401.867a.373.373,0,0,0,0-.705l-3.521-2.046a1.327,1.327,0,0,0-1.211,0l-3.538,2.042c-.336.2-.345.511-.01.705l3.521,2.047a1.36,1.36,0,0,0,1.224,0Z" fill="#121c7c"></path></g><g id="Group_92" data-name="Group 92"><path id="Path_130" data-name="Path 130" d="M381.8,400.126c.337-.2.345-.511.01-.706l-3.521-2.046a1.342,1.342,0,0,0-1.217,0l-3.538,2.042a.37.37,0,0,0,0,.7l3.521,2.046a1.33,1.33,0,0,0,1.211,0Z" fill="#121c7c"></path></g><g id="Group_93" data-name="Group 93"><path id="Path_131" data-name="Path 131" d="M374.911,397.218c.343-.2.351-.507.017-.7l-3.968-2.3a1.327,1.327,0,0,0-1.217,0L345.624,408.14c-.336.194-.345.51-.01.7l3.967,2.3a1.33,1.33,0,0,0,1.211-.007Z" fill="#002450"></path></g></g><g id="Group_95" data-name="Group 95"><path id="Path_132" data-name="Path 132" d="M391.245,418.6c.336-.2.345-.511.011-.705l-1.653-.961a1.345,1.345,0,0,0-1.217,0l-3.538,2.043c-.337.194-.345.511-.011.705l1.653.96a1.339,1.339,0,0,0,1.217,0Z" fill="#121c7c"></path></g><g id="Group_96" data-name="Group 96"><path id="Path_133" data-name="Path 133" d="M385.4,421.977a.37.37,0,0,0,0-.7l-1.653-.96a1.327,1.327,0,0,0-1.211,0l-3.544,2.046a.37.37,0,0,0,0,.7l1.653.961a1.331,1.331,0,0,0,1.21,0Z" fill="#121c7c"></path></g><g id="Group_97" data-name="Group 97"><path id="Path_134" data-name="Path 134" d="M379.548,425.354c.337-.2.339-.507.005-.7l-1.653-.961a1.333,1.333,0,0,0-1.211,0l-3.544,2.047a.37.37,0,0,0,0,.7l1.652.96a1.33,1.33,0,0,0,1.211,0Z" fill="#121c7c"></path></g><g id="Group_98" data-name="Group 98"><path id="Path_135" data-name="Path 135" d="M369.336,426.722c.337-.195.345-.511.011-.7l-3.522-2.047a1.345,1.345,0,0,0-1.217,0l-3.538,2.043c-.336.194-.345.51-.01.7l3.521,2.046a1.344,1.344,0,0,0,1.218,0Z" fill="#121c7c"></path></g><g id="Group_99" data-name="Group 99"><path id="Path_136" data-name="Path 136" d="M374.954,423.479c.336-.2.345-.511.01-.705l-3.521-2.047a1.347,1.347,0,0,0-1.218,0l-3.544,2.046a.37.37,0,0,0,0,.7l3.521,2.046a1.33,1.33,0,0,0,1.211,0Z" fill="#121c7c"></path></g><g id="Group_100" data-name="Group 100"><path id="Path_137" data-name="Path 137" d="M359.341,413.09c.336-.194.344-.511.01-.7l-3.521-2.046a1.344,1.344,0,0,0-1.218,0l-3.538,2.043c-.336.194-.345.511-.01.7l3.521,2.046a1.344,1.344,0,0,0,1.218,0Z" fill="#121c7c"></path></g><g id="Group_101" data-name="Group 101"><path id="Path_138" data-name="Path 138" d="M380.564,420.239c.337-.194.345-.51.011-.705l-3.522-2.046a1.339,1.339,0,0,0-1.217,0l-3.538,2.042c-.337.2-.345.511-.011.705l3.522,2.047a1.345,1.345,0,0,0,1.217,0Z" fill="#121c7c"></path></g><g id="Group_102" data-name="Group 102"><path id="Path_139" data-name="Path 139" d="M371.69,418.837a.37.37,0,0,0,0-.7l-3.521-2.047a1.333,1.333,0,0,0-1.211,0l-3.538,2.043c-.337.194-.345.51-.011.705l3.522,2.046a1.342,1.342,0,0,0,1.217,0Z" fill="#121c7c"></path></g><g id="Group_103" data-name="Group 103"><path id="Path_140" data-name="Path 140" d="M367.324,414.832a.373.373,0,0,0,0-.7L363.8,412.08a1.331,1.331,0,0,0-1.21,0l-3.538,2.043c-.337.194-.345.51-.011.705l3.522,2.046a1.354,1.354,0,0,0,1.224,0Z" fill="#121c7c"></path></g><g id="Group_104" data-name="Group 104"><path id="Path_141" data-name="Path 141" d="M353.73,416.329c.337-.194.345-.51.01-.705l-3.521-2.046a1.339,1.339,0,0,0-1.217,0l-3.545,2.046a.37.37,0,0,0,0,.7l3.522,2.047a1.331,1.331,0,0,0,1.21,0Z" fill="#002450"></path></g><g id="Group_105" data-name="Group 105"><path id="Path_142" data-name="Path 142" d="M407.5,391.639a.373.373,0,0,0,0-.705l-3.521-2.047a1.333,1.333,0,0,0-1.211,0l-3.544,2.047c-.337.194-.345.51-.011.705l3.522,2.046a1.351,1.351,0,0,0,1.223,0Z" fill="#121c7c"></path></g><g id="Group_106" data-name="Group 106"><path id="Path_143" data-name="Path 143" d="M411.3,382.908c.336-.195.338-.507,0-.7l-3.522-2.047a1.331,1.331,0,0,0-1.21,0l-9.881,5.7a.37.37,0,0,0-.005.7l3.522,2.047a1.333,1.333,0,0,0,1.211,0Z" fill="#121c7c"></path></g><g id="Group_107" data-name="Group 107"><path id="Path_144" data-name="Path 144" d="M400.1,382.675c.336-.194.345-.5.01-.7l-3.967-2.306a1.333,1.333,0,0,0-1.211,0l-3.643,2.1a.37.37,0,0,0,0,.7l3.967,2.306a1.318,1.318,0,0,0,1.2,0Z" fill="#121c7c"></path></g><g id="Group_108" data-name="Group 108"><path id="Path_145" data-name="Path 145" d="M392.219,384.6c.337-.2.345-.511.011-.705l-1.7-.987a1.342,1.342,0,0,0-1.217,0l-3.637,2.1c-.336.195-.345.511-.01.7l1.7.987a1.342,1.342,0,0,0,1.217,0Z" fill="#121c7c"></path></g><g id="Group_109" data-name="Group 109"><path id="Path_146" data-name="Path 146" d="M403.513,378.083c.336-.194.345-.511.01-.705l-1.7-.987a1.345,1.345,0,0,0-1.217,0l-3.644,2.1a.37.37,0,0,0,0,.7l1.7.987a1.331,1.331,0,0,0,1.21,0Z" fill="#121c7c"></path></g><g id="Group_110" data-name="Group 110"><path id="Path_147" data-name="Path 147" d="M414.644,405.091a.37.37,0,0,0,0-.7L413,403.43a1.327,1.327,0,0,0-1.211,0l-3.545,2.046a.37.37,0,0,0,0,.7l1.652.961a1.331,1.331,0,0,0,1.21,0Z" fill="#121c7c"></path></g><g id="Group_111" data-name="Group 111"><path id="Path_148" data-name="Path 148" d="M393.459,393.392c.337-.2.345-.511.011-.7l-3.522-2.047a1.342,1.342,0,0,0-1.217,0l-3.538,2.042c-.337.2-.345.511-.01.706l3.521,2.046a1.342,1.342,0,0,0,1.217,0Z" fill="#121c7c"></path></g></g></g></g><g id="Group_119" data-name="Group 119"><g id="Group_118" data-name="Group 118"><g id="Group_117" data-name="Group 117" style="isolation: isolate"><g id="Group_115" data-name="Group 115"><path id="Path_149" data-name="Path 149" d="M348.64,374.866l.189,66.29a2.4,2.4,0,0,0,.995,2.2l1.671.971a2.431,2.431,0,0,1-1.007-2.2l-.178-66.29a7.538,7.538,0,0,1,3.424-5.936l83.173-48.02a2.452,2.452,0,0,1,2.453-.249l-1.671-.959a2.412,2.412,0,0,0-2.453.237L352.064,368.93A7.536,7.536,0,0,0,348.64,374.866Z" fill="#f6f6fe"></path></g><g id="Group_116" data-name="Group 116"><path id="Path_150" data-name="Path 150" d="M353.736,369.9a7.573,7.573,0,0,0-3.43,5.943l.188,66.287c.006,2.181,1.554,3.064,3.453,1.967l83.172-48.019a7.567,7.567,0,0,0,3.43-5.942l-.188-66.287c-.006-2.181-1.554-3.064-3.453-1.968Z" fill="#c8c8ee"></path></g></g></g></g><path id="Path_151" data-name="Path 151" d="M395.4,375.368c-4.594,2.652-8.3,9.079-8.289,14.365s3.749,7.407,8.343,4.755,8.311-9.083,8.3-14.362S400,372.712,395.4,375.368Z" fill="#f0f6ff"></path><path id="Path_152" data-name="Path 152" d="M350.467,428.627c.363-.147.709-.314,1.072-.429a7.457,7.457,0,0,1,3.275-.147,3.567,3.567,0,0,0,3.208-1.57,1.277,1.277,0,0,0,.243-1.061c-.086-.228-.6-.344-.936-.416a8.457,8.457,0,0,1-1.942-.33c-1.932-.951-3.887-.063-5.819-.213-2.035-.158-3.9.609-5.81,1.091-1.125.283-2.224.682-3.32,1.07a6.511,6.511,0,0,1-3.134.347c-2.182-.3-4.394-.433-6.553-.85-2.456-.474-4.867-1.181-7.477-1.832-2.306,3.948-4.706,8.054-7.157,12.248.831.069,1.572.142,2.315.188,3.742.232,7.49.388,11.224.707a14.877,14.877,0,0,1,6.683,2.378c1.407.89,2.715,1.955,4.176,2.739a33.629,33.629,0,0,0,4.174,1.677c1.385.518,2.781,1.006,4.183,1.477s2.794.986,4.227,1.326a3.405,3.405,0,0,0,3.614-1.261c.321-.454,1.137-.583,1.749-.8a10.832,10.832,0,0,1,1.417-.325,1.264,1.264,0,0,0,1.091-1,1.054,1.054,0,0,1,1.149-.934,5.182,5.182,0,0,0,3.632-1.853,1.74,1.74,0,0,1,.731-.327.944.944,0,0,0,.5-1.673,3.752,3.752,0,0,0-3.036-1.172,1.723,1.723,0,0,1-.609,0c-1.35-.557-2.719-1.083-4.018-1.743a9.373,9.373,0,0,1-1.5-1.317c-1.128-.94-2.273-1.859-3.411-2.786C353.124,430.789,351.84,429.745,350.467,428.627Z" fill="#fcb3b3"></path><path id="Path_153" data-name="Path 153" d="M315.925,421.991l12.593,2.187a7.227,7.227,0,0,1,5.882,8.352l-.129.738a7.213,7.213,0,0,1-8.349,5.865l-12.594-2.186a7.21,7.21,0,0,1-5.868-8.334l.128-.739A7.224,7.224,0,0,1,315.925,421.991Z" fill="#f0f6ff"></path><path id="Path_154" data-name="Path 154" d="M320.965,440.62a11.59,11.59,0,0,0-2.721-21.725l-41.29-8.788-21.485-47.943a11.589,11.589,0,0,0-19.794,12.06l24.083,52.208a11.594,11.594,0,0,0,7.485,5.3l46.174,9.829A11.542,11.542,0,0,0,320.965,440.62Z" fill="#0072ff"></path><path id="Path_155" data-name="Path 155" d="M469.657,249.684h-10.8V293H443.972V249.684h-10.8l18.243-30.994Z" fill="#f0f6ff"></path><path id="Path_156" data-name="Path 156" d="M480.6,262h10.8V218.69h14.883V262h10.8L498.848,293Z" fill="#f0f6ff"></path><g id="Group_122" data-name="Group 122"><g id="Group_121" data-name="Group 121"><g id="Group_120" data-name="Group 120"><path id="Path_157" data-name="Path 157" d="M954.136,742.443h-771.3a2.4,2.4,0,0,1,0-4.8h771.3a2.4,2.4,0,0,1,0,4.8Z" fill="#002450"></path></g></g></g></g></g></g></g></g></svg>