<svg xmlns="http://www.w3.org/2000/svg" xmlns:xlink="http://www.w3.org/1999/xlink" width="724.175" height="548.342" viewBox="0 0 724.175 548.342"><defs><linearGradient id="linear-gradient" y1="0.5" x2="1" y2="0.5" gradientUnits="objectBoundingBox"><stop offset="0" stop-color="#00c5ff"></stop><stop offset="0.995" stop-color="#0072ff"></stop></linearGradient><linearGradient id="linear-gradient-4" x1="85.358" y1="0.5" x2="86.358" y2="0.5" gradientUnits="objectBoundingBox"><stop offset="0" stop-color="#f5f5ff"></stop><stop offset="1" stop-color="#cfcff2"></stop></linearGradient><linearGradient id="linear-gradient-5" x1="1.935" y1="0.911" x2="1.776" y2="0.804" xlink:href="#linear-gradient-4"></linearGradient><linearGradient id="linear-gradient-6" x1="-3.123" y1="0.5" x2="-2.123" y2="0.5" xlink:href="#linear-gradient-4"></linearGradient><linearGradient id="linear-gradient-7" x1="98.756" y1="0.5" x2="99.756" y2="0.5" xlink:href="#linear-gradient-4"></linearGradient><linearGradient id="linear-gradient-8" x1="-1.633" y1="0.678" x2="-1.544" y2="0.618" xlink:href="#linear-gradient-4"></linearGradient><linearGradient id="linear-gradient-9" x1="-4.08" y1="0.5" x2="-1.963" y2="0.5" gradientUnits="objectBoundingBox"><stop offset="0" stop-color="#e4e8fd"></stop><stop offset="0.993" stop-color="#bbc2e9"></stop></linearGradient><linearGradient id="linear-gradient-10" x1="84.975" y1="-14.7" x2="86.059" y2="-14.7" xlink:href="#linear-gradient-4"></linearGradient><linearGradient id="linear-gradient-11" x1="-3.521" y1="1.168" x2="-3.385" y2="0.959" xlink:href="#linear-gradient-4"></linearGradient><linearGradient id="linear-gradient-12" x1="-3.68" y1="0.5" x2="-2.68" y2="0.5" xlink:href="#linear-gradient-4"></linearGradient><linearGradient id="linear-gradient-13" x1="-1419.146" y1="-16.472" x2="-1418.17" y2="-16.472" gradientUnits="objectBoundingBox"><stop offset="0" stop-color="#4048c8"></stop><stop offset="1" stop-color="#2d32a4"></stop></linearGradient><linearGradient id="linear-gradient-14" x1="-277.244" y1="-3.654" x2="-277.244" y2="-3.162" gradientUnits="objectBoundingBox"><stop offset="0.004" stop-color="#fcb3b3"></stop><stop offset="1" stop-color="#fc8e8e"></stop></linearGradient><linearGradient id="linear-gradient-15" x1="-253.793" y1="-3.344" x2="-253.793" y2="-2.735" xlink:href="#linear-gradient-14"></linearGradient><linearGradient id="linear-gradient-16" x1="-1199.592" y1="-14.17" x2="-1198.656" y2="-14.17" xlink:href="#linear-gradient-14"></linearGradient></defs><g id="Group_514" data-name="Group 514" transform="translate(-2095.389 -194.101)"><g id="Group_505" data-name="Group 505"><rect id="Rectangle_81" data-name="Rectangle 81" width="547.67" height="396.345" rx="12.012" transform="translate(2162.026 343.7)" fill="#f0f6ff"></rect><path id="Path_922" data-name="Path 922" d="M2265.54,635.719c-.855-1.008-2.575-2.143-6-3.069a31.672,31.672,0,0,0-14.251-.337,113,113,0,0,0-22.047,6.091c-8.942,3.693-17.519,9.56-22.851,17.729-1.505,2.318-2.738,4.764-4.392,6.986a43.781,43.781,0,0,1-3.63,4.188h-.24c-.916.992-1.859,1.935-2.8,2.846a45.979,45.979,0,0,0-5.8,6.3,143.714,143.714,0,0,1-2-22.269c.091-.768.166-1.535.238-2.287q4.089-5.754,8.339-11.413a512.958,512.958,0,0,1,40.938-48.023c3.389-3.5,6.807-6.986,9.89-10.743,2.688-3.261,10.847-13.157,8.972-17.984a3.31,3.31,0,0,0-.585-.992c-3.847-4.507-15.376,1.727-18.888,5.2-2.119,2.094-3.8,4.588-6.01,6.6-4.41,4.028-10.356,5.642-15.359,8.872-8.98,5.77-13.976,15.954-18.447,25.5-1.935,4.188-3.9,8.376-5.45,12.677a96.116,96.116,0,0,0,.906-21.278,123.9,123.9,0,0,0-3.01-16.562c-2.441-10.566-5.308-21.853-13.741-28.263a64.989,64.989,0,0,0-7.769-4.629v43.233q7.3,12.06,13.785,24.637c2.16,4.173,4.234,8.393,6.256,12.645-.773,5.579-1.292,11.174-1.537,16.754-.058,1.295-.1,2.573-.123,3.868-.078.928-.122,1.839-.184,2.766.038-.048.077-.112.115-.16-.234,1.567-.387,3.133-.571,4.684a112.094,112.094,0,0,1-5.055,22.7l0,.015a2.508,2.508,0,0,0-.336,0,3.527,3.527,0,0,0-.573-.015c-.19-.016-.382-.016-.574-.016-3.325,0-6.523.143-9.449.416-.595.052-1.176.114-1.752.177v39.4h-12.986l.1,7.331a10.056,10.056,0,0,0,4.032,8.073,10.472,10.472,0,0,0,6.313,2.03h13.861a13.5,13.5,0,0,0,12.723-10.1l10.443-41.6v-.016a1.026,1.026,0,0,0,.087-.192,1.081,1.081,0,0,0,.084-.3.733.733,0,0,0,.006-.192l0-.016.036-.159h-.064a1.092,1.092,0,0,0-.045-.16,3.168,3.168,0,0,0-1.657-1.535c-.211-.111-.453-.224-.712-.336-.121-.048-.258-.112-.4-.159-.121-.049-.274-.113-.412-.16-.168-.065-.353-.129-.521-.193-.276-.1-.587-.175-.9-.271-1.067-.3-2.282-.575-3.626-.831-.814-.144-1.677-.288-2.575-.4-.235-.032-.487-.064-.74-.1-.206-1.087-.4-2.158-.58-3.2a99.487,99.487,0,0,1,6.926-9.48,15.481,15.481,0,0,1,2.7-.224c2.732.016,5.365.592,8.091.528,5.688-.112,11.241-2.862,16.563-5.548.747-.367,1.48-.751,2.227-1.118q16.886-8.536,33.785-17.057c4.149-2.095,11.9-8.313,11.9-8.313A2.552,2.552,0,0,0,2265.54,635.719Z" fill="#eaeafa"></path><path id="Path_923" data-name="Path 923" d="M2709.7,388.8V364.488a20.788,20.788,0,0,0-20.788-20.788H2182.814a20.788,20.788,0,0,0-20.788,20.788V388.8Z" fill="#dadaf5"></path><circle id="Ellipse_130" data-name="Ellipse 130" cx="11.718" cy="11.718" r="11.718" transform="translate(2656.161 374.965) rotate(-76.717)" fill="#fff"></circle><circle id="Ellipse_131" data-name="Ellipse 131" cx="11.718" cy="11.718" r="11.718" transform="matrix(0.16, -0.987, 0.987, 0.16, 2620.345, 375.942)" fill="#fff"></circle><circle id="Ellipse_132" data-name="Ellipse 132" cx="11.718" cy="11.718" r="11.718" transform="translate(2583.223 374.965) rotate(-76.717)" fill="#fff"></circle><path id="Path_924" data-name="Path 924" d="M2786.491,591.816a14.984,14.984,0,0,1,14.983,14.984v41.462a91.784,91.784,0,0,1-92.824,91.777c-50.469-.559-90.732-42.464-90.732-92.937V606.8a14.984,14.984,0,0,1,14.984-14.984Z" fill="url(#linear-gradient)"></path><path id="Path_925" data-name="Path 925" d="M2801.474,606.8v41.46a91.482,91.482,0,0,1-158.663,62.393,90.332,90.332,0,0,0,52.11,17.213,91.8,91.8,0,0,0,92.816-91.784v-41.46a14.731,14.731,0,0,0-.258-2.775A14.989,14.989,0,0,1,2801.474,606.8Z" fill="url(#linear-gradient)"></path><path id="Path_926" data-name="Path 926" d="M2781.23,591.816h-17.236V564.068a54.3,54.3,0,1,0-108.6,0v27.748h-17.236V564.068a71.534,71.534,0,1,1,143.068,0Z" fill="#dadaf5"></path><rect id="Rectangle_82" data-name="Rectangle 82" width="17.236" height="11.264" transform="translate(2638.162 580.552)" fill="#c8c8ee"></rect><rect id="Rectangle_83" data-name="Rectangle 83" width="17.237" height="11.264" transform="translate(2763.994 580.552)" fill="#c8c8ee"></rect><path id="Path_927" data-name="Path 927" d="M2721.53,652.061a11.822,11.822,0,0,1-6.939,10.78v11.123a4.89,4.89,0,0,1-9.779,0V662.841a11.834,11.834,0,1,1,16.718-10.78Z" fill="#fff"></path><rect id="Rectangle_84" data-name="Rectangle 84" width="227.156" height="206.544" rx="8.343" transform="translate(2322.283 465.543)" fill="#eaeafa"></rect><path id="Path_928" data-name="Path 928" d="M2521.686,525.654a16.2,16.2,0,0,1-16.2,16.2H2366.239a16.2,16.2,0,1,1,0-32.405h139.244A16.2,16.2,0,0,1,2521.686,525.654Z" fill="#fff"></path><path id="Path_929" data-name="Path 929" d="M2521.686,572.688a16.2,16.2,0,0,1-16.2,16.2H2366.239a16.2,16.2,0,1,1,0-32.405h139.244A16.2,16.2,0,0,1,2521.686,572.688Z" fill="#fff"></path><rect id="Rectangle_85" data-name="Rectangle 85" width="117.51" height="32.783" rx="6.134" transform="translate(2377.106 610.694)" fill="url(#linear-gradient)"></rect><g id="Group_490" data-name="Group 490"><g id="Group_489" data-name="Group 489"><g id="Group_486" data-name="Group 486"><path id="Path_930" data-name="Path 930" d="M2410.019,633.167a5.66,5.66,0,0,0,2.866.808c1.635,0,2.59-.863,2.59-2.112,0-1.158-.661-1.819-2.333-2.462-2.021-.717-3.27-1.764-3.27-3.509,0-1.929,1.6-3.362,4-3.362a5.63,5.63,0,0,1,2.737.606l-.441,1.3a4.939,4.939,0,0,0-2.351-.587c-1.691,0-2.334,1.01-2.334,1.855,0,1.157.754,1.727,2.462,2.388,2.094.809,3.16,1.819,3.16,3.638,0,1.911-1.415,3.564-4.336,3.564a6.4,6.4,0,0,1-3.16-.79Z" fill="#fff"></path></g><g id="Group_487" data-name="Group 487"><path id="Path_931" data-name="Path 931" d="M2427.951,634.71a7.935,7.935,0,0,1-3.271.588c-3.49,0-6.117-2.2-6.117-6.265a6.162,6.162,0,0,1,6.467-6.5,6.63,6.63,0,0,1,2.939.551l-.386,1.3a5.82,5.82,0,0,0-2.5-.514c-2.9,0-4.832,1.855-4.832,5.107,0,3.032,1.745,4.979,4.758,4.979a6.4,6.4,0,0,0,2.609-.514Z" fill="#fff"></path></g><g id="Group_488" data-name="Group 488"><path id="Path_932" data-name="Path 932" d="M2432.031,631.22l-1.286,3.894h-1.654l4.207-12.382h1.929l4.226,12.382h-1.709l-1.323-3.894Zm4.06-1.25-1.213-3.564c-.275-.808-.459-1.543-.643-2.26h-.036c-.184.735-.386,1.489-.625,2.242l-1.213,3.582Z" fill="#fff"></path><path id="Path_933" data-name="Path 933" d="M2441.273,635.114V622.732h1.746l3.968,6.265a34.931,34.931,0,0,1,2.223,4.023l.037-.018c-.147-1.654-.184-3.16-.184-5.089v-5.181h1.506v12.382h-1.616l-3.932-6.283a39.465,39.465,0,0,1-2.315-4.133l-.055.018c.092,1.562.129,3.05.129,5.107v5.291Z" fill="#fff"></path></g></g></g><path id="Path_934" data-name="Path 934" d="M2190.039,686.815l-5.626,42.466a11.638,11.638,0,0,1-11.537,10.1h-13.863a11.633,11.633,0,0,1-11.529-10.1l-5.634-42.466Z" fill="#0072ff"></path><path id="Path_935" data-name="Path 935" d="M2190.039,686.815l-5.626,42.466a11.638,11.638,0,0,1-11.537,10.1h-13.863a11.612,11.612,0,0,1-6.551-2.022c.819-.246,1.629-.541,2.424-.868,3.832-1.6,7.361-4.349,9.007-8.164,1.286-2.964,1.335-6.3,1.826-9.491a67.78,67.78,0,0,1,3.1-11.333,101.91,101.91,0,0,1,4.725-12.25,50.76,50.76,0,0,1,5.192-8.442Z" fill="#0072ff"></path><path id="Path_936" data-name="Path 936" d="M2190.04,687.176c0,2.872-10.788,5.2-24.095,5.2s-24.1-2.328-24.1-5.2,10.788-5.2,24.1-5.2S2190.04,684.3,2190.04,687.176Z" fill="#41446b"></path><path id="Path_937" data-name="Path 937" d="M2190.031,687.176c0,2.318-7.067,4.3-16.834,4.956-.975.063-1.966.127-3.005.159-.4.016-.8.032-1.215.032l-1.823.048h-2.27c-12.821-.144-23.036-2.4-23.036-5.195,0-2.878,10.775-5.212,24.107-5.212.384,0,.768,0,1.151.032a2.355,2.355,0,0,1,.336,0c.608,0,1.183.016,1.775.016l1.374.048c.879.048,1.727.1,2.558.144.847.048,1.647.128,2.446.208C2184.084,683.211,2190.031,685.049,2190.031,687.176Z" fill="#0072ff"></path><path id="Path_938" data-name="Path 938" d="M2170.668,634.556q-4.655-8.009-9.613-15.829a479.068,479.068,0,0,0-39.059-53.2c-3.284-3.881-6.608-7.746-9.54-11.906-2.554-3.619-10.284-14.583-7.574-19.939a4.385,4.385,0,0,1,.778-1.089c4.856-4.995,16.8,1.908,20.242,5.757,2.072,2.317,3.619,5.085,5.789,7.312,4.364,4.463,10.735,6.256,15.853,9.826,9.2,6.4,13.4,17.687,17.089,28.267A133.6,133.6,0,0,1,2169.6,600.3C2171.929,611.522,2171.3,623.116,2170.668,634.556Z" fill="url(#linear-gradient-4)"></path><path id="Path_939" data-name="Path 939" d="M2161.055,618.727a479.068,479.068,0,0,0-39.059-53.2c-3.284-3.881-6.608-7.746-9.54-11.906-2.554-3.619-10.284-14.583-7.574-19.939a59.128,59.128,0,0,1,5.986,4.823,38.311,38.311,0,0,1,8.188,10.35c1.654,3.1,3.006,6.568,5.83,8.664,3.038,2.243,7.321,2.514,10,5.167,2.71,2.685,2.939,6.9,4.29,10.473,1.777,4.7,5.552,8.3,8.533,12.348,5.568,7.566,8.393,16.753,11.119,25.736C2159.581,613.724,2160.334,616.222,2161.055,618.727Z" fill="url(#linear-gradient-5)"></path><path id="Path_940" data-name="Path 940" d="M2179.115,691.4h1.6c-8.33-24.794-10.134-38.309-10.131-51.828,0-5.031.225-10.211-1.529-14.926a183.117,183.117,0,0,0,2.91,44.263q.966,5.108,2.221,10.153C2174.222,679.222,2174.259,679.429,2179.115,691.4Z" fill="url(#linear-gradient-6)"></path><path id="Path_941" data-name="Path 941" d="M2169.727,654.764q4.2-7.228,8.676-14.285a432.133,432.133,0,0,1,35.25-48.013c2.963-3.5,5.963-6.99,8.609-10.745,2.306-3.266,9.282-13.161,6.836-17.994a3.948,3.948,0,0,0-.7-.983c-4.382-4.508-15.164,1.722-18.268,5.2-1.87,2.092-3.267,4.589-5.225,6.6-3.939,4.028-9.688,5.646-14.307,8.868-8.3,5.779-12.09,15.963-15.423,25.51a120.346,120.346,0,0,0-4.485,14.935C2168.589,633.976,2169.158,644.44,2169.727,654.764Z" fill="url(#linear-gradient-7)"></path><path id="Path_942" data-name="Path 942" d="M2178.4,640.479a432.133,432.133,0,0,1,35.25-48.013c2.963-3.5,5.963-6.99,8.609-10.745,2.306-3.266,9.282-13.161,6.836-17.994a53.267,53.267,0,0,0-5.4,4.352,34.585,34.585,0,0,0-7.39,9.342c-1.493,2.793-2.712,5.926-5.262,7.818-2.742,2.025-6.606,2.269-9.023,4.663-2.446,2.424-2.653,6.23-3.872,9.452-1.6,4.242-5.011,7.493-7.7,11.144-5.025,6.828-7.575,15.12-10.035,23.227C2179.733,635.964,2179.053,638.218,2178.4,640.479Z" fill="url(#linear-gradient-8)"></path><path id="Path_943" data-name="Path 943" d="M2170.194,692.292c1.032-.038,2.026-.1,3-.153a43.422,43.422,0,0,1,.974-5.409,31.789,31.789,0,0,1,1.434-4.319c2.179-5.409,5.6-10.111,8.964-15.1h-.975c-2.561,3.211-5.543,5.734-7.607,9.289a52.781,52.781,0,0,0-2.828,5.6A41.815,41.815,0,0,0,2170.194,692.292Z" fill="url(#linear-gradient-9)"></path><path id="Path_944" data-name="Path 944" d="M2181.135,670.146a39.318,39.318,0,0,0,5.832-7.027c1.386-2.216,2.328-4.676,3.561-6.982,4.369-8.179,12.24-14.042,20.747-17.732,6.8-2.95,14.042-4.654,21.331-6.1a31.982,31.982,0,0,1,14.287.346c3.534.921,5.4,2.054,6.364,3.06a2.74,2.74,0,0,1,.995,2.547s-7.025,6.224-10.921,8.314q-15.879,8.531-31.765,17.051c-.7.38-1.4.754-2.1,1.129-4.993,2.682-10.23,5.428-15.9,5.542-2.727.059-5.432-.506-8.163-.526a14.038,14.038,0,0,0-3.567.41Z" fill="url(#linear-gradient-10)"></path><path id="Path_945" data-name="Path 945" d="M2211.566,663.626q15.879-8.523,31.765-17.051c3.9-2.09,10.921-8.314,10.921-8.314a2.74,2.74,0,0,0-.995-2.547,29.552,29.552,0,0,0-4.951.32,35.165,35.165,0,0,0-11.362,3.53c-6.967,3.517-12.793,8.953-17.96,14.8C2216.372,657.332,2213.888,660.421,2211.566,663.626Z" fill="url(#linear-gradient-11)"></path><path id="Path_946" data-name="Path 946" d="M2164.881,692.369h2.274c.516-2.18.975-4.377,1.4-6.594.249-1.262.459-2.5.669-3.766q1.262-7.453,1.8-15a166.662,166.662,0,0,0,.172-21.177c-1.586,4.243-1.376,8.926-1.376,13.455a106.343,106.343,0,0,1-2.37,22.706C2166.773,685.182,2165.932,688.6,2164.881,692.369Z" fill="url(#linear-gradient-12)"></path><g id="Group_491" data-name="Group 491"><path id="Path_947" data-name="Path 947" d="M2817.166,742.443H2097.787a2.4,2.4,0,1,1,0-4.8h719.379a2.4,2.4,0,0,1,0,4.8Z" fill="#c5cced"></path></g><path id="Path_948" data-name="Path 948" d="M2577.354,225.332V200.057a5.958,5.958,0,0,1,5.956-5.956h77.522a5.958,5.958,0,0,1,5.956,5.956v25.275a5.949,5.949,0,0,1-5.956,5.946H2583.31A5.949,5.949,0,0,1,2577.354,225.332Z" fill="#f0f6ff"></path><path id="Path_949" data-name="Path 949" d="M2549.456,278.24V252.966a5.958,5.958,0,0,1,5.956-5.956h37.307a5.958,5.958,0,0,1,5.956,5.956V278.24a5.95,5.95,0,0,1-5.956,5.947h-37.307A5.95,5.95,0,0,1,2549.456,278.24Z" fill="#f0f6ff"></path><path id="Path_950" data-name="Path 950" d="M2294.3,436.594c17.547,13.188,72.226,54.279,75.218,55.822,3.547,1.85,8.807-7.2,10.63-12.046,1.822-4.823-7.973-14.548-7.973-14.548l26.551-.2a75.416,75.416,0,0,0-12.478,16.544c-5.544,10.031,12.174,16.708,12.174,16.708s59.335-55.209,65.52-65.578c6.206-10.348,5.1-33.678-13.339-28.5-7.6,2.11-15.412,6.863-21.972,11.689-3.134,2.3-6.006,4.628-8.4,6.713a22.9,22.9,0,0,1-17.684,5.493c-3.425-.407-7.4-.8-11.492-1.152-13.151-1.179-27.429-2.043-27.429-2.043-29.711-10.845-46.42-14.565-54.668-15.842a19.239,19.239,0,0,0-15.671,4.362,20.357,20.357,0,0,0-1.65,1.672C2286.214,421.939,2287.691,431.618,2294.3,436.594Z" fill="#002450"></path><path id="Path_951" data-name="Path 951" d="M2510.951,413.051a7,7,0,0,1-1.514-.5c-1.43-1.011-3.1-.531-4.63-.9a14.591,14.591,0,0,0-4.781.157c-.933.085-1.863.272-2.787.45a5.377,5.377,0,0,1-2.556-.112c-1.7-.514-3.451-.888-5.131-1.487-.778-.281-1.557-.578-2.328-.9l-4.441,6.357,9.546,6.178c1.017.886,1.932,1.9,3,2.71a28.916,28.916,0,0,0,3.132,1.863c1.044.58,2.1,1.142,3.161,1.7s2.119,1.131,3.215,1.584a2.774,2.774,0,0,0,3.054-.565c.31-.319.978-.327,1.491-.419a9.079,9.079,0,0,1,1.175-.09,1.039,1.039,0,0,0,1-.663.846.846,0,0,1,1.033-.6,4.19,4.19,0,0,0,3.132-1.034,1.462,1.462,0,0,1,.623-.177c.747-.1,1.005-.634.6-1.276a3.031,3.031,0,0,0-2.284-1.308,1.575,1.575,0,0,1-.484-.076c-1.014-.621-2.044-1.2-3-1.894a8.029,8.029,0,0,1-1.036-1.235c-.784-.9-1.585-1.77-2.382-2.651-.9-1-1.794-1.99-2.762-3.054.311-.07.612-.16.911-.213a6.06,6.06,0,0,1,2.646.288,2.89,2.89,0,0,0,2.76-.857,1.045,1.045,0,0,0,.324-.823C2511.607,413.309,2511.213,413.159,2510.951,413.051Z" fill="#fcb3b3"></path><path id="Path_952" data-name="Path 952" d="M2478.912,401.872l9.97,5.173a6.35,6.35,0,0,1,2.712,8.557l-.3.585a6.34,6.34,0,0,1-8.552,2.7l-9.971-5.173a6.337,6.337,0,0,1-2.705-8.539l.3-.585A6.349,6.349,0,0,1,2478.912,401.872Z" fill="#eaeafa"></path><path id="Path_953" data-name="Path 953" d="M2480.5,418.532a10.185,10.185,0,0,0,1.6-19.174L2448.2,384.3c-3.186-13.281-8.408-27.281-14.695-41.658a10.185,10.185,0,1,0-19.209,6.776l16.154,45.8a10.193,10.193,0,0,0,5.473,5.921l37.918,16.835A10.151,10.151,0,0,0,2480.5,418.532Z" fill="#0072ff"></path><path id="Path_954" data-name="Path 954" d="M2397.968,295.242a9.2,9.2,0,0,0,2.544-10.044,1.509,1.509,0,0,0-.764-.981,1.487,1.487,0,0,0-1.374.444,9.474,9.474,0,0,0-3.1,7.425,3.164,3.164,0,0,0,.429,1.786,1.3,1.3,0,0,0,1.623.5" fill="url(#linear-gradient-13)"></path><path id="Path_955" data-name="Path 955" d="M2401.217,284.024a25.613,25.613,0,0,0,12.863.116,32.818,32.818,0,0,1-2.213,4.642,27.69,27.69,0,0,1-10.81-.96Z" fill="#0072ff"></path><path id="Path_956" data-name="Path 956" d="M2398.841,285.041a18.012,18.012,0,0,0,.9,3.2,25.777,25.777,0,0,0,12.767,13.685,32.992,32.992,0,0,0,4.374-2.7,25.542,25.542,0,0,1-14.208-12.153,17.512,17.512,0,0,1-1.268-3.109c-.044.019-.065.018-.109.037a1.12,1.12,0,0,0-.4.178A6.015,6.015,0,0,1,2398.841,285.041Z" fill="#0072ff"></path><g id="Group_492" data-name="Group 492"><path id="Path_957" data-name="Path 957" d="M2335.481,410.489c2.694,1.959,7.21,2.694,7.21,2.694s1.735,9.713,2.366,9.752c.667.053,69.842,4.856,69.842,4.856l.492-9.644.113-2.1a43.876,43.876,0,0,0,5.462.341,23.447,23.447,0,0,0,6.93-4.8,24.478,24.478,0,0,0,7.141-18.348l-1.516-34.114c-1.328-7.614-3.371-14.726-6.323-20.252a6.386,6.386,0,0,0-3.951-3.277l-.087,0a2.141,2.141,0,0,0-.662-.177c-4.64-.728-14.306-2.187-25.651-3.494-.6-.063-1.221-.138-1.85-.2-9.435-1.053-19.866-1.975-29.482-2.267-.618-.026-1.236-.052-1.856-.054-8.888-.212-16.945.155-22.639,1.5C2317.958,336.262,2332.749,408.565,2335.481,410.489Z" fill="#0072ff"></path><path id="Path_958" data-name="Path 958" d="M2333.89,411.137s2.888,11.289,2.988,12.121c.56,4.665,86.264,15.927,86.743,6.029l.851-16.995Z" fill="#0072ff"></path></g><path id="Path_959" data-name="Path 959" d="M2363.659,329.4a10.959,10.959,0,0,0,4.309,8.632,20.2,20.2,0,0,0,11.151,4.434c.407.042.827.072,1.235.089,8.782.369,15.875-4.19,16.493-10.62v-.012c-.6-.063-1.221-.138-1.85-.2-9.435-1.053-19.866-1.975-29.482-2.267C2364.9,329.425,2364.279,329.4,2363.659,329.4Z" fill="#fff"></path><path id="Path_960" data-name="Path 960" d="M2365.515,329.451c-.131,5.483,5.894,10.42,13.78,11.173,8.133.775,15.165-3.192,15.7-8.869v-.037c-1.838-.2-3.7-.4-5.6-.6l1.157-27.533a8.2,8.2,0,1,0-16.389-.689l-1.131,26.9C2370.5,329.648,2367.978,329.529,2365.515,329.451Z" fill="url(#linear-gradient-14)"></path><path id="Path_961" data-name="Path 961" d="M2380.368,323.149a15.093,15.093,0,0,0,16.533-13.464l2.051-20.12c.036-.343.051-.708.066-1.052a15.452,15.452,0,0,0-.306-3.477,15.079,15.079,0,0,0-29.779,1.459l-.139,1.265-.334,3.343-1.578,15.512A15.083,15.083,0,0,0,2380.368,323.149Z" fill="url(#linear-gradient-15)"></path><path id="Path_962" data-name="Path 962" d="M2396.279,303.09c1.494.248,2.812-.952,3.7-2.177a17.6,17.6,0,0,0,3.054-7.191c.187-1.068.191-2.414-.71-3.066a1.966,1.966,0,0,0-1.883-.205,4.3,4.3,0,0,0-1.6,1.136,8.28,8.28,0,0,0-2.182,5.118Z" fill="url(#linear-gradient-16)"></path><g id="Group_503" data-name="Group 503"><g id="Group_493" data-name="Group 493"><path id="Path_963" data-name="Path 963" d="M2371.907,294.506a7.289,7.289,0,0,0,5.368-.37c.338-.172.316-.477-.042-.6a7.34,7.34,0,0,0-5.366.369C2371.527,294.075,2371.548,294.382,2371.907,294.506Z" fill="#212785"></path></g><g id="Group_494" data-name="Group 494"><path id="Path_964" data-name="Path 964" d="M2386.13,294.145a7.285,7.285,0,0,0,5.337.722c.366-.1.405-.4.077-.6a7.328,7.328,0,0,0-5.326-.721C2385.852,293.64,2385.8,293.947,2386.13,294.145Z" fill="#212785"></path></g><g id="Group_501" data-name="Group 501"><g id="Group_495" data-name="Group 495"><path id="Path_965" data-name="Path 965" d="M2383.43,317.979a4.731,4.731,0,0,0,4.058-2.395.57.57,0,0,0-1-.555,3.539,3.539,0,0,1-4.324,1.565.57.57,0,1,0-.386,1.072A5.022,5.022,0,0,0,2383.43,317.979Z" fill="#fff"></path></g><g id="Group_496" data-name="Group 496"><path id="Path_966" data-name="Path 966" d="M2385.882,303.652a1.084,1.084,0,1,0,1.1-1.069A1.082,1.082,0,0,0,2385.882,303.652Z" fill="#212785"></path></g><g id="Group_497" data-name="Group 497"><path id="Path_967" data-name="Path 967" d="M2374.281,303.471a1.084,1.084,0,1,0,1.1-1.068A1.083,1.083,0,0,0,2374.281,303.471Z" fill="#212785"></path></g><g id="Group_498" data-name="Group 498"><path id="Path_968" data-name="Path 968" d="M2368.944,302.5a5.395,5.395,0,1,1,5.322,5.466A5.4,5.4,0,0,1,2368.944,302.5Zm.912.012a4.483,4.483,0,1,0,4.542-4.422A4.487,4.487,0,0,0,2369.856,302.508Z" fill="#fff"></path></g><g id="Group_499" data-name="Group 499"><path id="Path_969" data-name="Path 969" d="M2381.25,302.661a5.4,5.4,0,1,1,5.322,5.466A5.4,5.4,0,0,1,2381.25,302.661Zm.913.012a4.482,4.482,0,1,0,4.541-4.422A4.487,4.487,0,0,0,2382.163,302.673Z" fill="#fff"></path></g><g id="Group_500" data-name="Group 500"><path id="Path_970" data-name="Path 970" d="M2381.515,303.006l.613-.676a2.488,2.488,0,0,0-1.87-.81,1.919,1.919,0,0,0-1.346.838l.728.552a1.038,1.038,0,0,1,.7-.482A1.7,1.7,0,0,1,2381.515,303.006Z" fill="#fff"></path></g></g><g id="Group_502" data-name="Group 502"><path id="Path_971" data-name="Path 971" d="M2378.315,311.708l4.171.056a.393.393,0,0,0,.359-.567,24.056,24.056,0,0,1-1.608-4.283.368.368,0,0,0-.367-.286l-.792-.011a.389.389,0,0,0-.385.276,23.321,23.321,0,0,1-1.721,4.239A.4.4,0,0,0,2378.315,311.708Z" fill="#fc8e8e"></path></g></g><g id="Group_504" data-name="Group 504"><path id="Path_972" data-name="Path 972" d="M2362.287,286.684c6.53,4.34,31.254.593,31.681.413.04,0,.091.112.11.312.247,2.035-.084,13.339,1,15.054,1.181,1.868,1.147-2.223,1.517-3.246.35-1.019,1.994-7.483,1.994-7.483a18.051,18.051,0,0,1,1.644-5.577c1.354-2.6,3.982-8.675.987-12.735-2.976-4.063-6.746-1.861-6.746-1.861s-8.611-9.856-17.719-8.9-5.27,8.048-5.27,8.048-4.591-1.232-7.891-.5c-1.664.334-2.977,1.181-3.243,2.9C2360.352,273.107,2355.755,282.324,2362.287,286.684Z" fill="#002450"></path></g><path id="Path_973" data-name="Path 973" d="M2372.036,465.777c-1.687-1.574-7.269-4.612-12.647-9.925-7.587-7.5-22.886-18.348-22.886-18.348,5.609,1.54,28.927,10.377,34.135,12.546s23.773.561,29.739-.795,21.016-13.434,21.016-13.434l-22.758,29.79Z" fill="#002450"></path><path id="Path_974" data-name="Path 974" d="M2391.058,427.539c6.31,2.108,12.577,4.255,18.865,6.382,1.857.625,3.957,1.219,5.657.278a7.566,7.566,0,0,0,2.568-3.294,61.473,61.473,0,0,1,10.487-14.42c-3.134,2.3-6.006,4.628-8.4,6.713a22.9,22.9,0,0,1-17.684,5.493C2399.125,428.284,2395.153,427.894,2391.058,427.539Z" fill="#3f47c7"></path><path id="Path_975" data-name="Path 975" d="M2356.662,406.324c-.261,6.22,2.831,11.4,6.906,11.572s7.592-4.732,7.853-10.952-2.83-11.4-6.906-11.572S2356.924,400.1,2356.662,406.324Z" fill="#efc2d3"></path><path id="Path_976" data-name="Path 976" d="M2391.076,407.838c-.261,6.22,2.831,11.4,6.907,11.572s7.591-4.732,7.852-10.952-2.83-11.4-6.906-11.572S2391.338,401.618,2391.076,407.838Z" fill="#efc2d3"></path><path id="Path_977" data-name="Path 977" d="M2362.283,287.034a14.987,14.987,0,0,0,6.4,1.8l.11-1.071a57.3,57.3,0,0,0,23.054-.688.278.278,0,0,1-.13.015c-1.1.019-2.217.015-3.313-.01a41.924,41.924,0,0,1-6.557-.663,23.412,23.412,0,0,1-12.233-5.894,26.894,26.894,0,0,1-6.037-9.958c-1.672.338-2.976,1.166-3.242,2.9C2360.336,273.46,2355.731,282.671,2362.283,287.034Z" fill="#002450"></path><path id="Path_978" data-name="Path 978" d="M2368.46,291.1a61.332,61.332,0,0,0,30.558-2.59c.24-.076.48-.173.721-.271.983-.346,1.968-.735,2.933-1.167a17.512,17.512,0,0,1-1.268-3.109c-.044.019-.065.018-.109.037l-.4.178c-.723.292-1.445.585-2.188.855a57.885,57.885,0,0,1-29.918,2.724Z" fill="#0072ff"></path><path id="Path_979" data-name="Path 979" d="M2344.093,524.616c-.017,3.7,8.564,7.871,12.572,8.039s12.759-12.892,16.5-17.823c1.722-2.28,6.227-6.521,10.65-10.488,5.251-4.694,10.347-9.013,10.347-9.013s-5.715-8.962-6.363-7.536c-.378.746-5.609,5.821-11.08,10.818a143.886,143.886,0,0,1-11.515,9.655C2360.431,511.39,2344.078,520.878,2344.093,524.616Z" fill="#fcb3b3"></path><path id="Path_980" data-name="Path 980" d="M2376.715,498.613c2.212,1.718,4.69,3.692,7.1,5.731,5.251-4.694,10.347-9.013,10.347-9.013s-5.715-8.962-6.363-7.536C2387.417,488.541,2382.186,493.616,2376.715,498.613Z" fill="#fc8e8e"></path><path id="Path_981" data-name="Path 981" d="M2399.7,516.778c.64,5.357-4.008,21.255-4.067,22.672s2.482,5.987,7.918,5.939c3.7-.018,5.023-10,5.5-16.382a21.848,21.848,0,0,1,2.99-9.391c1.825-3.073,3.619-7.046,2.281-8.972-2.314-3.42-7.009-2.855-11.163-5.315-4.188-2.459-25.715-24.066-25.715-24.066l-6.17,8.576C2381.764,498,2399.1,511.423,2399.7,516.778Z" fill="#fcb3b3"></path><path id="Path_982" data-name="Path 982" d="M2390.14,475.949l31.155,1.309c-12.508,11.974-22.869,21.616-22.869,21.616s-17.718-6.677-12.174-16.708A73.18,73.18,0,0,1,2390.14,475.949Z" fill="#002450"></path><path id="Path_983" data-name="Path 983" d="M2379.41,475.5c.837,1.793,1.251,3.525.742,4.872-1.823,4.843-7.083,13.9-10.629,12.046-1.279-.66-12.011-8.552-25.24-18.395Z" fill="#002450"></path><path id="Path_984" data-name="Path 984" d="M2346.432,456.482l96.23,4.045a13.611,13.611,0,0,0,12.313-20.482l-44.966-76.776a13.621,13.621,0,0,0-22.878-.962l-51.257,72.733A13.613,13.613,0,0,0,2346.432,456.482Z" fill="url(#linear-gradient)"></path><path id="Path_985" data-name="Path 985" d="M2346.889,419.427c.743.207,1.486.415,2.213.637,1.439.412,2.878.809,4.334,1.19,1.457.365,2.9.794,4.356,1.047a3.463,3.463,0,0,0,3.569-1.546c.292-.467,1.1-.673,1.7-.92a11.069,11.069,0,0,1,1.41-.437,1.276,1.276,0,0,0,1.038-1.076,1.056,1.056,0,0,1,1.1-1.026,5.253,5.253,0,0,0,3.53-2.14,2.147,2.147,0,0,1,.72-.386c.878-.331,1.052-1.043.376-1.712a3.764,3.764,0,0,0-3.144-.964,2.115,2.115,0,0,1-.609.038c-1.42-.475-2.826-.9-4.194-1.488a9.3,9.3,0,0,1-1.6-1.219c-1.21-.883-2.423-1.718-3.651-2.57-.513-.357-1.026-.731-1.539-1.088Z" fill="#f49758"></path><path id="Path_986" data-name="Path 986" d="M2443.1,450.115a3.19,3.19,0,0,0,2.885-4.8l-44.968-76.781a3.2,3.2,0,0,0-5.371-.221l-51.254,72.729a3.193,3.193,0,0,0,2.478,5.028Z" fill="url(#linear-gradient)"></path><path id="Path_987" data-name="Path 987" d="M2398.5,423.408a2.434,2.434,0,0,1-2.547,2.343,2.492,2.492,0,0,1-2.411-2.551l-1.211-27.808a2.5,2.5,0,0,1,2.567-2.818l4.89.206a2.454,2.454,0,0,1,2.254,3.02Zm1.87,12.189-.029.679a4.828,4.828,0,0,1-9.644-.4l.028-.679a4.829,4.829,0,0,1,9.645.4Z" fill="#fff"></path><path id="Path_988" data-name="Path 988" d="M2328.287,409.455l13.362,4.9c1.486.8,2.885,1.786,4.408,2.473a19.641,19.641,0,0,0,2.127.778c.744.207,1.487.415,2.214.637,1.438.413,2.878.809,4.334,1.19s2.9.794,4.356,1.048a3.466,3.466,0,0,0,3.569-1.547c.292-.467,1.1-.673,1.7-.92a10.97,10.97,0,0,1,1.41-.437,1.275,1.275,0,0,0,1.037-1.076,1.057,1.057,0,0,1,1.1-1.026,5.249,5.249,0,0,0,3.53-2.14,2.142,2.142,0,0,1,.721-.385.943.943,0,0,0,.376-1.713,3.764,3.764,0,0,0-3.144-.964,2.154,2.154,0,0,1-.609.039c-1.421-.476-2.827-.9-4.194-1.489a9.264,9.264,0,0,1-1.6-1.219c-1.211-.883-2.424-1.718-3.652-2.569-.513-.358-1.025-.731-1.538-1.089-.87-.613-1.741-1.225-2.673-1.873.359-.176.7-.37,1.061-.515a7.567,7.567,0,0,1,3.3-.389,1.549,1.549,0,0,0,.272,0l2.263-3.217c-.08,0-.143-.022-.207-.025a8.137,8.137,0,0,1-1.992-.2c-2.013-.837-3.929.219-5.9.184-2.063-.007-3.877.893-5.792,1.517-1.1.369-2.2.851-3.271,1.318a6.549,6.549,0,0,1-3.144.572c-2.218-.141-4.459-.123-6.672-.392-1.034-.124-2.069-.264-3.1-.451Z" fill="#fcb3b3"></path><path id="Path_989" data-name="Path 989" d="M2323.044,391.323l12.932,5.506a7.948,7.948,0,0,1,4.2,10.42l-.323.758a7.933,7.933,0,0,1-10.413,4.18l-12.933-5.506a7.931,7.931,0,0,1-4.187-10.4l.323-.758A7.943,7.943,0,0,1,2323.044,391.323Z" fill="#eaeafa"></path><path id="Path_990" data-name="Path 990" d="M2324.69,412.116a10.617,10.617,0,0,0,3.953-20.6l-10.8-3.888,29.1-38.378c3.542-4.672,7.3-13.836,2.628-17.378s-16-.122-19.546,4.55L2292.2,386.31a10.614,10.614,0,0,0,4.863,16.4l24.391,8.781A10.583,10.583,0,0,0,2324.69,412.116Z" fill="#0072ff"></path></g></g></svg>