<svg xmlns="http://www.w3.org/2000/svg" xmlns:xlink="http://www.w3.org/1999/xlink" width="724.175" height="619.184" viewBox="0 0 724.175 619.184"><defs><clipPath id="clip-path"><path id="Path_622" data-name="Path 622" d="M2761.613,2390.216a95.431,95.431,0,0,0-77.678-91.329,95.459,95.459,0,0,0-95.879-74.73,93.534,93.534,0,0,0-52.721,17.737A95.212,95.212,0,0,0,2443.516,2180v290.844H2689.3c30.6,0,58.236-19.321,67.688-48.42A95.652,95.652,0,0,0,2761.613,2390.216Z" fill="none"></path></clipPath><linearGradient id="linear-gradient" x1="4.46" y1="3.016" x2="4.463" y2="3.305" gradientUnits="objectBoundingBox"><stop offset="0.004" stop-color="#fcb3b3"></stop><stop offset="1" stop-color="#fc8e8e"></stop></linearGradient><linearGradient id="linear-gradient-2" x1="25.311" y1="-0.992" x2="25.27" y2="-0.319" xlink:href="#linear-gradient"></linearGradient><linearGradient id="linear-gradient-3" x1="113.504" y1="-4.948" x2="114.393" y2="-4.948" xlink:href="#linear-gradient"></linearGradient><linearGradient id="linear-gradient-4" x1="169.198" y1="-10.503" x2="169.198" y2="-10.933" xlink:href="#linear-gradient"></linearGradient></defs><g id="Group_521" data-name="Group 521" transform="translate(-2067.385 -2089.837)"><g id="Group_384" data-name="Group 384"><g id="Group_338" data-name="Group 338"><path id="Path_612" data-name="Path 612" d="M2789.162,2709.021H2069.783a2.4,2.4,0,1,1,0-4.795h719.379a2.4,2.4,0,1,1,0,4.795Z" fill="#c5cced"></path></g><g id="Group_339" data-name="Group 339"><path id="Path_613" data-name="Path 613" d="M2258.906,2300.46h-1.6v-80.833l-28.223-22.431v-50.191h1.6v49.42l28.223,22.431Z" fill="#eaeafa"></path></g><g id="Group_340" data-name="Group 340"><path id="Path_614" data-name="Path 614" d="M2251.555,2300.46h-1.6v-77.635l-28.223-22.431v-53.388h1.6v52.617l28.223,22.431Z" fill="#eaeafa"></path></g><g id="Group_341" data-name="Group 341"><path id="Path_615" data-name="Path 615" d="M2244.2,2300.46h-1.6v-74.438l-28.223-22.431v-56.586h1.6v55.814l28.223,22.431Z" fill="#eaeafa"></path></g><g id="Group_342" data-name="Group 342"><path id="Path_616" data-name="Path 616" d="M2618.187,2256.162h-1.6v-68.815l28.223-22.431V2115.5h1.6v50.191l-28.223,22.431Z" fill="#eaeafa"></path></g><g id="Group_343" data-name="Group 343"><path id="Path_617" data-name="Path 617" d="M2625.539,2256.162h-1.6v-65.618l28.223-22.431V2115.5h1.6v53.388l-28.223,22.431Z" fill="#eaeafa"></path></g><g id="Group_344" data-name="Group 344"><path id="Path_618" data-name="Path 618" d="M2632.891,2256.162h-1.6v-62.42l28.223-22.431V2115.5h1.6v56.586l-28.223,22.43Z" fill="#eaeafa"></path></g><path id="Path_619" data-name="Path 619" d="M2197.937,2470.2h491.071c30.6,0,58.235-19.32,67.688-48.419a95.738,95.738,0,0,0-73.054-123.538,95.459,95.459,0,0,0-95.879-74.73,93.528,93.528,0,0,0-52.721,17.737,95.655,95.655,0,0,0-183.354,15.206,80.474,80.474,0,0,0-128.009,64.166,81.908,81.908,0,0,0-18.688-1.648,80.644,80.644,0,0,0-78.421,82.832q.051,1.851.184,3.679C2129.425,2442.25,2161.076,2470.2,2197.937,2470.2Z" fill="#f0f6ff"></path><g id="Group_346" data-name="Group 346"><g id="Group_345" data-name="Group 345" clip-path="url(#clip-path)"><path id="Path_620" data-name="Path 620" d="M2463.284,2217.645v-27.5L2478.8,2176.6h-5.047l-13.78,12.03v29.015a6.483,6.483,0,1,0,3.309,0Zm-1.679,10.839a4.484,4.484,0,1,1,4.492-4.492A4.472,4.472,0,0,1,2461.6,2228.484Z" fill="#eaeafa"></path><path id="Path_621" data-name="Path 621" d="M2495.736,2203.434V2176.6h-3.309v26.834a6.467,6.467,0,1,0,3.309,0Zm-1.647,10.71a4.484,4.484,0,1,1,4.493-4.492A4.5,4.5,0,0,1,2494.089,2214.144Z" fill="#eaeafa"></path></g></g><g id="Group_348" data-name="Group 348"><g id="Group_347" data-name="Group 347" clip-path="url(#clip-path)"><path id="Path_623" data-name="Path 623" d="M2443.767,2338.476l24.4,0c5.616.012,11.23.016,16.849.043a4.662,4.662,0,0,1,2.971,1.1c7.644,7.492,15.151,15.084,22.777,22.577a4.167,4.167,0,0,0,2.616,1.138q11.871.13,23.728,0a4.616,4.616,0,0,0,2.785-1.209c2.258-2.055,4.3-4.363,6.572-6.406a5.183,5.183,0,0,1,3.143-1.32q15.668-.155,31.371-.02a4.708,4.708,0,0,1,2.955,1.261q15.083,14.919,30.012,29.99a4.085,4.085,0,0,0,3.16,1.328c13.638-.055,27.294-.016,40.932-.071a2.374,2.374,0,0,1,2.582,1.6A6.338,6.338,0,0,0,2668,2392.1a6.564,6.564,0,0,0,.034-12.788,6.417,6.417,0,0,0-7.321,3.4,2.4,2.4,0,0,1-2.462,1.58c-13.4-.031-26.785,0-40.186-.071a4.412,4.412,0,0,1-2.8-1.185q-13.682-13.527-27.227-27.193a8.845,8.845,0,0,1-.967-1.343c.374-.08.492-.151.611-.151,4.6,0,9.222.324,13.775-.1,5.1-.479,9.171.711,12.143,5.015,1.071,1.541,2.6,1.865,4.45,1.865,20.349-.071,40.7-.04,61.026-.056,1.122,0,2.039,0,2.566,1.36,1.019,2.754,3.243,4.062,6.233,3.976a6.594,6.594,0,0,0,6.352-5.5,7.082,7.082,0,0,0-4.212-7.185c-2.955-1.039-6.828.182-8.068,2.936-.7,1.549-1.613,1.628-2.938,1.628q-27.361-.022-54.724-.015c-2.549,0-5.368.648-7.576-.253-2.174-.882-3.618-3.415-5.554-5.043a5.536,5.536,0,0,0-3.142-1.328c-19.821-.067-39.66-.031-59.5-.083a4.347,4.347,0,0,0-3.312,1.474c-2.157,2.209-4.314,4.423-6.573,6.525a3.777,3.777,0,0,1-2.259.968q-10.982.106-22,0a3.934,3.934,0,0,1-2.462-1.035c-6.675-6.552-13.266-13.2-19.889-19.819a12.377,12.377,0,0,1-.911-1.2h7.5c10.747.016,22.264.027,33.529.043v.032H2553a1.066,1.066,0,0,0,.34.024.276.276,0,0,1-.153-.024h12.671v-.063l67.493-.024,77.233-.008a2.641,2.641,0,0,1,2.6,1.182,4.942,4.942,0,0,1,.286.549,16.223,16.223,0,0,0,.9,1.79c.111.2.234.383.351.565.157.245.313.49.481.715a12.252,12.252,0,0,0,10.171,5.17c.208,0,.4-.024.6-.028a10.857,10.857,0,0,0,1.086-.044c.225-.015.448-.039.666-.067.339-.047.67-.106,1-.182a13.229,13.229,0,0,0,0-25.71c-.329-.075-.66-.135-1-.182-.218-.028-.441-.047-.666-.063a9.74,9.74,0,0,0-1.086-.048c-.2,0-.4-.031-.6-.024a12.238,12.238,0,0,0-10.171,5.166c-.168.229-.324.47-.481.715-.117.182-.24.367-.351.561a16.349,16.349,0,0,0-.9,1.8,5.6,5.6,0,0,1-.286.545,2.651,2.651,0,0,1-2.6,1.186l-77.233-.012-67.493-.023v-.064h-12.671a.34.34,0,0,1,.153-.019,1.331,1.331,0,0,0-.34.019h-20.857v.032c-11.265.016-22.782.027-33.529.043h-7.5a12.367,12.367,0,0,1,.911-1.2c6.623-6.619,13.214-13.262,19.889-19.815a3.915,3.915,0,0,1,2.462-1.039q11.007-.107,22,0a3.774,3.774,0,0,1,2.259.968c2.259,2.107,4.416,4.316,6.573,6.525a4.337,4.337,0,0,0,3.312,1.478c19.838-.056,39.677-.016,59.5-.087a5.5,5.5,0,0,0,3.142-1.328c1.936-1.628,3.38-4.157,5.554-5.043,2.208-.9,5.027-.252,7.576-.252q27.361,0,54.724-.016c1.325,0,2.242.083,2.938,1.628,1.24,2.754,5.113,3.975,8.068,2.94a7.085,7.085,0,0,0,4.212-7.184,6.592,6.592,0,0,0-6.352-5.5c-2.99-.087-5.214,1.225-6.233,3.971-.527,1.364-1.444,1.364-2.566,1.364-20.331-.016-40.677.016-61.026-.056-1.851,0-3.379.328-4.45,1.869-2.972,4.3-7.047,5.49-12.143,5.015-4.553-.43-9.173-.1-13.775-.1-.119,0-.237-.071-.611-.154a8.548,8.548,0,0,1,.967-1.34q13.579-13.633,27.227-27.2a4.443,4.443,0,0,1,2.8-1.189c13.4-.067,26.785-.032,40.186-.067a2.4,2.4,0,0,1,2.462,1.58,6.419,6.419,0,0,0,7.321,3.4A6.564,6.564,0,0,0,2668,2278.4a6.337,6.337,0,0,0-7.389,3.612,2.37,2.37,0,0,1-2.582,1.6c-13.638-.047-27.294-.016-40.932-.067a4.084,4.084,0,0,0-3.16,1.328q-14.955,15.027-30.012,29.994a4.723,4.723,0,0,1-2.955,1.257q-15.695.125-31.371-.02a5.206,5.206,0,0,1-3.143-1.319c-2.275-2.04-4.314-4.352-6.572-6.406a4.61,4.61,0,0,0-2.785-1.206q-11.874-.131-23.728,0a4.162,4.162,0,0,0-2.616,1.134c-7.626,7.493-15.133,15.085-22.777,22.577a4.662,4.662,0,0,1-2.971,1.1c-5.619.027-11.233.032-16.849.043h-24.4Zm222.794,42.739a4.5,4.5,0,1,1-4.381,4.537A4.537,4.537,0,0,1,2666.561,2381.215Zm21.01-25.7a4.472,4.472,0,0,1,4.45,4.5,4.416,4.416,0,0,1-4.45,4.26,4.333,4.333,0,0,1-4.314-4.378A4.408,4.408,0,0,1,2687.571,2355.52Zm29.225-20.447a8.546,8.546,0,0,1,.176-1.6c.011-.06.03-.115.043-.17a8.782,8.782,0,0,1,.466-1.455c.035-.079.078-.158.114-.237a8.8,8.8,0,0,1,.653-1.173c.078-.119.165-.241.249-.352a9.787,9.787,0,0,1,.742-.889c.136-.138.277-.273.422-.411a9.726,9.726,0,0,1,.811-.66c.179-.13.362-.253.55-.372a9.536,9.536,0,0,1,.9-.486c.2-.094.4-.181.612-.261a8.2,8.2,0,0,1,1.014-.312c.212-.055.426-.1.643-.138a8.908,8.908,0,0,1,1.081-.107c.149-.008.293-.023.442-.023a8.9,8.9,0,0,1,8.609,7.1l0,.036a8.715,8.715,0,0,1,0,3.386.214.214,0,0,0,0,.032,8.9,8.9,0,0,1-8.609,7.1c-.149,0-.293-.016-.442-.024a8.957,8.957,0,0,1-1.081-.107c-.217-.035-.431-.079-.643-.134a9.85,9.85,0,0,1-1.014-.312c-.209-.083-.412-.17-.612-.261a9.534,9.534,0,0,1-.9-.486c-.188-.123-.371-.245-.55-.376a9.729,9.729,0,0,1-.811-.66c-.145-.134-.286-.268-.422-.415a8.8,8.8,0,0,1-.742-.885c-.084-.118-.171-.229-.249-.348a9.118,9.118,0,0,1-.653-1.177c-.036-.079-.079-.154-.114-.237a8.772,8.772,0,0,1-.466-1.455c-.013-.055-.032-.106-.043-.166a8.588,8.588,0,0,1-.176-1.608c0-.055-.007-.115-.007-.174S2716.794,2335.128,2716.8,2335.073Zm-29.225-28.86a4.42,4.42,0,0,1,4.45,4.264,4.477,4.477,0,0,1-4.45,4.5,4.414,4.414,0,0,1-4.314-4.383A4.337,4.337,0,0,1,2687.571,2306.213Zm-21.112-25.92a4.5,4.5,0,1,1-4.279,4.453A4.565,4.565,0,0,1,2666.459,2280.293Z" fill="#eaeafa"></path><path id="Path_624" data-name="Path 624" d="M2535.626,2470.843a1.857,1.857,0,0,1-2.242-.593q-18.422-18.494-36.926-36.859a5.2,5.2,0,0,0-3.294-1.375c-7.779-.119-15.559-.031-23.337-.119a3.94,3.94,0,0,1-2.565-.865q-11.541-11.364-22.912-22.9a3.878,3.878,0,0,1-.583-.952v4.358c7.192,7.141,14.4,14.275,21.508,21.475a5.25,5.25,0,0,0,4.16,1.7c7.525-.063,15.05-.079,22.573.04a5.006,5.006,0,0,1,3.126,1.268c11.77,11.67,23.456,23.407,35.209,35.077,1.359,1.355,2.226,2.5,2.022,4.667a4.884,4.884,0,0,0,6.726,4.825,5.272,5.272,0,0,0,3.244-6.335A5.21,5.21,0,0,0,2535.626,2470.843Zm1.766,8.358a3.762,3.762,0,0,1-3.567-3.5,3.643,3.643,0,0,1,3.617-3.4,3.292,3.292,0,0,1,3.3,3.446A3.465,3.465,0,0,1,2537.392,2479.2Z" fill="#eaeafa"></path><path id="Path_625" data-name="Path 625" d="M2443.767,2365.692a14.75,14.75,0,0,1,1.161.984q17.5,17.529,34.97,35.108a3.358,3.358,0,0,1,.884,2.107c.1,3.189,0,6.382.086,9.563a3.54,3.54,0,0,0,.881,2.138c3.075,3.178,6.183,6.3,9.377,9.374a3.723,3.723,0,0,0,2.276.952c3.431.1,6.9.155,10.327,0a5.211,5.211,0,0,1,4.313,1.818q16.459,16.563,33,33.034c3.38,3.4,6.828,6.746,10.088,10.259a5.873,5.873,0,0,0,4.808,2.007c10.462-.118,20.924-.071,31.387-.118a2.292,2.292,0,0,1,2.4,1.324,4.682,4.682,0,0,0,5.809,2.327,4.737,4.737,0,0,0,3.617-4.706,4.824,4.824,0,0,0-3.448-5.079,5.008,5.008,0,0,0-5.825,2.036,2.509,2.509,0,0,1-2.633,1.327c-8.934-.035-17.868-.225-26.785.068-4.3.138-7.745-.712-10.428-4.229a60.892,60.892,0,0,0-4.348-4.568c1.053-.067,1.6-.138,2.157-.138,6.827-.048,13.639-.032,20.466-.119,1.784-.032,3.176.087,4.246,1.936,1.206,2.024,4.06,2.431,6.1,1.324a5.15,5.15,0,0,0,2.684-6.062,5.037,5.037,0,0,0-4.009-3.667,4.659,4.659,0,0,0-5.2,2.308,2.838,2.838,0,0,1-2.92,1.478c-8.289-.048-16.577,0-24.867-.083a4.413,4.413,0,0,1-2.818-1.087c-11.058-10.923-22.048-21.909-33.1-32.832a4.011,4.011,0,0,0-2.463-1.02c-3.618-.1-7.269-.015-10.9-.067a3.125,3.125,0,0,1-1.97-.423c-2.633-2.485-5.181-5.1-8.085-8,1.155-.071,1.834-.134,2.514-.134h8.407c.968,0,1.919,0,2.871.015.849.016,1.682.032,2.5-.015h6.709a2.623,2.623,0,0,1,1.326.612c6.131,5.991,12.075,12.176,18.173,18.226a4.582,4.582,0,0,0,2.853,1.118q7.363.155,14.726.016a3.1,3.1,0,0,1,3.21,1.684,5.151,5.151,0,0,0,9.359-3.723,5.213,5.213,0,0,0-4.4-4.209c-2.157-.355-3.754.629-5.129,2.257a3.418,3.418,0,0,1-2.26,1.221q-7.26.177-14.538,0a4.209,4.209,0,0,1-2.616-1.1c-6.047-5.908-12.008-11.922-18.055-17.854a3.86,3.86,0,0,0-1.936-.81v-.151h-19.6v.032h-5.316v-9.326c2.14,0,4.213.016,6.268,0h20.008v-.032q14.445.072,28.89-.02a4.88,4.88,0,0,1,3.822,1.565q28.026,28.08,56.135,56.081a3.706,3.706,0,0,1,1.223,3.96c-1.461,5.876,2.751,11.346,8.288,12.448,6.777,1.36,13.673-5.382,12.077-12.077-1.648-6.943-7.423-10.152-14.217-7.808a2.125,2.125,0,0,1-2.632-.55q-25.071-25.092-50.173-50.153c-1.666-1.648-3.261-3.363-5.265-5.434h2.445c5.554,0,11.091-.071,16.644.048a4.732,4.732,0,0,1,2.973,1.193c3.958,3.8,7.813,7.726,11.652,11.67a4.454,4.454,0,0,0,3.5,1.458c12.621-.055,25.257-.015,37.877-.055a3.306,3.306,0,0,1,3.295,1.636,4.555,4.555,0,0,0,4.789,2.087,5.24,5.24,0,0,0,1.071-10.058,5.578,5.578,0,0,0-6.319,2.3,3.01,3.01,0,0,1-2,1.237q-19.133.107-38.266,0a3.714,3.714,0,0,1-2.293-.984c-4.043-3.92-7.966-7.947-12.042-11.851a4.5,4.5,0,0,0-2.786-1.139c-6.812-.1-13.638-.071-20.467-.035-1.545,0-2.989-.02-4.161-1.312a2.826,2.826,0,0,0-1.885-.609q-16.077-.03-32.169.02v-.04h-25.138a5.4,5.4,0,0,1-3.125-1.762c-12.366-12.433-24.78-24.8-37.146-37.23a4.692,4.692,0,0,0-.888-.605Zm150.354,102.638a3.308,3.308,0,0,1,3.448,3.315,3.458,3.458,0,1,1-6.913.095A3.276,3.276,0,0,1,2594.121,2468.33Zm-17.647-11.975a3.452,3.452,0,0,1-.067,6.9,3.453,3.453,0,1,1,.067-6.9Zm-23.558-26.054a3.42,3.42,0,0,1,3.024,3.723,3.76,3.76,0,0,1-3.686,3.161,3.67,3.67,0,0,1-3.194-3.825A3.333,3.333,0,0,1,2552.916,2430.3Zm57.2,29.161a7.367,7.367,0,0,1,7.219,6.911,7.264,7.264,0,0,1-7.083,7.185,7.064,7.064,0,0,1-7.066-6.959A7.235,7.235,0,0,1,2610.12,2459.462Zm20.45-49.236a3.467,3.467,0,0,1,3.517,3.446,3.422,3.422,0,0,1-3.55,3.45,3.449,3.449,0,0,1,.033-6.9Z" fill="#eaeafa"></path><path id="Path_626" data-name="Path 626" d="M2443.767,2263.315a3.833,3.833,0,0,1,.583-.956q11.388-11.517,22.912-22.9a3.94,3.94,0,0,1,2.565-.865c7.778-.087,15.558,0,23.337-.119a5.178,5.178,0,0,0,3.294-1.375q18.55-18.346,36.926-36.855a1.853,1.853,0,0,1,2.242-.6,5.207,5.207,0,0,0,6.709-3.414,5.274,5.274,0,0,0-3.244-6.335,4.885,4.885,0,0,0-6.726,4.825c.2,2.17-.663,3.312-2.022,4.671-11.753,11.67-23.439,23.4-35.209,35.073a4.981,4.981,0,0,1-3.126,1.272c-7.523.119-15.048.1-22.573.036a5.236,5.236,0,0,0-4.16,1.7c-7.112,7.2-14.316,14.334-21.508,21.479Zm93.625-72.022a3.469,3.469,0,0,1,3.347,3.45,3.3,3.3,0,0,1-3.3,3.45,3.643,3.643,0,0,1-3.617-3.4A3.766,3.766,0,0,1,2537.392,2191.293Z" fill="#eaeafa"></path><path id="Path_627" data-name="Path 627" d="M2508.042,2242.758a5.211,5.211,0,0,1-4.313,1.818c-3.432-.15-6.9-.1-10.327,0a3.736,3.736,0,0,0-2.276.952c-3.194,3.075-6.3,6.2-9.377,9.374a3.542,3.542,0,0,0-.881,2.138c-.086,3.177.015,6.374-.086,9.567a3.356,3.356,0,0,1-.884,2.1q-17.451,17.588-34.97,35.1a13.666,13.666,0,0,1-1.161.988v8.927a4.55,4.55,0,0,0,.888-.6q18.549-18.643,37.146-37.231a5.387,5.387,0,0,1,3.125-1.762h25.138v-.04q16.076.036,32.169.024a2.831,2.831,0,0,0,1.885-.617c1.172-1.288,2.616-1.3,4.161-1.3,6.829.032,13.655.064,20.467-.039a4.514,4.514,0,0,0,2.786-1.135c4.076-3.908,8-7.931,12.042-11.855a3.715,3.715,0,0,1,2.293-.984q19.133-.106,38.266,0a3,3,0,0,1,2,1.241,5.582,5.582,0,0,0,6.319,2.292,5.24,5.24,0,0,0-1.071-10.058,4.552,4.552,0,0,0-4.789,2.091,3.31,3.31,0,0,1-3.295,1.632c-12.62-.039-25.256,0-37.877-.055a4.447,4.447,0,0,0-3.5,1.462c-3.839,3.944-7.694,7.864-11.652,11.67a4.727,4.727,0,0,1-2.973,1.189c-5.553.119-11.09.048-16.644.048h-2.445c2-2.071,3.6-3.786,5.265-5.43q25.069-25.074,50.173-50.157l6.29-3.122a7.207,7.207,0,0,1-6.75-7.086,7.067,7.067,0,0,1,7.066-6.963,7.266,7.266,0,0,1,7.083,7.185,6.79,6.79,0,0,1-1.633,4.007l4.793-2.379c1.6-6.7-5.3-13.433-12.077-12.077-5.537,1.106-9.749,6.576-8.288,12.448a3.706,3.706,0,0,1-1.223,3.96q-28.126,28-56.135,56.081a4.879,4.879,0,0,1-3.822,1.565q-14.445-.107-28.89-.016v-.032h-20.008c-2.055-.023-4.128,0-6.268,0v-9.33h5.316v.036h19.6v-.155a3.827,3.827,0,0,0,1.936-.814c6.047-5.923,12.008-11.942,18.055-17.85a4.233,4.233,0,0,1,2.616-1.1q7.284-.177,14.538,0a3.425,3.425,0,0,1,2.26,1.225c1.375,1.629,2.972,2.613,5.129,2.253a5.207,5.207,0,0,0,4.4-4.209,5.15,5.15,0,0,0-9.359-3.719,3.09,3.09,0,0,1-3.21,1.68q-7.364-.13-14.726.016a4.607,4.607,0,0,0-2.853,1.122c-6.1,6.046-12.042,12.231-18.173,18.226a2.7,2.7,0,0,1-1.326.613h-6.709c-.814-.052-1.647-.036-2.5-.02-.952.02-1.9.02-2.871.02h-8.407c-.68,0-1.359-.068-2.514-.139,2.9-2.9,5.452-5.516,8.085-8a3.122,3.122,0,0,1,1.97-.419c3.635-.055,7.286.031,10.9-.071a4.007,4.007,0,0,0,2.463-1.016c11.056-10.923,22.046-21.913,33.1-32.836a4.411,4.411,0,0,1,2.818-1.087c8.29-.079,16.578-.031,24.867-.079a2.835,2.835,0,0,1,2.92,1.474,4.666,4.666,0,0,0,5.2,2.312,5.054,5.054,0,0,0,4.009-3.667,5.157,5.157,0,0,0-2.684-6.066c-2.038-1.1-4.892-.7-6.1,1.328-1.07,1.849-2.462,1.968-4.246,1.936-6.827-.087-13.639-.071-20.466-.119-.561,0-1.1-.071-2.157-.142a60.892,60.892,0,0,0,4.348-4.568c2.683-3.513,6.131-4.363,10.428-4.229,8.917.293,17.851.1,26.785.072a2.506,2.506,0,0,1,2.633,1.323,5.007,5.007,0,0,0,5.825,2.036,4.818,4.818,0,0,0,3.448-5.074,4.734,4.734,0,0,0-3.617-4.707,4.68,4.68,0,0,0-5.809,2.324,2.3,2.3,0,0,1-2.4,1.327c-10.463-.051-20.925,0-31.387-.118a5.879,5.879,0,0,0-4.808,2c-3.26,3.518-6.708,6.865-10.088,10.263Q2524.535,2226.233,2508.042,2242.758Zm122.5,10.615a3.425,3.425,0,0,1,3.55,3.45,3.466,3.466,0,0,1-3.517,3.446,3.449,3.449,0,0,1-.033-6.9Zm-78.283-20.06a3.753,3.753,0,0,1,3.686,3.157,3.42,3.42,0,0,1-3.024,3.723,3.331,3.331,0,0,1-3.856-3.055A3.667,3.667,0,0,1,2552.254,2233.313Zm24.153-26.07a3.45,3.45,0,0,1,.067,6.9,3.451,3.451,0,1,1-.067-6.9Zm17.646-11.974a3.723,3.723,0,0,1,3.516,3.58,3.458,3.458,0,0,1-6.913-.1A3.718,3.718,0,0,1,2594.053,2195.269Z" fill="#eaeafa"></path><path id="Path_628" data-name="Path 628" d="M2749.341,2445.84l-69.4,58.382h-15.854a6.47,6.47,0,1,1,0-3.316h14.646l18.972-15.962h-33.618a6.473,6.473,0,1,1,0-3.316h37.56l15.468-13.014h-53.028a6.473,6.473,0,1,1,0-3.316h56.971l27.07-22.774H2762.5a6.482,6.482,0,1,1,.726,3.316Z" fill="#eaeafa"></path><path id="Path_629" data-name="Path 629" d="M2773.561,2388.7a6.489,6.489,0,0,0-6.267,4.812h-10.519l-30.166,32.611h-12.453l-15.171-17.377H2669.97a6.483,6.483,0,1,0,0,3.309h27.5l15.187,17.394h10.887l-10.871,11.75h-28.487a6.466,6.466,0,1,0,0,3.309h29.942l22.045-23.836h13.588a6.475,6.475,0,1,0,0-3.325h-10.519l18.976-20.51h9.08a6.478,6.478,0,1,0,6.267-8.137Zm-109.938,26.169a4.484,4.484,0,1,1,4.476-4.492A4.486,4.486,0,0,1,2663.623,2414.87Zm14.34,32.484a4.492,4.492,0,1,1,4.476-4.492A4.5,4.5,0,0,1,2677.963,2447.354Z" fill="#eaeafa"></path><path id="Path_630" data-name="Path 630" d="M2784.064,2493.415a6.473,6.473,0,0,1-12.73,1.658h-11.688L2706.813,2533h-5.98a6.474,6.474,0,1,1,0-3.316h4.915l13.431-9.639v-26.625h3.316v24.245l7.734-5.553v-27.2h3.316v24.823l7.734-5.553v-26.367h3.316v23.987l13.983-10.037h12.756a6.473,6.473,0,0,1,12.73,1.658Z" fill="#eaeafa"></path></g></g><path id="Path_632" data-name="Path 632" d="M2709.6,2127.178a136.681,136.681,0,0,0-30.088-28.752,16.723,16.723,0,0,0-9.5,2.91,17.086,17.086,0,0,0-32.813,1.823,14.374,14.374,0,0,0-23.173,10.833,14.651,14.651,0,0,0-3.33-.386,14.4,14.4,0,0,0-14.366,13.572Z" fill="#f0f6ff"></path><path id="Path_633" data-name="Path 633" d="M2284.178,2150.209a136.636,136.636,0,0,0-30.088-28.752,16.723,16.723,0,0,0-9.5,2.91,17.086,17.086,0,0,0-32.813,1.823,14.374,14.374,0,0,0-23.173,10.832,14.633,14.633,0,0,0-3.33-.386,14.4,14.4,0,0,0-14.366,13.573Z" fill="#f0f6ff"></path><path id="Path_634" data-name="Path 634" d="M2132.885,2647.692l11.151,3.357c-1.517,8.131-13.116,23.08-3.99,31.081,11.171,9.793,15.839,13.526,16.288,21.473a1.325,1.325,0,0,1-1.686,1.369l-37.19-11.2a1.276,1.276,0,0,1-.778-1.824C2118.488,2688.568,2132.609,2654.816,2132.885,2647.692Z" fill="#0072ff"></path><path id="Path_635" data-name="Path 635" d="M2258.313,2655.382l11.645.069c.843,8.228-6.06,25.845,4.955,30.942,13.483,6.237,19.015,8.5,21.691,16a1.324,1.324,0,0,1-1.229,1.789l-38.839-.232a1.278,1.278,0,0,1-1.263-1.531C2256.053,2698.66,2260.061,2662.294,2258.313,2655.382Z" fill="#0072ff"></path><path id="Path_636" data-name="Path 636" d="M2124.357,2666.795l70.628-244.431,75.614,12.392s43.248,85.382,47.418,98.52-42.169,130.413-42.169,130.413l-22.434.005s24.675-111.884,32.941-121.309l-52.769-74.4s-43.5,86.348-45.936,91.733c-2.394,5.294-11.609,58.914-44.01,107.081Z" fill="#002450"></path><g id="Group_383" data-name="Group 383"><g id="Group_365" data-name="Group 365"><g id="Group_363" data-name="Group 363"><path id="Path_637" data-name="Path 637" d="M2366.151,2271.131a51.838,51.838,0,0,0-3.721-11.1l-.077.036a15.854,15.854,0,0,0-4.723,3.27,7.089,7.089,0,0,1-1.662.937,15.7,15.7,0,0,1-.948-3.063,14.753,14.753,0,0,0-2.067-6.652,6.639,6.639,0,0,0-3.144-2.761,1.334,1.334,0,0,0-1.654.248,1.281,1.281,0,0,0,.062,1.593,6.434,6.434,0,0,0,.726,1.072c.992.938.852,2.21,1.057,3.372a19.12,19.12,0,0,1-.113,7.362,8.321,8.321,0,0,0,.291,3.51,55.9,55.9,0,0,1,1.02,6.887,3.162,3.162,0,0,1-.906,2.07,199.016,199.016,0,0,1-15.758,14.714c-.662.58-1.295,1.2-1.947,1.8l10.7,11.547c.51-.548,1.065-1.1,1.563-1.691,1.273-1.522,2.521-3.065,3.779-4.6,1.689-2.062,3.473-4.055,5.04-6.206a29.087,29.087,0,0,1,5.458-5.617,10.521,10.521,0,0,1,2.221-1.334,30.011,30.011,0,0,0,6.382-4.349c.567-.459,1.109-.948,1.665-1.421A59.544,59.544,0,0,1,2366.151,2271.131Z" fill="#fcb3b3"></path><g id="Group_362" data-name="Group 362"><g id="Group_352" data-name="Group 352"><g id="Group_351" data-name="Group 351" style="isolation: isolate"><g id="Group_349" data-name="Group 349"><path id="Path_638" data-name="Path 638" d="M2365.988,2286.97a7.269,7.269,0,0,0,4.483-2.151c.383-.462.489-.869.359-1.177l-10.235-24.63a1.206,1.206,0,0,1-.359,1.177,7.3,7.3,0,0,1-4.483,2.151c-.9.066-1.472-.152-1.643-.547l10.239,24.626C2364.515,2286.819,2365.092,2287.039,2365.988,2286.97Z" fill="#0072ff"></path></g><g id="Group_350" data-name="Group 350"><path id="Path_639" data-name="Path 639" d="M2355.751,2262.34a7.277,7.277,0,0,0,4.484-2.153c.878-1.067.3-1.842-1.291-1.725a7.265,7.265,0,0,0-4.473,2.148C2353.589,2261.681,2354.165,2262.456,2355.751,2262.34Z" fill="#0072ff"></path></g></g></g><g id="Group_357" data-name="Group 357"><g id="Group_356" data-name="Group 356" style="isolation: isolate"><g id="Group_353" data-name="Group 353"><path id="Path_640" data-name="Path 640" d="M2352.229,2252.841l3.389,7.9c.082.189.356.294.784.262l-3.389-7.9C2352.585,2253.135,2352.311,2253.03,2352.229,2252.841Z" fill="#002450"></path></g><g id="Group_354" data-name="Group 354"><path id="Path_641" data-name="Path 641" d="M2358.713,2259.416l-3.388-7.9c.062.145.011.34-.171.561a3.477,3.477,0,0,1-2.141,1.028l3.389,7.9a3.463,3.463,0,0,0,2.14-1.028C2358.724,2259.755,2358.776,2259.561,2358.713,2259.416Z" fill="#002450"></path></g><g id="Group_355" data-name="Group 355"><path id="Path_642" data-name="Path 642" d="M2353.013,2253.1a3.477,3.477,0,0,0,2.141-1.028c.419-.51.144-.88-.616-.824a3.47,3.47,0,0,0-2.136,1.026C2351.98,2252.789,2352.256,2253.159,2353.013,2253.1Z" fill="#c5d4dd"></path></g></g></g><g id="Group_358" data-name="Group 358"><path id="Path_643" data-name="Path 643" d="M2350.436,2253.111l5.287-1.718c2.637-.865,4.71-3.466,5.574-7.6,1.718-8.225-1.966-19.435-8.217-24.989-3.1-2.761-6.261-3.614-8.87-2.766l-5.283,1.722c2.6-.848,5.766,0,8.866,2.763,6.255,5.557,9.935,16.763,8.218,24.988C2355.146,2249.645,2353.077,2252.25,2350.436,2253.111Z" fill="#dadaf5"></path></g><g id="Group_359" data-name="Group 359" opacity="0.6"><path id="Path_644" data-name="Path 644" d="M2343.342,2251.486c6.731,5.991,13.722,3.645,15.58-5.224s-2.126-20.958-8.865-26.941-13.729-3.652-15.573,5.216S2336.6,2245.488,2343.342,2251.486Z" fill="#4f5cd3"></path></g><g id="Group_360" data-name="Group 360"><path id="Path_645" data-name="Path 645" d="M2341.214,2252.029c3.452,3.073,6.968,4.02,9.868,3.074l5.287-1.718c-2.9.946-6.42-.005-9.872-3.078-6.95-6.179-11.051-18.656-9.14-27.8.958-4.6,3.262-7.5,6.2-8.46l-5.283,1.722c-2.937.956-5.242,3.856-6.206,8.461C2330.156,2233.374,2334.26,2245.846,2341.214,2252.029Z" fill="#dadaf5"></path></g><g id="Group_361" data-name="Group 361"><path id="Path_646" data-name="Path 646" d="M2353.432,2217.117c6.954,6.183,11.054,18.652,9.141,27.806s-9.121,11.569-16.076,5.385-11.053-18.655-9.142-27.805S2346.48,2210.937,2353.432,2217.117Zm7.864,26.671c1.719-8.226-1.966-19.434-8.215-24.99s-12.727-3.383-14.446,4.843,1.967,19.429,8.214,24.983,12.73,3.386,14.447-4.836" fill="#c8c8ee"></path></g></g><path id="Path_647" data-name="Path 647" d="M2356.681,2265.361a4.658,4.658,0,0,1,1.4-2.733,16.013,16.013,0,0,1,4.2-2.51,17.55,17.55,0,0,1,2.394-.911c3.25.509,10.625,19.221,7.106,22.295-.265.037-.53.077-.794.114a5.271,5.271,0,0,1-1.275-.07,19.568,19.568,0,0,1-2.371-.3,2.723,2.723,0,0,1-2.407-2.7c-.047-.3-.079-.595-.115-.875-3.1-.794-3.39-1.238-2.878-4.49a2.721,2.721,0,0,1-2.723-1.657,3.211,3.211,0,0,1,.37-3.2,14.539,14.539,0,0,1-2.1-.869A1.79,1.79,0,0,1,2356.681,2265.361Z" fill="#fcb3b3"></path></g><path id="Path_648" data-name="Path 648" d="M2353.306,2296.488l-10.406,10.269a8.266,8.266,0,0,1-11.684-.076l-.6-.61a8.253,8.253,0,0,1,.09-11.672l10.406-10.269a8.248,8.248,0,0,1,11.659.077l.6.61A8.263,8.263,0,0,1,2353.306,2296.488Z" fill="#fff"></path><g id="Group_364" data-name="Group 364"><path id="Path_649" data-name="Path 649" d="M2348.05,2306.311l-44.1,45.462a11.263,11.263,0,0,1-9.882,4.518c-.111-.012-.224-.008-.335-.019a11.24,11.24,0,0,1-8.762-5.925l-19.632-36.941a11.255,11.255,0,1,1,19.876-10.568l11.278,21.221,35.28-33.293a11.254,11.254,0,1,1,16.279,15.545Z" fill="#0072ff"></path></g></g><g id="Group_366" data-name="Group 366"><path id="Path_650" data-name="Path 650" d="M2271.578,2435.5c-1.7,10.329-79.3-3.5-77.585-13.831,10.878-66.423-1.415-115.666,9.988-125.357,1.268-1.078,5.8-8.02,23.171-12.282.687-.171,1.4-.338,2.13-.489.239-.056.491-.11.744-.164.53-.075,1.014-.128,1.526-.177.043,0,.118-.014.16-.008a78.586,78.586,0,0,1,9.234-.218,76.594,76.594,0,0,1,7.691.652c.341.044.682.088,1.021.147.668.086,1.332.2,2.011.319.536.1,1.076.168,1.648.329a64.052,64.052,0,0,1,7.278,1.711c.793.233,1.6.482,2.389.744q1.02.327,2.034.7c6.967,2.552,13.387,6.421,17.361,12.211C2284.372,2327.891,2275.576,2386.723,2271.578,2435.5Z" fill="#0072ff"></path></g><g id="Group_382" data-name="Group 382"><g id="Group_367" data-name="Group 367"><path id="Path_651" data-name="Path 651" d="M2265.018,2287.577a13.218,13.218,0,0,1-6.156,7.121,23.386,23.386,0,0,1-13.594,2.859c-.473-.032-.958-.081-1.427-.142-9.181-1.192-15.972-6.77-16.689-13.381.687-.171,1.4-.338,2.13-.489.239-.056.491-.11.744-.164.53-.075,1.014-.128,1.526-.177.043,0,.118-.014.16-.008a78.586,78.586,0,0,1,9.234-.218c2.887.245,5.818.495,8.712.8.668.086,1.332.2,2.011.319.536.1,1.076.168,1.648.329a64.052,64.052,0,0,1,7.278,1.711c.793.233,1.6.482,2.389.744Q2264,2287.207,2265.018,2287.577Z" fill="#fff"></path><path id="Path_652" data-name="Path 652" d="M2262.984,2286.88c-1.853,5.482-9.156,9.187-17.555,8.545-8.787-.664-15.672-5.85-16.147-11.88.239-.056.491-.11.744-.164.53-.075,1.014-.128,1.526-.177.043,0,.118-.014.16-.008q2-.175,4.017-.216l4.157-32.02a9.495,9.495,0,1,1,18.831,2.445l-4.059,31.267c1.958.384,3.947.873,5.937,1.464C2261.388,2286.369,2262.194,2286.618,2262.984,2286.88Z" fill="url(#linear-gradient)"></path></g><g id="Group_381" data-name="Group 381"><g id="Group_369" data-name="Group 369"><path id="Path_653" data-name="Path 653" d="M2261.833,2233.82l4.246,23.025a17.461,17.461,0,1,1-34.342,6.333l-4.246-23.026a17.46,17.46,0,0,1,34.342-6.332Z" fill="url(#linear-gradient-2)"></path><path id="Path_654" data-name="Path 654" d="M2231.831,2255.521c-1.7.426-3.333-.835-4.477-2.165a20.352,20.352,0,0,1-4.2-8.011c-.316-1.215-.447-2.768.532-3.6a2.27,2.27,0,0,1,2.153-.412,4.964,4.964,0,0,1,1.955,1.16,9.589,9.589,0,0,1,3,5.7Z" fill="url(#linear-gradient-3)"></path><g id="Group_368" data-name="Group 368"><path id="Path_655" data-name="Path 655" d="M2269.516,2233.408c-7.128,5.62-36.006,3.611-36.516,3.443-.047,0-.095.139-.1.372-.095,2.37,1.346,15.382.254,17.462-1.187,2.266-1.531-2.457-2.054-3.6-.5-1.144-3-8.448-3-8.448a20.911,20.911,0,0,0-2.42-6.281c-1.806-2.878-5.407-9.637-2.331-14.6,3.053-4.967,7.609-2.779,7.609-2.779s9.013-12.178,19.612-11.925,6.834,8.792,6.834,8.792,5.181-1.851,9.058-1.32c1.951.23,3.546,1.084,4.013,3.041C2270.477,2217.561,2276.644,2227.765,2269.516,2233.408Z" fill="#002450"></path></g></g><g id="Group_380" data-name="Group 380"><g id="Group_370" data-name="Group 370"><path id="Path_656" data-name="Path 656" d="M2259.148,2243.335a8.446,8.446,0,0,1-6.228.076c-.406-.168-.409-.522-.007-.7a8.5,8.5,0,0,1,6.225-.077C2259.547,2242.8,2259.551,2243.158,2259.148,2243.335Z" fill="#121c7c"></path></g><g id="Group_371" data-name="Group 371"><path id="Path_657" data-name="Path 657" d="M2242.7,2244.25a8.433,8.433,0,0,1-6.09,1.333c-.431-.079-.5-.43-.144-.69a8.484,8.484,0,0,1,6.077-1.33C2242.977,2243.641,2243.063,2243.991,2242.7,2244.25Z" fill="#121c7c"></path></g><g id="Group_378" data-name="Group 378"><g id="Group_372" data-name="Group 372"><path id="Path_658" data-name="Path 658" d="M2248.052,2271.5a5.475,5.475,0,0,1-4.908-2.384.66.66,0,0,1,1.1-.733,4.1,4.1,0,0,0,5.135,1.4.66.66,0,1,1,.546,1.2A5.8,5.8,0,0,1,2248.052,2271.5Z" fill="#fff"></path></g><g id="Group_373" data-name="Group 373"><path id="Path_659" data-name="Path 659" d="M2244.654,2253.251a1.255,1.255,0,1,1-1.367-1.13A1.254,1.254,0,0,1,2244.654,2253.251Z" fill="#121c7c"></path></g><g id="Group_374" data-name="Group 374"><path id="Path_660" data-name="Path 660" d="M2257.024,2252.08a1.254,1.254,0,1,1-1.367-1.13A1.254,1.254,0,0,1,2257.024,2252.08Z" fill="#121c7c"></path></g><g id="Group_375" data-name="Group 375"><path id="Path_661" data-name="Path 661" d="M2257.687,2259.081a6.245,6.245,0,1,1,5.629-6.805A6.253,6.253,0,0,1,2257.687,2259.081Zm-1.078-11.383a5.189,5.189,0,1,0,5.655,4.677A5.2,5.2,0,0,0,2256.609,2247.7Z" fill="#fff"></path></g><g id="Group_376" data-name="Group 376"><path id="Path_662" data-name="Path 662" d="M2243.5,2260.424a6.245,6.245,0,1,1,5.628-6.805A6.252,6.252,0,0,1,2243.5,2260.424Zm-1.077-11.383a5.189,5.189,0,1,0,5.654,4.677A5.194,5.194,0,0,0,2242.426,2249.041Z" fill="#fff"></path></g><g id="Group_377" data-name="Group 377"><path id="Path_663" data-name="Path 663" d="M2248.858,2254.041l-.77-.722a2.883,2.883,0,0,1,2.082-1.11,2.22,2.22,0,0,1,1.631.842l-.788.7a1.2,1.2,0,0,0-.856-.49A1.983,1.983,0,0,0,2248.858,2254.041Z" fill="#fff"></path></g></g><g id="Group_379" data-name="Group 379"><path id="Path_664" data-name="Path 664" d="M2253.366,2263.782l-4.808.456a.454.454,0,0,1-.466-.621,27.781,27.781,0,0,0,1.453-5.093.428.428,0,0,1,.4-.364l.913-.086a.45.45,0,0,1,.47.282,26.955,26.955,0,0,0,2.383,4.73A.457.457,0,0,1,2253.366,2263.782Z" fill="url(#linear-gradient-4)"></path></g></g></g></g></g><path id="Path_665" data-name="Path 665" d="M2332.688,2390.237a6.383,6.383,0,0,1,.345,1.946c-.152,1.043-.789,1.457-1.861,1.324s-2.132-.392-3.2-.6c-.241-.048-.474-.131-.89-.248.384.563.693.954.936,1.382a1.488,1.488,0,0,1-1.118,2.368,8.082,8.082,0,0,1-4.325-.873c-.61-.25-1.178-.6-1.8-.827a25.439,25.439,0,0,1-9.112-6,15.494,15.494,0,0,0-8.061-3.956,16.089,16.089,0,0,0-2.222-.2c-2.852-.176-5.7-.342-8.557-.517-.077,0-.151-.072-.295-.144.08-.261.147-.527.242-.784,1.493-4.058,3-8.11,4.473-12.174.221-.612.443-.71,1.117-.579,2.471.479,4.967.831,7.455,1.216.592.092,1.2.109,1.787.2a6.975,6.975,0,0,0,4.193-.813c2.544-1.252,5.341-1.575,8.1-2.008a27.167,27.167,0,0,1,9.365.378,14.163,14.163,0,0,0,6.5.037,6.98,6.98,0,0,1,2.047-.118.815.815,0,0,1,.749,1.226,4.766,4.766,0,0,1-3.014,2.6c-2.5.939-5.1.768-7.694.667l-1.225-.048a1.2,1.2,0,0,0,.466,1.766,40.145,40.145,0,0,0,4.984,2.7c5.256,2.117,10.585,4.053,15.85,6.15a6.425,6.425,0,0,1,2.322,1.773.864.864,0,0,1-.651,1.493,15.071,15.071,0,0,1-3.641-.252c-2.192-.43-4.367-.962-6.521-1.552-1.856-.509-3.677-1.143-5.5-1.752-1.037-.345-2.054-.751-3.246-1.19.066.324.043.558.143.64a17.091,17.091,0,0,0,1.5,1.109,39.431,39.431,0,0,1,4.225,2.749c1.568,1.336,1.025,2.7-.268,3.419a2.671,2.671,0,0,1-2.4-.055C2333.479,2390.51,2333.045,2390.369,2332.688,2390.237Z" fill="#fcb3b3"></path><path id="Path_666" data-name="Path 666" d="M2287.711,2365.116l14.216,3.412a8.266,8.266,0,0,1,6.106,9.962l-.2.833a8.252,8.252,0,0,1-9.958,6.088L2283.659,2382a8.248,8.248,0,0,1-6.093-9.941l.2-.833A8.263,8.263,0,0,1,2287.711,2365.116Z" fill="#fff"></path><path id="Path_667" data-name="Path 667" d="M2293.032,2385.225a12.4,12.4,0,0,0-2.057-23.329l-43.791-11.013-26.272-46.91a12.4,12.4,0,1,0-21.631,12.115l28.882,51.571a12.4,12.4,0,0,0,7.792,5.964l48.971,12.318A12.352,12.352,0,0,0,2293.032,2385.225Z" fill="#0072ff"></path><path id="Path_668" data-name="Path 668" d="M2442.685,2531.238a11.383,11.383,0,0,1-11.388,11.388h-57.412a11.383,11.383,0,0,1-1.376-22.685v-.092a11.387,11.387,0,0,1,11.388-11.388,11.883,11.883,0,0,1,1.6.112,17.776,17.776,0,0,1,34.227.143,11.674,11.674,0,0,1,2.406-.255,11.387,11.387,0,0,1,11.388,11.388v.224A11.379,11.379,0,0,1,2442.685,2531.238Z" fill="#f6f6fe"></path><path id="Path_669" data-name="Path 669" d="M2591.637,2639.566a11.383,11.383,0,0,1-11.389,11.389h-57.411a11.383,11.383,0,0,1-1.377-22.685v-.092a11.388,11.388,0,0,1,11.389-11.389,11.735,11.735,0,0,1,1.6.113,17.775,17.775,0,0,1,34.226.142,11.7,11.7,0,0,1,2.407-.255,11.387,11.387,0,0,1,11.388,11.389v.224A11.379,11.379,0,0,1,2591.637,2639.566Z" fill="#f6f6fe"></path><path id="Path_670" data-name="Path 670" d="M2725.8,2551.227a11.383,11.383,0,0,1-11.389,11.388H2657a11.383,11.383,0,0,1-1.376-22.685v-.091a11.388,11.388,0,0,1,11.389-11.389,11.88,11.88,0,0,1,1.6.112,17.776,17.776,0,0,1,34.227.143,11.674,11.674,0,0,1,2.406-.255,11.388,11.388,0,0,1,11.389,11.389v.224A11.379,11.379,0,0,1,2725.8,2551.227Z" fill="#f6f6fe"></path></g></g></svg>