<svg xmlns="http://www.w3.org/2000/svg" xmlns:xlink="http://www.w3.org/1999/xlink" width="324.252" height="171.663" viewBox="0 0 324.252 171.663"><defs><linearGradient id="linear-gradient" x1="1" y1="0.5" x2="0.341" y2="0.5" gradientUnits="objectBoundingBox"><stop offset="0" stop-color="#fff"></stop><stop offset="0.3" stop-color="#f2f5fe"></stop><stop offset="0.848" stop-color="#d1ddfb"></stop><stop offset="1" stop-color="#c7d6fb"></stop></linearGradient><linearGradient id="linear-gradient-2" x1="0.5" y1="0.01" x2="0.5" y2="0.847" gradientUnits="objectBoundingBox"><stop offset="0" stop-color="#dde8ff"></stop><stop offset="1" stop-color="#e4f1ff"></stop></linearGradient><linearGradient id="linear-gradient-3" y1="0.5" x2="1.007" y2="0.5" gradientUnits="objectBoundingBox"><stop offset="0" stop-color="#becefa"></stop><stop offset="0.505" stop-color="#d3e1fc"></stop><stop offset="1" stop-color="#e4f1ff"></stop></linearGradient><linearGradient id="linear-gradient-4" x1="0.5" y1="0.945" x2="0.5" y2="0.07" gradientUnits="objectBoundingBox"><stop offset="0" stop-color="#00eaff"></stop><stop offset="0.37" stop-color="#00beff"></stop><stop offset="0.787" stop-color="#0093ff"></stop><stop offset="1" stop-color="#0083ff"></stop></linearGradient><linearGradient id="linear-gradient-6" x1="171.43" y1="0.164" x2="171.43" y2="1.124" xlink:href="#linear-gradient-3"></linearGradient><linearGradient id="linear-gradient-7" x1="0.5" y1="0.164" x2="0.5" y2="1.124" xlink:href="#linear-gradient-3"></linearGradient><linearGradient id="linear-gradient-9" x1="0.5" y1="0.164" x2="0.5" y2="1.124" xlink:href="#linear-gradient-3"></linearGradient><linearGradient id="linear-gradient-10" x1="0.5" y1="0.164" x2="0.5" y2="1.124" xlink:href="#linear-gradient-3"></linearGradient><linearGradient id="linear-gradient-11" x1="0.943" y1="0.5" x2="0.029" y2="0.5" xlink:href="#linear-gradient-2"></linearGradient></defs><g id="Group_246" data-name="Group 246" transform="translate(-449 -1801)"><g id="Vector_Smart_Object" data-name="Vector Smart Object" transform="translate(449 1801)"><g id="Group_130" data-name="Group 130"><path id="Path_158" data-name="Path 158" d="M1138.53,848.556,999.64,926.749l138.89,78.193,138.89-78.193Z" transform="translate(-999.638 -833.279)" fill="#9f99d1" style="mix-blend-mode: multiply;isolation: isolate"></path><path id="Path_159" data-name="Path 159" d="M1111.267,846.63h-46.088v156.808h46.088l139.266-78.4Z" transform="translate(-926.281 -835.435)" opacity="0.8" fill="url(#linear-gradient)" style="mix-blend-mode: multiply;isolation: isolate"></path><g id="Group_129" data-name="Group 129"><path id="Path_160" data-name="Path 160" d="M999.639,889.863l138.892,78.189.005-11.619L999.644,878.244Z" transform="translate(-999.639 -800.049)" fill="url(#linear-gradient-2)"></path><path id="Path_161" data-name="Path 161" d="M1065.183,968.053l138.892-78.189-.006-11.619-138.891,78.189Z" transform="translate(-926.281 -800.049)" fill="url(#linear-gradient-3)"></path><path id="Path_162" data-name="Path 162" d="M1138.532,841.347,999.642,919.54l138.89,78.192,138.89-78.192Z" transform="translate(-999.635 -841.347)" fill="#fff"></path><path id="Path_163" data-name="Path 163" d="M1110.629,855.382l-86.058,48.448,86.058,48.449,86.057-48.449Z" transform="translate(-971.732 -825.638)" fill="url(#linear-gradient-4)"></path><path id="Path_164" data-name="Path 164" d="M1094.343,859.008l-55.22,31.088,55.22,31.088,55.22-31.088Z" transform="translate(-955.446 -821.581)" fill="#fff"></path><path id="Path_165" data-name="Path 165" d="M1094.343,904.766v9.677l-55.22-31.088v-9.677Z" transform="translate(-955.446 -805.16)" fill="url(#linear-gradient-2)"></path><path id="Path_166" data-name="Path 166" d="M1065.178,904.766v9.677l55.22-31.088v-9.677Z" transform="translate(-926.281 -805.16)" fill="url(#linear-gradient-6)"></path><g id="Group_128" data-name="Group 128" transform="translate(14.82 5.11)"><g id="Group_124" data-name="Group 124" transform="translate(0 67.003)"><path id="Path_167" data-name="Path 167" d="M1016.766,878.225c0-1.575-2.27-2.851-5.067-2.851s-5.067,1.275-5.067,2.851v3.229c0,1.576,2.265,2.851,5.067,2.851s5.067-1.275,5.067-2.851Z" transform="translate(-1006.632 -875.375)" fill="url(#linear-gradient-7)"></path><path id="Path_168" data-name="Path 168" d="M1006.632,878.225c0,1.576,2.265,2.855,5.067,2.855s5.067-1.28,5.067-2.855-2.27-2.851-5.067-2.851S1006.632,876.65,1006.632,878.225Z" transform="translate(-1006.632 -875.375)" fill="#fff"></path></g><g id="Group_125" data-name="Group 125" transform="translate(238.02 67.003)"><path id="Path_169" data-name="Path 169" d="M1129.077,878.225c0-1.575-2.27-2.851-5.067-2.851s-5.067,1.275-5.067,2.851v3.229c0,1.576,2.27,2.851,5.067,2.851s5.067-1.275,5.067-2.851Z" transform="translate(-1118.943 -875.375)" fill="url(#linear-gradient-7)"></path><path id="Path_170" data-name="Path 170" d="M1118.943,878.225c0,1.576,2.266,2.855,5.067,2.855s5.067-1.28,5.067-2.855-2.27-2.851-5.067-2.851S1118.943,876.65,1118.943,878.225Z" transform="translate(-1118.943 -875.375)" fill="#fff"></path></g><g id="Group_126" data-name="Group 126" transform="translate(119.01)"><path id="Path_171" data-name="Path 171" d="M1072.922,846.614c0-1.576-2.27-2.855-5.067-2.855s-5.067,1.279-5.067,2.855v3.225c0,1.576,2.27,2.855,5.067,2.855s5.067-1.279,5.067-2.855Z" transform="translate(-1062.787 -843.759)" fill="url(#linear-gradient-9)"></path><path id="Path_172" data-name="Path 172" d="M1062.787,846.614c0,1.576,2.265,2.851,5.067,2.851s5.067-1.275,5.067-2.851-2.27-2.855-5.067-2.855S1062.787,845.038,1062.787,846.614Z" transform="translate(-1062.787 -843.759)" fill="#fff"></path></g><g id="Group_127" data-name="Group 127" transform="translate(119.01 134.002)"><path id="Path_173" data-name="Path 173" d="M1072.922,909.843c0-1.58-2.27-2.855-5.067-2.855s-5.067,1.275-5.067,2.855v3.225c0,1.576,2.27,2.855,5.067,2.855s5.067-1.279,5.067-2.855Z" transform="translate(-1062.787 -906.988)" fill="url(#linear-gradient-10)"></path><path id="Path_174" data-name="Path 174" d="M1062.787,909.843c0,1.576,2.265,2.851,5.067,2.851s5.067-1.275,5.067-2.851-2.27-2.855-5.067-2.855S1062.787,908.264,1062.787,909.843Z" transform="translate(-1062.787 -906.988)" fill="#fff"></path></g></g><ellipse id="Ellipse_37" data-name="Ellipse 37" cx="25.887" cy="14.574" rx="25.887" ry="14.574" transform="translate(113.01 53.941)" fill="url(#linear-gradient-11)"></ellipse></g></g></g></g></svg>