<svg xmlns="http://www.w3.org/2000/svg" xmlns:xlink="http://www.w3.org/1999/xlink" width="724.175" height="592.443" viewBox="0 0 724.175 592.443"><defs><linearGradient id="linear-gradient" y1="0.5" x2="1" y2="0.5" gradientUnits="objectBoundingBox"><stop offset="0" stop-color="#00c5ff"></stop><stop offset="0.995" stop-color="#0072ff"></stop></linearGradient></defs><g id="Group_513" data-name="Group 513" transform="translate(-1146.621 -150)"><g id="Group_512" data-name="Group 512"><g id="Group_511" data-name="Group 511"><g id="Group_178" data-name="Group 178"><g id="Group_124" data-name="Group 124"><path id="Path_158" data-name="Path 158" d="M1868.4,742.443H1149.019a2.4,2.4,0,1,1,0-4.8H1868.4a2.4,2.4,0,1,1,0,4.8Z" fill="#c5cced"></path></g><g id="Group_125" data-name="Group 125"><path id="Path_159" data-name="Path 159" d="M1602.523,606.643q-1.126,0-2.255-.046l.064-1.6a50.484,50.484,0,0,0,9.414-.478l.237,1.581A50.4,50.4,0,0,1,1602.523,606.643Zm-11.889-1.149a92.635,92.635,0,0,1-9.4-2.27l.453-1.533a91.278,91.278,0,0,0,9.238,2.231Zm28.77-1.919-.594-1.484.633-.26a39.672,39.672,0,0,0,7.588-4.249l.928,1.3a41.3,41.3,0,0,1-7.9,4.42Zm-47.31-3.451c-2.988-1.133-5.987-2.364-8.911-3.661l.648-1.461c2.9,1.284,5.869,2.505,8.829,3.627Zm63.162-7.681-1.169-1.09a60.449,60.449,0,0,0,5.856-7.426l1.325.893A61.885,61.885,0,0,1,1635.256,592.443Zm-80.774-.117c-2.845-1.448-5.693-3-8.464-4.6l.8-1.383c2.746,1.588,5.568,3.121,8.389,4.557Zm-16.674-9.64c-2.671-1.739-5.339-3.579-7.929-5.466l.941-1.293c2.568,1.872,5.213,3.7,7.861,5.42Zm108.354-6.224-1.424-.728c1.378-2.7,2.695-5.615,3.915-8.673l1.484.592C1648.9,570.757,1647.562,573.72,1646.162,576.462Zm-123.916-5.12c-2.488-2.023-4.948-4.132-7.312-6.271l1.072-1.185c2.344,2.12,4.783,4.211,7.248,6.215Zm131.148-12.759-1.518-.5c1-3.027,1.942-6.08,2.882-9.132l1.529.471C1655.343,552.483,1654.4,555.545,1653.394,558.583Zm-145.433-.16c-2.254-2.266-4.478-4.624-6.609-7.007l1.191-1.066c2.113,2.363,4.317,4.7,6.551,6.946Zm198.8-6.7-.149-1.592a33.27,33.27,0,0,0,9.093-2.111l.584,1.488A34.819,34.819,0,0,1,1706.766,551.725Zm-9.743-.2a59.283,59.283,0,0,1-9.5-2.022l.456-1.533a57.527,57.527,0,0,0,9.243,1.969Zm-18.582-5.416q-1.095-.493-2.166-1.015c-2.264-1.1-4.421-2.272-6.413-3.467l.822-1.37c1.953,1.171,4.07,2.315,6.292,3.4q1.049.51,2.122,1Zm46.288-1.6-1.036-1.216a28.8,28.8,0,0,0,5.989-7.105l1.371.824A30.393,30.393,0,0,1,1724.729,544.5Zm-229.6-.436c-2-2.5-3.962-5.083-5.819-7.677l1.3-.93c1.841,2.569,3.781,5.13,5.767,7.608Zm164.022-3.784-1.52-.493c.69-2.129,1.334-4.031,1.965-5.8a45.646,45.646,0,0,1-4.512-4.874l1.252-.994a43.371,43.371,0,0,0,3.854,4.227q.309-.84.618-1.649l1.494.569c-.281.737-.561,1.488-.842,2.262q.724.651,1.488,1.286l-1.023,1.229q-.53-.442-1.045-.893C1660.322,536.726,1659.753,538.414,1659.148,540.279Zm75.6-12.354-1.557-.367a28.743,28.743,0,0,0,.777-6.589c0-.9-.045-1.8-.132-2.673l1.591-.159c.093.93.139,1.882.139,2.832A30.371,30.371,0,0,1,1734.749,527.925Zm-68.7-5.41-1.438-.7c1.179-2.428,2.438-4.74,3.741-6.871q.488-.793,1-1.577l1.335.879q-.5.76-.973,1.532C1668.443,517.869,1667.208,520.135,1666.052,522.515Zm-16.063-1.733a44.715,44.715,0,0,1-2.991-9.276l1.565-.328a43.045,43.045,0,0,0,2.882,8.943Zm81.339-11.409a29.658,29.658,0,0,0-5.274-7.662l1.16-1.1a31.236,31.236,0,0,1,5.558,8.074Zm-54.783-2.542-1.166-1.093a53.953,53.953,0,0,1,7.253-6.478l.951,1.285A52.444,52.444,0,0,0,1676.545,506.831Zm-30.693-4.971q-.059-1.471-.058-2.956c0-2.127.088-4.388.262-6.72l1.594.118c-.171,2.294-.257,4.514-.257,6.6q0,1.452.056,2.894Zm72.835-5.832a27.3,27.3,0,0,0-7.306-2.732q-.734-.157-1.466-.276l.252-1.578q.775.125,1.551.291a28.893,28.893,0,0,1,7.734,2.892Zm-27.011-.268-.658-1.457a36.757,36.757,0,0,1,9.349-2.844l.249,1.578A35.233,35.233,0,0,0,1691.676,495.76Zm-42.945-12.928-1.581-.233c.407-2.755.917-5.769,1.606-9.487l1.572.292C1649.642,477.1,1649.135,480.1,1648.731,482.832ZM1652.142,464l-1.566-.32c.72-3.521,1.414-6.593,2.124-9.391l1.55.393C1653.546,457.456,1652.857,460.5,1652.142,464Zm4.785-18.46-1.514-.512c.7-2.066,1.454-4.078,2.247-5.98q.63-1.515,1.327-3.011l1.449.676q-.683,1.464-1.3,2.95C1658.358,441.531,1657.614,443.509,1656.927,445.54Zm116.1-10.186c-2.588-1.86-5.185-3.726-7.8-5.565l.92-1.308c2.622,1.842,5.223,3.711,7.816,5.576Zm-108.022-6.939-1.341-.869a58.453,58.453,0,0,1,5.923-7.7l1.179,1.08A56.862,56.862,0,0,0,1665.01,428.415Zm92.317-4.021c-2.868-1.887-5.518-3.542-8.1-5.058l.808-1.378c2.607,1.53,5.279,3.2,8.172,5.1Zm-16.48-9.6c-2.941-1.451-5.872-2.738-8.712-3.823l.572-1.494c2.885,1.1,5.862,2.41,8.847,3.884Zm-63.067-.152-.938-1.3q.906-.656,1.848-1.27a44.5,44.5,0,0,1,6.628-3.54l.632,1.467a42.857,42.857,0,0,0-6.389,3.415Q1678.652,414.009,1677.78,414.644Zm45.313-6.544a71.319,71.319,0,0,0-9.326-1.688l.178-1.589a72.592,72.592,0,0,1,9.535,1.727Zm-28.16-.923-.331-1.564a56.943,56.943,0,0,1,9.647-1.167l.059,1.6A55.407,55.407,0,0,0,1694.933,407.177Z" fill="#dadaf5"></path></g><path id="Path_160" data-name="Path 160" d="M1860.8,396.4l-106.338,5.48,5.22,7.887Z" fill="#dadaf5"></path><path id="Path_161" data-name="Path 161" d="M1860.8,396.4l-133.283,39.4,23.049-27.69Z" fill="#eaeafa"></path><path id="Path_162" data-name="Path 162" d="M1860.8,396.4l-85.3-7.248-21.041,12.728Z" fill="#eaeafa"></path><path id="Path_163" data-name="Path 163" d="M1754.972,427.661l9.133,11.927L1860.8,396.4Z" fill="#dadaf5"></path><path id="Path_164" data-name="Path 164" d="M1754.972,427.661l3.747,4.893L1860.8,396.4Z" fill="#c8c8ee"></path><path id="Path_165" data-name="Path 165" d="M1439.456,403.516l.795,51,12.336-.193-.8-51a37.911,37.911,0,0,1,37.272-38.453l-.192-12.336A50.261,50.261,0,0,0,1439.456,403.516Z" fill="#c8c8ee"></path><path id="Path_166" data-name="Path 166" d="M1715.908,320.294a65.847,65.847,0,0,1-103.785,53.92,65.927,65.927,0,0,1-124.462,17.027,65.133,65.133,0,0,1-52.975,26.892,65.944,65.944,0,0,1-65.406-58.379,55.492,55.492,0,1,1-35-98.515,56.553,56.553,0,0,1,12.838,1.487,55.409,55.409,0,0,1,89.327-41.757,65.863,65.863,0,0,1,126.487-7.028,64.467,64.467,0,0,1,36.623-11.216,65.716,65.716,0,0,1,64.594,53.244A65.7,65.7,0,0,1,1715.908,320.294Z" fill="#f0f6ff"></path><path id="Path_167" data-name="Path 167" d="M1715.914,320.289a65.949,65.949,0,0,1-65.947,65.947,65.285,65.285,0,0,1-37.842-12.029,65.929,65.929,0,0,1-124.465,17.035,65.112,65.112,0,0,1-52.976,26.886,65.9,65.9,0,0,1-64.532-52.926,65.664,65.664,0,0,0,102.472-4.389,65.93,65.93,0,0,0,124.465-17.035,65.291,65.291,0,0,0,37.842,12.028,66,66,0,0,0,64.663-78.951A65.605,65.605,0,0,1,1715.914,320.289Z" fill="#eaeafa"></path><path id="Path_168" data-name="Path 168" d="M1488.877,352.535l-4.02,6.232,4.212,6.1a37.913,37.913,0,0,1,38.453,37.273l.8,51,12.336-.193-.795-51A50.264,50.264,0,0,0,1488.877,352.535Z" fill="#c8c8ee"></path><path id="Path_169" data-name="Path 169" d="M1562.036,489.512a71.02,71.02,0,1,1-72.119-69.939A71.021,71.021,0,0,1,1562.036,489.512Z" fill="url(#linear-gradient)"></path><path id="Path_170" data-name="Path 170" d="M1542.689,489.814a51.666,51.666,0,1,1-52.465-50.855A51.736,51.736,0,0,1,1542.689,489.814Z" fill="url(#linear-gradient)"></path><path id="Path_171" data-name="Path 171" d="M1502.617,485.849a11.678,11.678,0,0,1-5.664,10.194l.2,12.626a5.843,5.843,0,1,1-11.685.182l-.2-12.626a11.66,11.66,0,1,1,17.349-10.376Z" fill="#fff"></path><g id="Group_153" data-name="Group 153"><path id="Path_172" data-name="Path 172" d="M1348.792,352.961c-2.611,12.3-41.124,43.129-49.686,49.863a3.4,3.4,0,0,0-1.274,3.128c.593,4.2-.555,10.833-4.111,17.528a.1.1,0,0,1-.025.051c-.24.467-.505.946-.782,1.412-.051.152-.1.329-.164.53-.088.29-.177.63-.278,1.034-.542,2.056-1.311,5.385-2.118,9.067-.051.215-.089.429-.139.643-1.854,8.563-3.884,18.652-3.884,18.652h-45.815c-.756-4.654-2.181-10.858-3.783-17.189-.088-.328-.164-.655-.252-.983-3.456-13.557-7.592-27.328-7.592-27.328a6.925,6.925,0,0,0-1-1.488c-.479-.605-1.11-1.362-1.879-2.232-.315-.353-.643-.719-1-1.109-11.148-12.384-42.486-43.092-42.486-43.092s-8.651-6.582-9.18-12.459,10.351-55.361,10.351-55.361h8.63l-2.537,53.633,50.695,37.026c5.183-1.047,45.676-.354,45.676-.354l46.193-37.718,5.162-52.587h8.63S1351.73,339.128,1348.792,352.961Z" fill="#0072ff"></path><path id="Path_173" data-name="Path 173" d="M1234.991,430.988c.5,1.881,1,3.8,1.49,5.709.088.328.164.655.252.983,1.6,6.331,3.027,12.535,3.783,17.189h45.815s2.03-10.089,3.884-18.652c.05-.214.088-.428.139-.643.356-1.627.7-3.176,1.03-4.586Z" fill="#0072ff"></path><g id="Group_152" data-name="Group 152"><g id="Group_130" data-name="Group 130"><g id="Group_129" data-name="Group 129"><g id="Group_128" data-name="Group 128"><g id="Group_127" data-name="Group 127"><g id="Group_126" data-name="Group 126"><path id="Path_174" data-name="Path 174" d="M1290.768,355.079c-.871,9.7-5.983,18.5-11.8,26.308a18.228,18.228,0,0,1-5.1,5.125c-2.1,1.224-4.874,1.575-6.917.264a10.146,10.146,0,0,1-3.152-4.136l-13.243-25.6c-2.058-3.978-4.158-8.1-4.437-12.573-.285-4.555,1.352-8.994,3.11-13.206,1.258-3.01,2.685-6.113,5.252-8.127,2.491-1.955,5.735-2.629,8.872-3.059a36.238,36.238,0,0,1,10.788-.147,18.823,18.823,0,0,1,7.094,2.623c2.318,1.485,2.786,3.182,3.8,5.668a81.84,81.84,0,0,1,5.278,16.93A38.678,38.678,0,0,1,1290.768,355.079Z" fill="#002450"></path></g></g></g></g></g><g id="Group_143" data-name="Group 143"><g id="Group_142" data-name="Group 142"><g id="Group_141" data-name="Group 141"><g id="Group_140" data-name="Group 140"><g id="Group_139" data-name="Group 139"><g id="Group_138" data-name="Group 138"><g id="Group_137" data-name="Group 137"><g id="Group_136" data-name="Group 136"><path id="Path_175" data-name="Path 175" d="M1206.032,696.713l-9.637-.131c-2.555,14.087-6.846,31.269-15.34,31.434-3.362,2.743,25.154,15.475,28.151,4.1C1211.735,722.515,1201.629,723.891,1206.032,696.713Z" fill="#fcb3b3"></path><path id="Path_176" data-name="Path 176" d="M1176.767,737.941h31.649a1.549,1.549,0,0,0,1.549-1.549v-7.419a.458.458,0,0,0-.771-.322c-9.136,7.718-14.812-5.452-23.212-4.1-6.341,1.03-9.474,7.833-10.68,11.325A1.548,1.548,0,0,0,1176.767,737.941Z" fill="#0072ff"></path><g id="Group_135" data-name="Group 135"><g id="Group_134" data-name="Group 134"><path id="Path_177" data-name="Path 177" d="M1267.974,695.159h12.383c1.257,14.262,4.877,30.879,13.32,31.818,3.1,3.039-27.348,14.282-29.293,2.683C1262.742,719.867,1269.876,722.626,1267.974,695.159Z" fill="#fcb3b3"></path><path id="Path_178" data-name="Path 178" d="M1263.6,728.033V736.3a1.684,1.684,0,0,0,1.685,1.685h42.211a1.677,1.677,0,0,0,1.616-2.18c-1.182-3.59-4.953-10.237-16.555-9.016,0,0-3.317,5.944-14.237,3.732S1263.944,726.236,1263.6,728.033Z" fill="#0072ff"></path><g id="Group_131" data-name="Group 131"><path id="Path_179" data-name="Path 179" d="M1191.986,700.249l14.44,3.517s25.813-83.306,26.977-97.759c.873-10.681,15.6-53.262,23.291-74.867,2.716-7.687,4.559-12.731,4.559-12.731s7.359,77.438,1.879,101.287,2.728,80.553,2.728,80.553h17.6s-9.76-51.625,10.56-130.215c15.98-61.785,1.747-98.194-5.08-110.949-.351-.643-.679-1.225-.982-1.758a33.717,33.717,0,0,0-2.182-3.432h-44.933s-.667,1.177-1.891,3.529c-.3.582-.631,1.248-1.007,1.976-2.836,5.613-7.613,15.52-13.518,29.717-7.4,17.725-10.755,77.2-11.955,105.2a90.912,90.912,0,0,1-5.007,25.255C1197.66,647.873,1191.986,700.249,1191.986,700.249Z" fill="#002450"></path></g><path id="Path_180" data-name="Path 180" d="M1238.956,457.424l.279.073a100.6,100.6,0,0,0,26.37,3.806c12.61,0,20.114-2.945,22.357-3.976a33.717,33.717,0,0,0-2.182-3.432h-44.933S1240.18,455.072,1238.956,457.424Z" fill="#002450"></path><rect id="Rectangle_13" data-name="Rectangle 13" width="1.583" height="9.208" transform="matrix(-0.992, 0.126, -0.126, -0.992, 1277.067, 463.735)" fill="#002450"></rect><rect id="Rectangle_14" data-name="Rectangle 14" width="1.583" height="9.208" transform="translate(1256.146 463.927) rotate(-166.164)" fill="#002450"></rect><g id="Group_132" data-name="Group 132"><path id="Path_181" data-name="Path 181" d="M1262.191,457.643l.02,2.928a1.658,1.658,0,0,0,1.659,1.622l2.758-.03.155,11.448.56-.018-.144-11.435,2.285-.031a1.631,1.631,0,0,0,1.621-1.646l-.032-2.929a1.645,1.645,0,0,0-1.647-1.62L1263.8,456A1.622,1.622,0,0,0,1262.191,457.643Zm.571,0a1.059,1.059,0,0,1,1.043-1.072l5.626-.065a1.068,1.068,0,0,1,1.071,1.055l.032,2.928a1.068,1.068,0,0,1-1.055,1.071l-5.614.066a1.061,1.061,0,0,1-1.071-1.055Z" fill="#fff"></path></g><g id="Group_133" data-name="Group 133"><path id="Path_182" data-name="Path 182" d="M1263.292,661.454c.25-18.192,4.6-35.924,5.3-54.079.761-19.746-.008-39.545.686-59.309.341-9.716.547-19.44.55-29.162,0-7.751-.941-15.409-1.554-23.108-7.015,10.077-9.846,22.718-11.586,35.34,2.722-7.685,4.562-12.727,4.562-12.727s7.364,77.436,1.881,101.286,2.721,80.555,2.721,80.555h.786A197.367,197.367,0,0,1,1263.292,661.454Z" fill="#002450"></path></g></g></g></g></g></g></g></g></g></g></g><g id="Group_151" data-name="Group 151"><g id="Group_150" data-name="Group 150"><g id="Group_144" data-name="Group 144"><path id="Path_183" data-name="Path 183" d="M1246.643,356.984a11,11,0,0,0,2.284,2.577,23.67,23.67,0,0,1,2.421,1.823,8.3,8.3,0,0,1,2.938,6.359v11.232a10.817,10.817,0,0,0,9.854,10.916,10.562,10.562,0,0,0,11.275-10.534V372.9a.115.115,0,0,1,.059-.014,13.955,13.955,0,0,0,9.342-13.179V345.124a13.969,13.969,0,0,0-13.969-13.969h-2.636a13.983,13.983,0,0,0-13.984,13.983v7.7a4.953,4.953,0,0,0-1.552-2.386,4.466,4.466,0,0,0-5.915.512A4.8,4.8,0,0,0,1246.643,356.984Z" fill="#fcb3b3"></path><path id="Path_184" data-name="Path 184" d="M1273.423,364.09a.7.7,0,0,1,.562,1.076,5.565,5.565,0,0,1-9.388-.343.7.7,0,0,1,.64-1.033Z" fill="#fff"></path><path id="Path_185" data-name="Path 185" d="M1263.569,370.675a11.593,11.593,0,0,0,8.727,6.955,11.787,11.787,0,0,0,3.119.117V372.9a16.126,16.126,0,0,1-1.9.279A15.586,15.586,0,0,1,1263.569,370.675Z" fill="#fc8e8e"></path></g><g id="Group_145" data-name="Group 145"><path id="Path_186" data-name="Path 186" d="M1243.71,367.5c5.131,7.553,5.736,20.422,5.736,20.422s5.021,0,8.61-6.777a10.7,10.7,0,0,0,1.186-5.1l0-.212a10.742,10.742,0,0,0-1.954-6.141,60.622,60.622,0,0,1-4.45-7.5,27.2,27.2,0,0,0-2.2-3.584,21.35,21.35,0,0,1-3.131-17.011c-.408-1.88-.371-3.091.346-3.091a1.3,1.3,0,0,0,.816-.433,18.806,18.806,0,0,1,2.263-3.893,83.581,83.581,0,0,0,3.1-9.643l5.946,3.511c1.743-.495,19.989,3.881,22.634,10.013a18.038,18.038,0,0,1,3.486,5.414l1.558.927c.668-11.323-4.92-21.423-8.567-25.267s-24.167-10.718-34.49,3.35C1234.278,336.53,1238.617,359.919,1243.71,367.5Z" fill="#002450"></path></g><path id="Path_187" data-name="Path 187" d="M1254.34,328.977a28.723,28.723,0,0,0,2.676,2.732c3.183,2.457,7.116,3.657,10.95,4.865s7.749,2.532,10.817,5.168a17.685,17.685,0,0,1,5.76,13.451,23.858,23.858,0,0,1-5.048,13.984c-3.006,4.031-7.229,7.557-8.128,12.489a10.391,10.391,0,0,0,13.258,11.807,6.825,6.825,0,0,1-3.611-7.641c.488-1.985,1.888-3.622,3.086-5.3a38,38,0,0,0,4.4-36.092,23.8,23.8,0,0,0-7.629-10.424c-4.415-3.233-10.045-4.168-15.368-5.395a34.383,34.383,0,0,1-9.638-3.545,5.127,5.127,0,0,1-.59-.365c-.205-.114-.386-.252-.565-.367-.1-.068-.208-.162-.311-.231a8.208,8.208,0,0,1-2.367-2.972S1251.87,326.408,1254.34,328.977Z" fill="#002450"></path><g id="Group_149" data-name="Group 149"><g id="Group_148" data-name="Group 148"><path id="Path_188" data-name="Path 188" d="M1265.839,345.83a8.092,8.092,0,0,1-5.937.725c-.406-.114-.444-.456-.077-.672a8.145,8.145,0,0,1,5.925-.724C1266.155,345.273,1266.206,345.615,1265.839,345.83Z" fill="#121c7c"></path><path id="Path_189" data-name="Path 189" d="M1280.591,346.632a8.093,8.093,0,0,1-5.916-.88c-.361-.218-.306-.558.1-.668a8.138,8.138,0,0,1,5.9.878C1281.045,346.179,1281,346.522,1280.591,346.632Z" fill="#121c7c"></path><g id="Group_146" data-name="Group 146"><path id="Path_190" data-name="Path 190" d="M1278.2,352.22a1.4,1.4,0,1,1-1.511-1.288A1.4,1.4,0,0,1,1278.2,352.22Z" fill="#121c7c"></path></g><g id="Group_147" data-name="Group 147"><circle id="Ellipse_37" data-name="Ellipse 37" cx="1.404" cy="1.404" r="1.404" transform="matrix(0.084, -0.996, 0.996, 0.084, 1262.055, 353.619)" fill="#121c7c"></circle></g><path id="Path_191" data-name="Path 191" d="M1268,360.015l3.641.062a.818.818,0,0,0,.816-.984l-2.016-5.1a.743.743,0,0,0-1.421-.018l-1.8,5.032A.818.818,0,0,0,1268,360.015Z" fill="#fc8e8e"></path></g></g></g></g></g><path id="Path_192" data-name="Path 192" d="M1292.75,425.473c-.088.29-.177.63-.278,1.034-.542,2.056-1.311,5.385-2.118,9.067-.051.215-.089.429-.139.643-.681-.2-1.362-.415-2.03-.643-.2-.063-.4-.138-.606-.2-1.21-.4-2.421-.819-3.644-1.185-7.4-2.207-15.209-2.573-22.926-2.875a45.27,45.27,0,0,0-7.743.139,46.473,46.473,0,0,0-7.277,1.8,68.355,68.355,0,0,0-9.508,3.443c-3.456-13.557-7.592-27.328-7.592-27.328a6.925,6.925,0,0,0-1-1.488c-.479-.605-1.11-1.362-1.879-2.232,1.539.53,3.077,1.072,4.6,1.614a7.132,7.132,0,0,1,3.039,1.677,7.627,7.627,0,0,1,1.438,3.96,28,28,0,0,0,2.421,8.084,12.768,12.768,0,0,0,5.826,5.927c4.174,1.9,9.055.718,13.43-.668s9.042-2.952,13.469-1.741c2.736.757,5.107,2.522,7.831,3.342,4.035,1.211,8.222.215,12.232-1.337C1291.123,426.179,1291.943,425.839,1292.75,425.473Z" fill="#0072ff"></path></g><path id="Path_193" data-name="Path 193" d="M1325.4,269.884a7.8,7.8,0,0,1,.513,1.7c-.012,1.948,1.492,3.168,2.13,4.8.684,1.709,2.04,2.9,3.19,4.261.673.8,1.436,1.527,2.188,2.256a5.99,5.99,0,0,1,1.527,2.4c.615,1.88,1.39,3.714,1.914,5.628.239.888.465,1.789.658,2.7h8.63l-.447-12.646c.159-1.493.5-2.974.558-4.466a32.165,32.165,0,0,0-.3-4.045c-.137-1.322-.3-2.643-.467-3.965s-.319-2.655-.6-3.942a3.088,3.088,0,0,0-2.461-2.427c-.49-.08-.923-.684-1.333-1.094a10.051,10.051,0,0,1-.832-1.014,1.154,1.154,0,0,0-1.242-.489.943.943,0,0,1-1.207-.559,4.662,4.662,0,0,0-2.94-2.2,1.619,1.619,0,0,1-.558-.456.849.849,0,0,0-1.55.262,3.371,3.371,0,0,0,.263,2.917c.079.171.227.331.239.49.079,1.322.2,2.632.182,3.942a8.84,8.84,0,0,1-.467,1.732c-.319,1.287-.6,2.575-.9,3.863-.342,1.458-.672,2.9-1.026,4.466-.262-.24-.535-.456-.774-.7a6.726,6.726,0,0,1-1.424-2.6,3.215,3.215,0,0,0-2.541-1.971,1.164,1.164,0,0,0-.957.228C1325.22,269.121,1325.334,269.577,1325.4,269.884Z" fill="#fcb3b3"></path><path id="Path_194" data-name="Path 194" d="M1204.454,269.884a7.806,7.806,0,0,0-.513,1.7c.012,1.948-1.492,3.168-2.131,4.8-.683,1.709-2.039,2.9-3.19,4.261a31.414,31.414,0,0,1-2.187,2.256,5.991,5.991,0,0,0-1.527,2.4c-.615,1.88-1.39,3.714-1.914,5.628-.239.888-.465,1.789-.659,2.7h-8.63l.448-12.646c-.16-1.493-.5-2.974-.558-4.466a32.165,32.165,0,0,1,.3-4.045c.136-1.322.3-2.643.467-3.965s.319-2.655.6-3.942a3.086,3.086,0,0,1,2.461-2.427c.49-.08.923-.684,1.333-1.094a10.084,10.084,0,0,0,.832-1.014,1.153,1.153,0,0,1,1.241-.489.944.944,0,0,0,1.208-.559,4.663,4.663,0,0,1,2.94-2.2,1.617,1.617,0,0,0,.558-.456.848.848,0,0,1,1.549.262,3.37,3.37,0,0,1-.262,2.917c-.079.171-.228.331-.239.49-.08,1.322-.205,2.632-.182,3.942a8.839,8.839,0,0,0,.467,1.732c.319,1.287.6,2.575.9,3.863.342,1.458.672,2.9,1.025,4.466.262-.24.536-.456.775-.7a6.738,6.738,0,0,0,1.424-2.6,3.215,3.215,0,0,1,2.541-1.971,1.165,1.165,0,0,1,.957.228C1204.636,269.121,1204.522,269.577,1204.454,269.884Z" fill="#fcb3b3"></path><path id="Path_195" data-name="Path 195" d="M1325.915,271.582a4.019,4.019,0,0,0,.417,1.752h3.993l-.035-.032a6.726,6.726,0,0,1-1.424-2.6,3.217,3.217,0,0,0-2.541-1.971,1.165,1.165,0,0,0-.957.228c-.148.159-.034.615.034.922A7.783,7.783,0,0,1,1325.915,271.582Z" fill="#fcb3b3"></path><path id="Path_196" data-name="Path 196" d="M1203.941,271.582a4.023,4.023,0,0,1-.417,1.752h-3.994c.011-.011.025-.021.036-.032a6.726,6.726,0,0,0,1.424-2.6,3.217,3.217,0,0,1,2.541-1.971,1.165,1.165,0,0,1,.957.228c.148.159.034.615-.034.922A7.789,7.789,0,0,0,1203.941,271.582Z" fill="#fcb3b3"></path><path id="Path_197" data-name="Path 197" d="M1333.562,283.066a5.932,5.932,0,0,1,1.388,2.234c.615,1.879,1.39,3.713,1.914,5.628.239.888.465,1.788.658,2.7h8.63l-.373-10.562Z" fill="#fcb3b3"></path><g id="Group_155" data-name="Group 155"><g id="Group_154" data-name="Group 154"><path id="Path_198" data-name="Path 198" d="M1321.589,179.924s-33.229,3.944-69.012-29.924l-28.659,30.279c-22.012,23.258-33.141,55.247-28.456,86.926a94.755,94.755,0,0,0,11.513,33.814,94.809,94.809,0,0,0,34.4,9.637c31.889,2.937,63.218-9.932,85.231-33.189l28.658-30.279C1319.477,213.32,1321.589,179.924,1321.589,179.924Z" fill="url(#linear-gradient)"></path><path id="Path_199" data-name="Path 199" d="M1216.053,291.427a83.667,83.667,0,0,1-8.16-26.058c-3.995-27.013,5.407-55.592,25.151-76.452l20.387-21.539c22.577,17.958,43.672,23.3,56.611,24.746,2.154,12.84,8.648,33.61,27.819,55.166l-20.386,21.539c-19.744,20.86-47.763,31.819-74.952,29.315A83.73,83.73,0,0,1,1216.053,291.427Z" fill="#fff"></path><circle id="Ellipse_38" data-name="Ellipse 38" cx="28.498" cy="28.498" r="28.498" transform="translate(1234.22 216.374) rotate(-0.787)" fill="#eaeafa"></circle></g></g><circle id="Ellipse_39" data-name="Ellipse 39" cx="28.498" cy="28.498" r="28.498" transform="translate(1224.73 242.401) rotate(-52.117)" fill="#00c5ff"></circle><circle id="Ellipse_40" data-name="Ellipse 40" cx="28.498" cy="28.498" r="28.498" transform="translate(1224.73 242.401) rotate(-52.117)" fill="#0072ff"></circle><path id="Path_200" data-name="Path 200" d="M1251.907,241.288a1.852,1.852,0,0,1-.579-1.3l-.236-8.9a1.86,1.86,0,0,1,3.719-.1l.186,7.04,25.777-.679a1.86,1.86,0,1,1,.1,3.718l-27.636.729A1.853,1.853,0,0,1,1251.907,241.288Z" fill="#fff"></path><path id="Path_201" data-name="Path 201" d="M1331.086,273.9l-.022.1-.108-.1h-.938v-.932a7.414,7.414,0,0,1-1.153-2.265,3.211,3.211,0,0,0-2.54-1.97,1.164,1.164,0,0,0-.957.228c-.148.159-.035.616.034.923a7.775,7.775,0,0,1,.513,1.7c-.012,1.949,1.492,3.168,2.13,4.8.684,1.71,2.04,2.9,3.19,4.262.572.678,1.212,1.3,1.853,1.927V273.9Z" fill="#fcb3b3"></path><g id="Group_156" data-name="Group 156"><path id="Path_202" data-name="Path 202" d="M1465.741,233.35l-4.77,5.34,72.711,0-4.769-5.341a3.123,3.123,0,0,0-2.332-1.044h-58.509A3.122,3.122,0,0,0,1465.741,233.35Z" fill="#dadaf5"></path></g><g id="Group_157" data-name="Group 157"><path id="Path_203" data-name="Path 203" d="M1454.425,243.473V257.3h-2.8a1.651,1.651,0,0,1-1.653-1.649V245.121a1.65,1.65,0,0,1,1.653-1.648Z" fill="#dadaf5"></path><path id="Path_204" data-name="Path 204" d="M1540.228,257.3V243.473h2.8a1.651,1.651,0,0,1,1.653,1.648v10.536a1.651,1.651,0,0,1-1.653,1.648Z" fill="#dadaf5"></path></g><rect id="Rectangle_15" data-name="Rectangle 15" width="85.803" height="23.396" rx="2.848" transform="translate(1454.425 238.691)" fill="#eaeafa"></rect><g id="Group_158" data-name="Group 158"><path id="Path_205" data-name="Path 205" d="M1465.741,263.131l-4.77,5.341h72.711l-4.769-5.341a3.126,3.126,0,0,0-2.332-1.044h-58.509A3.126,3.126,0,0,0,1465.741,263.131Z" fill="#dadaf5"></path></g><g id="Group_159" data-name="Group 159"><path id="Path_206" data-name="Path 206" d="M1454.425,273.255v13.832h-2.8a1.651,1.651,0,0,1-1.653-1.649V274.9a1.65,1.65,0,0,1,1.653-1.648Z" fill="#dadaf5"></path><path id="Path_207" data-name="Path 207" d="M1540.228,287.087V273.255h2.8a1.65,1.65,0,0,1,1.653,1.648v10.535a1.651,1.651,0,0,1-1.653,1.649Z" fill="#dadaf5"></path></g><rect id="Rectangle_16" data-name="Rectangle 16" width="85.803" height="23.396" rx="2.848" transform="translate(1454.425 268.473)" fill="#eaeafa"></rect><g id="Group_160" data-name="Group 160"><path id="Path_208" data-name="Path 208" d="M1465.741,292.913l-4.77,5.341h72.711l-4.769-5.341a3.126,3.126,0,0,0-2.332-1.044h-58.509A3.126,3.126,0,0,0,1465.741,292.913Z" fill="#dadaf5"></path></g><g id="Group_161" data-name="Group 161"><path id="Path_209" data-name="Path 209" d="M1454.425,303.036v13.832h-2.8a1.65,1.65,0,0,1-1.653-1.648V304.685a1.651,1.651,0,0,1,1.653-1.649Z" fill="#dadaf5"></path><path id="Path_210" data-name="Path 210" d="M1540.228,316.868V303.036h2.8a1.651,1.651,0,0,1,1.653,1.649V315.22a1.65,1.65,0,0,1-1.653,1.648Z" fill="#dadaf5"></path></g><rect id="Rectangle_17" data-name="Rectangle 17" width="85.803" height="23.396" rx="2.848" transform="translate(1454.425 298.254)" fill="#eaeafa"></rect><g id="Group_162" data-name="Group 162"><path id="Path_211" data-name="Path 211" d="M1483.658,308.186a.935.935,0,1,1-.934-.934A.934.934,0,0,1,1483.658,308.186Z" fill="#dadaf5"></path><path id="Path_212" data-name="Path 212" d="M1487.4,308.186a.934.934,0,1,1-.934-.934A.934.934,0,0,1,1487.4,308.186Z" fill="#dadaf5"></path><path id="Path_213" data-name="Path 213" d="M1491.151,308.186a.934.934,0,1,1-.934-.934A.934.934,0,0,1,1491.151,308.186Z" fill="#dadaf5"></path><path id="Path_214" data-name="Path 214" d="M1494.9,308.186a.934.934,0,1,1-.934-.934A.934.934,0,0,1,1494.9,308.186Z" fill="#dadaf5"></path></g><g id="Group_163" data-name="Group 163"><path id="Path_215" data-name="Path 215" d="M1485.531,304.654a.934.934,0,1,1-.934-.934A.934.934,0,0,1,1485.531,304.654Z" fill="#dadaf5"></path><circle id="Ellipse_41" data-name="Ellipse 41" cx="0.934" cy="0.934" r="0.934" transform="translate(1487.409 303.72)" fill="#dadaf5"></circle><path id="Path_216" data-name="Path 216" d="M1493.024,304.654a.934.934,0,1,1-.934-.934A.934.934,0,0,1,1493.024,304.654Z" fill="#dadaf5"></path></g><g id="Group_164" data-name="Group 164"><path id="Path_217" data-name="Path 217" d="M1483.658,315.25a.935.935,0,1,1-.934-.934A.934.934,0,0,1,1483.658,315.25Z" fill="#dadaf5"></path><path id="Path_218" data-name="Path 218" d="M1487.4,315.25a.934.934,0,1,1-.934-.934A.934.934,0,0,1,1487.4,315.25Z" fill="#dadaf5"></path><path id="Path_219" data-name="Path 219" d="M1491.151,315.25a.934.934,0,1,1-.934-.934A.934.934,0,0,1,1491.151,315.25Z" fill="#dadaf5"></path><path id="Path_220" data-name="Path 220" d="M1494.9,315.25a.934.934,0,1,1-.934-.934A.934.934,0,0,1,1494.9,315.25Z" fill="#dadaf5"></path></g><g id="Group_165" data-name="Group 165"><path id="Path_221" data-name="Path 221" d="M1485.531,311.718a.934.934,0,1,1-.934-.934A.934.934,0,0,1,1485.531,311.718Z" fill="#dadaf5"></path><path id="Path_222" data-name="Path 222" d="M1489.277,311.718a.934.934,0,1,1-.934-.934A.934.934,0,0,1,1489.277,311.718Z" fill="#dadaf5"></path><path id="Path_223" data-name="Path 223" d="M1493.024,311.718a.934.934,0,1,1-.934-.934A.934.934,0,0,1,1493.024,311.718Z" fill="#dadaf5"></path></g><g id="Group_166" data-name="Group 166"><path id="Path_224" data-name="Path 224" d="M1461.183,308.186a.934.934,0,1,1-.934-.934A.934.934,0,0,1,1461.183,308.186Z" fill="#dadaf5"></path><path id="Path_225" data-name="Path 225" d="M1464.93,308.186a.934.934,0,1,1-.934-.934A.934.934,0,0,1,1464.93,308.186Z" fill="#dadaf5"></path><path id="Path_226" data-name="Path 226" d="M1468.676,308.186a.934.934,0,1,1-.934-.934A.934.934,0,0,1,1468.676,308.186Z" fill="#dadaf5"></path><path id="Path_227" data-name="Path 227" d="M1472.423,308.186a.934.934,0,1,1-.934-.934A.934.934,0,0,1,1472.423,308.186Z" fill="#dadaf5"></path><path id="Path_228" data-name="Path 228" d="M1476.17,308.186a.935.935,0,1,1-.935-.934A.935.935,0,0,1,1476.17,308.186Z" fill="#dadaf5"></path><path id="Path_229" data-name="Path 229" d="M1479.916,308.186a.934.934,0,1,1-.934-.934A.934.934,0,0,1,1479.916,308.186Z" fill="#dadaf5"></path><path id="Path_230" data-name="Path 230" d="M1483.663,308.186a.934.934,0,1,1-.934-.934A.934.934,0,0,1,1483.663,308.186Z" fill="#dadaf5"></path></g><g id="Group_167" data-name="Group 167"><path id="Path_231" data-name="Path 231" d="M1463.057,304.654a.934.934,0,1,1-.934-.934A.934.934,0,0,1,1463.057,304.654Z" fill="#dadaf5"></path><path id="Path_232" data-name="Path 232" d="M1466.8,304.654a.934.934,0,1,1-.934-.934A.934.934,0,0,1,1466.8,304.654Z" fill="#dadaf5"></path><path id="Path_233" data-name="Path 233" d="M1470.55,304.654a.934.934,0,1,1-.934-.934A.934.934,0,0,1,1470.55,304.654Z" fill="#dadaf5"></path><path id="Path_234" data-name="Path 234" d="M1474.3,304.654a.934.934,0,1,1-.934-.934A.934.934,0,0,1,1474.3,304.654Z" fill="#dadaf5"></path><circle id="Ellipse_42" data-name="Ellipse 42" cx="0.934" cy="0.934" r="0.934" transform="translate(1476.175 303.72)" fill="#dadaf5"></circle><path id="Path_235" data-name="Path 235" d="M1481.789,304.654a.934.934,0,1,1-.934-.934A.934.934,0,0,1,1481.789,304.654Z" fill="#dadaf5"></path></g><g id="Group_168" data-name="Group 168"><path id="Path_236" data-name="Path 236" d="M1461.183,315.25a.934.934,0,1,1-.934-.934A.934.934,0,0,1,1461.183,315.25Z" fill="#dadaf5"></path><path id="Path_237" data-name="Path 237" d="M1464.93,315.25a.934.934,0,1,1-.934-.934A.934.934,0,0,1,1464.93,315.25Z" fill="#dadaf5"></path><path id="Path_238" data-name="Path 238" d="M1468.676,315.25a.934.934,0,1,1-.934-.934A.934.934,0,0,1,1468.676,315.25Z" fill="#dadaf5"></path><path id="Path_239" data-name="Path 239" d="M1472.423,315.25a.934.934,0,1,1-.934-.934A.934.934,0,0,1,1472.423,315.25Z" fill="#dadaf5"></path><path id="Path_240" data-name="Path 240" d="M1476.17,315.25a.935.935,0,1,1-.935-.934A.935.935,0,0,1,1476.17,315.25Z" fill="#dadaf5"></path><path id="Path_241" data-name="Path 241" d="M1479.916,315.25a.934.934,0,1,1-.934-.934A.934.934,0,0,1,1479.916,315.25Z" fill="#dadaf5"></path><path id="Path_242" data-name="Path 242" d="M1483.663,315.25a.934.934,0,1,1-.934-.934A.934.934,0,0,1,1483.663,315.25Z" fill="#dadaf5"></path></g><g id="Group_169" data-name="Group 169"><path id="Path_243" data-name="Path 243" d="M1463.057,311.718a.934.934,0,1,1-.934-.934A.934.934,0,0,1,1463.057,311.718Z" fill="#dadaf5"></path><path id="Path_244" data-name="Path 244" d="M1466.8,311.718a.934.934,0,1,1-.934-.934A.934.934,0,0,1,1466.8,311.718Z" fill="#dadaf5"></path><path id="Path_245" data-name="Path 245" d="M1470.55,311.718a.934.934,0,1,1-.934-.934A.934.934,0,0,1,1470.55,311.718Z" fill="#dadaf5"></path><path id="Path_246" data-name="Path 246" d="M1474.3,311.718a.934.934,0,1,1-.934-.934A.934.934,0,0,1,1474.3,311.718Z" fill="#dadaf5"></path><path id="Path_247" data-name="Path 247" d="M1478.043,311.718a.934.934,0,1,1-.934-.934A.934.934,0,0,1,1478.043,311.718Z" fill="#dadaf5"></path><path id="Path_248" data-name="Path 248" d="M1481.789,311.718a.934.934,0,1,1-.934-.934A.934.934,0,0,1,1481.789,311.718Z" fill="#dadaf5"></path></g><g id="Group_170" data-name="Group 170"><path id="Path_249" data-name="Path 249" d="M1483.658,278.4a.935.935,0,1,1-.934-.934A.934.934,0,0,1,1483.658,278.4Z" fill="#dadaf5"></path><path id="Path_250" data-name="Path 250" d="M1487.4,278.4a.934.934,0,1,1-.934-.934A.934.934,0,0,1,1487.4,278.4Z" fill="#dadaf5"></path><path id="Path_251" data-name="Path 251" d="M1491.151,278.4a.934.934,0,1,1-.934-.934A.934.934,0,0,1,1491.151,278.4Z" fill="#dadaf5"></path><path id="Path_252" data-name="Path 252" d="M1494.9,278.4a.934.934,0,1,1-.934-.934A.934.934,0,0,1,1494.9,278.4Z" fill="#dadaf5"></path></g><g id="Group_171" data-name="Group 171"><path id="Path_253" data-name="Path 253" d="M1485.531,274.873a.934.934,0,1,1-.934-.934A.934.934,0,0,1,1485.531,274.873Z" fill="#dadaf5"></path><path id="Path_254" data-name="Path 254" d="M1489.277,274.873a.934.934,0,1,1-.934-.934A.934.934,0,0,1,1489.277,274.873Z" fill="#dadaf5"></path><path id="Path_255" data-name="Path 255" d="M1493.024,274.873a.934.934,0,1,1-.934-.934A.934.934,0,0,1,1493.024,274.873Z" fill="#dadaf5"></path></g><g id="Group_172" data-name="Group 172"><path id="Path_256" data-name="Path 256" d="M1483.658,285.468a.935.935,0,1,1-.934-.934A.935.935,0,0,1,1483.658,285.468Z" fill="#dadaf5"></path><path id="Path_257" data-name="Path 257" d="M1487.4,285.468a.934.934,0,1,1-.934-.934A.935.935,0,0,1,1487.4,285.468Z" fill="#dadaf5"></path><path id="Path_258" data-name="Path 258" d="M1491.151,285.468a.934.934,0,1,1-.934-.934A.935.935,0,0,1,1491.151,285.468Z" fill="#dadaf5"></path><path id="Path_259" data-name="Path 259" d="M1494.9,285.468a.934.934,0,1,1-.934-.934A.935.935,0,0,1,1494.9,285.468Z" fill="#dadaf5"></path></g><g id="Group_173" data-name="Group 173"><path id="Path_260" data-name="Path 260" d="M1485.531,281.936a.934.934,0,1,1-.934-.934A.935.935,0,0,1,1485.531,281.936Z" fill="#dadaf5"></path><circle id="Ellipse_43" data-name="Ellipse 43" cx="0.934" cy="0.934" r="0.934" transform="translate(1487.409 281.002)" fill="#dadaf5"></circle><path id="Path_261" data-name="Path 261" d="M1493.024,281.936a.934.934,0,1,1-.934-.934A.935.935,0,0,1,1493.024,281.936Z" fill="#dadaf5"></path></g><g id="Group_174" data-name="Group 174"><path id="Path_262" data-name="Path 262" d="M1461.183,278.4a.934.934,0,1,1-.934-.934A.934.934,0,0,1,1461.183,278.4Z" fill="#dadaf5"></path><path id="Path_263" data-name="Path 263" d="M1464.93,278.4a.934.934,0,1,1-.934-.934A.934.934,0,0,1,1464.93,278.4Z" fill="#dadaf5"></path><path id="Path_264" data-name="Path 264" d="M1468.676,278.4a.934.934,0,1,1-.934-.934A.934.934,0,0,1,1468.676,278.4Z" fill="#dadaf5"></path><path id="Path_265" data-name="Path 265" d="M1472.423,278.4a.934.934,0,1,1-.934-.934A.934.934,0,0,1,1472.423,278.4Z" fill="#dadaf5"></path><path id="Path_266" data-name="Path 266" d="M1476.17,278.4a.935.935,0,1,1-.935-.934A.935.935,0,0,1,1476.17,278.4Z" fill="#dadaf5"></path><path id="Path_267" data-name="Path 267" d="M1479.916,278.4a.934.934,0,1,1-.934-.934A.934.934,0,0,1,1479.916,278.4Z" fill="#dadaf5"></path><path id="Path_268" data-name="Path 268" d="M1483.663,278.4a.934.934,0,1,1-.934-.934A.934.934,0,0,1,1483.663,278.4Z" fill="#dadaf5"></path></g><g id="Group_175" data-name="Group 175"><path id="Path_269" data-name="Path 269" d="M1463.057,274.873a.934.934,0,1,1-.934-.934A.934.934,0,0,1,1463.057,274.873Z" fill="#dadaf5"></path><path id="Path_270" data-name="Path 270" d="M1466.8,274.873a.934.934,0,1,1-.934-.934A.934.934,0,0,1,1466.8,274.873Z" fill="#dadaf5"></path><path id="Path_271" data-name="Path 271" d="M1470.55,274.873a.934.934,0,1,1-.934-.934A.934.934,0,0,1,1470.55,274.873Z" fill="#dadaf5"></path><path id="Path_272" data-name="Path 272" d="M1474.3,274.873a.934.934,0,1,1-.934-.934A.934.934,0,0,1,1474.3,274.873Z" fill="#dadaf5"></path><path id="Path_273" data-name="Path 273" d="M1478.043,274.873a.934.934,0,1,1-.934-.934A.934.934,0,0,1,1478.043,274.873Z" fill="#dadaf5"></path><path id="Path_274" data-name="Path 274" d="M1481.789,274.873a.934.934,0,1,1-.934-.934A.934.934,0,0,1,1481.789,274.873Z" fill="#dadaf5"></path></g><g id="Group_176" data-name="Group 176"><path id="Path_275" data-name="Path 275" d="M1461.183,285.468a.934.934,0,1,1-.934-.934A.935.935,0,0,1,1461.183,285.468Z" fill="#dadaf5"></path><path id="Path_276" data-name="Path 276" d="M1464.93,285.468a.934.934,0,1,1-.934-.934A.935.935,0,0,1,1464.93,285.468Z" fill="#dadaf5"></path><path id="Path_277" data-name="Path 277" d="M1468.676,285.468a.934.934,0,1,1-.934-.934A.935.935,0,0,1,1468.676,285.468Z" fill="#dadaf5"></path><path id="Path_278" data-name="Path 278" d="M1472.423,285.468a.934.934,0,1,1-.934-.934A.935.935,0,0,1,1472.423,285.468Z" fill="#dadaf5"></path><path id="Path_279" data-name="Path 279" d="M1476.17,285.468a.935.935,0,1,1-.935-.934A.936.936,0,0,1,1476.17,285.468Z" fill="#dadaf5"></path><path id="Path_280" data-name="Path 280" d="M1479.916,285.468a.934.934,0,1,1-.934-.934A.935.935,0,0,1,1479.916,285.468Z" fill="#dadaf5"></path><path id="Path_281" data-name="Path 281" d="M1483.663,285.468a.934.934,0,1,1-.934-.934A.935.935,0,0,1,1483.663,285.468Z" fill="#dadaf5"></path></g><g id="Group_177" data-name="Group 177"><path id="Path_282" data-name="Path 282" d="M1463.057,281.936a.934.934,0,1,1-.934-.934A.935.935,0,0,1,1463.057,281.936Z" fill="#dadaf5"></path><path id="Path_283" data-name="Path 283" d="M1466.8,281.936a.934.934,0,1,1-.934-.934A.935.935,0,0,1,1466.8,281.936Z" fill="#dadaf5"></path><path id="Path_284" data-name="Path 284" d="M1470.55,281.936a.934.934,0,1,1-.934-.934A.935.935,0,0,1,1470.55,281.936Z" fill="#dadaf5"></path><path id="Path_285" data-name="Path 285" d="M1474.3,281.936a.934.934,0,1,1-.934-.934A.935.935,0,0,1,1474.3,281.936Z" fill="#dadaf5"></path><circle id="Ellipse_44" data-name="Ellipse 44" cx="0.934" cy="0.934" r="0.934" transform="translate(1476.175 281.002)" fill="#dadaf5"></circle><path id="Path_286" data-name="Path 286" d="M1481.789,281.936a.934.934,0,1,1-.934-.934A.935.935,0,0,1,1481.789,281.936Z" fill="#dadaf5"></path></g><path id="Path_287" data-name="Path 287" d="M1534.956,311.249a3.723,3.723,0,1,1-3.723-3.722A3.723,3.723,0,0,1,1534.956,311.249Z" fill="#0072ff"></path><circle id="Ellipse_45" data-name="Ellipse 45" cx="3.722" cy="3.722" r="3.722" transform="translate(1518.385 307.527)" fill="#0072ff"></circle><path id="Path_288" data-name="Path 288" d="M1534.956,280.171a3.723,3.723,0,1,1-3.723-3.723A3.723,3.723,0,0,1,1534.956,280.171Z" fill="#0072ff"></path><path id="Path_289" data-name="Path 289" d="M1525.83,280.171a3.722,3.722,0,1,1-3.723-3.723A3.723,3.723,0,0,1,1525.83,280.171Z" fill="#0072ff"></path><path id="Path_290" data-name="Path 290" d="M1534.956,249.092a3.723,3.723,0,1,1-3.723-3.723A3.722,3.722,0,0,1,1534.956,249.092Z" fill="#0072ff"></path><circle id="Ellipse_46" data-name="Ellipse 46" cx="3.722" cy="3.722" r="3.722" transform="translate(1462.147 245.37)" fill="#0072ff"></circle><circle id="Ellipse_47" data-name="Ellipse 47" cx="3.722" cy="3.722" r="3.722" transform="translate(1472.447 245.37)" fill="#002450"></circle><circle id="Ellipse_48" data-name="Ellipse 48" cx="3.722" cy="3.722" r="3.722" transform="translate(1482.748 245.37)" fill="#0072ff"></circle><circle id="Ellipse_49" data-name="Ellipse 49" cx="2.191" cy="2.191" r="2.191" transform="translate(1519.917 246.901)" fill="#dadaf5"></circle><path id="Path_291" data-name="Path 291" d="M1795.263,556.646v22.208a3.022,3.022,0,0,1-3.043,3.042h-45.585a3.016,3.016,0,0,1-3.013-3.042V556.646a3.016,3.016,0,0,1,3.013-3.043h45.585A3.022,3.022,0,0,1,1795.263,556.646Z" fill="#f6f6fe"></path><path id="Path_292" data-name="Path 292" d="M1697.469,680.078V706.27a3.582,3.582,0,0,1-3.594,3.572h-53.738a3.563,3.563,0,0,1-3.572-3.572V680.078a3.582,3.582,0,0,1,3.572-3.594h53.738A3.6,3.6,0,0,1,1697.469,680.078Z" fill="#f6f6fe"></path><path id="Path_293" data-name="Path 293" d="M1764.966,629.36V651.6a3.059,3.059,0,0,1-3.043,3.043h-45.614a3.034,3.034,0,0,1-3.014-3.043V629.36a3.035,3.035,0,0,1,3.014-3.043h45.614A3.06,3.06,0,0,1,1764.966,629.36Z" fill="#f6f6fe"></path></g></g></g></g></svg>