<svg xmlns="http://www.w3.org/2000/svg" xmlns:xlink="http://www.w3.org/1999/xlink" width="776.098" height="598.934" viewBox="0 0 776.098 598.934"><defs><linearGradient id="linear-gradient" x1="33.431" y1="-1262.421" x2="34.431" y2="-1262.421" gradientUnits="objectBoundingBox"><stop offset="0" stop-color="#00c5ff"></stop><stop offset="0.995" stop-color="#0072ff"></stop></linearGradient><linearGradient id="linear-gradient-2" x1="33.431" y1="-1277.109" x2="34.431" y2="-1277.109" xlink:href="#linear-gradient"></linearGradient><linearGradient id="linear-gradient-3" x1="33.431" y1="-1291.797" x2="34.431" y2="-1291.797" xlink:href="#linear-gradient"></linearGradient><linearGradient id="linear-gradient-4" x1="33.431" y1="-1306.486" x2="34.431" y2="-1306.486" xlink:href="#linear-gradient"></linearGradient><linearGradient id="linear-gradient-5" x1="33.431" y1="-1321.174" x2="34.431" y2="-1321.174" xlink:href="#linear-gradient"></linearGradient><linearGradient id="linear-gradient-6" x1="33.431" y1="-1335.863" x2="34.431" y2="-1335.863" xlink:href="#linear-gradient"></linearGradient><linearGradient id="linear-gradient-7" x1="33.431" y1="-1350.551" x2="34.431" y2="-1350.551" xlink:href="#linear-gradient"></linearGradient><linearGradient id="linear-gradient-8" x1="29.699" y1="-1262.421" x2="30.699" y2="-1262.421" xlink:href="#linear-gradient"></linearGradient><linearGradient id="linear-gradient-9" x1="29.699" y1="-1277.109" x2="30.699" y2="-1277.109" xlink:href="#linear-gradient"></linearGradient><linearGradient id="linear-gradient-10" x1="29.699" y1="-1291.797" x2="30.699" y2="-1291.797" xlink:href="#linear-gradient"></linearGradient><linearGradient id="linear-gradient-11" x1="29.699" y1="-1306.486" x2="30.699" y2="-1306.486" xlink:href="#linear-gradient"></linearGradient><linearGradient id="linear-gradient-12" x1="29.699" y1="-1321.174" x2="30.699" y2="-1321.174" xlink:href="#linear-gradient"></linearGradient><linearGradient id="linear-gradient-13" x1="29.699" y1="-1335.863" x2="30.699" y2="-1335.863" xlink:href="#linear-gradient"></linearGradient><linearGradient id="linear-gradient-14" x1="29.699" y1="-1350.551" x2="30.699" y2="-1350.551" xlink:href="#linear-gradient"></linearGradient><linearGradient id="linear-gradient-15" x1="1508.013" y1="1.58" x2="1508.013" y2="1.904" gradientUnits="objectBoundingBox"><stop offset="0" stop-color="#4048c8"></stop><stop offset="1" stop-color="#2d32a4"></stop></linearGradient><linearGradient id="linear-gradient-16" x1="1500.426" y1="1.382" x2="1500.426" y2="1.706" xlink:href="#linear-gradient-15"></linearGradient><linearGradient id="linear-gradient-17" x1="316.804" y1="0.5" x2="317.804" y2="0.5" gradientUnits="objectBoundingBox"><stop offset="0" stop-color="#f5f5ff"></stop><stop offset="1" stop-color="#cfcff2"></stop></linearGradient><linearGradient id="linear-gradient-18" x1="5075.998" y1="0.5" x2="5078.401" y2="0.5" xlink:href="#linear-gradient-17"></linearGradient><linearGradient id="linear-gradient-19" x1="192.253" y1="1.013" x2="192.253" y2="0.684" gradientUnits="objectBoundingBox"><stop offset="0.004" stop-color="#fcb3b3"></stop><stop offset="1" stop-color="#fc8e8e"></stop></linearGradient><linearGradient id="linear-gradient-20" x1="96.238" y1="0.986" x2="96.188" y2="0.328" xlink:href="#linear-gradient-19"></linearGradient><linearGradient id="linear-gradient-21" x1="606.598" y1="2.902" x2="606.337" y2="2.648" xlink:href="#linear-gradient-19"></linearGradient></defs><g id="Group_515" data-name="Group 515" transform="translate(-180.436 -1170.348)"><g id="Group_203" data-name="Group 203"><g id="Group_179" data-name="Group 179"><path id="Path_294" data-name="Path 294" d="M767.466,1406.806h-3.2v-68.895h-215.3l-9.053-46.629,3.139-.609,8.55,44.041H767.466Z" fill="#c8c8ee"></path></g><g id="Group_180" data-name="Group 180"><path id="Path_295" data-name="Path 295" d="M574.634,1406.806h-3.2V1359.7H493.966v-86.386h3.2V1356.5h77.471Z" fill="#c8c8ee"></path></g><path id="Path_296" data-name="Path 296" d="M665.9,1261.811a39.969,39.969,0,0,1-63,32.73,40.019,40.019,0,0,1-75.55,10.336A39.538,39.538,0,0,1,495.2,1321.2a40.028,40.028,0,0,1-39.7-35.436,33.684,33.684,0,1,1-21.245-59.8,34.311,34.311,0,0,1,7.792.9,33.635,33.635,0,0,1,54.223-25.347,39.979,39.979,0,0,1,76.778-4.266,39.136,39.136,0,0,1,22.23-6.808,39.892,39.892,0,0,1,39.21,32.319A39.881,39.881,0,0,1,665.9,1261.811Z" fill="#f0f6ff"></path><path id="Path_297" data-name="Path 297" d="M645.191,1423.258v344.32H462.308v-344.32a16.459,16.459,0,0,1,16.452-16.453H628.739A16.45,16.45,0,0,1,645.191,1423.258Z" fill="#f0f6ff"></path><path id="Path_298" data-name="Path 298" d="M699.938,1423.258v344.32H645.2v-344.32a16.45,16.45,0,0,0-16.453-16.453h54.742A16.45,16.45,0,0,1,699.938,1423.258Z" fill="#dadaf5"></path><rect id="Rectangle_18" data-name="Rectangle 18" width="148.838" height="30.476" rx="4.589" transform="translate(479.33 1432.961)" fill="#dadaf5"></rect><path id="Path_299" data-name="Path 299" d="M484.618,1448.529a3.25,3.25,0,0,1,3.254-3.253H592.725a3.255,3.255,0,0,1,3.253,3.253,3.271,3.271,0,0,1-3.253,3.253H487.872A3.246,3.246,0,0,1,484.618,1448.529Z" fill="url(#linear-gradient)"></path><circle id="Ellipse_50" data-name="Ellipse 50" cx="3.253" cy="3.253" r="3.253" transform="translate(602.435 1445.276)" fill="#0072ff"></circle><circle id="Ellipse_51" data-name="Ellipse 51" cx="3.253" cy="3.253" r="3.253" transform="translate(612.308 1445.276)" fill="#0072ff"></circle><rect id="Rectangle_19" data-name="Rectangle 19" width="148.838" height="30.476" rx="4.589" transform="translate(479.33 1480.742)" fill="#dadaf5"></rect><path id="Path_300" data-name="Path 300" d="M484.618,1496.31a3.25,3.25,0,0,1,3.254-3.253H592.725a3.255,3.255,0,0,1,3.253,3.253,3.271,3.271,0,0,1-3.253,3.253H487.872A3.246,3.246,0,0,1,484.618,1496.31Z" fill="url(#linear-gradient-2)"></path><path id="Path_301" data-name="Path 301" d="M608.94,1496.31a3.253,3.253,0,1,1-3.253-3.253A3.252,3.252,0,0,1,608.94,1496.31Z" fill="#0072ff"></path><path id="Path_302" data-name="Path 302" d="M618.814,1496.31a3.253,3.253,0,1,1-3.253-3.253A3.253,3.253,0,0,1,618.814,1496.31Z" fill="#0072ff"></path><rect id="Rectangle_20" data-name="Rectangle 20" width="148.838" height="30.476" rx="4.589" transform="translate(479.33 1528.524)" fill="#dadaf5"></rect><path id="Path_303" data-name="Path 303" d="M484.618,1544.092a3.25,3.25,0,0,1,3.254-3.254H592.725a3.255,3.255,0,0,1,3.253,3.254,3.271,3.271,0,0,1-3.253,3.252H487.872A3.246,3.246,0,0,1,484.618,1544.092Z" fill="url(#linear-gradient-3)"></path><path id="Path_304" data-name="Path 304" d="M608.94,1544.092a3.253,3.253,0,1,1-3.253-3.254A3.252,3.252,0,0,1,608.94,1544.092Z" fill="#0072ff"></path><path id="Path_305" data-name="Path 305" d="M618.814,1544.092a3.253,3.253,0,1,1-3.253-3.254A3.253,3.253,0,0,1,618.814,1544.092Z" fill="#0072ff"></path><rect id="Rectangle_21" data-name="Rectangle 21" width="148.838" height="30.476" rx="4.589" transform="translate(479.33 1576.305)" fill="#dadaf5"></rect><path id="Path_306" data-name="Path 306" d="M484.618,1591.873a3.249,3.249,0,0,1,3.254-3.253H592.725a3.254,3.254,0,0,1,3.253,3.253,3.273,3.273,0,0,1-3.253,3.253H487.872A3.247,3.247,0,0,1,484.618,1591.873Z" fill="url(#linear-gradient-4)"></path><circle id="Ellipse_52" data-name="Ellipse 52" cx="3.253" cy="3.253" r="3.253" transform="translate(602.435 1588.62)" fill="#0072ff"></circle><circle id="Ellipse_53" data-name="Ellipse 53" cx="3.253" cy="3.253" r="3.253" transform="translate(612.308 1588.62)" fill="#0072ff"></circle><rect id="Rectangle_22" data-name="Rectangle 22" width="148.838" height="30.476" rx="4.589" transform="translate(479.33 1624.086)" fill="#dadaf5"></rect><path id="Path_307" data-name="Path 307" d="M484.618,1639.654a3.249,3.249,0,0,1,3.254-3.253H592.725a3.254,3.254,0,0,1,3.253,3.253,3.273,3.273,0,0,1-3.253,3.253H487.872A3.247,3.247,0,0,1,484.618,1639.654Z" fill="url(#linear-gradient-5)"></path><path id="Path_308" data-name="Path 308" d="M608.94,1639.654a3.253,3.253,0,1,1-3.253-3.253A3.253,3.253,0,0,1,608.94,1639.654Z" fill="#0072ff"></path><path id="Path_309" data-name="Path 309" d="M618.814,1639.654a3.253,3.253,0,1,1-3.253-3.253A3.254,3.254,0,0,1,618.814,1639.654Z" fill="#0072ff"></path><rect id="Rectangle_23" data-name="Rectangle 23" width="148.838" height="30.476" rx="4.589" transform="translate(479.33 1671.867)" fill="#dadaf5"></rect><path id="Path_310" data-name="Path 310" d="M484.618,1687.435a3.249,3.249,0,0,1,3.254-3.253H592.725a3.254,3.254,0,0,1,3.253,3.253,3.273,3.273,0,0,1-3.253,3.253H487.872A3.247,3.247,0,0,1,484.618,1687.435Z" fill="url(#linear-gradient-6)"></path><path id="Path_311" data-name="Path 311" d="M608.94,1687.435a3.253,3.253,0,1,1-3.253-3.253A3.253,3.253,0,0,1,608.94,1687.435Z" fill="#0072ff"></path><path id="Path_312" data-name="Path 312" d="M618.814,1687.435a3.253,3.253,0,1,1-3.253-3.253A3.254,3.254,0,0,1,618.814,1687.435Z" fill="#0072ff"></path><rect id="Rectangle_24" data-name="Rectangle 24" width="148.838" height="30.476" rx="4.589" transform="translate(479.33 1719.648)" fill="#dadaf5"></rect><path id="Path_313" data-name="Path 313" d="M484.618,1735.216a3.249,3.249,0,0,1,3.254-3.253H592.725a3.255,3.255,0,0,1,3.253,3.253,3.271,3.271,0,0,1-3.253,3.253H487.872A3.247,3.247,0,0,1,484.618,1735.216Z" fill="url(#linear-gradient-7)"></path><circle id="Ellipse_54" data-name="Ellipse 54" cx="3.253" cy="3.253" r="3.253" transform="translate(602.435 1731.963)" fill="#0072ff"></circle><circle id="Ellipse_55" data-name="Ellipse 55" cx="3.253" cy="3.253" r="3.253" transform="translate(612.308 1731.963)" fill="#0072ff"></circle><path id="Path_314" data-name="Path 314" d="M853.041,1423.258v344.32H670.157v-344.32a16.46,16.46,0,0,1,16.453-16.453H836.588A16.45,16.45,0,0,1,853.041,1423.258Z" fill="#f0f6ff"></path><path id="Path_315" data-name="Path 315" d="M907.787,1423.258v344.32H853.045v-344.32a16.45,16.45,0,0,0-16.452-16.453h54.742A16.45,16.45,0,0,1,907.787,1423.258Z" fill="#dadaf5"></path><rect id="Rectangle_25" data-name="Rectangle 25" width="148.838" height="30.476" rx="4.589" transform="translate(687.18 1432.961)" fill="#dadaf5"></rect><path id="Path_316" data-name="Path 316" d="M692.468,1448.529a3.25,3.25,0,0,1,3.253-3.253H800.574a3.254,3.254,0,0,1,3.253,3.253,3.271,3.271,0,0,1-3.253,3.253H695.721A3.245,3.245,0,0,1,692.468,1448.529Z" fill="url(#linear-gradient-8)"></path><path id="Path_317" data-name="Path 317" d="M816.79,1448.529a3.253,3.253,0,1,1-3.253-3.253A3.253,3.253,0,0,1,816.79,1448.529Z" fill="#0072ff"></path><path id="Path_318" data-name="Path 318" d="M826.663,1448.529a3.253,3.253,0,1,1-3.253-3.253A3.252,3.252,0,0,1,826.663,1448.529Z" fill="#0072ff"></path><rect id="Rectangle_26" data-name="Rectangle 26" width="148.838" height="30.476" rx="4.589" transform="translate(687.18 1480.742)" fill="#dadaf5"></rect><path id="Path_319" data-name="Path 319" d="M692.468,1496.31a3.25,3.25,0,0,1,3.253-3.253H800.574a3.254,3.254,0,0,1,3.253,3.253,3.271,3.271,0,0,1-3.253,3.253H695.721A3.245,3.245,0,0,1,692.468,1496.31Z" fill="url(#linear-gradient-9)"></path><path id="Path_320" data-name="Path 320" d="M816.79,1496.31a3.253,3.253,0,1,1-3.253-3.253A3.253,3.253,0,0,1,816.79,1496.31Z" fill="#0072ff"></path><path id="Path_321" data-name="Path 321" d="M826.663,1496.31a3.253,3.253,0,1,1-3.253-3.253A3.252,3.252,0,0,1,826.663,1496.31Z" fill="#0072ff"></path><rect id="Rectangle_27" data-name="Rectangle 27" width="148.838" height="30.476" rx="4.589" transform="translate(687.18 1528.524)" fill="#dadaf5"></rect><path id="Path_322" data-name="Path 322" d="M692.468,1544.092a3.25,3.25,0,0,1,3.253-3.254H800.574a3.255,3.255,0,0,1,3.253,3.254,3.271,3.271,0,0,1-3.253,3.252H695.721A3.245,3.245,0,0,1,692.468,1544.092Z" fill="url(#linear-gradient-10)"></path><path id="Path_323" data-name="Path 323" d="M816.79,1544.092a3.253,3.253,0,1,1-3.253-3.254A3.253,3.253,0,0,1,816.79,1544.092Z" fill="#0072ff"></path><path id="Path_324" data-name="Path 324" d="M826.663,1544.092a3.253,3.253,0,1,1-3.253-3.254A3.252,3.252,0,0,1,826.663,1544.092Z" fill="#0072ff"></path><rect id="Rectangle_28" data-name="Rectangle 28" width="148.838" height="30.476" rx="4.589" transform="translate(687.18 1576.305)" fill="#dadaf5"></rect><path id="Path_325" data-name="Path 325" d="M692.468,1591.873a3.249,3.249,0,0,1,3.253-3.253H800.574a3.254,3.254,0,0,1,3.253,3.253,3.273,3.273,0,0,1-3.253,3.253H695.721A3.246,3.246,0,0,1,692.468,1591.873Z" fill="url(#linear-gradient-11)"></path><path id="Path_326" data-name="Path 326" d="M816.79,1591.873a3.253,3.253,0,1,1-3.253-3.253A3.254,3.254,0,0,1,816.79,1591.873Z" fill="#0072ff"></path><path id="Path_327" data-name="Path 327" d="M826.663,1591.873a3.253,3.253,0,1,1-3.253-3.253A3.253,3.253,0,0,1,826.663,1591.873Z" fill="#0072ff"></path><rect id="Rectangle_29" data-name="Rectangle 29" width="148.838" height="30.476" rx="4.589" transform="translate(687.18 1624.086)" fill="#dadaf5"></rect><path id="Path_328" data-name="Path 328" d="M692.468,1639.654a3.249,3.249,0,0,1,3.253-3.253H800.574a3.254,3.254,0,0,1,3.253,3.253,3.273,3.273,0,0,1-3.253,3.253H695.721A3.246,3.246,0,0,1,692.468,1639.654Z" fill="url(#linear-gradient-12)"></path><path id="Path_329" data-name="Path 329" d="M816.79,1639.654a3.253,3.253,0,1,1-3.253-3.253A3.254,3.254,0,0,1,816.79,1639.654Z" fill="#0072ff"></path><path id="Path_330" data-name="Path 330" d="M826.663,1639.654a3.253,3.253,0,1,1-3.253-3.253A3.253,3.253,0,0,1,826.663,1639.654Z" fill="#0072ff"></path><rect id="Rectangle_30" data-name="Rectangle 30" width="148.838" height="30.476" rx="4.589" transform="translate(687.18 1671.867)" fill="#dadaf5"></rect><path id="Path_331" data-name="Path 331" d="M692.468,1687.435a3.249,3.249,0,0,1,3.253-3.253H800.574a3.254,3.254,0,0,1,3.253,3.253,3.273,3.273,0,0,1-3.253,3.253H695.721A3.246,3.246,0,0,1,692.468,1687.435Z" fill="url(#linear-gradient-13)"></path><path id="Path_332" data-name="Path 332" d="M816.79,1687.435a3.253,3.253,0,1,1-3.253-3.253A3.254,3.254,0,0,1,816.79,1687.435Z" fill="#0072ff"></path><path id="Path_333" data-name="Path 333" d="M826.663,1687.435a3.253,3.253,0,1,1-3.253-3.253A3.253,3.253,0,0,1,826.663,1687.435Z" fill="#0072ff"></path><rect id="Rectangle_31" data-name="Rectangle 31" width="148.838" height="30.476" rx="4.589" transform="translate(687.18 1719.648)" fill="#dadaf5"></rect><path id="Path_334" data-name="Path 334" d="M692.468,1735.216a3.249,3.249,0,0,1,3.253-3.253H800.574a3.254,3.254,0,0,1,3.253,3.253,3.271,3.271,0,0,1-3.253,3.253H695.721A3.246,3.246,0,0,1,692.468,1735.216Z" fill="url(#linear-gradient-14)"></path><path id="Path_335" data-name="Path 335" d="M816.79,1735.216a3.253,3.253,0,1,1-3.253-3.253A3.253,3.253,0,0,1,816.79,1735.216Z" fill="#0072ff"></path><path id="Path_336" data-name="Path 336" d="M826.663,1735.216a3.253,3.253,0,1,1-3.253-3.253A3.253,3.253,0,0,1,826.663,1735.216Z" fill="#0072ff"></path><g id="Group_183" data-name="Group 183"><g id="Group_182" data-name="Group 182"><g id="Group_181" data-name="Group 181"><path id="Path_337" data-name="Path 337" d="M954.136,1769.282h-771.3a2.4,2.4,0,0,1,0-4.8h771.3a2.4,2.4,0,1,1,0,4.8Z" fill="#c5cced"></path></g></g></g><path id="Path_338" data-name="Path 338" d="M410.641,1419.958a8.379,8.379,0,0,1-1.534,4.652c-1.008,1.311-1.711,2.845-2.67,4.188a28.931,28.931,0,0,1-3.357,4.029,25.456,25.456,0,0,0-4.508,6.186c-.432.768-.848,1.551-1.295,2.318q-1.727,3-3.453,6.011c-.128.224-.272.432-.448.735-4.029-2.11-8.009-4.2-12.054-6.33.672-.895,1.263-1.695,1.823-2.51,1.918-2.782,3.789-5.6,5.739-8.36a11.7,11.7,0,0,0,2.27-5.324c.336-2.686.559-5.387.863-8.073a4.441,4.441,0,0,1,1.743-2.942c1.119-.943,2.078-2.046,3.133-3.053a11.345,11.345,0,0,1,.991-.735,1.437,1.437,0,0,0,.384-.448c.591-1.055,1.135-2.126,1.726-3.181l2.094-3.405c.864-1.311,1.711-2.638,2.622-3.917a16.554,16.554,0,0,1,2.126-2.589,1.441,1.441,0,0,1,2.111-.192,1.784,1.784,0,0,1,.4,2.206,51.432,51.432,0,0,1-3.581,6.186s-1.87,3.741-2.158,4.668a2.165,2.165,0,0,0,.4-.175,7.868,7.868,0,0,1,.9-.592,1.916,1.916,0,0,1,2.958,1.887c0,.511.048.815.655,1.006,1.263.4,1.695,1.439,1.359,2.926-.128.56-.288,1.1-.448,1.695C410.769,1417.512,410.737,1418.743,410.641,1419.958Z" fill="#fcb3b3"></path><path id="Path_339" data-name="Path 339" d="M400.014,1438.538l-6.323,11.109a7.226,7.226,0,0,1-9.85,2.7l-.651-.37a7.214,7.214,0,0,1-2.691-9.843l6.323-11.108a7.21,7.21,0,0,1,9.829-2.7l.651.37A7.224,7.224,0,0,1,400.014,1438.538Z" fill="#f0f2fc"></path><path id="Path_340" data-name="Path 340" d="M366.065,1487a10.678,10.678,0,0,0,8.849-4.7l22.212-32.906a10.678,10.678,0,0,0-17.7-11.947l-12.756,18.9-23.484-39.786a10.677,10.677,0,0,0-18.389,10.855l32.074,54.34a10.676,10.676,0,0,0,8.871,5.245C365.85,1486.994,365.958,1487,366.065,1487Z" fill="#0072ff"></path><g id="Group_187" data-name="Group 187"><g id="Group_184" data-name="Group 184"><path id="Path_341" data-name="Path 341" d="M324.034,1718.27l10.667.1c.743,7.54-5.642,23.655,4.431,28.362,12.329,5.761,17.389,7.853,19.814,14.729a1.213,1.213,0,0,1-1.133,1.635l-35.578-.349a1.171,1.171,0,0,1-1.151-1.407C321.811,1757.908,325.611,1724.608,324.034,1718.27Z" fill="#0072ff"></path><path id="Path_342" data-name="Path 342" d="M266.8,1717.978l10.664.291c.611,7.552-6.055,23.553,3.934,28.435,12.227,5.976,17.249,8.157,19.553,15.074a1.213,1.213,0,0,1-1.161,1.615l-35.566-.972a1.17,1.17,0,0,1-1.127-1.426C263.88,1757.571,268.262,1724.343,266.8,1717.978Z" fill="#0072ff"></path></g><g id="Group_186" data-name="Group 186"><g id="Group_185" data-name="Group 185"><path id="Path_343" data-name="Path 343" d="M339.6,1720.065c-.381.913-10.216,1.148-14.61,1.2-1.949.026-3.347.019-3.347.019l-8.857-60.9c-.487-4.282-1.206-8.526-2.014-12.759-3.762-19.571-6.179-93.718-6.179-93.718l-8.049-.089s-7.732,59.7-8.937,77.6a69.7,69.7,0,0,1-1.166,8.524,34.594,34.594,0,0,0-.4,10.028c.458,6.775-6.149,72.474-6.149,72.474l-17.092-1.035s-.115-78.726.981-94.779c.956-14.008.552-84.84-.062-103.859-.094-2.768-.145-4.347-.145-4.347l.954.029,66.523,1.87s.055,1.791.146,4.86c.05,1.6.112,3.548.172,5.783.635,21.039,2.09,62.334,2.858,75.717C335.294,1624.239,340.129,1718.792,339.6,1720.065Z" fill="#002450"></path></g><path id="Path_344" data-name="Path 344" d="M286.441,1639.952a69.7,69.7,0,0,0,1.166-8.524c1.151-17.1,8.3-72.314,8.937-77.6l-7.59.2a39.812,39.812,0,0,0-3.9,13.519c-1.077,12.673-1.274,20.609-1.47,33.324-.682,46.548-5.262,74.868-5.98,121.431l2.291.156s6.607-65.7,6.149-72.474A34.594,34.594,0,0,1,286.441,1639.952Z" fill="#002450"></path><path id="Path_345" data-name="Path 345" d="M313.946,1632.518c-3.768-27.249-8.358-51.718-3.609-78.6l-5.744,0c.278,8.709,2.651,75.364,6.179,93.718.808,4.233,1.527,8.477,2.014,12.759l8.857,60.9s1.4.007,3.347-.019C322.514,1685.71,318.828,1667.832,313.946,1632.518Z" fill="#002450"></path></g></g><g id="Group_189" data-name="Group 189"><path id="Path_346" data-name="Path 346" d="M317.181,1528.854l-.251,3.718c6.759-.088,11.34-.727,14.432-1.59-.05-2.241-.113-4.193-.163-5.783A47.375,47.375,0,0,1,317.181,1528.854Z" fill="#002450"></path><path id="Path_347" data-name="Path 347" d="M288.856,1530.669c4.919.713,9.726,1.176,13.668,1.439,4.731.326,8.837.464,12.379.476l.238-3.53a83.111,83.111,0,0,1-12.554.025,125.026,125.026,0,0,1-13.505-1.727Z" fill="#002450"></path><path id="Path_348" data-name="Path 348" d="M263.573,1518.428s.051,1.59.151,4.356c4.656,3.755,13.93,6.12,23.117,7.585l.238-3.405c-8.937-1.8-17.911-4.631-22.554-8.5Z" fill="#002450"></path><path id="Path_349" data-name="Path 349" d="M287.079,1526.964c.676.138,1.339.263,2,.388l.45-6.621-2.015-.138Z" fill="url(#linear-gradient-15)"></path><path id="Path_350" data-name="Path 350" d="M315.141,1529.054c.7-.05,1.377-.125,2.04-.2l.388-5.645-2.015-.137Z" fill="url(#linear-gradient-16)"></path><g id="Group_188" data-name="Group 188"><path id="Path_351" data-name="Path 351" d="M305.356,1534.142l-7.163-.468a2.09,2.09,0,0,1-1.948-2.219l.244-3.733a2.092,2.092,0,0,1,2.221-1.948l7.163.468a2.091,2.091,0,0,1,1.949,2.22l-.245,3.733A2.09,2.09,0,0,1,305.356,1534.142Zm-6.693-7.639a1.358,1.358,0,0,0-1.443,1.267l-.245,3.733a1.359,1.359,0,0,0,1.266,1.443l7.163.468a1.36,1.36,0,0,0,1.443-1.266l.244-3.733a1.358,1.358,0,0,0-1.265-1.444Z" fill="url(#linear-gradient-17)"></path></g><rect id="Rectangle_32" data-name="Rectangle 32" width="0.723" height="14.927" transform="translate(301.129 1533.558) rotate(3.908)" fill="url(#linear-gradient-18)"></rect></g><g id="Group_192" data-name="Group 192"><path id="Path_352" data-name="Path 352" d="M335.921,1455.484l-3.08,68.954c-.89,8.366-49.685,5.088-64.954-2.293a12.4,12.4,0,0,1-3.406-2.232,2.732,2.732,0,0,1-.952-2.137,221.793,221.793,0,0,0,1.254-33.656c-.354-7.53-1.147-13.8-1.911-20.241-.553-4.6-1.1-9.3-1.464-14.6-.427-5.676-.7-10.74-.722-15.1-.069-7.281,3.358-16.766,3.757-17.163,1.248-1.172,5.462-8.691,24.008-13.78.5-.107.95-.183,1.452-.272l.141.009a74.144,74.144,0,0,1,16.133-.6c.934.064,1.9.183,2.885.267a12.6,12.6,0,0,1,1.578.215,70.6,70.6,0,0,1,7.017,1.2c.053,0,.121.043.156.046,10.166,2.27,22.648,4.06,24.3,14.352C343.378,1426.376,338.912,1443.562,335.921,1455.484Z" fill="#0072ff"></path><path id="Path_353" data-name="Path 353" d="M342.113,1418.465a31.111,31.111,0,0,1,.264,9.458,87.26,87.26,0,0,1-1.457,9.355c-.653,3.084-1.377,6.15-2.231,9.179s-1.736,6.047-2.768,9.027c.5-3.114,1.145-6.191,1.777-9.267l1.925-9.206q.971-4.6,1.748-9.216A46.9,46.9,0,0,0,342.113,1418.465Z" fill="#0072ff"></path><g id="Group_191" data-name="Group 191"><g id="Group_190" data-name="Group 190"><path id="Path_354" data-name="Path 354" d="M312.572,1401.64l-.481,10.242c-.352,5.159-5.558,8.559-11.61,7.538-6.153-1.049-10.687-5.963-10.328-11.225.01-.139.256-5.346.3-5.475.488-.011.939,0,1.424.028.034.009-.13,5.029-.1,5.038a75.018,75.018,0,0,1,15.893,2.561c.957.256,2.38-9.523,3.334-9.233C311.518,1401.287,312.03,1401.424,312.572,1401.64Z" fill="#fff"></path></g><path id="Path_355" data-name="Path 355" d="M291.7,1408.472c-.288,4.218,3.7,8.361,8.9,9.212s9.662-1.852,9.95-6.07c.013-.1.138-2.891.2-4.443h.063l-.038-.964v-.063l-.913-23.656-16.409-1.126-1.127,16.359h-.075c-.025.112-.162,2.741-.288,5.369v.075l-.3,4.331h.088C291.723,1408.072,291.7,1408.422,291.7,1408.472Z" fill="url(#linear-gradient-19)"></path><path id="Path_356" data-name="Path 356" d="M304.995,1406.675c-6.215.164-12.771-9.365-16.44-18.014-3.716-7.258-3.365-13.262.453-12.009l3.2-17.406,14.222-2.462s12.154,3.483,14.34,6.793C327.864,1374.309,324.77,1406.155,304.995,1406.675Z" fill="url(#linear-gradient-20)"></path><path id="Path_357" data-name="Path 357" d="M326.842,1370.159c-6.732,4.707-32.718,1.392-33.17,1.214-.042,0-.093.121-.107.331-.209,2.137.417,13.967-.678,15.79-1.19,1.986-1.256-2.3-1.668-3.361-.392-1.06-2.273-7.789-2.273-7.789a18.9,18.9,0,0,0-1.86-5.8c-1.482-2.694-4.385-8.987-1.348-13.314,3.016-4.329,7.02-2.115,7.02-2.115s8.775-10.535,18.338-9.756,5.717,8.3,5.717,8.3,4.778-1.4,8.253-.723c1.75.309,3.147,1.163,3.468,2.956C328.534,1355.891,333.576,1365.431,326.842,1370.159Z" fill="#002450"></path><path id="Path_358" data-name="Path 358" d="M326.842,1370.159c-6.732,4.707-32.718,1.392-33.17,1.214-.042,0-.093.121-.107.331a2.838,2.838,0,0,1-.412-.451c.591-.634,2.045-.3,2.847-.311,1.16-.005,2.322-.032,3.465-.1a43.36,43.36,0,0,0,6.869-.839,24.716,24.716,0,0,0,12.652-6.474,28.151,28.151,0,0,0,6.08-10.593c1.75.309,3.147,1.163,3.468,2.956C328.534,1355.891,333.576,1365.431,326.842,1370.159Z" fill="#002450"></path></g><path id="Path_359" data-name="Path 359" d="M297.474,1365.835c1.239-.908,2.915-.844,4.447-.741l15.27,1.026c2.037.137,4.267.221,5.908-.993" fill="none"></path></g><g id="Group_193" data-name="Group 193"><path id="Path_360" data-name="Path 360" d="M319,1377.333a8.9,8.9,0,0,1-6.55-.539c-.409-.216-.377-.588.063-.734a8.966,8.966,0,0,1,6.546.538C319.474,1376.813,319.444,1377.188,319,1377.333Z" fill="#121c7c"></path></g><g id="Group_194" data-name="Group 194"><path id="Path_361" data-name="Path 361" d="M304.583,1376.87a8.9,8.9,0,0,1-6.529.794c-.446-.125-.488-.5-.084-.738a8.944,8.944,0,0,1,6.515-.794C304.931,1376.257,304.986,1376.633,304.583,1376.87Z" fill="#121c7c"></path></g><g id="Group_201" data-name="Group 201"><g id="Group_195" data-name="Group 195"><path id="Path_362" data-name="Path 362" d="M307.364,1399.119a5.779,5.779,0,0,1-4.917-2.992.7.7,0,0,1,1.224-.661,4.322,4.322,0,0,0,5.255,1.981.7.7,0,1,1,.454,1.316A6.136,6.136,0,0,1,307.364,1399.119Z" fill="#fff"></path></g><g id="Group_196" data-name="Group 196"><path id="Path_363" data-name="Path 363" d="M303.613,1385.335a1.323,1.323,0,1,1-1.323-1.323A1.323,1.323,0,0,1,303.613,1385.335Z" fill="#121c7c"></path></g><g id="Group_197" data-name="Group 197"><path id="Path_364" data-name="Path 364" d="M316.723,1385.335a1.324,1.324,0,1,1-1.324-1.323A1.323,1.323,0,0,1,316.723,1385.335Z" fill="#121c7c"></path></g><g id="Group_198" data-name="Group 198"><path id="Path_365" data-name="Path 365" d="M316.723,1392.754a6.589,6.589,0,1,1,6.589-6.588A6.6,6.6,0,0,1,316.723,1392.754Zm0-12.063a5.474,5.474,0,1,0,5.474,5.475A5.48,5.48,0,0,0,316.723,1380.691Z" fill="#fff"></path></g><g id="Group_199" data-name="Group 199"><path id="Path_366" data-name="Path 366" d="M301.692,1392.754a6.589,6.589,0,1,1,6.588-6.588A6.6,6.6,0,0,1,301.692,1392.754Zm0-12.063a5.474,5.474,0,1,0,5.473,5.475A5.481,5.481,0,0,0,301.692,1380.691Z" fill="#fff"></path></g><g id="Group_200" data-name="Group 200"><path id="Path_367" data-name="Path 367" d="M307.951,1386.583l-.737-.835a3.037,3.037,0,0,1,2.3-.959,2.338,2.338,0,0,1,1.63,1.046l-.9.661a1.271,1.271,0,0,0-.851-.6A2.09,2.09,0,0,0,307.951,1386.583Z" fill="#fff"></path></g></g><g id="Group_202" data-name="Group 202"><path id="Path_368" data-name="Path 368" d="M311.725,1394.763h-5.094a.479.479,0,0,1-.429-.7,29.342,29.342,0,0,0,2.033-5.2.45.45,0,0,1,.453-.343h.968a.474.474,0,0,1,.465.343,28.451,28.451,0,0,0,2.033,5.2A.483.483,0,0,1,311.725,1394.763Z" fill="url(#linear-gradient-21)"></path></g><path id="Path_369" data-name="Path 369" d="M385.514,1510.233H353.076l24.055-28.793h32.438Z" fill="#121c7c"></path><path id="Path_370" data-name="Path 370" d="M361.929,1490.151c.368-.136.719-.291,1.085-.4a7.449,7.449,0,0,1,3.279-.043,3.57,3.57,0,0,0,3.256-1.467,1.278,1.278,0,0,0,.276-1.053c-.078-.23-.583-.363-.921-.446a8.474,8.474,0,0,1-1.931-.391c-1.9-1.012-3.883-.187-5.809-.4-2.029-.223-3.916.485-5.842.905-1.134.247-2.244.612-3.353.964a6.516,6.516,0,0,1-3.143.248c-2.171-.371-4.378-.573-6.522-1.058-2.44-.552-4.828-1.336-7.416-2.069-2.43,3.872-4.959,7.9-7.542,12.014.828.095,1.567.192,2.308.262,3.732.35,7.473.625,11.2,1.063a14.886,14.886,0,0,1,6.6,2.589c1.379.934,2.651,2.04,4.087,2.87a33.347,33.347,0,0,0,4.118,1.81c1.368.561,2.749,1.094,4.135,1.609s2.76,1.075,4.182,1.46a3.407,3.407,0,0,0,3.652-1.145c.335-.444,1.156-.547,1.774-.743a10.757,10.757,0,0,1,1.427-.279,1.264,1.264,0,0,0,1.122-.967,1.056,1.056,0,0,1,1.178-.9,5.176,5.176,0,0,0,3.689-1.736,1.765,1.765,0,0,1,.741-.3c.894-.244,1.138-.932.549-1.655a3.748,3.748,0,0,0-3-1.269,1.729,1.729,0,0,1-.609-.023c-1.331-.6-2.682-1.169-3.96-1.87a9.3,9.3,0,0,1-1.453-1.364c-1.1-.975-2.213-1.93-3.322-2.892C364.517,1492.4,363.267,1491.311,361.929,1490.151Z" fill="#fcb3b3"></path><path id="Path_371" data-name="Path 371" d="M327.616,1482.419l12.518,2.586a7.226,7.226,0,0,1,5.612,8.535l-.151.734a7.215,7.215,0,0,1-8.532,5.6l-12.518-2.586a7.21,7.21,0,0,1-5.6-8.517l.151-.734A7.225,7.225,0,0,1,327.616,1482.419Z" fill="#f0f2fc"></path><path id="Path_372" data-name="Path 372" d="M340.893,1494.342a10.892,10.892,0,0,1-14.131,6.107l-41.229-16.307a10.94,10.94,0,0,1-6.107-6.091l-19.263-48.2a10.887,10.887,0,1,1,20.223-8.073l17.52,43.835,36.881,14.595A10.883,10.883,0,0,1,340.893,1494.342Z" fill="#0072ff"></path><path id="Path_373" data-name="Path 373" d="M567.4,1276.217a6.219,6.219,0,0,1-6.208,6.214H471.323a6.211,6.211,0,0,1,0-12.422h89.871a6.2,6.2,0,0,1,6.208,6.208Z" fill="#0072ff"></path><path id="Path_374" data-name="Path 374" d="M601.318,1276.217a6.219,6.219,0,0,1-6.208,6.214H561.194a6.211,6.211,0,1,0,0-12.422H595.11a6.207,6.207,0,0,1,6.208,6.208Z" fill="#dadaf5"></path><path id="Path_375" data-name="Path 375" d="M551.162,1236.432h-4.513v10.432a2.153,2.153,0,0,1-2.151,2.151H521.934a2.151,2.151,0,0,1-2.141-2.151v-10.432h-4.522a2.144,2.144,0,0,1-1.912-3.106l17.941-32.1a2.149,2.149,0,0,1,3.842,0l17.932,32.1A2.144,2.144,0,0,1,551.162,1236.432Z" fill="#dadaf5"></path></g></g></svg>