<svg xmlns="http://www.w3.org/2000/svg" xmlns:xlink="http://www.w3.org/1999/xlink" width="724.175" height="451.023" viewBox="0 0 724.175 451.023"><defs><linearGradient id="linear-gradient" x1="3.488" y1="0.44" x2="3.52" y2="0.905" gradientUnits="objectBoundingBox"><stop offset="0.004" stop-color="#fcb3b3"></stop><stop offset="1" stop-color="#fc8e8e"></stop></linearGradient><linearGradient id="linear-gradient-2" x1="-20.951" y1="1.033" x2="-20.945" y2="1.674" xlink:href="#linear-gradient"></linearGradient><linearGradient id="linear-gradient-3" x1="-131.342" y1="9.518" x2="-131.342" y2="9.107" xlink:href="#linear-gradient"></linearGradient><linearGradient id="linear-gradient-4" x1="-112.204" y1="3.284" x2="-111.051" y2="3.284" xlink:href="#linear-gradient"></linearGradient><linearGradient id="linear-gradient-5" x1="-13.788" y1="0.5" x2="-12.787" y2="0.5" xlink:href="#linear-gradient"></linearGradient><linearGradient id="linear-gradient-6" y1="0.5" x2="1" y2="0.5" gradientUnits="objectBoundingBox"><stop offset="0" stop-color="#00c5ff"></stop><stop offset="0.995" stop-color="#0072ff"></stop></linearGradient></defs><g id="Group_518" data-name="Group 518" transform="translate(-2095.389 -1221.448)"><g id="Group_517" data-name="Group 517"><g id="Group_269" data-name="Group 269"><g id="Group_204" data-name="Group 204"><path id="Path_376" data-name="Path 376" d="M2365.446,1613.461a45.672,45.672,0,0,1-18.263-3.727l.64-1.465c16.226,7.084,36.491,3.479,49.28-8.767s17.268-32.334,10.893-48.853c-2.674-6.927-7.065-13.163-11.312-19.193-2.234-3.171-4.543-6.45-6.594-9.812-4.345-7.123-10.841-20.916-5.515-33.266,3.286-7.622,10.79-13.616,20.586-16.443,8.682-2.506,17.767-2.389,26.56-2.27l107.031,1.409-.021,1.6-107.031-1.408c-8.675-.115-17.642-.234-26.1,2.207-9.334,2.7-16.464,8.359-19.561,15.54-5.04,11.689,1.227,24.942,5.412,31.8,2.024,3.317,4.318,6.574,6.536,9.723,4.3,6.11,8.752,12.427,11.5,19.538,6.6,17.1,1.963,37.905-11.279,50.584A47.688,47.688,0,0,1,2365.446,1613.461Z" fill="#0072ff"></path></g><g id="Group_205" data-name="Group 205"><path id="Path_377" data-name="Path 377" d="M2346.34,1600.781l-.024-1.6,57.338-.85c10.795-.16,21.083-.818,28.3-7.037,8.981-7.733,9.324-20.838,6.889-29.711-2.756-10.036-9-18.831-15.034-27.336l-.834-1.177c-6.685-9.431-12.854-18.794-14.894-29.629-3.058-16.243,4.984-34.248,19.124-42.811,8.238-4.989,18.9-7.357,30.823-6.855,10.631.45,21.088,2.985,31.2,5.437l28.307,6.862-.376,1.554-28.307-6.863c-10.038-2.433-20.418-4.95-30.892-5.393-11.608-.5-21.96,1.8-29.929,6.625-13.589,8.23-21.319,25.535-18.38,41.149,1.98,10.517,8.048,19.719,14.626,29l.835,1.175c6.116,8.618,12.44,17.53,15.271,27.839,3.37,12.277.47,24.58-7.387,31.345-7.628,6.569-18.224,7.26-29.324,7.425Z" fill="#00c5ff"></path></g><g id="Group_246" data-name="Group 246"><g id="Group_206" data-name="Group 206"><rect id="Rectangle_33" data-name="Rectangle 33" width="12.722" height="104.878" transform="translate(2726.198 1541.08)" fill="#c8c8ee"></rect><path id="Path_378" data-name="Path 378" d="M2813.342,1410.484a16.018,16.018,0,0,0-11.139-15.847c-7.125-2.2-17.818-3.672-33.119-1.688-33.862,4.39-37.813,39.947-40.446,45.654s-11.853,59.7-45.215,72.212-50.922,10.755-47.849,19.315,50.044,28.972,108.867,17.339,71.773-37.313,72.651-45.215C2817.846,1495.464,2812.6,1435.992,2813.342,1410.484Z" fill="#eaeafa"></path><path id="Path_379" data-name="Path 379" d="M2789.3,1667.828h-113.49l56.745-24.495Z" fill="#c8c8ee"></path></g><g id="Group_207" data-name="Group 207"><path id="Path_380" data-name="Path 380" d="M2639.779,1630.887l-9.143.144c-.6,6.466,4.954,20.247-3.656,24.333-10.54,5-14.867,6.818-16.911,12.725a1.04,1.04,0,0,0,.979,1.4l30.495-.478a1,1,0,0,0,.98-1.211C2641.882,1664.853,2638.459,1636.328,2639.779,1630.887Z" fill="#0072ff"></path><path id="Path_381" data-name="Path 381" d="M2691.909,1485.319s-62.694,21.325-67.195,32.908c-4.086,10.516-.994,100.482-.388,116.991a2.693,2.693,0,0,0,2.7,2.594l15.876-.015a2.7,2.7,0,0,0,2.678-2.4l10.654-96.1s48.612-9.052,52.539-10.075,21.235-14.788,22.761-38.9C2731.532,1490.322,2728.706,1473.17,2691.909,1485.319Z" fill="#002450"></path><path id="Path_382" data-name="Path 382" d="M2709.525,1630.887l-9.143.144c-.6,6.466,4.954,20.247-3.656,24.333-10.54,5-14.867,6.818-16.911,12.725a1.04,1.04,0,0,0,.979,1.4l30.5-.478a1,1,0,0,0,.98-1.211C2711.628,1664.853,2708.205,1636.328,2709.525,1630.887Z" fill="#0072ff"></path><path id="Path_383" data-name="Path 383" d="M2780.552,1492.308c-2.115,18.971-14.22,31.108-17.474,32.41-3.774,1.529-50.859,16.595-50.859,16.595l1.5,99.082-8.949,1.139-.813.1-10.966,1.4s-17.7-106.632-14.675-118.671c2.993-12.073,62.541-41.065,62.541-41.065,13.341-8.591,23.754-8.07,30.587-5.727a13.6,13.6,0,0,1,7.614,6.573,6.384,6.384,0,0,1,.521,1.171A13.719,13.719,0,0,1,2780.552,1492.308Z" fill="#002450"></path></g><g id="Group_233" data-name="Group 233"><g id="Group_212" data-name="Group 212"><g id="Group_210" data-name="Group 210"><g id="Group_209" data-name="Group 209"><path id="Path_384" data-name="Path 384" d="M2609.667,1495.744s-3.082,3.931-3.6,5.507a34.477,34.477,0,0,0-.924,5.337c-.064.6.68,2.688.79,3.657s.009,2.83,1.068,2.792a2.606,2.606,0,0,0,1.919-3.15,9.106,9.106,0,0,0-.492-2.939,14.318,14.318,0,0,0,1.162-3.356,1.557,1.557,0,0,1,.324-.681c.571-.7,5.557-3,6.11-3.656l-5.882,3.964a2.267,2.267,0,0,0-.341.812,15.084,15.084,0,0,0-.406,3.233,7.834,7.834,0,0,0,.531,2.517c.357.77,1.256,3.625,1.793,4.141a1.381,1.381,0,0,0,2.064-.957,5.171,5.171,0,0,0-1.156-4.14,5.585,5.585,0,0,0,.445-2.8c-.2-1.438,1.106.931,1.106.931l-.417,1.472s-.472,2.554.479,3.048,2.126-.732,2.3-2.555,2.076-5.6,2.076-5.6l1.057-3.585,2.227-5.827a29.476,29.476,0,0,0-2.283-1.883C2619.52,1492.069,2609.667,1495.744,2609.667,1495.744Z" fill="#fc8e8e"></path><path id="Path_385" data-name="Path 385" d="M2625.753,1500.522c2.684-1.035,7.706-3.695,10.249-6.748l-5.558-9.293a37.009,37.009,0,0,1-8.892,3.2,15.512,15.512,0,0,0-4.885,1.691c-.849.456-1.83.982-2.863,1.532-2.616,1.4-5.782,2.432-6.726,2.87s-5.263,4.322-6.2,4.963-2.931,2.843-2.933,3.481,1.138,1.81,3.22.8a8.8,8.8,0,0,0,3.052-2.309,31.728,31.728,0,0,0,5-2.786,40.455,40.455,0,0,1,5.033-1.612c1.02-.091,4.561-2.2,6.146-1.35s-.18,3.031-1.205,4.243a21.181,21.181,0,0,0-2.571,3.743c-.561,1.11-1.263,2.286-.963,3.054s2.234,2.25,3.747.868S2622.868,1501.634,2625.753,1500.522Z" fill="#fcb3b3"></path><g id="Group_208" data-name="Group 208"><path id="Path_386" data-name="Path 386" d="M2628.38,1482.661l12.107-5.825a7.6,7.6,0,0,1,10.133,3.55l.341.709a7.582,7.582,0,0,1-3.557,10.119l-12.106,5.825a7.58,7.58,0,0,1-10.112-3.542l-.341-.71A7.593,7.593,0,0,1,2628.38,1482.661Z" fill="#eaeafa"></path></g></g></g><g id="Group_211" data-name="Group 211"><path id="Path_387" data-name="Path 387" d="M2636.984,1497.6a11.38,11.38,0,0,1-4.164-21.3l42.405-23.114,11.972-62.975a11.379,11.379,0,0,1,22.358,4.25l-12.977,68.265a11.387,11.387,0,0,1-5.732,7.867l-47.133,25.69A11.33,11.33,0,0,1,2636.984,1497.6Z" fill="#0072ff"></path></g></g><g id="Group_232" data-name="Group 232"><g id="Group_231" data-name="Group 231"><g id="Group_230" data-name="Group 230"><g id="Group_229" data-name="Group 229"><g id="Group_214" data-name="Group 214"><g id="Group_213" data-name="Group 213"><path id="Path_388" data-name="Path 388" d="M2778.891,1400.464a21.365,21.365,0,0,0-20.573-22.392l-.188,0c-.7-.029-1.4-.029-2.1-.029-10.882-.126-22.717.42-33.431,1.163-.715.042-1.415.1-2.1.14-5.6.408-17.463,1.112-23.017,1.689a8.07,8.07,0,0,0-7.238,8.031l5.2,87.413.093,10.376c.216,7.868,79.391,5.7,79.175-2.171,0-.126.306-.354.515-.911Z" fill="#0072ff"></path></g><path id="Path_389" data-name="Path 389" d="M2765.881,1457.207l-1.624-.126-9.51-.742-9.51-.827c-3.166-.322-6.331-.6-9.5-.98-3.166-.35-6.331-.686-9.5-1.106,3.193-.056,6.372.014,9.552.042s6.373.112,9.552.2l9.538.322,7.9.364c-.672-4.566-1.358-9.132-1.961-13.712q-1.05-7.647-1.975-15.308c-.63-5.112-1.218-10.224-1.722-15.35-.28-2.563-.49-5.141-.729-7.7s-.462-5.126-.63-7.7c.546,2.521,1.037,5.042,1.513,7.577s.98,5.056,1.414,7.6c.925,5.071,1.765,10.141,2.563,15.239s1.583,10.168,2.311,15.266c.757,5.1,1.4,10.2,2.087,15.3Z" fill="#0072ff"></path></g><g id="Group_228" data-name="Group 228"><path id="Path_390" data-name="Path 390" d="M2752.914,1377.961c-.035,3.572-1.863,6.944-5.224,9.583a22.851,22.851,0,0,1-12.788,4.557c-.462.031-.938.048-1.4.05-9.944.059-17.777-5.386-18.212-12.68v-.014c.686-.046,1.386-.106,2.1-.153,10.71-.8,22.541-1.421,33.424-1.359C2751.514,1377.941,2752.214,1377.937,2752.914,1377.961Z" fill="#fff"></path><path id="Path_391" data-name="Path 391" d="M2750.813,1377.945c-.075,6.205-7.089,11.541-16.036,12.07-9.226.544-17.014-4.228-17.388-10.669v-.042c2.086-.152,4.2-.3,6.356-.443l-.184-31.177a9.279,9.279,0,1,1,18.558-.109l.179,30.462C2745.169,1377.965,2748.026,1377.934,2750.813,1377.945Z" fill="url(#linear-gradient)"></path><g id="Group_227" data-name="Group 227"><path id="Path_392" data-name="Path 392" d="M2716.558,1332.442l-.514,22.876a17.064,17.064,0,1,0,34.119.766l.513-22.876a17.063,17.063,0,0,0-34.118-.766Z" fill="url(#linear-gradient-2)"></path><g id="Group_225" data-name="Group 225"><g id="Group_215" data-name="Group 215"><path id="Path_393" data-name="Path 393" d="M2720.628,1341.2a8.25,8.25,0,0,0,6.022-.9c.365-.224.313-.566-.1-.674a8.308,8.308,0,0,0-6.018.894C2720.161,1340.752,2720.212,1341.1,2720.628,1341.2Z" fill="#121c7c"></path></g><g id="Group_216" data-name="Group 216"><path id="Path_394" data-name="Path 394" d="M2736.637,1339.529a8.247,8.247,0,0,0,6.083.338c.4-.143.42-.494.033-.688a7.966,7.966,0,0,0-3.009-.746,7.878,7.878,0,0,0-3.061.408C2736.278,1338.984,2736.25,1339.334,2736.637,1339.529Z" fill="#121c7c"></path></g><g id="Group_223" data-name="Group 223"><g id="Group_217" data-name="Group 217"><path id="Path_395" data-name="Path 395" d="M2733.975,1366.345a5.353,5.353,0,0,0,4.97-1.929.645.645,0,0,0-1.01-.8,4,4,0,0,1-5.113.953.645.645,0,1,0-.628,1.126A5.685,5.685,0,0,0,2733.975,1366.345Z" fill="#fff"></path></g><g id="Group_218" data-name="Group 218"><path id="Path_396" data-name="Path 396" d="M2736.156,1348.516a1.226,1.226,0,1,0,1.143-1.3A1.225,1.225,0,0,0,2736.156,1348.516Z" fill="#121c7c"></path></g><g id="Group_219" data-name="Group 219"><path id="Path_397" data-name="Path 397" d="M2724.039,1349.311a1.226,1.226,0,1,0,1.143-1.3A1.225,1.225,0,0,0,2724.039,1349.311Z" fill="#121c7c"></path></g><g id="Group_220" data-name="Group 220"><path id="Path_398" data-name="Path 398" d="M2718,1350.479a6.1,6.1,0,1,1,6.491,5.69A6.111,6.111,0,0,1,2718,1350.479Zm1.031-.068a5.071,5.071,0,1,0,4.728-5.392A5.076,5.076,0,0,0,2719.029,1350.411Z" fill="#fff"></path></g><g id="Group_221" data-name="Group 221"><path id="Path_399" data-name="Path 399" d="M2731.893,1349.568a6.1,6.1,0,1,1,6.489,5.69A6.11,6.11,0,0,1,2731.893,1349.568Zm1.03-.068a5.071,5.071,0,1,0,4.727-5.393A5.076,5.076,0,0,0,2732.923,1349.5Z" fill="#fff"></path></g><g id="Group_222" data-name="Group 222"><path id="Path_400" data-name="Path 400" d="M2732.222,1349.933l.631-.816a2.816,2.816,0,0,0-2.181-.748,2.169,2.169,0,0,0-1.443,1.066l.869.557a1.179,1.179,0,0,1,.751-.606A1.931,1.931,0,0,1,2732.222,1349.933Z" fill="#fff"></path></g></g><g id="Group_224" data-name="Group 224"><path id="Path_401" data-name="Path 401" d="M2729.389,1360.033l4.709-.309a.444.444,0,0,0,.354-.671,27.214,27.214,0,0,1-2.195-4.688.418.418,0,0,0-.439-.29l-.9.059a.439.439,0,0,0-.409.345,26.273,26.273,0,0,1-1.564,4.935A.448.448,0,0,0,2729.389,1360.033Z" fill="url(#linear-gradient-3)"></path></g></g><path id="Path_402" data-name="Path 402" d="M2748.881,1348.711c1.706.147,3.086-1.324,3.982-2.785a19.891,19.891,0,0,0,2.8-8.383c.116-1.221,0-2.739-1.074-3.394a2.22,2.22,0,0,0-2.141-.063,4.854,4.854,0,0,0-1.706,1.424,9.366,9.366,0,0,0-2,5.967Z" fill="url(#linear-gradient-4)"></path><g id="Group_226" data-name="Group 226"><path id="Path_403" data-name="Path 403" d="M2709.081,1333.24c7.752,4.313,35.3-2.119,35.767-2.36.045-.008.113.119.151.343.461,2.273,1.095,15.051,2.472,16.888,1.5,2,1.1-2.609,1.421-3.795.3-1.182,1.582-8.618,1.582-8.618a20.438,20.438,0,0,1,1.357-6.437c1.295-3.057,3.717-10.138-.023-14.45-3.718-4.317-7.774-1.5-7.774-1.5s-10.59-10.348-20.777-8.454-5.225,9.546-5.225,9.546-5.288-.98-8.946.135c-1.846.526-3.252,1.6-3.4,3.559C2705.688,1318.1,2701.325,1328.905,2709.081,1333.24Z" fill="#002450"></path><path id="Path_404" data-name="Path 404" d="M2709.081,1333.24c7.752,4.313,35.3-2.119,35.767-2.36.045-.008.113.119.151.343a3.052,3.052,0,0,0,.393-.529c-.705-.616-2.23-.1-3.093-.02-1.246.123-2.5.222-3.733.274a46.926,46.926,0,0,1-7.472-.142,26.683,26.683,0,0,1-14.306-5.558,30.4,30.4,0,0,1-7.7-10.707c-1.846.526-3.252,1.6-3.4,3.559C2705.688,1318.1,2701.325,1328.905,2709.081,1333.24Z" fill="#002450"></path></g></g></g></g></g></g></g></g><g id="Group_236" data-name="Group 236"><g id="Group_234" data-name="Group 234"><path id="Path_405" data-name="Path 405" d="M2465.964,1670.073l35.112-170.47h-13.334l-35.112,170.47Z" fill="#dadaf5"></path><path id="Path_406" data-name="Path 406" d="M2762.085,1670.073l-35.112-170.47h-13.334l35.111,170.47Z" fill="#dadaf5"></path></g><g id="Group_235" data-name="Group 235"><path id="Path_407" data-name="Path 407" d="M2498.3,1513.053l2.771-13.45h-13.334l-2.771,13.45Z" fill="#c8c8ee"></path><path id="Path_408" data-name="Path 408" d="M2729.743,1513.053l-2.77-13.45h-13.334l2.77,13.45Z" fill="#c8c8ee"></path></g><path id="Path_409" data-name="Path 409" d="M2793.675,1482.506v13.268a3.825,3.825,0,0,1-3.829,3.829H2427.683a3.831,3.831,0,0,1-3.829-3.829v-13.268a3.831,3.831,0,0,1,3.829-3.829h362.163A3.825,3.825,0,0,1,2793.675,1482.506Z" fill="#dadaf5"></path></g><g id="Group_242" data-name="Group 242"><g id="Group_241" data-name="Group 241"><g id="Group_240" data-name="Group 240"><g id="Group_237" data-name="Group 237"><path id="Path_410" data-name="Path 410" d="M2692.62,1461.7a10.087,10.087,0,0,1-3.607,2.993,14.406,14.406,0,0,1-4.6,1.836c-.093.017-.187.031-.281.044a7.364,7.364,0,0,1-1.488.054l.114-1.7a7.054,7.054,0,0,0,2.932-.513,17.506,17.506,0,0,0,2.478-1.2,8.665,8.665,0,0,0,3.031-2.457,3.761,3.761,0,0,0,.53-3.117,2.95,2.95,0,0,0-2.132-2.037,3.269,3.269,0,0,0-2.122.367,4.516,4.516,0,0,0-.777.51,9.686,9.686,0,0,0-2.152,2.81l-1.484-.834a11.2,11.2,0,0,1,2.563-3.3,6.02,6.02,0,0,1,1.85-1.039,4.7,4.7,0,0,1,2.463-.185,4.634,4.634,0,0,1,3.422,3.216A5.481,5.481,0,0,1,2692.62,1461.7Z" fill="#dadaf5"></path></g><path id="Path_411" data-name="Path 411" d="M2685.694,1464.421c-.376.669-.8,1.375-1.277,2.113-.093.017-.187.031-.281.044a7.364,7.364,0,0,1-1.488.054l.114-1.7A7.054,7.054,0,0,0,2685.694,1464.421Z" fill="#c8c8ee"></path><path id="Path_412" data-name="Path 412" d="M2687.479,1455.975a4.516,4.516,0,0,0-.777.51,9.686,9.686,0,0,0-2.152,2.81l-1.484-.834a11.2,11.2,0,0,1,2.563-3.3,6.02,6.02,0,0,1,1.85-1.039C2687.492,1454.668,2687.5,1455.3,2687.479,1455.975Z" fill="#c8c8ee"></path><path id="Path_413" data-name="Path 413" d="M2685.11,1463.785a50.873,50.873,0,0,1-2.83,4.458,8.047,8.047,0,0,1-6.584,3.422h-4.478a8.045,8.045,0,0,1-6.584-3.421,50.9,50.9,0,0,1-2.831-4.459c-2.141-3.868-1.843-13.67-1.843-13.67,1.326-1.6,7.794-.014,11.752-.155v-.058s.678-.007,1.746.011c1.067-.018,1.744-.011,1.744-.011v.058c3.957.141,10.033-1.938,11.359-.337C2686.561,1449.623,2687.252,1459.917,2685.11,1463.785Z" fill="#f49758"></path><g id="Group_239" data-name="Group 239"><path id="Path_414" data-name="Path 414" d="M2686.667,1450.115c0,1.428-5.979,2.586-13.355,2.586s-13.355-1.158-13.355-2.586,5.98-2.586,13.355-2.586S2686.667,1448.687,2686.667,1450.115Z" fill="#ffb583"></path><g id="Group_238" data-name="Group 238"><path id="Path_415" data-name="Path 415" d="M2682.434,1448.691a57.589,57.589,0,0,0-18.244,0c-2.1.406-3.353.939-3.353,1.424,0,.176.163.357.472.537a10.127,10.127,0,0,1,2.881-.888,57.513,57.513,0,0,1,18.244,0,10.116,10.116,0,0,1,2.881.888c.309-.18.472-.361.472-.537C2685.787,1449.63,2684.534,1449.1,2682.434,1448.691Z" fill="#f49758"></path><path id="Path_416" data-name="Path 416" d="M2682.434,1449.764a57.513,57.513,0,0,0-18.244,0,10.127,10.127,0,0,0-2.881.888,10.165,10.165,0,0,0,2.881.887,57.589,57.589,0,0,0,18.244,0,10.154,10.154,0,0,0,2.881-.887A10.116,10.116,0,0,0,2682.434,1449.764Z" fill="url(#linear-gradient-5)"></path><path id="Path_417" data-name="Path 417" d="M2685.316,1450.651a3.9,3.9,0,0,1-.507.243,13.448,13.448,0,0,0-2.375-.646,57.589,57.589,0,0,0-18.244,0,13.448,13.448,0,0,0-2.375.646,3.9,3.9,0,0,1-.507-.243,10.174,10.174,0,0,1,2.882-.887,57.513,57.513,0,0,1,18.244,0A10.174,10.174,0,0,1,2685.316,1450.651Z" fill="#fc8e8e"></path></g></g></g></g></g><g id="Group_245" data-name="Group 245"><g id="Group_244" data-name="Group 244"><path id="Path_418" data-name="Path 418" d="M2690.982,1452.28c-.345-.322-.663-.659-1.022-.945a9,9,0,0,0-3.624-1.578,4.3,4.3,0,0,1-2.936-3.15,1.545,1.545,0,0,1,.185-1.3c.194-.219.818-.131,1.233-.065a10.169,10.169,0,0,0,2.329.466c2.585-.238,4.4,1.6,6.643,2.269,2.359.7,4.126,2.367,6.071,3.733,1.145.8,2.209,1.727,3.276,2.636a7.871,7.871,0,0,0,3.379,1.742c2.587.6,5.134,1.406,7.744,1.868,2.969.526,5.989.769,9.208,1.161.9,5.439,1.826,11.1,2.777,16.875-.965-.281-1.831-.518-2.688-.786-4.312-1.353-8.6-2.793-12.94-4.043a17.934,17.934,0,0,0-8.549-.2c-1.969.4-3.9,1.03-5.883,1.283a40.491,40.491,0,0,1-5.422.089c-1.783-.014-3.566-.066-5.347-.141s-3.57-.094-5.331-.329a4.109,4.109,0,0,1-3.525-2.977c-.165-.65-1.029-1.147-1.625-1.654a13.061,13.061,0,0,0-1.455-.976,1.524,1.524,0,0,1-.8-1.6,1.271,1.271,0,0,0-.89-1.547,6.249,6.249,0,0,1-3.291-3.652,2.112,2.112,0,0,0-.681-.683,1.137,1.137,0,0,1,.162-2.1,4.517,4.517,0,0,1,3.923-.011,2.088,2.088,0,0,0,.688.258c1.76-.045,3.528-.047,5.275-.23a11.3,11.3,0,0,0,2.252-.838c1.675-.572,3.36-1.112,5.042-1.665Z" fill="#fcb3b3"></path><g id="Group_243" data-name="Group 243"><path id="Path_419" data-name="Path 419" d="M2716.665,1456.862l13.377,1.247a7.6,7.6,0,0,1,6.855,8.264l-.073.784a7.583,7.583,0,0,1-8.263,6.839l-13.377-1.248a7.579,7.579,0,0,1-6.84-8.246l.073-.784A7.593,7.593,0,0,1,2716.665,1456.862Z" fill="#eaeafa"></path></g></g><path id="Path_420" data-name="Path 420" d="M2717.372,1474.215a12.224,12.224,0,0,1,9.725-20.5l38.191,2.336-8.6-61.333c-.938-6.687-.255-15.353,6.431-16.289s16.846,6.213,17.782,12.9l10.676,76.144a12.22,12.22,0,0,1-12.85,13.9l-53.119-3.249A12.185,12.185,0,0,1,2717.372,1474.215Z" fill="#0072ff"></path></g></g><g id="Group_252" data-name="Group 252"><g id="Group_250" data-name="Group 250"><g id="Group_247" data-name="Group 247"><path id="Path_421" data-name="Path 421" d="M2506.6,1396.122l13.141,64.07a4.232,4.232,0,0,0,3.956,3.273h82.713l-14.483-70.617h-82.712A2.593,2.593,0,0,0,2506.6,1396.122Z" fill="#f6f6fe"></path><path id="Path_422" data-name="Path 422" d="M2533.3,1463.465h31.443v-42.675l-20.325,4.479Z" fill="#eaeafa"></path><path id="Path_423" data-name="Path 423" d="M2589.294,1396.168l13.119,63.978a4.27,4.27,0,0,0,4,3.319,2.615,2.615,0,0,0,2.616-3.319l-13.12-63.978a4.264,4.264,0,0,0-3.977-3.32A2.62,2.62,0,0,0,2589.294,1396.168Z" fill="#dadaf5"></path></g><g id="Group_249" data-name="Group 249"><path id="Path_424" data-name="Path 424" d="M2525.713,1478.675h20.394a9.321,9.321,0,0,1-8.64-12.891L2556,1420.791h-19.188l-18.984,46.108A8.524,8.524,0,0,0,2525.713,1478.675Z" fill="#dadaf5"></path><g id="Group_248" data-name="Group 248"><path id="Path_425" data-name="Path 425" d="M2546.1,1478.677h24.983V1476.4H2546.1a7.065,7.065,0,0,1-6.534-9.755l17.957-43.591h7.227v-2.274H2556l-18.535,45a9.339,9.339,0,0,0,8.635,12.9Z" fill="#c8c8ee"></path></g></g></g><g id="Group_251" data-name="Group 251"><path id="Path_426" data-name="Path 426" d="M2579.446,1416.428l-3.267-10.626h1.3l3.267,10.626Z" fill="#eaeafa"></path><path id="Path_427" data-name="Path 427" d="M2574.208,1416.428l-3.267-10.626h1.3l3.267,10.626Z" fill="#eaeafa"></path><path id="Path_428" data-name="Path 428" d="M2568.971,1416.428,2565.7,1405.8h1.3l3.267,10.626Z" fill="#eaeafa"></path><path id="Path_429" data-name="Path 429" d="M2563.733,1416.428l-3.267-10.626h1.3l3.267,10.626Z" fill="#eaeafa"></path><path id="Path_430" data-name="Path 430" d="M2558.5,1416.428l-3.267-10.626h1.3l3.267,10.626Z" fill="#eaeafa"></path><path id="Path_431" data-name="Path 431" d="M2553.259,1416.428l-3.267-10.626h1.3l3.267,10.626Z" fill="#eaeafa"></path><path id="Path_432" data-name="Path 432" d="M2548.021,1416.428l-3.267-10.626h1.3l3.267,10.626Z" fill="#eaeafa"></path><path id="Path_433" data-name="Path 433" d="M2542.784,1416.428l-3.267-10.626h1.3l3.267,10.626Z" fill="#eaeafa"></path><path id="Path_434" data-name="Path 434" d="M2537.546,1416.428l-3.267-10.626h1.3l3.267,10.626Z" fill="#eaeafa"></path><path id="Path_435" data-name="Path 435" d="M2532.309,1416.428l-3.267-10.626h1.3l3.267,10.626Z" fill="#eaeafa"></path><path id="Path_436" data-name="Path 436" d="M2527.071,1416.428,2523.8,1405.8h1.3l3.267,10.626Z" fill="#eaeafa"></path><path id="Path_437" data-name="Path 437" d="M2521.834,1416.428l-3.267-10.626h1.3l3.267,10.626Z" fill="#eaeafa"></path></g></g><g id="Group_256" data-name="Group 256"><g id="Group_255" data-name="Group 255"><path id="Path_438" data-name="Path 438" d="M2119.125,1226.784v10.138h211.41v-10.138a5.34,5.34,0,0,0-5.278-5.336h-200.8A5.351,5.351,0,0,0,2119.125,1226.784Z" fill="#c8c8ee"></path><g id="Group_254" data-name="Group 254"><g id="Group_253" data-name="Group 253"><path id="Path_439" data-name="Path 439" d="M2351.873,1242.939v392.473a6.046,6.046,0,0,1-6.047,6.046H2153.908V1236.893h191.918A6.046,6.046,0,0,1,2351.873,1242.939Z" fill="#f0f6ff"></path><path id="Path_440" data-name="Path 440" d="M2162.733,1349.936v32.36a1.822,1.822,0,0,0,1.829,1.83h179.05a1.822,1.822,0,0,0,1.829-1.83v-32.36a1.843,1.843,0,0,0-1.829-1.854h-179.05A1.843,1.843,0,0,0,2162.733,1349.936Z" fill="#c8c8ee"></path><path id="Path_441" data-name="Path 441" d="M2164.562,1348.082h49.948a53.268,53.268,0,0,1-40.61,18.8h-11.167v-16.967A1.829,1.829,0,0,1,2164.562,1348.082Z" fill="#b3b3e0" opacity="0.5"></path><path id="Path_442" data-name="Path 442" d="M2103.833,1236.893h50.075v404.565h-50.075a6.046,6.046,0,0,1-6.046-6.046V1242.939A6.046,6.046,0,0,1,2103.833,1236.893Z" fill="#dadaf5"></path></g><path id="Path_443" data-name="Path 443" d="M2330.535,1663.423v-21.994h-211.41v21.994a5.34,5.34,0,0,0,5.277,5.337h200.8A5.353,5.353,0,0,0,2330.535,1663.423Z" fill="#c8c8ee"></path></g></g></g><g id="Group_257" data-name="Group 257"><path id="Path_444" data-name="Path 444" d="M2319.8,1648.262v13.691a2.439,2.439,0,0,0,4.878,0v-13.691a2.439,2.439,0,1,0-4.878,0Z" fill="#f0f6ff"></path><path id="Path_445" data-name="Path 445" d="M2307.629,1648.262v13.691a2.439,2.439,0,0,0,4.877,0v-13.691a2.439,2.439,0,1,0-4.877,0Z" fill="#f0f6ff"></path><path id="Path_446" data-name="Path 446" d="M2295.452,1648.262v13.691a2.439,2.439,0,0,0,4.877,0v-13.691a2.439,2.439,0,1,0-4.877,0Z" fill="#f0f6ff"></path><path id="Path_447" data-name="Path 447" d="M2283.275,1648.262v13.691a2.439,2.439,0,0,0,4.877,0v-13.691a2.439,2.439,0,1,0-4.877,0Z" fill="#f0f6ff"></path><path id="Path_448" data-name="Path 448" d="M2271.1,1648.262v13.691a2.439,2.439,0,0,0,4.878,0v-13.691a2.439,2.439,0,1,0-4.878,0Z" fill="#f0f6ff"></path><path id="Path_449" data-name="Path 449" d="M2258.922,1648.262v13.691a2.438,2.438,0,0,0,4.877,0v-13.691a2.439,2.439,0,1,0-4.877,0Z" fill="#f0f6ff"></path><path id="Path_450" data-name="Path 450" d="M2246.745,1648.262v13.691a2.438,2.438,0,0,0,4.877,0v-13.691a2.439,2.439,0,1,0-4.877,0Z" fill="#f0f6ff"></path><path id="Path_451" data-name="Path 451" d="M2234.568,1648.262v13.691a2.438,2.438,0,0,0,4.877,0v-13.691a2.439,2.439,0,1,0-4.877,0Z" fill="#f0f6ff"></path><path id="Path_452" data-name="Path 452" d="M2222.391,1648.262v13.691a2.439,2.439,0,0,0,4.878,0v-13.691a2.439,2.439,0,1,0-4.878,0Z" fill="#f0f6ff"></path><path id="Path_453" data-name="Path 453" d="M2210.214,1648.262v13.691a2.439,2.439,0,0,0,4.878,0v-13.691a2.439,2.439,0,1,0-4.878,0Z" fill="#f0f6ff"></path><path id="Path_454" data-name="Path 454" d="M2198.038,1648.262v13.691a2.438,2.438,0,0,0,4.877,0v-13.691a2.439,2.439,0,1,0-4.877,0Z" fill="#f0f6ff"></path><path id="Path_455" data-name="Path 455" d="M2185.861,1648.262v13.691a2.438,2.438,0,0,0,4.877,0v-13.691a2.439,2.439,0,1,0-4.877,0Z" fill="#f0f6ff"></path><path id="Path_456" data-name="Path 456" d="M2173.684,1648.262v13.691a2.438,2.438,0,0,0,4.877,0v-13.691a2.439,2.439,0,1,0-4.877,0Z" fill="#f0f6ff"></path><path id="Path_457" data-name="Path 457" d="M2161.507,1648.262v13.691a2.439,2.439,0,0,0,4.878,0v-13.691a2.439,2.439,0,1,0-4.878,0Z" fill="#f0f6ff"></path><path id="Path_458" data-name="Path 458" d="M2149.33,1648.262v13.691a2.439,2.439,0,0,0,4.878,0v-13.691a2.439,2.439,0,1,0-4.878,0Z" fill="#f0f6ff"></path><path id="Path_459" data-name="Path 459" d="M2137.154,1648.262v13.691a2.438,2.438,0,0,0,4.877,0v-13.691a2.439,2.439,0,1,0-4.877,0Z" fill="#f0f6ff"></path><path id="Path_460" data-name="Path 460" d="M2124.977,1648.262v13.691a2.438,2.438,0,0,0,4.877,0v-13.691a2.439,2.439,0,1,0-4.877,0Z" fill="#f0f6ff"></path></g><rect id="Rectangle_34" data-name="Rectangle 34" width="182.724" height="36.032" rx="1.84" transform="translate(2161.528 1256.454)" fill="#dadaf5"></rect><path id="Path_461" data-name="Path 461" d="M2166.606,1264.186v20.574a2.64,2.64,0,0,0,2.642,2.642h71.529a2.623,2.623,0,0,0,2.641-2.642v-20.574a2.624,2.624,0,0,0-2.641-2.642h-71.529A2.64,2.64,0,0,0,2166.606,1264.186Z" fill="url(#linear-gradient-6)"></path><path id="Path_462" data-name="Path 462" d="M2172.3,1274.461a3,3,0,0,0,3,3h23.368a2.985,2.985,0,0,0,0-5.969h-23.368A3,3,0,0,0,2172.3,1274.461Z" fill="#f0f6ff"></path><g id="Group_258" data-name="Group 258"><circle id="Ellipse_56" data-name="Ellipse 56" cx="4.864" cy="4.864" r="4.864" transform="translate(2246.594 1269.468)" fill="#c8c8ee"></circle><circle id="Ellipse_57" data-name="Ellipse 57" cx="4.864" cy="4.864" r="4.864" transform="translate(2262.498 1269.609)" fill="#c8c8ee"></circle><path id="Path_463" data-name="Path 463" d="M2278.4,1274.473a4.864,4.864,0,1,0,4.864-4.864A4.865,4.865,0,0,0,2278.4,1274.473Z" fill="#f0f6ff"></path><path id="Path_464" data-name="Path 464" d="M2294.3,1274.473a4.865,4.865,0,1,0,4.864-4.864A4.865,4.865,0,0,0,2294.3,1274.473Z" fill="#0072ff"></path><circle id="Ellipse_58" data-name="Ellipse 58" cx="10.761" cy="10.761" r="10.761" transform="translate(2313.598 1263.712)" fill="#c8c8ee"></circle></g><rect id="Rectangle_35" data-name="Rectangle 35" width="182.724" height="36.032" rx="1.84" transform="translate(2161.528 1302.274)" fill="#dadaf5"></rect><path id="Path_465" data-name="Path 465" d="M2166.606,1310.005v20.575a2.64,2.64,0,0,0,2.642,2.642h71.529a2.624,2.624,0,0,0,2.641-2.642v-20.575a2.623,2.623,0,0,0-2.641-2.641h-71.529A2.639,2.639,0,0,0,2166.606,1310.005Z" fill="url(#linear-gradient-6)"></path><path id="Path_466" data-name="Path 466" d="M2172.3,1320.28a3,3,0,0,0,3,3h23.368a2.985,2.985,0,0,0,0-5.97h-23.368A3,3,0,0,0,2172.3,1320.28Z" fill="#f0f6ff"></path><g id="Group_259" data-name="Group 259"><circle id="Ellipse_59" data-name="Ellipse 59" cx="4.864" cy="4.864" r="4.864" transform="translate(2246.594 1315.428)" fill="#c8c8ee"></circle><circle id="Ellipse_60" data-name="Ellipse 60" cx="4.864" cy="4.864" r="4.864" transform="translate(2262.498 1315.428)" fill="#0072ff"></circle><path id="Path_467" data-name="Path 467" d="M2278.4,1320.293a4.864,4.864,0,1,0,4.864-4.864A4.865,4.865,0,0,0,2278.4,1320.293Z" fill="#f0f6ff"></path><path id="Path_468" data-name="Path 468" d="M2294.3,1320.152a4.865,4.865,0,1,0,4.864-4.864A4.864,4.864,0,0,0,2294.3,1320.152Z" fill="#0072ff"></path><circle id="Ellipse_61" data-name="Ellipse 61" cx="10.761" cy="10.761" r="10.761" transform="translate(2313.598 1309.531)" fill="#c8c8ee"></circle></g><rect id="Rectangle_36" data-name="Rectangle 36" width="182.724" height="36.032" rx="1.84" transform="translate(2212.67 1348.093)" fill="#dadaf5"></rect><path id="Path_469" data-name="Path 469" d="M2217.749,1355.824V1376.4a2.639,2.639,0,0,0,2.641,2.642h71.529a2.624,2.624,0,0,0,2.642-2.642v-20.575a2.624,2.624,0,0,0-2.642-2.641H2220.39A2.64,2.64,0,0,0,2217.749,1355.824Z" fill="url(#linear-gradient-6)"></path><path id="Path_470" data-name="Path 470" d="M2223.439,1366.1a3,3,0,0,0,3,3H2249.8a2.985,2.985,0,0,0,0-5.969h-23.369A3,3,0,0,0,2223.439,1366.1Z" fill="#f0f6ff"></path><g id="Group_260" data-name="Group 260"><path id="Path_471" data-name="Path 471" d="M2297.736,1366.112a4.865,4.865,0,1,0,4.865-4.864A4.865,4.865,0,0,0,2297.736,1366.112Z" fill="#c8c8ee"></path><circle id="Ellipse_62" data-name="Ellipse 62" cx="4.864" cy="4.864" r="4.864" transform="translate(2313.64 1361.248)" fill="#c8c8ee"></circle><circle id="Ellipse_63" data-name="Ellipse 63" cx="4.864" cy="4.864" r="4.864" transform="translate(2329.543 1361.248)" fill="#f0f6ff"></circle><path id="Path_472" data-name="Path 472" d="M2345.446,1366.112a4.865,4.865,0,1,0,4.865-4.864A4.865,4.865,0,0,0,2345.446,1366.112Z" fill="#c8c8ee"></path><circle id="Ellipse_64" data-name="Ellipse 64" cx="10.761" cy="10.761" r="10.761" transform="translate(2364.74 1355.351)" fill="#c8c8ee"></circle></g><rect id="Rectangle_37" data-name="Rectangle 37" width="182.724" height="36.032" rx="1.84" transform="translate(2161.528 1393.913)" fill="#dadaf5"></rect><path id="Path_473" data-name="Path 473" d="M2166.606,1401.644v20.575a2.64,2.64,0,0,0,2.642,2.642h71.529a2.624,2.624,0,0,0,2.641-2.642v-20.575a2.623,2.623,0,0,0-2.641-2.641h-71.529A2.639,2.639,0,0,0,2166.606,1401.644Z" fill="url(#linear-gradient-6)"></path><path id="Path_474" data-name="Path 474" d="M2172.3,1411.919a3,3,0,0,0,3,3h23.368a2.985,2.985,0,0,0,0-5.97h-23.368A3,3,0,0,0,2172.3,1411.919Z" fill="#f0f6ff"></path><g id="Group_261" data-name="Group 261"><path id="Path_475" data-name="Path 475" d="M2246.594,1411.932a4.865,4.865,0,1,0,4.865-4.865A4.865,4.865,0,0,0,2246.594,1411.932Z" fill="#0072ff"></path><path id="Path_476" data-name="Path 476" d="M2262.5,1411.932a4.865,4.865,0,1,0,4.865-4.865A4.865,4.865,0,0,0,2262.5,1411.932Z" fill="#c8c8ee"></path><path id="Path_477" data-name="Path 477" d="M2278.4,1411.932a4.864,4.864,0,1,0,4.864-4.865A4.865,4.865,0,0,0,2278.4,1411.932Z" fill="#f0f6ff"></path><path id="Path_478" data-name="Path 478" d="M2294.3,1411.932a4.865,4.865,0,1,0,4.864-4.865A4.864,4.864,0,0,0,2294.3,1411.932Z" fill="#0072ff"></path><circle id="Ellipse_65" data-name="Ellipse 65" cx="10.761" cy="10.761" r="10.761" transform="translate(2313.598 1401.171)" fill="#c8c8ee"></circle></g><rect id="Rectangle_38" data-name="Rectangle 38" width="182.724" height="36.032" rx="1.84" transform="translate(2161.528 1439.732)" fill="#dadaf5"></rect><path id="Path_479" data-name="Path 479" d="M2166.606,1447.463v20.575a2.64,2.64,0,0,0,2.642,2.642h71.529a2.623,2.623,0,0,0,2.641-2.642v-20.575a2.623,2.623,0,0,0-2.641-2.641h-71.529A2.64,2.64,0,0,0,2166.606,1447.463Z" fill="url(#linear-gradient-6)"></path><path id="Path_480" data-name="Path 480" d="M2172.3,1457.739a3,3,0,0,0,3,3h23.368a2.985,2.985,0,0,0,0-5.97h-23.368A3,3,0,0,0,2172.3,1457.739Z" fill="#f0f6ff"></path><g id="Group_262" data-name="Group 262"><path id="Path_481" data-name="Path 481" d="M2246.594,1457.751a4.865,4.865,0,1,0,4.865-4.864A4.865,4.865,0,0,0,2246.594,1457.751Z" fill="#c8c8ee"></path><path id="Path_482" data-name="Path 482" d="M2262.5,1457.751a4.865,4.865,0,1,0,4.865-4.864A4.865,4.865,0,0,0,2262.5,1457.751Z" fill="#0072ff"></path><path id="Path_483" data-name="Path 483" d="M2278.4,1457.751a4.864,4.864,0,1,0,4.864-4.864A4.865,4.865,0,0,0,2278.4,1457.751Z" fill="#f0f6ff"></path><path id="Path_484" data-name="Path 484" d="M2294.3,1457.751a4.865,4.865,0,1,0,4.864-4.864A4.865,4.865,0,0,0,2294.3,1457.751Z" fill="#0072ff"></path><circle id="Ellipse_66" data-name="Ellipse 66" cx="10.761" cy="10.761" r="10.761" transform="translate(2310.299 1463.575) rotate(-67.5)" fill="#c8c8ee"></circle></g><rect id="Rectangle_39" data-name="Rectangle 39" width="182.724" height="36.032" rx="1.84" transform="translate(2161.528 1485.552)" fill="#dadaf5"></rect><path id="Path_485" data-name="Path 485" d="M2166.606,1493.283v20.575a2.64,2.64,0,0,0,2.642,2.642h71.529a2.624,2.624,0,0,0,2.641-2.642v-20.575a2.623,2.623,0,0,0-2.641-2.641h-71.529A2.64,2.64,0,0,0,2166.606,1493.283Z" fill="url(#linear-gradient-6)"></path><path id="Path_486" data-name="Path 486" d="M2172.3,1503.558a3,3,0,0,0,3,3h23.368a2.985,2.985,0,0,0,0-5.969h-23.368A3,3,0,0,0,2172.3,1503.558Z" fill="#f0f6ff"></path><g id="Group_263" data-name="Group 263"><path id="Path_487" data-name="Path 487" d="M2246.594,1503.571a4.865,4.865,0,1,0,4.865-4.865A4.865,4.865,0,0,0,2246.594,1503.571Z" fill="#c8c8ee"></path><path id="Path_488" data-name="Path 488" d="M2262.5,1503.571a4.865,4.865,0,1,0,4.865-4.865A4.865,4.865,0,0,0,2262.5,1503.571Z" fill="#0072ff"></path><path id="Path_489" data-name="Path 489" d="M2278.4,1503.571a4.864,4.864,0,1,0,4.864-4.865A4.865,4.865,0,0,0,2278.4,1503.571Z" fill="#f0f6ff"></path><path id="Path_490" data-name="Path 490" d="M2294.3,1503.571a4.865,4.865,0,1,0,4.864-4.865A4.864,4.864,0,0,0,2294.3,1503.571Z" fill="#0072ff"></path><circle id="Ellipse_67" data-name="Ellipse 67" cx="10.761" cy="10.761" r="10.761" transform="translate(2313.598 1492.809)" fill="#c8c8ee"></circle></g><rect id="Rectangle_40" data-name="Rectangle 40" width="182.724" height="36.032" rx="1.84" transform="translate(2161.528 1531.371)" fill="#dadaf5"></rect><path id="Path_491" data-name="Path 491" d="M2166.606,1539.1v20.574a2.64,2.64,0,0,0,2.642,2.642h71.529a2.623,2.623,0,0,0,2.641-2.642V1539.1a2.624,2.624,0,0,0-2.641-2.642h-71.529A2.64,2.64,0,0,0,2166.606,1539.1Z" fill="url(#linear-gradient-6)"></path><path id="Path_492" data-name="Path 492" d="M2172.3,1549.378a3,3,0,0,0,3,3h23.368a2.985,2.985,0,0,0,0-5.969h-23.368A3,3,0,0,0,2172.3,1549.378Z" fill="#f0f6ff"></path><g id="Group_264" data-name="Group 264"><circle id="Ellipse_68" data-name="Ellipse 68" cx="4.864" cy="4.864" r="4.864" transform="translate(2246.594 1544.526)" fill="#c8c8ee"></circle><circle id="Ellipse_69" data-name="Ellipse 69" cx="4.864" cy="4.864" r="4.864" transform="translate(2262.498 1544.526)" fill="#0072ff"></circle><path id="Path_493" data-name="Path 493" d="M2278.4,1549.39a4.864,4.864,0,1,0,4.864-4.864A4.864,4.864,0,0,0,2278.4,1549.39Z" fill="#f0f6ff"></path><path id="Path_494" data-name="Path 494" d="M2294.3,1549.39a4.865,4.865,0,1,0,4.864-4.864A4.864,4.864,0,0,0,2294.3,1549.39Z" fill="#c8c8ee"></path><circle id="Ellipse_70" data-name="Ellipse 70" cx="10.761" cy="10.761" r="10.761" transform="translate(2313.598 1538.629)" fill="#c8c8ee"></circle></g><rect id="Rectangle_41" data-name="Rectangle 41" width="182.724" height="36.032" rx="1.84" transform="translate(2161.528 1577.191)" fill="#dadaf5"></rect><path id="Path_495" data-name="Path 495" d="M2166.606,1584.922V1605.5a2.64,2.64,0,0,0,2.642,2.642h71.529a2.624,2.624,0,0,0,2.641-2.642v-20.575a2.623,2.623,0,0,0-2.641-2.641h-71.529A2.639,2.639,0,0,0,2166.606,1584.922Z" fill="url(#linear-gradient-6)"></path><path id="Path_496" data-name="Path 496" d="M2172.3,1595.2a3,3,0,0,0,3,3h23.368a2.985,2.985,0,0,0,0-5.969h-23.368A3,3,0,0,0,2172.3,1595.2Z" fill="#f0f6ff"></path><g id="Group_265" data-name="Group 265"><circle id="Ellipse_71" data-name="Ellipse 71" cx="4.864" cy="4.864" r="4.864" transform="translate(2246.594 1590.345)" fill="#c8c8ee"></circle><circle id="Ellipse_72" data-name="Ellipse 72" cx="4.864" cy="4.864" r="4.864" transform="translate(2262.498 1590.345)" fill="#c8c8ee"></circle><path id="Path_497" data-name="Path 497" d="M2278.4,1595.21a4.864,4.864,0,1,0,4.864-4.865A4.865,4.865,0,0,0,2278.4,1595.21Z" fill="#f0f6ff"></path><path id="Path_498" data-name="Path 498" d="M2294.3,1595.21a4.865,4.865,0,1,0,4.864-4.865A4.864,4.864,0,0,0,2294.3,1595.21Z" fill="#0072ff"></path><circle id="Ellipse_73" data-name="Ellipse 73" cx="10.761" cy="10.761" r="10.761" transform="translate(2313.598 1584.448)" fill="#0072ff"></circle></g><g id="Group_268" data-name="Group 268"><g id="Group_267" data-name="Group 267"><g id="Group_266" data-name="Group 266"><path id="Path_499" data-name="Path 499" d="M2817.166,1672.471H2097.787a2.4,2.4,0,1,1,0-4.795h719.379a2.4,2.4,0,1,1,0,4.795Z" fill="#002450"></path></g></g></g><path id="Path_500" data-name="Path 500" d="M2555.033,1274.149a3.445,3.445,0,0,1-4.993,0,42.184,42.184,0,0,0-59.622,0,3.448,3.448,0,0,1-4.992,0,3.53,3.53,0,0,1,0-5.063,49.241,49.241,0,0,1,69.607,0A3.531,3.531,0,0,1,2555.033,1274.149Z" fill="#eaeafa"></path><path id="Path_501" data-name="Path 501" d="M2534.921,1289.269a3.6,3.6,0,0,1-2.568,6.133,3.474,3.474,0,0,1-2.5-1.069,13.684,13.684,0,0,0-19.256,0,3.58,3.58,0,0,1-5.063-5.064A20.873,20.873,0,0,1,2534.921,1289.269Z" fill="#eaeafa"></path><path id="Path_502" data-name="Path 502" d="M2527.86,1304.957a7.2,7.2,0,1,1-7.2-7.2A7.23,7.23,0,0,1,2527.86,1304.957Z" fill="#eaeafa"></path><path id="Path_503" data-name="Path 503" d="M2544.977,1279.212a3.45,3.45,0,0,1,0,4.994,3.535,3.535,0,0,1-5.064,0c-10.483-10.485-28.884-10.485-39.368,0a3.532,3.532,0,0,1-5.063,0,3.576,3.576,0,0,1,0-4.994,34.954,34.954,0,0,1,49.5,0Z" fill="#eaeafa"></path></g></g></g></svg>