<svg xmlns="http://www.w3.org/2000/svg" xmlns:xlink="http://www.w3.org/1999/xlink" width="776.098" height="550.134" viewBox="0 0 776.098 550.134"><defs><linearGradient id="linear-gradient" y1="0.5" x2="1" y2="0.5" gradientUnits="objectBoundingBox"><stop offset="0" stop-color="#00c5ff"></stop><stop offset="0.995" stop-color="#0072ff"></stop></linearGradient><linearGradient id="linear-gradient-19" x1="88.063" y1="0.311" x2="88.063" y2="1.044" gradientUnits="objectBoundingBox"><stop offset="0.004" stop-color="#fcb3b3"></stop><stop offset="1" stop-color="#fc8e8e"></stop></linearGradient><linearGradient id="linear-gradient-20" x1="119.706" y1="0.427" x2="120.283" y2="0.78" xlink:href="#linear-gradient-19"></linearGradient><linearGradient id="linear-gradient-21" x1="569.014" y1="-21.11" x2="569.656" y2="-20.701" xlink:href="#linear-gradient-19"></linearGradient><linearGradient id="linear-gradient-22" x1="807.057" y1="2.273" x2="807.057" y2="2.137" xlink:href="#linear-gradient-19"></linearGradient></defs><g id="Group_519" data-name="Group 519" transform="translate(-180.436 -2158.887)"><g id="Group_485" data-name="Group 485"><g id="Group_385" data-name="Group 385"><path id="Path_671" data-name="Path 671" d="M690.438,2685.471q-4.516,0-9.018-.28c-8.264-.515-18.75-1.912-26.547-8.2-3.713-3-6.557-6.9-9.307-10.681-2.784-3.824-5.662-7.778-9.393-10.668-9.512-7.367-22.822-6.946-35.642-5.882-11.014.916-26.1,2.166-36.87-5.739-9.08-6.665-12.961-18.369-15.328-27.821-.374-1.5-.735-3-1.1-4.512-2.088-8.735-4.247-17.767-9.422-25.05-5.087-7.158-13.484-12.087-23.036-13.523s-19.026.808-25.993,6.153l-.974-1.268c7.311-5.61,17.228-7.962,27.205-6.466s18.764,6.668,24.1,14.178c5.355,7.535,7.551,16.721,9.674,25.6.36,1.5.719,3.005,1.092,4.494,2.3,9.192,6.055,20.558,14.724,26.92,9.5,6.974,22.351,6.55,35.791,5.437,13.133-1.091,26.788-1.509,36.753,6.209,3.911,3.03,6.857,7.078,9.706,10.992,2.69,3.7,5.47,7.516,9.018,10.378,7.446,6.008,17.615,7.352,25.643,7.853a149.343,149.343,0,0,0,83.684-19.857l.8,1.38A151.173,151.173,0,0,1,690.438,2685.471Z" fill="#002450"></path></g><g id="Group_386" data-name="Group 386"><path id="Path_672" data-name="Path 672" d="M695.663,2691.128a105.719,105.719,0,0,1-56.805-16.541c-1.068-.687-2.133-1.4-3.2-2.11-5.242-3.5-10.661-7.113-16.8-8.019-5.507-.81-11.124.64-16.558,2.044-2.335.6-4.75,1.227-7.146,1.673-23.709,4.409-49.73-10.432-58-33.087a107.481,107.481,0,0,1-3.544-13.052c-1.876-8.267-3.648-16.076-8.682-22.361a27.524,27.524,0,0,0-38.386-3l-1.077-1.182a29.117,29.117,0,0,1,40.71,3.185c5.264,6.571,7.16,14.926,8.994,23.006a106.281,106.281,0,0,0,3.487,12.858c8.016,21.953,33.232,36.342,56.207,32.063,2.343-.436,4.73-1.053,7.039-1.649,5.588-1.443,11.365-2.936,17.191-2.077,6.495.958,12.066,4.676,17.454,8.27,1.06.708,2.117,1.414,3.178,2.1a103.965,103.965,0,0,0,72.1,14.988l.257,1.578A102.087,102.087,0,0,1,695.663,2691.128Z" fill="#002450"></path></g><g id="Group_387" data-name="Group 387"><path id="Path_673" data-name="Path 673" d="M665.405,2703.42c-10.551,0-20.872-3.752-30.887-7.394-12.648-4.6-24.594-8.94-37.058-6.507-2.022.4-4.056.983-6.023,1.551a59.982,59.982,0,0,1-7.475,1.813c-9.866,1.519-19.568-1.962-26.916-5.161-2.251-.98-4.482-2.021-6.713-3.062-5.918-2.763-12.038-5.62-18.432-7.193-9.952-2.447-19.225-1.086-25.439,3.737l-.981-1.263c6.6-5.124,16.371-6.593,26.8-4.026,6.546,1.61,12.738,4.5,18.726,7.3,2.219,1.035,4.437,2.071,6.675,3.045,7.151,3.112,16.576,6.5,26.036,5.047a58.473,58.473,0,0,0,7.273-1.769c2-.578,4.069-1.175,6.161-1.584,12.9-2.518,25.614,2.1,37.91,6.575,10.953,3.981,22.283,8.1,33.692,7.161,6.924-.568,13.6-2.976,20.058-5.3l25.469-9.182.542,1.5-25.468,9.183c-6.556,2.363-13.334,4.808-20.47,5.394Q667.142,2703.422,665.405,2703.42Z" fill="#002450"></path></g><g id="Group_388" data-name="Group 388"><path id="Path_674" data-name="Path 674" d="M695.072,2682.961c-9.012,0-18.3-3.294-27.226-7.114l-1.637-.7c-11.665-5.009-23.73-10.194-35.873-7.922a61.949,61.949,0,0,0-8.262,2.362,73.267,73.267,0,0,1-7.287,2.173c-15.7,3.524-31.556-3.386-46.349-11.375l-2.4-1.3c-13.383-7.261-27.224-14.78-42.17-14.273-7.265.24-16.721,3.356-19.462,11.348l-1.512-.519c3-8.761,13.148-12.17,20.921-12.426,15.383-.507,29.415,7.1,42.986,14.465l2.4,1.3c14.52,7.842,30.05,14.628,45.24,11.222a71.792,71.792,0,0,0,7.127-2.13,63.245,63.245,0,0,1,8.479-2.418c12.625-2.351,24.912,2.922,36.8,8.026l1.635.7c12.505,5.351,25.714,9.661,37.594,4.985l.586,1.488A31.343,31.343,0,0,1,695.072,2682.961Z" fill="#002450"></path></g><rect id="Rectangle_54" data-name="Rectangle 54" width="277.945" height="59.143" rx="3.26" transform="translate(236.472 2243.438)" fill="#dadaf5"></rect><rect id="Rectangle_55" data-name="Rectangle 55" width="231.612" height="18.238" transform="translate(259.638 2302.58)" fill="#c8c8ee"></rect><path id="Path_675" data-name="Path 675" d="M265.637,2263.192l-1.4,21.031c0,2.519-.67,3.188-3.212,3.188a4.6,4.6,0,0,1-4.585-4.584v-19.635a4.6,4.6,0,0,1,4.585-4.585,4.574,4.574,0,0,1,4.608,4.585Z" fill="url(#linear-gradient)"></path><path id="Path_676" data-name="Path 676" d="M286.676,2263.192v19.635c0,6.242-5.789,4.584-4.608,4.584a4.6,4.6,0,0,1-4.585-4.584v-19.635a4.6,4.6,0,0,1,4.585-4.585,4.574,4.574,0,0,1,4.608,4.585Z" fill="url(#linear-gradient)"></path><path id="Path_677" data-name="Path 677" d="M307.715,2263.192v19.635a4.6,4.6,0,0,1-9.193,0v-19.635a4.6,4.6,0,0,1,4.585-4.585,4.574,4.574,0,0,1,4.608,4.585Z" fill="url(#linear-gradient)"></path><circle id="Ellipse_74" data-name="Ellipse 74" cx="11.849" cy="11.849" r="11.849" transform="translate(469.032 2266.55) rotate(-22.33)" fill="#c8c8ee"></circle><circle id="Ellipse_75" data-name="Ellipse 75" cx="8.715" cy="8.715" r="8.715" transform="matrix(0.161, -0.987, 0.987, 0.161, 446.192, 2280.211)" fill="#0072ff"></circle><circle id="Ellipse_76" data-name="Ellipse 76" cx="8.715" cy="8.715" r="8.715" transform="translate(419.943 2273.009) rotate(-45)" fill="#0072ff"></circle><g id="Group_392" data-name="Group 392"><g id="Group_389" data-name="Group 389"><path id="Path_678" data-name="Path 678" d="M333.561,2288.69a2.156,2.156,0,1,1-2.156,2.157A2.157,2.157,0,0,1,333.561,2288.69Z" fill="#c8c8ee"></path><circle id="Ellipse_77" data-name="Ellipse 77" cx="2.157" cy="2.157" r="2.157" transform="translate(331.405 2279.771)" fill="#c8c8ee"></circle><path id="Path_679" data-name="Path 679" d="M333.561,2270.852a2.156,2.156,0,1,1-2.156,2.157A2.157,2.157,0,0,1,333.561,2270.852Z" fill="#c8c8ee"></path><path id="Path_680" data-name="Path 680" d="M333.561,2261.933a2.156,2.156,0,1,1-2.156,2.157A2.156,2.156,0,0,1,333.561,2261.933Z" fill="#c8c8ee"></path><circle id="Ellipse_78" data-name="Ellipse 78" cx="2.157" cy="2.157" r="2.157" transform="translate(331.405 2253.014)" fill="#c8c8ee"></circle></g><g id="Group_390" data-name="Group 390"><path id="Path_681" data-name="Path 681" d="M342.026,2284.23a2.157,2.157,0,1,1-2.156,2.157A2.157,2.157,0,0,1,342.026,2284.23Z" fill="#c8c8ee"></path><circle id="Ellipse_79" data-name="Ellipse 79" cx="2.157" cy="2.157" r="2.157" transform="translate(339.87 2275.312)" fill="#c8c8ee"></circle><path id="Path_682" data-name="Path 682" d="M342.026,2266.392a2.157,2.157,0,1,1-2.156,2.157A2.157,2.157,0,0,1,342.026,2266.392Z" fill="#c8c8ee"></path><path id="Path_683" data-name="Path 683" d="M342.026,2257.473a2.157,2.157,0,1,1-2.156,2.157A2.157,2.157,0,0,1,342.026,2257.473Z" fill="#c8c8ee"></path></g><g id="Group_391" data-name="Group 391"><path id="Path_684" data-name="Path 684" d="M325.1,2284.23a2.157,2.157,0,1,1-2.157,2.157A2.157,2.157,0,0,1,325.1,2284.23Z" fill="#c8c8ee"></path><path id="Path_685" data-name="Path 685" d="M325.1,2275.312a2.156,2.156,0,1,1-2.157,2.156A2.156,2.156,0,0,1,325.1,2275.312Z" fill="#c8c8ee"></path><path id="Path_686" data-name="Path 686" d="M325.1,2266.392a2.157,2.157,0,1,1-2.157,2.157A2.156,2.156,0,0,1,325.1,2266.392Z" fill="#c8c8ee"></path><path id="Path_687" data-name="Path 687" d="M325.1,2257.473a2.157,2.157,0,1,1-2.157,2.157A2.157,2.157,0,0,1,325.1,2257.473Z" fill="#c8c8ee"></path></g></g><g id="Group_396" data-name="Group 396"><g id="Group_393" data-name="Group 393"><path id="Path_688" data-name="Path 688" d="M350.491,2288.69a2.156,2.156,0,1,1-2.156,2.157A2.157,2.157,0,0,1,350.491,2288.69Z" fill="#c8c8ee"></path><circle id="Ellipse_80" data-name="Ellipse 80" cx="2.157" cy="2.157" r="2.157" transform="translate(348.335 2279.771)" fill="#c8c8ee"></circle><path id="Path_689" data-name="Path 689" d="M350.491,2270.852a2.156,2.156,0,1,1-2.156,2.157A2.157,2.157,0,0,1,350.491,2270.852Z" fill="#c8c8ee"></path><path id="Path_690" data-name="Path 690" d="M350.491,2261.933a2.156,2.156,0,1,1-2.156,2.157A2.157,2.157,0,0,1,350.491,2261.933Z" fill="#c8c8ee"></path><circle id="Ellipse_81" data-name="Ellipse 81" cx="2.157" cy="2.157" r="2.157" transform="translate(348.335 2253.014)" fill="#c8c8ee"></circle></g><g id="Group_394" data-name="Group 394"><path id="Path_691" data-name="Path 691" d="M358.956,2284.23a2.157,2.157,0,1,1-2.157,2.157A2.157,2.157,0,0,1,358.956,2284.23Z" fill="#c8c8ee"></path><circle id="Ellipse_82" data-name="Ellipse 82" cx="2.157" cy="2.157" r="2.157" transform="translate(356.799 2275.312)" fill="#c8c8ee"></circle><path id="Path_692" data-name="Path 692" d="M358.956,2266.392a2.157,2.157,0,1,1-2.157,2.157A2.157,2.157,0,0,1,358.956,2266.392Z" fill="#c8c8ee"></path><path id="Path_693" data-name="Path 693" d="M358.956,2257.473a2.157,2.157,0,1,1-2.157,2.157A2.157,2.157,0,0,1,358.956,2257.473Z" fill="#c8c8ee"></path></g><g id="Group_395" data-name="Group 395"><path id="Path_694" data-name="Path 694" d="M342.026,2284.23a2.157,2.157,0,1,1-2.156,2.157A2.157,2.157,0,0,1,342.026,2284.23Z" fill="#c8c8ee"></path><circle id="Ellipse_83" data-name="Ellipse 83" cx="2.157" cy="2.157" r="2.157" transform="translate(339.87 2275.312)" fill="#c8c8ee"></circle><path id="Path_695" data-name="Path 695" d="M342.026,2266.392a2.157,2.157,0,1,1-2.156,2.157A2.157,2.157,0,0,1,342.026,2266.392Z" fill="#c8c8ee"></path><path id="Path_696" data-name="Path 696" d="M342.026,2257.473a2.157,2.157,0,1,1-2.156,2.157A2.157,2.157,0,0,1,342.026,2257.473Z" fill="#c8c8ee"></path></g></g><g id="Group_400" data-name="Group 400"><g id="Group_397" data-name="Group 397"><path id="Path_697" data-name="Path 697" d="M367.421,2288.69a2.156,2.156,0,1,1-2.157,2.157A2.157,2.157,0,0,1,367.421,2288.69Z" fill="#c8c8ee"></path><path id="Path_698" data-name="Path 698" d="M367.421,2279.771a2.156,2.156,0,1,1-2.157,2.157A2.157,2.157,0,0,1,367.421,2279.771Z" fill="#c8c8ee"></path><path id="Path_699" data-name="Path 699" d="M367.421,2270.852a2.156,2.156,0,1,1-2.157,2.157A2.157,2.157,0,0,1,367.421,2270.852Z" fill="#c8c8ee"></path><path id="Path_700" data-name="Path 700" d="M367.421,2261.933a2.156,2.156,0,1,1-2.157,2.157A2.157,2.157,0,0,1,367.421,2261.933Z" fill="#c8c8ee"></path><path id="Path_701" data-name="Path 701" d="M367.421,2253.014a2.156,2.156,0,1,1-2.157,2.157A2.157,2.157,0,0,1,367.421,2253.014Z" fill="#c8c8ee"></path></g><g id="Group_398" data-name="Group 398"><path id="Path_702" data-name="Path 702" d="M375.886,2284.23a2.157,2.157,0,1,1-2.157,2.157A2.157,2.157,0,0,1,375.886,2284.23Z" fill="#c8c8ee"></path><path id="Path_703" data-name="Path 703" d="M375.886,2275.312a2.156,2.156,0,1,1-2.157,2.156A2.157,2.157,0,0,1,375.886,2275.312Z" fill="#c8c8ee"></path><path id="Path_704" data-name="Path 704" d="M375.886,2266.392a2.157,2.157,0,1,1-2.157,2.157A2.157,2.157,0,0,1,375.886,2266.392Z" fill="#c8c8ee"></path><path id="Path_705" data-name="Path 705" d="M375.886,2257.473a2.157,2.157,0,1,1-2.157,2.157A2.157,2.157,0,0,1,375.886,2257.473Z" fill="#c8c8ee"></path></g><g id="Group_399" data-name="Group 399"><path id="Path_706" data-name="Path 706" d="M358.956,2284.23a2.157,2.157,0,1,1-2.157,2.157A2.157,2.157,0,0,1,358.956,2284.23Z" fill="#c8c8ee"></path><circle id="Ellipse_84" data-name="Ellipse 84" cx="2.157" cy="2.157" r="2.157" transform="translate(356.799 2275.312)" fill="#c8c8ee"></circle><path id="Path_707" data-name="Path 707" d="M358.956,2266.392a2.157,2.157,0,1,1-2.157,2.157A2.157,2.157,0,0,1,358.956,2266.392Z" fill="#c8c8ee"></path><path id="Path_708" data-name="Path 708" d="M358.956,2257.473a2.157,2.157,0,1,1-2.157,2.157A2.157,2.157,0,0,1,358.956,2257.473Z" fill="#c8c8ee"></path></g></g><rect id="Rectangle_56" data-name="Rectangle 56" width="277.945" height="59.143" rx="3.26" transform="translate(236.472 2320.818)" fill="#dadaf5"></rect><rect id="Rectangle_57" data-name="Rectangle 57" width="231.612" height="18.238" transform="translate(259.638 2379.96)" fill="#c8c8ee"></rect><path id="Path_709" data-name="Path 709" d="M264.241,2341.969V2361.6a4.6,4.6,0,0,1-9.193,0v-19.634a4.6,4.6,0,0,1,4.585-4.585,4.573,4.573,0,0,1,4.608,4.585Z" fill="url(#linear-gradient)"></path><path id="Path_710" data-name="Path 710" d="M285.28,2341.969V2361.6a4.6,4.6,0,0,1-9.193,0v-19.634a4.6,4.6,0,0,1,4.585-4.585,4.573,4.573,0,0,1,4.608,4.585Z" fill="url(#linear-gradient)"></path><path id="Path_711" data-name="Path 711" d="M306.319,2341.969V2361.6a4.6,4.6,0,0,1-9.193,0v-19.634a4.6,4.6,0,0,1,4.585-4.585,4.573,4.573,0,0,1,4.608,4.585Z" fill="url(#linear-gradient)"></path><circle id="Ellipse_85" data-name="Ellipse 85" cx="11.849" cy="11.849" r="11.849" transform="matrix(0.925, -0.38, 0.38, 0.925, 469.033, 2343.931)" fill="#c8c8ee"></circle><circle id="Ellipse_86" data-name="Ellipse 86" cx="8.715" cy="8.715" r="8.715" transform="matrix(0.161, -0.987, 0.987, 0.161, 446.191, 2357.591)" fill="#0072ff"></circle><circle id="Ellipse_87" data-name="Ellipse 87" cx="8.715" cy="8.715" r="8.715" transform="translate(419.942 2350.389) rotate(-45)" fill="#0072ff"></circle><g id="Group_404" data-name="Group 404"><g id="Group_401" data-name="Group 401"><path id="Path_712" data-name="Path 712" d="M333.561,2366.071a2.156,2.156,0,1,1-2.156,2.156A2.156,2.156,0,0,1,333.561,2366.071Z" fill="#c8c8ee"></path><circle id="Ellipse_88" data-name="Ellipse 88" cx="2.157" cy="2.157" r="2.157" transform="translate(331.405 2357.152)" fill="#c8c8ee"></circle><path id="Path_713" data-name="Path 713" d="M333.561,2348.232a2.157,2.157,0,1,1-2.156,2.157A2.157,2.157,0,0,1,333.561,2348.232Z" fill="#c8c8ee"></path><path id="Path_714" data-name="Path 714" d="M333.561,2339.313a2.157,2.157,0,1,1-2.156,2.157A2.157,2.157,0,0,1,333.561,2339.313Z" fill="#c8c8ee"></path><circle id="Ellipse_89" data-name="Ellipse 89" cx="2.157" cy="2.157" r="2.157" transform="translate(331.405 2330.394)" fill="#c8c8ee"></circle></g><g id="Group_402" data-name="Group 402"><path id="Path_715" data-name="Path 715" d="M342.026,2361.611a2.157,2.157,0,1,1-2.156,2.157A2.157,2.157,0,0,1,342.026,2361.611Z" fill="#c8c8ee"></path><circle id="Ellipse_90" data-name="Ellipse 90" cx="2.157" cy="2.157" r="2.157" transform="translate(339.87 2352.692)" fill="#c8c8ee"></circle><path id="Path_716" data-name="Path 716" d="M342.026,2343.773a2.156,2.156,0,1,1-2.156,2.157A2.157,2.157,0,0,1,342.026,2343.773Z" fill="#c8c8ee"></path><path id="Path_717" data-name="Path 717" d="M342.026,2334.854a2.156,2.156,0,1,1-2.156,2.157A2.157,2.157,0,0,1,342.026,2334.854Z" fill="#c8c8ee"></path></g><g id="Group_403" data-name="Group 403"><path id="Path_718" data-name="Path 718" d="M325.1,2361.611a2.157,2.157,0,1,1-2.157,2.157A2.156,2.156,0,0,1,325.1,2361.611Z" fill="#c8c8ee"></path><path id="Path_719" data-name="Path 719" d="M325.1,2352.692a2.156,2.156,0,1,1-2.157,2.157A2.157,2.157,0,0,1,325.1,2352.692Z" fill="#c8c8ee"></path><path id="Path_720" data-name="Path 720" d="M325.1,2343.773a2.156,2.156,0,1,1-2.157,2.157A2.156,2.156,0,0,1,325.1,2343.773Z" fill="#c8c8ee"></path><path id="Path_721" data-name="Path 721" d="M325.1,2334.854a2.156,2.156,0,1,1-2.157,2.157A2.156,2.156,0,0,1,325.1,2334.854Z" fill="#c8c8ee"></path></g></g><g id="Group_408" data-name="Group 408"><g id="Group_405" data-name="Group 405"><path id="Path_722" data-name="Path 722" d="M350.491,2366.071a2.156,2.156,0,1,1-2.156,2.156A2.156,2.156,0,0,1,350.491,2366.071Z" fill="#c8c8ee"></path><circle id="Ellipse_91" data-name="Ellipse 91" cx="2.157" cy="2.157" r="2.157" transform="translate(348.335 2357.152)" fill="#c8c8ee"></circle><path id="Path_723" data-name="Path 723" d="M350.491,2348.232a2.157,2.157,0,1,1-2.156,2.157A2.157,2.157,0,0,1,350.491,2348.232Z" fill="#c8c8ee"></path><path id="Path_724" data-name="Path 724" d="M350.491,2339.313a2.157,2.157,0,1,1-2.156,2.157A2.157,2.157,0,0,1,350.491,2339.313Z" fill="#c8c8ee"></path><circle id="Ellipse_92" data-name="Ellipse 92" cx="2.157" cy="2.157" r="2.157" transform="translate(348.335 2330.394)" fill="#c8c8ee"></circle></g><g id="Group_406" data-name="Group 406"><path id="Path_725" data-name="Path 725" d="M358.956,2361.611a2.157,2.157,0,1,1-2.157,2.157A2.157,2.157,0,0,1,358.956,2361.611Z" fill="#c8c8ee"></path><circle id="Ellipse_93" data-name="Ellipse 93" cx="2.157" cy="2.157" r="2.157" transform="translate(356.799 2352.692)" fill="#c8c8ee"></circle><path id="Path_726" data-name="Path 726" d="M358.956,2343.773a2.156,2.156,0,1,1-2.157,2.157A2.157,2.157,0,0,1,358.956,2343.773Z" fill="#c8c8ee"></path><path id="Path_727" data-name="Path 727" d="M358.956,2334.854a2.156,2.156,0,1,1-2.157,2.157A2.157,2.157,0,0,1,358.956,2334.854Z" fill="#c8c8ee"></path></g><g id="Group_407" data-name="Group 407"><path id="Path_728" data-name="Path 728" d="M342.026,2361.611a2.157,2.157,0,1,1-2.156,2.157A2.157,2.157,0,0,1,342.026,2361.611Z" fill="#c8c8ee"></path><circle id="Ellipse_94" data-name="Ellipse 94" cx="2.157" cy="2.157" r="2.157" transform="translate(339.87 2352.692)" fill="#c8c8ee"></circle><path id="Path_729" data-name="Path 729" d="M342.026,2343.773a2.156,2.156,0,1,1-2.156,2.157A2.157,2.157,0,0,1,342.026,2343.773Z" fill="#c8c8ee"></path><path id="Path_730" data-name="Path 730" d="M342.026,2334.854a2.156,2.156,0,1,1-2.156,2.157A2.157,2.157,0,0,1,342.026,2334.854Z" fill="#c8c8ee"></path></g></g><g id="Group_412" data-name="Group 412"><g id="Group_409" data-name="Group 409"><path id="Path_731" data-name="Path 731" d="M367.421,2366.071a2.156,2.156,0,1,1-2.157,2.156A2.156,2.156,0,0,1,367.421,2366.071Z" fill="#c8c8ee"></path><path id="Path_732" data-name="Path 732" d="M367.421,2357.152a2.156,2.156,0,1,1-2.157,2.156A2.156,2.156,0,0,1,367.421,2357.152Z" fill="#c8c8ee"></path><path id="Path_733" data-name="Path 733" d="M367.421,2348.232a2.157,2.157,0,1,1-2.157,2.157A2.157,2.157,0,0,1,367.421,2348.232Z" fill="#c8c8ee"></path><path id="Path_734" data-name="Path 734" d="M367.421,2339.313a2.157,2.157,0,1,1-2.157,2.157A2.157,2.157,0,0,1,367.421,2339.313Z" fill="#c8c8ee"></path><path id="Path_735" data-name="Path 735" d="M367.421,2330.394a2.157,2.157,0,1,1-2.157,2.157A2.157,2.157,0,0,1,367.421,2330.394Z" fill="#c8c8ee"></path></g><g id="Group_410" data-name="Group 410"><path id="Path_736" data-name="Path 736" d="M375.886,2361.611a2.157,2.157,0,1,1-2.157,2.157A2.157,2.157,0,0,1,375.886,2361.611Z" fill="#c8c8ee"></path><path id="Path_737" data-name="Path 737" d="M375.886,2352.692a2.156,2.156,0,1,1-2.157,2.157A2.157,2.157,0,0,1,375.886,2352.692Z" fill="#c8c8ee"></path><path id="Path_738" data-name="Path 738" d="M375.886,2343.773a2.156,2.156,0,1,1-2.157,2.157A2.157,2.157,0,0,1,375.886,2343.773Z" fill="#c8c8ee"></path><path id="Path_739" data-name="Path 739" d="M375.886,2334.854a2.156,2.156,0,1,1-2.157,2.157A2.157,2.157,0,0,1,375.886,2334.854Z" fill="#c8c8ee"></path></g><g id="Group_411" data-name="Group 411"><path id="Path_740" data-name="Path 740" d="M358.956,2361.611a2.157,2.157,0,1,1-2.157,2.157A2.157,2.157,0,0,1,358.956,2361.611Z" fill="#c8c8ee"></path><circle id="Ellipse_95" data-name="Ellipse 95" cx="2.157" cy="2.157" r="2.157" transform="translate(356.799 2352.692)" fill="#c8c8ee"></circle><path id="Path_741" data-name="Path 741" d="M358.956,2343.773a2.156,2.156,0,1,1-2.157,2.157A2.157,2.157,0,0,1,358.956,2343.773Z" fill="#c8c8ee"></path><path id="Path_742" data-name="Path 742" d="M358.956,2334.854a2.156,2.156,0,1,1-2.157,2.157A2.157,2.157,0,0,1,358.956,2334.854Z" fill="#c8c8ee"></path></g></g><rect id="Rectangle_58" data-name="Rectangle 58" width="277.945" height="59.143" rx="3.26" transform="translate(236.472 2398.198)" fill="#dadaf5"></rect><rect id="Rectangle_59" data-name="Rectangle 59" width="231.612" height="18.238" transform="translate(259.638 2457.341)" fill="#c8c8ee"></rect><path id="Path_743" data-name="Path 743" d="M264.241,2419.349v19.635c1.4,1.123-.67,3.188-3.212,3.188a4.6,4.6,0,0,1-4.585-4.584v-19.635a4.6,4.6,0,0,1,4.585-4.585,4.691,4.691,0,0,1,3.269,1.34C265.115,2415.548,265.637,2416.705,264.241,2419.349Z" fill="url(#linear-gradient)"></path><path id="Path_744" data-name="Path 744" d="M285.28,2419.349v19.635a4.6,4.6,0,0,1-9.193,0v-19.635a4.6,4.6,0,0,1,4.585-4.585,4.575,4.575,0,0,1,4.608,4.585Z" fill="url(#linear-gradient)"></path><path id="Path_745" data-name="Path 745" d="M306.319,2419.349v19.635a4.6,4.6,0,0,1-9.193,0v-19.635a4.6,4.6,0,0,1,4.585-4.585,4.575,4.575,0,0,1,4.608,4.585Z" fill="url(#linear-gradient)"></path><circle id="Ellipse_96" data-name="Ellipse 96" cx="11.849" cy="11.849" r="11.849" transform="translate(472.646 2415.921)" fill="#c8c8ee"></circle><circle id="Ellipse_97" data-name="Ellipse 97" cx="8.715" cy="8.715" r="8.715" transform="matrix(0.161, -0.987, 0.987, 0.161, 446.192, 2434.972)" fill="#0072ff"></circle><circle id="Ellipse_98" data-name="Ellipse 98" cx="8.715" cy="8.715" r="8.715" transform="translate(419.943 2427.77) rotate(-45)" fill="#0072ff"></circle><g id="Group_416" data-name="Group 416"><g id="Group_413" data-name="Group 413"><path id="Path_746" data-name="Path 746" d="M333.561,2443.451a2.157,2.157,0,1,1-2.156,2.157A2.157,2.157,0,0,1,333.561,2443.451Z" fill="#c8c8ee"></path><path id="Path_747" data-name="Path 747" d="M333.561,2434.532a2.156,2.156,0,1,1-2.156,2.157A2.157,2.157,0,0,1,333.561,2434.532Z" fill="#c8c8ee"></path><path id="Path_748" data-name="Path 748" d="M333.561,2425.613a2.156,2.156,0,1,1-2.156,2.157A2.157,2.157,0,0,1,333.561,2425.613Z" fill="#c8c8ee"></path><path id="Path_749" data-name="Path 749" d="M333.561,2416.694a2.156,2.156,0,1,1-2.156,2.157A2.156,2.156,0,0,1,333.561,2416.694Z" fill="#c8c8ee"></path><circle id="Ellipse_99" data-name="Ellipse 99" cx="2.157" cy="2.157" r="2.157" transform="translate(331.405 2407.775)" fill="#c8c8ee"></circle></g><g id="Group_414" data-name="Group 414"><path id="Path_750" data-name="Path 750" d="M342.026,2438.992a2.156,2.156,0,1,1-2.156,2.156A2.157,2.157,0,0,1,342.026,2438.992Z" fill="#c8c8ee"></path><circle id="Ellipse_100" data-name="Ellipse 100" cx="2.157" cy="2.157" r="2.157" transform="translate(339.87 2430.073)" fill="#c8c8ee"></circle><path id="Path_751" data-name="Path 751" d="M342.026,2421.153a2.157,2.157,0,1,1-2.156,2.157A2.157,2.157,0,0,1,342.026,2421.153Z" fill="#c8c8ee"></path><path id="Path_752" data-name="Path 752" d="M342.026,2412.234a2.157,2.157,0,1,1-2.156,2.157A2.157,2.157,0,0,1,342.026,2412.234Z" fill="#c8c8ee"></path></g><g id="Group_415" data-name="Group 415"><path id="Path_753" data-name="Path 753" d="M325.1,2438.992a2.156,2.156,0,1,1-2.157,2.156A2.156,2.156,0,0,1,325.1,2438.992Z" fill="#c8c8ee"></path><path id="Path_754" data-name="Path 754" d="M325.1,2430.073a2.156,2.156,0,1,1-2.157,2.156A2.156,2.156,0,0,1,325.1,2430.073Z" fill="#c8c8ee"></path><path id="Path_755" data-name="Path 755" d="M325.1,2421.153a2.157,2.157,0,1,1-2.157,2.157A2.156,2.156,0,0,1,325.1,2421.153Z" fill="#c8c8ee"></path><path id="Path_756" data-name="Path 756" d="M325.1,2412.234a2.157,2.157,0,1,1-2.157,2.157A2.157,2.157,0,0,1,325.1,2412.234Z" fill="#c8c8ee"></path></g></g><g id="Group_420" data-name="Group 420"><g id="Group_417" data-name="Group 417"><path id="Path_757" data-name="Path 757" d="M350.491,2443.451a2.157,2.157,0,1,1-2.156,2.157A2.157,2.157,0,0,1,350.491,2443.451Z" fill="#c8c8ee"></path><path id="Path_758" data-name="Path 758" d="M350.491,2434.532a2.156,2.156,0,1,1-2.156,2.157A2.157,2.157,0,0,1,350.491,2434.532Z" fill="#c8c8ee"></path><path id="Path_759" data-name="Path 759" d="M350.491,2425.613a2.156,2.156,0,1,1-2.156,2.157A2.157,2.157,0,0,1,350.491,2425.613Z" fill="#c8c8ee"></path><path id="Path_760" data-name="Path 760" d="M350.491,2416.694a2.156,2.156,0,1,1-2.156,2.157A2.157,2.157,0,0,1,350.491,2416.694Z" fill="#c8c8ee"></path><circle id="Ellipse_101" data-name="Ellipse 101" cx="2.157" cy="2.157" r="2.157" transform="translate(348.335 2407.775)" fill="#c8c8ee"></circle></g><g id="Group_418" data-name="Group 418"><path id="Path_761" data-name="Path 761" d="M358.956,2438.992a2.156,2.156,0,1,1-2.157,2.156A2.157,2.157,0,0,1,358.956,2438.992Z" fill="#c8c8ee"></path><circle id="Ellipse_102" data-name="Ellipse 102" cx="2.157" cy="2.157" r="2.157" transform="translate(356.799 2430.073)" fill="#c8c8ee"></circle><path id="Path_762" data-name="Path 762" d="M358.956,2421.153a2.157,2.157,0,1,1-2.157,2.157A2.157,2.157,0,0,1,358.956,2421.153Z" fill="#c8c8ee"></path><path id="Path_763" data-name="Path 763" d="M358.956,2412.234a2.157,2.157,0,1,1-2.157,2.157A2.157,2.157,0,0,1,358.956,2412.234Z" fill="#c8c8ee"></path></g><g id="Group_419" data-name="Group 419"><path id="Path_764" data-name="Path 764" d="M342.026,2438.992a2.156,2.156,0,1,1-2.156,2.156A2.157,2.157,0,0,1,342.026,2438.992Z" fill="#c8c8ee"></path><circle id="Ellipse_103" data-name="Ellipse 103" cx="2.157" cy="2.157" r="2.157" transform="translate(339.87 2430.073)" fill="#c8c8ee"></circle><path id="Path_765" data-name="Path 765" d="M342.026,2421.153a2.157,2.157,0,1,1-2.156,2.157A2.157,2.157,0,0,1,342.026,2421.153Z" fill="#c8c8ee"></path><path id="Path_766" data-name="Path 766" d="M342.026,2412.234a2.157,2.157,0,1,1-2.156,2.157A2.157,2.157,0,0,1,342.026,2412.234Z" fill="#c8c8ee"></path></g></g><g id="Group_424" data-name="Group 424"><g id="Group_421" data-name="Group 421"><path id="Path_767" data-name="Path 767" d="M367.421,2443.451a2.157,2.157,0,1,1-2.157,2.157A2.157,2.157,0,0,1,367.421,2443.451Z" fill="#c8c8ee"></path><path id="Path_768" data-name="Path 768" d="M367.421,2434.532a2.156,2.156,0,1,1-2.157,2.157A2.157,2.157,0,0,1,367.421,2434.532Z" fill="#c8c8ee"></path><path id="Path_769" data-name="Path 769" d="M367.421,2425.613a2.156,2.156,0,1,1-2.157,2.157A2.157,2.157,0,0,1,367.421,2425.613Z" fill="#c8c8ee"></path><path id="Path_770" data-name="Path 770" d="M367.421,2416.694a2.156,2.156,0,1,1-2.157,2.157A2.157,2.157,0,0,1,367.421,2416.694Z" fill="#c8c8ee"></path><path id="Path_771" data-name="Path 771" d="M367.421,2407.775a2.156,2.156,0,1,1-2.157,2.157A2.157,2.157,0,0,1,367.421,2407.775Z" fill="#c8c8ee"></path></g><g id="Group_422" data-name="Group 422"><path id="Path_772" data-name="Path 772" d="M375.886,2438.992a2.156,2.156,0,1,1-2.157,2.156A2.157,2.157,0,0,1,375.886,2438.992Z" fill="#c8c8ee"></path><path id="Path_773" data-name="Path 773" d="M375.886,2430.073a2.156,2.156,0,1,1-2.157,2.156A2.157,2.157,0,0,1,375.886,2430.073Z" fill="#c8c8ee"></path><path id="Path_774" data-name="Path 774" d="M375.886,2421.153a2.157,2.157,0,1,1-2.157,2.157A2.157,2.157,0,0,1,375.886,2421.153Z" fill="#c8c8ee"></path><path id="Path_775" data-name="Path 775" d="M375.886,2412.234a2.157,2.157,0,1,1-2.157,2.157A2.157,2.157,0,0,1,375.886,2412.234Z" fill="#c8c8ee"></path></g><g id="Group_423" data-name="Group 423"><path id="Path_776" data-name="Path 776" d="M358.956,2438.992a2.156,2.156,0,1,1-2.157,2.156A2.157,2.157,0,0,1,358.956,2438.992Z" fill="#c8c8ee"></path><circle id="Ellipse_104" data-name="Ellipse 104" cx="2.157" cy="2.157" r="2.157" transform="translate(356.799 2430.073)" fill="#c8c8ee"></circle><path id="Path_777" data-name="Path 777" d="M358.956,2421.153a2.157,2.157,0,1,1-2.157,2.157A2.157,2.157,0,0,1,358.956,2421.153Z" fill="#c8c8ee"></path><path id="Path_778" data-name="Path 778" d="M358.956,2412.234a2.157,2.157,0,1,1-2.157,2.157A2.157,2.157,0,0,1,358.956,2412.234Z" fill="#c8c8ee"></path></g></g><rect id="Rectangle_60" data-name="Rectangle 60" width="277.945" height="59.143" rx="3.26" transform="translate(236.472 2475.579)" fill="#dadaf5"></rect><rect id="Rectangle_61" data-name="Rectangle 61" width="231.612" height="18.238" transform="translate(259.638 2534.721)" fill="#c8c8ee"></rect><path id="Path_779" data-name="Path 779" d="M265.637,2495.333l-1.4,21.031c0,2.52-.67,3.188-3.212,3.188a4.6,4.6,0,0,1-4.585-4.584v-19.635a4.6,4.6,0,0,1,4.585-4.585,4.573,4.573,0,0,1,4.608,4.585Z" fill="url(#linear-gradient)"></path><path id="Path_780" data-name="Path 780" d="M285.28,2496.73v19.634c1.4,1.123-.67,3.188-3.212,3.188a4.6,4.6,0,0,1-4.585-4.584v-19.635a4.6,4.6,0,0,1,4.585-4.585,4.692,4.692,0,0,1,3.269,1.34C286.154,2492.928,286.676,2494.085,285.28,2496.73Z" fill="url(#linear-gradient)"></path><path id="Path_781" data-name="Path 781" d="M307.715,2495.333l-1.4,21.031c0,2.52-.67,3.188-3.212,3.188a4.6,4.6,0,0,1-4.585-4.584v-19.635a4.6,4.6,0,0,1,4.585-4.585,4.573,4.573,0,0,1,4.608,4.585Z" fill="url(#linear-gradient)"></path><circle id="Ellipse_105" data-name="Ellipse 105" cx="11.849" cy="11.849" r="11.849" transform="translate(472.646 2493.301)" fill="#c8c8ee"></circle><circle id="Ellipse_106" data-name="Ellipse 106" cx="8.715" cy="8.715" r="8.715" transform="translate(447.478 2496.435)" fill="#0072ff"></circle><circle id="Ellipse_107" data-name="Ellipse 107" cx="8.715" cy="8.715" r="8.715" transform="translate(423.552 2496.435)" fill="#0072ff"></circle><g id="Group_428" data-name="Group 428"><g id="Group_425" data-name="Group 425"><path id="Path_782" data-name="Path 782" d="M333.561,2520.832a2.156,2.156,0,1,1-2.156,2.156A2.156,2.156,0,0,1,333.561,2520.832Z" fill="#c8c8ee"></path><path id="Path_783" data-name="Path 783" d="M333.561,2511.913a2.156,2.156,0,1,1-2.156,2.156A2.156,2.156,0,0,1,333.561,2511.913Z" fill="#c8c8ee"></path><circle id="Ellipse_108" data-name="Ellipse 108" cx="2.157" cy="2.157" r="2.157" transform="translate(331.405 2502.993)" fill="#c8c8ee"></circle><path id="Path_784" data-name="Path 784" d="M333.561,2494.074a2.157,2.157,0,1,1-2.156,2.157A2.157,2.157,0,0,1,333.561,2494.074Z" fill="#c8c8ee"></path><path id="Path_785" data-name="Path 785" d="M333.561,2485.155a2.157,2.157,0,1,1-2.156,2.157A2.157,2.157,0,0,1,333.561,2485.155Z" fill="#c8c8ee"></path></g><g id="Group_426" data-name="Group 426"><path id="Path_786" data-name="Path 786" d="M342.026,2516.372a2.156,2.156,0,1,1-2.156,2.157A2.157,2.157,0,0,1,342.026,2516.372Z" fill="#c8c8ee"></path><circle id="Ellipse_109" data-name="Ellipse 109" cx="2.157" cy="2.157" r="2.157" transform="translate(339.87 2507.453)" fill="#c8c8ee"></circle><path id="Path_787" data-name="Path 787" d="M342.026,2498.534a2.156,2.156,0,1,1-2.156,2.157A2.157,2.157,0,0,1,342.026,2498.534Z" fill="#c8c8ee"></path><path id="Path_788" data-name="Path 788" d="M342.026,2489.615a2.156,2.156,0,1,1-2.156,2.157A2.157,2.157,0,0,1,342.026,2489.615Z" fill="#c8c8ee"></path></g><g id="Group_427" data-name="Group 427"><path id="Path_789" data-name="Path 789" d="M325.1,2516.372a2.156,2.156,0,1,1-2.157,2.157A2.156,2.156,0,0,1,325.1,2516.372Z" fill="#c8c8ee"></path><path id="Path_790" data-name="Path 790" d="M325.1,2507.453a2.157,2.157,0,1,1-2.157,2.157A2.157,2.157,0,0,1,325.1,2507.453Z" fill="#c8c8ee"></path><path id="Path_791" data-name="Path 791" d="M325.1,2498.534a2.156,2.156,0,1,1-2.157,2.157A2.157,2.157,0,0,1,325.1,2498.534Z" fill="#c8c8ee"></path><path id="Path_792" data-name="Path 792" d="M325.1,2489.615a2.156,2.156,0,1,1-2.157,2.157A2.157,2.157,0,0,1,325.1,2489.615Z" fill="#c8c8ee"></path></g></g><g id="Group_432" data-name="Group 432"><g id="Group_429" data-name="Group 429"><path id="Path_793" data-name="Path 793" d="M350.491,2520.832a2.156,2.156,0,1,1-2.156,2.156A2.157,2.157,0,0,1,350.491,2520.832Z" fill="#c8c8ee"></path><path id="Path_794" data-name="Path 794" d="M350.491,2511.913a2.156,2.156,0,1,1-2.156,2.156A2.156,2.156,0,0,1,350.491,2511.913Z" fill="#c8c8ee"></path><circle id="Ellipse_110" data-name="Ellipse 110" cx="2.157" cy="2.157" r="2.157" transform="translate(348.335 2502.993)" fill="#c8c8ee"></circle><path id="Path_795" data-name="Path 795" d="M350.491,2494.074a2.157,2.157,0,1,1-2.156,2.157A2.157,2.157,0,0,1,350.491,2494.074Z" fill="#c8c8ee"></path><path id="Path_796" data-name="Path 796" d="M350.491,2485.155a2.157,2.157,0,1,1-2.156,2.157A2.157,2.157,0,0,1,350.491,2485.155Z" fill="#c8c8ee"></path></g><g id="Group_430" data-name="Group 430"><path id="Path_797" data-name="Path 797" d="M358.956,2516.372a2.156,2.156,0,1,1-2.157,2.157A2.157,2.157,0,0,1,358.956,2516.372Z" fill="#c8c8ee"></path><circle id="Ellipse_111" data-name="Ellipse 111" cx="2.157" cy="2.157" r="2.157" transform="translate(356.799 2507.453)" fill="#c8c8ee"></circle><path id="Path_798" data-name="Path 798" d="M358.956,2498.534a2.156,2.156,0,1,1-2.157,2.157A2.157,2.157,0,0,1,358.956,2498.534Z" fill="#c8c8ee"></path><path id="Path_799" data-name="Path 799" d="M358.956,2489.615a2.156,2.156,0,1,1-2.157,2.157A2.157,2.157,0,0,1,358.956,2489.615Z" fill="#c8c8ee"></path></g><g id="Group_431" data-name="Group 431"><path id="Path_800" data-name="Path 800" d="M342.026,2516.372a2.156,2.156,0,1,1-2.156,2.157A2.157,2.157,0,0,1,342.026,2516.372Z" fill="#c8c8ee"></path><circle id="Ellipse_112" data-name="Ellipse 112" cx="2.157" cy="2.157" r="2.157" transform="translate(339.87 2507.453)" fill="#c8c8ee"></circle><path id="Path_801" data-name="Path 801" d="M342.026,2498.534a2.156,2.156,0,1,1-2.156,2.157A2.157,2.157,0,0,1,342.026,2498.534Z" fill="#c8c8ee"></path><path id="Path_802" data-name="Path 802" d="M342.026,2489.615a2.156,2.156,0,1,1-2.156,2.157A2.157,2.157,0,0,1,342.026,2489.615Z" fill="#c8c8ee"></path></g></g><g id="Group_436" data-name="Group 436"><g id="Group_433" data-name="Group 433"><path id="Path_803" data-name="Path 803" d="M367.421,2520.832a2.156,2.156,0,1,1-2.157,2.156A2.157,2.157,0,0,1,367.421,2520.832Z" fill="#c8c8ee"></path><path id="Path_804" data-name="Path 804" d="M367.421,2511.913a2.156,2.156,0,1,1-2.157,2.156A2.156,2.156,0,0,1,367.421,2511.913Z" fill="#c8c8ee"></path><path id="Path_805" data-name="Path 805" d="M367.421,2502.994a2.156,2.156,0,1,1-2.157,2.156A2.157,2.157,0,0,1,367.421,2502.994Z" fill="#c8c8ee"></path><path id="Path_806" data-name="Path 806" d="M367.421,2494.074a2.157,2.157,0,1,1-2.157,2.157A2.157,2.157,0,0,1,367.421,2494.074Z" fill="#c8c8ee"></path><path id="Path_807" data-name="Path 807" d="M367.421,2485.155a2.157,2.157,0,1,1-2.157,2.157A2.157,2.157,0,0,1,367.421,2485.155Z" fill="#c8c8ee"></path></g><g id="Group_434" data-name="Group 434"><path id="Path_808" data-name="Path 808" d="M375.886,2516.372a2.156,2.156,0,1,1-2.157,2.157A2.157,2.157,0,0,1,375.886,2516.372Z" fill="#c8c8ee"></path><path id="Path_809" data-name="Path 809" d="M375.886,2507.453a2.157,2.157,0,1,1-2.157,2.157A2.157,2.157,0,0,1,375.886,2507.453Z" fill="#c8c8ee"></path><path id="Path_810" data-name="Path 810" d="M375.886,2498.534a2.156,2.156,0,1,1-2.157,2.157A2.157,2.157,0,0,1,375.886,2498.534Z" fill="#c8c8ee"></path><path id="Path_811" data-name="Path 811" d="M375.886,2489.615a2.156,2.156,0,1,1-2.157,2.157A2.157,2.157,0,0,1,375.886,2489.615Z" fill="#c8c8ee"></path></g><g id="Group_435" data-name="Group 435"><path id="Path_812" data-name="Path 812" d="M358.956,2516.372a2.156,2.156,0,1,1-2.157,2.157A2.157,2.157,0,0,1,358.956,2516.372Z" fill="#c8c8ee"></path><circle id="Ellipse_113" data-name="Ellipse 113" cx="2.157" cy="2.157" r="2.157" transform="translate(356.799 2507.453)" fill="#c8c8ee"></circle><path id="Path_813" data-name="Path 813" d="M358.956,2498.534a2.156,2.156,0,1,1-2.157,2.157A2.157,2.157,0,0,1,358.956,2498.534Z" fill="#c8c8ee"></path><path id="Path_814" data-name="Path 814" d="M358.956,2489.615a2.156,2.156,0,1,1-2.157,2.157A2.157,2.157,0,0,1,358.956,2489.615Z" fill="#c8c8ee"></path></g></g><rect id="Rectangle_62" data-name="Rectangle 62" width="277.945" height="59.143" rx="3.26" transform="translate(236.472 2552.959)" fill="#dadaf5"></rect><rect id="Rectangle_63" data-name="Rectangle 63" width="231.612" height="18.238" transform="translate(259.638 2612.102)" fill="#c8c8ee"></rect><path id="Path_815" data-name="Path 815" d="M264.241,2574.11v19.635a4.6,4.6,0,0,1-9.193,0V2574.11a4.6,4.6,0,0,1,4.585-4.585,4.575,4.575,0,0,1,4.608,4.585Z" fill="url(#linear-gradient)"></path><path id="Path_816" data-name="Path 816" d="M285.28,2574.11v19.635a4.6,4.6,0,0,1-9.193,0V2574.11a4.6,4.6,0,0,1,4.585-4.585,4.575,4.575,0,0,1,4.608,4.585Z" fill="url(#linear-gradient)"></path><path id="Path_817" data-name="Path 817" d="M307.715,2572.714v19.635a4.606,4.606,0,0,1-4.608,4.584c-2.519,0-4.585-2.065-5.981-3.188V2574.11c1.4-3.915,3.462-5.981,5.981-5.981a4.574,4.574,0,0,1,4.608,4.585Z" fill="url(#linear-gradient)"></path><circle id="Ellipse_114" data-name="Ellipse 114" cx="11.849" cy="11.849" r="11.849" transform="translate(472.646 2570.682)" fill="#c8c8ee"></circle><circle id="Ellipse_115" data-name="Ellipse 115" cx="8.715" cy="8.715" r="8.715" transform="translate(447.478 2573.816)" fill="#0072ff"></circle><circle id="Ellipse_116" data-name="Ellipse 116" cx="8.715" cy="8.715" r="8.715" transform="translate(423.552 2573.816)" fill="#0072ff"></circle><g id="Group_440" data-name="Group 440"><g id="Group_437" data-name="Group 437"><path id="Path_818" data-name="Path 818" d="M333.561,2598.212a2.156,2.156,0,1,1-2.156,2.157A2.157,2.157,0,0,1,333.561,2598.212Z" fill="#c8c8ee"></path><path id="Path_819" data-name="Path 819" d="M333.561,2589.293a2.157,2.157,0,1,1-2.156,2.157A2.157,2.157,0,0,1,333.561,2589.293Z" fill="#c8c8ee"></path><circle id="Ellipse_117" data-name="Ellipse 117" cx="2.157" cy="2.157" r="2.157" transform="translate(331.405 2580.374)" fill="#c8c8ee"></circle><path id="Path_820" data-name="Path 820" d="M333.561,2571.455a2.156,2.156,0,1,1-2.156,2.157A2.157,2.157,0,0,1,333.561,2571.455Z" fill="#c8c8ee"></path><path id="Path_821" data-name="Path 821" d="M333.561,2562.536a2.157,2.157,0,1,1-2.156,2.157A2.157,2.157,0,0,1,333.561,2562.536Z" fill="#c8c8ee"></path></g><g id="Group_438" data-name="Group 438"><path id="Path_822" data-name="Path 822" d="M342.026,2593.753a2.156,2.156,0,1,1-2.156,2.156A2.157,2.157,0,0,1,342.026,2593.753Z" fill="#c8c8ee"></path><circle id="Ellipse_118" data-name="Ellipse 118" cx="2.157" cy="2.157" r="2.157" transform="translate(339.87 2584.833)" fill="#c8c8ee"></circle><path id="Path_823" data-name="Path 823" d="M342.026,2575.914a2.157,2.157,0,1,1-2.156,2.157A2.157,2.157,0,0,1,342.026,2575.914Z" fill="#c8c8ee"></path><path id="Path_824" data-name="Path 824" d="M342.026,2567a2.157,2.157,0,1,1-2.156,2.157A2.157,2.157,0,0,1,342.026,2567Z" fill="#c8c8ee"></path></g><g id="Group_439" data-name="Group 439"><path id="Path_825" data-name="Path 825" d="M325.1,2593.753a2.156,2.156,0,1,1-2.157,2.156A2.156,2.156,0,0,1,325.1,2593.753Z" fill="#c8c8ee"></path><path id="Path_826" data-name="Path 826" d="M325.1,2584.834a2.156,2.156,0,1,1-2.157,2.156A2.156,2.156,0,0,1,325.1,2584.834Z" fill="#c8c8ee"></path><path id="Path_827" data-name="Path 827" d="M325.1,2575.914a2.157,2.157,0,1,1-2.157,2.157A2.156,2.156,0,0,1,325.1,2575.914Z" fill="#c8c8ee"></path><path id="Path_828" data-name="Path 828" d="M325.1,2567a2.157,2.157,0,1,1-2.157,2.157A2.156,2.156,0,0,1,325.1,2567Z" fill="#c8c8ee"></path></g></g><g id="Group_444" data-name="Group 444"><g id="Group_441" data-name="Group 441"><path id="Path_829" data-name="Path 829" d="M350.491,2598.212a2.156,2.156,0,1,1-2.156,2.157A2.157,2.157,0,0,1,350.491,2598.212Z" fill="#c8c8ee"></path><path id="Path_830" data-name="Path 830" d="M350.491,2589.293a2.157,2.157,0,1,1-2.156,2.157A2.157,2.157,0,0,1,350.491,2589.293Z" fill="#c8c8ee"></path><circle id="Ellipse_119" data-name="Ellipse 119" cx="2.157" cy="2.157" r="2.157" transform="translate(348.335 2580.374)" fill="#c8c8ee"></circle><path id="Path_831" data-name="Path 831" d="M350.491,2571.455a2.156,2.156,0,1,1-2.156,2.157A2.157,2.157,0,0,1,350.491,2571.455Z" fill="#c8c8ee"></path><path id="Path_832" data-name="Path 832" d="M350.491,2562.536a2.157,2.157,0,1,1-2.156,2.157A2.157,2.157,0,0,1,350.491,2562.536Z" fill="#c8c8ee"></path></g><g id="Group_442" data-name="Group 442"><path id="Path_833" data-name="Path 833" d="M358.956,2593.753a2.156,2.156,0,1,1-2.157,2.156A2.157,2.157,0,0,1,358.956,2593.753Z" fill="#c8c8ee"></path><circle id="Ellipse_120" data-name="Ellipse 120" cx="2.157" cy="2.157" r="2.157" transform="translate(356.799 2584.833)" fill="#c8c8ee"></circle><path id="Path_834" data-name="Path 834" d="M358.956,2575.914a2.157,2.157,0,1,1-2.157,2.157A2.157,2.157,0,0,1,358.956,2575.914Z" fill="#c8c8ee"></path><path id="Path_835" data-name="Path 835" d="M358.956,2567a2.157,2.157,0,1,1-2.157,2.157A2.157,2.157,0,0,1,358.956,2567Z" fill="#c8c8ee"></path></g><g id="Group_443" data-name="Group 443"><path id="Path_836" data-name="Path 836" d="M342.026,2593.753a2.156,2.156,0,1,1-2.156,2.156A2.157,2.157,0,0,1,342.026,2593.753Z" fill="#c8c8ee"></path><circle id="Ellipse_121" data-name="Ellipse 121" cx="2.157" cy="2.157" r="2.157" transform="translate(339.87 2584.833)" fill="#c8c8ee"></circle><path id="Path_837" data-name="Path 837" d="M342.026,2575.914a2.157,2.157,0,1,1-2.156,2.157A2.157,2.157,0,0,1,342.026,2575.914Z" fill="#c8c8ee"></path><path id="Path_838" data-name="Path 838" d="M342.026,2567a2.157,2.157,0,1,1-2.156,2.157A2.157,2.157,0,0,1,342.026,2567Z" fill="#c8c8ee"></path></g></g><g id="Group_448" data-name="Group 448"><g id="Group_445" data-name="Group 445"><path id="Path_839" data-name="Path 839" d="M367.421,2598.212a2.156,2.156,0,1,1-2.157,2.157A2.157,2.157,0,0,1,367.421,2598.212Z" fill="#c8c8ee"></path><path id="Path_840" data-name="Path 840" d="M367.421,2589.293a2.157,2.157,0,1,1-2.157,2.157A2.157,2.157,0,0,1,367.421,2589.293Z" fill="#c8c8ee"></path><path id="Path_841" data-name="Path 841" d="M367.421,2580.374a2.156,2.156,0,1,1-2.157,2.157A2.157,2.157,0,0,1,367.421,2580.374Z" fill="#c8c8ee"></path><path id="Path_842" data-name="Path 842" d="M367.421,2571.455a2.156,2.156,0,1,1-2.157,2.157A2.157,2.157,0,0,1,367.421,2571.455Z" fill="#c8c8ee"></path><path id="Path_843" data-name="Path 843" d="M367.421,2562.536a2.157,2.157,0,1,1-2.157,2.157A2.157,2.157,0,0,1,367.421,2562.536Z" fill="#c8c8ee"></path></g><g id="Group_446" data-name="Group 446"><path id="Path_844" data-name="Path 844" d="M375.886,2593.753a2.156,2.156,0,1,1-2.157,2.156A2.157,2.157,0,0,1,375.886,2593.753Z" fill="#c8c8ee"></path><path id="Path_845" data-name="Path 845" d="M375.886,2584.834a2.156,2.156,0,1,1-2.157,2.156A2.157,2.157,0,0,1,375.886,2584.834Z" fill="#c8c8ee"></path><path id="Path_846" data-name="Path 846" d="M375.886,2575.914a2.157,2.157,0,1,1-2.157,2.157A2.157,2.157,0,0,1,375.886,2575.914Z" fill="#c8c8ee"></path><path id="Path_847" data-name="Path 847" d="M375.886,2567a2.157,2.157,0,1,1-2.157,2.157A2.157,2.157,0,0,1,375.886,2567Z" fill="#c8c8ee"></path></g><g id="Group_447" data-name="Group 447"><path id="Path_848" data-name="Path 848" d="M358.956,2593.753a2.156,2.156,0,1,1-2.157,2.156A2.157,2.157,0,0,1,358.956,2593.753Z" fill="#c8c8ee"></path><circle id="Ellipse_122" data-name="Ellipse 122" cx="2.157" cy="2.157" r="2.157" transform="translate(356.799 2584.833)" fill="#c8c8ee"></circle><path id="Path_849" data-name="Path 849" d="M358.956,2575.914a2.157,2.157,0,1,1-2.157,2.157A2.157,2.157,0,0,1,358.956,2575.914Z" fill="#c8c8ee"></path><path id="Path_850" data-name="Path 850" d="M358.956,2567a2.157,2.157,0,1,1-2.157,2.157A2.157,2.157,0,0,1,358.956,2567Z" fill="#c8c8ee"></path></g></g><rect id="Rectangle_64" data-name="Rectangle 64" width="277.945" height="59.142" rx="3.26" transform="translate(236.472 2630.34)" fill="#dadaf5"></rect><rect id="Rectangle_65" data-name="Rectangle 65" width="231.612" height="18.238" transform="translate(259.638 2689.482)" fill="#c8c8ee"></rect><path id="Path_851" data-name="Path 851" d="M265.637,2650.094v19.635a4.6,4.6,0,0,1-9.193,0v-19.635a4.6,4.6,0,0,1,4.585-4.585,4.574,4.574,0,0,1,4.608,4.585Z" fill="url(#linear-gradient)"></path><path id="Path_852" data-name="Path 852" d="M286.676,2650.094v19.635a4.6,4.6,0,0,1-9.193,0v-19.635a4.6,4.6,0,0,1,4.585-4.585,4.574,4.574,0,0,1,4.608,4.585Z" fill="url(#linear-gradient)"></path><path id="Path_853" data-name="Path 853" d="M306.319,2651.491v19.634a4.6,4.6,0,0,1-9.193,0v-19.634a4.6,4.6,0,0,1,4.585-4.585,4.574,4.574,0,0,1,4.608,4.585Z" fill="url(#linear-gradient)"></path><circle id="Ellipse_123" data-name="Ellipse 123" cx="11.849" cy="11.849" r="11.849" transform="translate(472.646 2648.062)" fill="#c8c8ee"></circle><circle id="Ellipse_124" data-name="Ellipse 124" cx="8.715" cy="8.715" r="8.715" transform="translate(447.478 2651.196)" fill="#0072ff"></circle><circle id="Ellipse_125" data-name="Ellipse 125" cx="8.715" cy="8.715" r="8.715" transform="translate(423.552 2651.196)" fill="#0072ff"></circle><g id="Group_452" data-name="Group 452"><g id="Group_449" data-name="Group 449"><path id="Path_854" data-name="Path 854" d="M333.561,2675.593a2.156,2.156,0,1,1-2.156,2.156A2.156,2.156,0,0,1,333.561,2675.593Z" fill="#c8c8ee"></path><path id="Path_855" data-name="Path 855" d="M333.561,2666.674a2.156,2.156,0,1,1-2.156,2.156A2.156,2.156,0,0,1,333.561,2666.674Z" fill="#c8c8ee"></path><circle id="Ellipse_126" data-name="Ellipse 126" cx="2.157" cy="2.157" r="2.157" transform="translate(331.405 2657.754)" fill="#c8c8ee"></circle><path id="Path_856" data-name="Path 856" d="M333.561,2648.835a2.157,2.157,0,1,1-2.156,2.157A2.157,2.157,0,0,1,333.561,2648.835Z" fill="#c8c8ee"></path><path id="Path_857" data-name="Path 857" d="M333.561,2639.916a2.157,2.157,0,1,1-2.156,2.157A2.157,2.157,0,0,1,333.561,2639.916Z" fill="#c8c8ee"></path></g><g id="Group_450" data-name="Group 450"><path id="Path_858" data-name="Path 858" d="M342.026,2671.133a2.157,2.157,0,1,1-2.156,2.157A2.157,2.157,0,0,1,342.026,2671.133Z" fill="#c8c8ee"></path><path id="Path_859" data-name="Path 859" d="M342.026,2662.214a2.157,2.157,0,1,1-2.156,2.157A2.157,2.157,0,0,1,342.026,2662.214Z" fill="#c8c8ee"></path><path id="Path_860" data-name="Path 860" d="M342.026,2653.295a2.156,2.156,0,1,1-2.156,2.157A2.157,2.157,0,0,1,342.026,2653.295Z" fill="#c8c8ee"></path><path id="Path_861" data-name="Path 861" d="M342.026,2644.376a2.156,2.156,0,1,1-2.156,2.157A2.157,2.157,0,0,1,342.026,2644.376Z" fill="#c8c8ee"></path></g><g id="Group_451" data-name="Group 451"><path id="Path_862" data-name="Path 862" d="M325.1,2671.133a2.157,2.157,0,1,1-2.157,2.157A2.157,2.157,0,0,1,325.1,2671.133Z" fill="#c8c8ee"></path><path id="Path_863" data-name="Path 863" d="M325.1,2662.214a2.157,2.157,0,1,1-2.157,2.157A2.156,2.156,0,0,1,325.1,2662.214Z" fill="#c8c8ee"></path><path id="Path_864" data-name="Path 864" d="M325.1,2653.295a2.156,2.156,0,1,1-2.157,2.157A2.157,2.157,0,0,1,325.1,2653.295Z" fill="#c8c8ee"></path><path id="Path_865" data-name="Path 865" d="M325.1,2644.376a2.156,2.156,0,1,1-2.157,2.157A2.157,2.157,0,0,1,325.1,2644.376Z" fill="#c8c8ee"></path></g></g><g id="Group_456" data-name="Group 456"><g id="Group_453" data-name="Group 453"><path id="Path_866" data-name="Path 866" d="M350.491,2675.593a2.156,2.156,0,1,1-2.156,2.156A2.157,2.157,0,0,1,350.491,2675.593Z" fill="#c8c8ee"></path><path id="Path_867" data-name="Path 867" d="M350.491,2666.674a2.156,2.156,0,1,1-2.156,2.156A2.156,2.156,0,0,1,350.491,2666.674Z" fill="#c8c8ee"></path><circle id="Ellipse_127" data-name="Ellipse 127" cx="2.157" cy="2.157" r="2.157" transform="translate(348.335 2657.754)" fill="#c8c8ee"></circle><path id="Path_868" data-name="Path 868" d="M350.491,2648.835a2.157,2.157,0,1,1-2.156,2.157A2.157,2.157,0,0,1,350.491,2648.835Z" fill="#c8c8ee"></path><path id="Path_869" data-name="Path 869" d="M350.491,2639.916a2.157,2.157,0,1,1-2.156,2.157A2.157,2.157,0,0,1,350.491,2639.916Z" fill="#c8c8ee"></path></g><g id="Group_454" data-name="Group 454"><path id="Path_870" data-name="Path 870" d="M358.956,2671.133a2.157,2.157,0,1,1-2.157,2.157A2.157,2.157,0,0,1,358.956,2671.133Z" fill="#c8c8ee"></path><path id="Path_871" data-name="Path 871" d="M358.956,2662.214a2.157,2.157,0,1,1-2.157,2.157A2.157,2.157,0,0,1,358.956,2662.214Z" fill="#c8c8ee"></path><path id="Path_872" data-name="Path 872" d="M358.956,2653.295a2.156,2.156,0,1,1-2.157,2.157A2.157,2.157,0,0,1,358.956,2653.295Z" fill="#c8c8ee"></path><path id="Path_873" data-name="Path 873" d="M358.956,2644.376a2.156,2.156,0,1,1-2.157,2.157A2.157,2.157,0,0,1,358.956,2644.376Z" fill="#c8c8ee"></path></g><g id="Group_455" data-name="Group 455"><path id="Path_874" data-name="Path 874" d="M342.026,2671.133a2.157,2.157,0,1,1-2.156,2.157A2.157,2.157,0,0,1,342.026,2671.133Z" fill="#c8c8ee"></path><path id="Path_875" data-name="Path 875" d="M342.026,2662.214a2.157,2.157,0,1,1-2.156,2.157A2.157,2.157,0,0,1,342.026,2662.214Z" fill="#c8c8ee"></path><path id="Path_876" data-name="Path 876" d="M342.026,2653.295a2.156,2.156,0,1,1-2.156,2.157A2.157,2.157,0,0,1,342.026,2653.295Z" fill="#c8c8ee"></path><path id="Path_877" data-name="Path 877" d="M342.026,2644.376a2.156,2.156,0,1,1-2.156,2.157A2.157,2.157,0,0,1,342.026,2644.376Z" fill="#c8c8ee"></path></g></g><g id="Group_460" data-name="Group 460"><g id="Group_457" data-name="Group 457"><path id="Path_878" data-name="Path 878" d="M367.421,2675.593a2.156,2.156,0,1,1-2.157,2.156A2.157,2.157,0,0,1,367.421,2675.593Z" fill="#c8c8ee"></path><path id="Path_879" data-name="Path 879" d="M367.421,2666.674a2.156,2.156,0,1,1-2.157,2.156A2.156,2.156,0,0,1,367.421,2666.674Z" fill="#c8c8ee"></path><path id="Path_880" data-name="Path 880" d="M367.421,2657.754a2.157,2.157,0,1,1-2.157,2.157A2.157,2.157,0,0,1,367.421,2657.754Z" fill="#c8c8ee"></path><path id="Path_881" data-name="Path 881" d="M367.421,2648.835a2.157,2.157,0,1,1-2.157,2.157A2.157,2.157,0,0,1,367.421,2648.835Z" fill="#c8c8ee"></path><path id="Path_882" data-name="Path 882" d="M367.421,2639.916a2.157,2.157,0,1,1-2.157,2.157A2.157,2.157,0,0,1,367.421,2639.916Z" fill="#c8c8ee"></path></g><g id="Group_458" data-name="Group 458"><path id="Path_883" data-name="Path 883" d="M375.886,2671.133a2.157,2.157,0,1,1-2.157,2.157A2.157,2.157,0,0,1,375.886,2671.133Z" fill="#c8c8ee"></path><path id="Path_884" data-name="Path 884" d="M375.886,2662.214a2.157,2.157,0,1,1-2.157,2.157A2.157,2.157,0,0,1,375.886,2662.214Z" fill="#c8c8ee"></path><path id="Path_885" data-name="Path 885" d="M375.886,2653.295a2.156,2.156,0,1,1-2.157,2.157A2.157,2.157,0,0,1,375.886,2653.295Z" fill="#c8c8ee"></path><path id="Path_886" data-name="Path 886" d="M375.886,2644.376a2.156,2.156,0,1,1-2.157,2.157A2.157,2.157,0,0,1,375.886,2644.376Z" fill="#c8c8ee"></path></g><g id="Group_459" data-name="Group 459"><path id="Path_887" data-name="Path 887" d="M358.956,2671.133a2.157,2.157,0,1,1-2.157,2.157A2.157,2.157,0,0,1,358.956,2671.133Z" fill="#c8c8ee"></path><path id="Path_888" data-name="Path 888" d="M358.956,2662.214a2.157,2.157,0,1,1-2.157,2.157A2.157,2.157,0,0,1,358.956,2662.214Z" fill="#c8c8ee"></path><path id="Path_889" data-name="Path 889" d="M358.956,2653.295a2.156,2.156,0,1,1-2.157,2.157A2.157,2.157,0,0,1,358.956,2653.295Z" fill="#c8c8ee"></path><path id="Path_890" data-name="Path 890" d="M358.956,2644.376a2.156,2.156,0,1,1-2.157,2.157A2.157,2.157,0,0,1,358.956,2644.376Z" fill="#c8c8ee"></path></g></g><rect id="Rectangle_66" data-name="Rectangle 66" width="213.7" height="16.543" transform="translate(694.839 2680.45)" fill="#eaeafa"></rect><rect id="Rectangle_67" data-name="Rectangle 67" width="213.7" height="16.543" transform="translate(694.839 2680.45)" fill="#dadaf5"></rect><rect id="Rectangle_68" data-name="Rectangle 68" width="213.701" height="211.921" transform="translate(694.839 2469.459)" fill="#dadaf5"></rect><rect id="Rectangle_69" data-name="Rectangle 69" width="198.45" height="196.671" transform="translate(702.464 2477.084)" fill="#eaeafa"></rect><rect id="Rectangle_70" data-name="Rectangle 70" width="6.289" height="196.671" transform="translate(798.545 2477.084)" fill="#dadaf5"></rect><rect id="Rectangle_71" data-name="Rectangle 71" width="35.206" height="9.588" transform="translate(719.135 2696.993)" fill="#c8c8ee"></rect><rect id="Rectangle_72" data-name="Rectangle 72" width="35.206" height="9.588" transform="translate(849.038 2696.993)" fill="#c8c8ee"></rect><rect id="Rectangle_73" data-name="Rectangle 73" width="56.303" height="4.715" transform="translate(723.119 2660.16)" fill="#dadaf5"></rect><rect id="Rectangle_74" data-name="Rectangle 74" width="56.303" height="4.715" transform="translate(723.119 2648.095)" fill="#dadaf5"></rect><rect id="Rectangle_75" data-name="Rectangle 75" width="56.303" height="4.715" transform="translate(723.119 2636.031)" fill="#dadaf5"></rect><rect id="Rectangle_76" data-name="Rectangle 76" width="56.303" height="4.715" transform="translate(723.119 2623.966)" fill="#dadaf5"></rect><rect id="Rectangle_77" data-name="Rectangle 77" width="56.303" height="4.715" transform="translate(823.957 2660.16)" fill="#dadaf5"></rect><rect id="Rectangle_78" data-name="Rectangle 78" width="56.303" height="4.715" transform="translate(823.957 2648.095)" fill="#dadaf5"></rect><rect id="Rectangle_79" data-name="Rectangle 79" width="56.303" height="4.715" transform="translate(823.957 2636.031)" fill="#dadaf5"></rect><rect id="Rectangle_80" data-name="Rectangle 80" width="56.303" height="4.715" transform="translate(823.957 2623.966)" fill="#dadaf5"></rect><path id="Path_891" data-name="Path 891" d="M754.533,2496.012a8.174,8.174,0,1,1-8.174-8.174A8.175,8.175,0,0,1,754.533,2496.012Z" fill="#0072ff" opacity="0.5"></path><path id="Path_892" data-name="Path 892" d="M754.533,2520.343a8.174,8.174,0,1,1-8.174-8.173A8.174,8.174,0,0,1,754.533,2520.343Z" fill="#0072ff" opacity="0.5"></path><circle id="Ellipse_128" data-name="Ellipse 128" cx="8.174" cy="8.174" r="8.174" transform="matrix(0.184, -0.983, 0.983, 0.184, 845.677, 2502.542)" fill="#0072ff" opacity="0.5"></circle><circle id="Ellipse_129" data-name="Ellipse 129" cx="8.174" cy="8.174" r="8.174" transform="translate(847.042 2512.169)" fill="#0072ff" opacity="0.5"></circle><path id="Path_893" data-name="Path 893" d="M635.28,2553.692h-7.573c-.58,5.347,3.84,16.831-3.343,20.1-8.793,4-12.4,5.453-14.169,10.318a.861.861,0,0,0,.793,1.168h25.259a.83.83,0,0,0,.827-.99C636.582,2581.846,634.117,2558.18,635.28,2553.692Z" fill="#0072ff"></path><path id="Path_894" data-name="Path 894" d="M704,2553.692h-7.573c-.58,5.347,3.84,16.831-3.343,20.1-8.793,4-12.4,5.453-14.169,10.318a.861.861,0,0,0,.793,1.168h25.259a.83.83,0,0,0,.827-.99C705.3,2581.846,702.837,2558.18,704,2553.692Z" fill="#0072ff"></path><g id="Group_461" data-name="Group 461"><path id="Path_895" data-name="Path 895" d="M728.086,2427.657s-56.454,6.533-71.472,17.119c-6.526,4.6-31.1,117.468-31.1,117.468,0,1.168,11.775,1.168,11.775,0l37.832-84.3,24.288-29.316s42.583-8.238,42.9-8.773,4.784-13.8,4.784-13.8Z" fill="#002450"></path><path id="Path_896" data-name="Path 896" d="M694.8,2562.236h11.771l-11.63-92.951,62.109-.954a18.009,18.009,0,0,0,15.607-9.12c3-5.479,4.242-21.934.53-29l-32.822,3.128s-64.442,11.011-71.9,24.144C661.851,2469.144,688.717,2552.162,694.8,2562.236Z" fill="#002450"></path></g><path id="Path_897" data-name="Path 897" d="M782.413,2367.94a17.317,17.317,0,0,1-3.146-6.988c-1.141-5.655.6-11.468,2.606-16.877s4.328-10.875,4.389-16.644c.067-6.488-2.788-12.734-6.761-17.863s-9.029-9.3-14.039-13.42a69.659,69.659,0,0,1,2.09,26.015c-.737,6.743-2.465,13.441-2.023,20.209a32.249,32.249,0,0,0,14.008,24.3" fill="#002450"></path><g id="Group_480" data-name="Group 480"><g id="Group_464" data-name="Group 464"><g id="Group_462" data-name="Group 462"><path id="Path_898" data-name="Path 898" d="M667.146,2437.93c.247.441.59.625,1.275.253s2.542-3.736,2.777-4.166a15.648,15.648,0,0,1,1.806-2.665c.573-.567,2.778-1.361,4.022-2.176,2.024-1.309,1.611-2.589,2.345-2.9.092-.039,42.69-14.031,43.064-14.218a6.758,6.758,0,0,0,4.135-5.557,4.4,4.4,0,0,0,.142-.989c.024-.41.016-.8,0-1.176v-.04l.163-44.659a7.25,7.25,0,0,0,0-1.188,8.731,8.731,0,0,0-17.439.682l-.067-.007,2.335,42.279c-16.574,6.171-34.946,17.61-34.946,17.61a7.9,7.9,0,0,0-4.241-1.18,15.024,15.024,0,0,1-6.214-1.31,5.765,5.765,0,0,1-1.362-.879c-.265-.337-.62-1.154-1.043-1.076s-1.21,1,.144,2.752,2.516,1.847,3.076,2.547a1.288,1.288,0,0,1,0,1.763,21.468,21.468,0,0,1-3.111,1.746c-.591.261-3.3.975-4.7,1.456s-3.908,1.413-4.153,2.324.772,1.067,1.386.922,3.067-.872,3.769-.966,3.372-1.055,3.665-1.058.786-.035.772.491-2.77,1.227-3.95,2.014a29.179,29.179,0,0,1-3.628,1.9c-1.168.571-1.6,1.468-1.238,2.05s1.248.456,2.564-.158,3.8-1.633,4.443-1.908,2.477-1.359,2.966-1.246.812.548.247,1.154-2.01,1.522-2.787,2.372-2.732,2.543-2.794,2.572-1.012.769-.487,1.568,1.606.177,2.756-.7,2.93-2.06,3.319-2.485a16.875,16.875,0,0,1,2.585-1.9c.239-.073,1.177.208.494,1.421S666.891,2437.487,667.146,2437.93Z" fill="#fcb3b3"></path></g><g id="Group_463" data-name="Group 463"><path id="Path_899" data-name="Path 899" d="M682.417,2415.656c6.719-3.864,18.393-10.2,29.291-14.256l-2.335-42.279.067.007a8.731,8.731,0,0,1,17.439-.682,7.365,7.365,0,0,1,0,1.188l-.164,44.659v.04c.012.379.021.766,0,1.176a4.46,4.46,0,0,1-.142.989,6.757,6.757,0,0,1-4.135,5.557c-.276.138-23.578,7.8-35.784,11.82Z" fill="#0072ff"></path></g></g><g id="Group_479" data-name="Group 479"><g id="Group_469" data-name="Group 469"><g id="Group_468" data-name="Group 468"><g id="Group_467" data-name="Group 467"><g id="Group_465" data-name="Group 465"><path id="Path_900" data-name="Path 900" d="M780.451,2373.112l.011.564a122.054,122.054,0,0,1-1.128,20.963c-.112.772-.266,1.544-.422,2.213-.076.466-.2.879-.27,1.341-.2.723-.354,1.393-.553,2.013a12.321,12.321,0,0,1-.641,1.756,9.425,9.425,0,0,1-.851,1.813c-4.767,8.119-3.828,20.918-3.3,25.476a2,2,0,0,1-1.167,2.163c-29.961,10.158-44.9.378-44.9.378.361-.982-.3-9.438-.841-15.794-.271-3.278-1.511-6.488-3.819-8.3-4.061-3.108-5.583-12.473-6.126-19.032-.368-3.945-.381-6.922-.381-6.922s-3.622-27.136,1.693-31.34c1.163-.9,4.564-1.523,9.149-1.916a216.857,216.857,0,0,1,41.614,1.588c5.154.779,8.713,1.841,9.41,3.061C779.153,2355.377,780.192,2363.671,780.451,2373.112Z" fill="#0072ff"></path></g><path id="Path_901" data-name="Path 901" d="M780.446,2373.1l.011.586a119.341,119.341,0,0,1-1.132,20.959,22.293,22.293,0,0,1-.415,2.2c-.068.464-.186.9-.279,1.364-.19.714-.355,1.365-.546,1.987a11.644,11.644,0,0,1-.627,1.771,10.833,10.833,0,0,1-.853,1.807c-3.022,5.152-3.754,12.175-3.751,17.765a69.166,69.166,0,0,0,.435,7.727,2,2,0,0,1-1.166,2.158c-14.164,4.792-25.2,5.135-32.9,4.171a40.285,40.285,0,0,1-11.755-3.124,2.072,2.072,0,0,1-1.055-2.089,97.775,97.775,0,0,0-.025-14.374c-.264-3.3-1.515-6.487-3.83-8.3-4.037-3.106-5.58-12.465-6.107-19.032,1.734,3.3,3.315,6.547,6.226,9.025a17.412,17.412,0,0,0,15.028,3.92c2.146-.441,4.232-1.375,6.389-1.292,3.651.086,6.921,2.836,10.555,3.293,4.548.565,8.951-2.574,11.863-6.8,2.912-4.255,4.639-9.536,6.4-14.633,1.25-3.666,3.1-7.87,6.205-8.452A5.941,5.941,0,0,1,780.446,2373.1Z" fill="#0072ff"></path><g id="Group_466" data-name="Group 466"><path id="Path_902" data-name="Path 902" d="M726.905,2348.459c.316,9.675,5.1,20.918,16.481,20.7,10.648-.195,23.313-10.32,25.112-19.545l-.219-.036a13.442,13.442,0,0,1-11.79-14.039c.243-4.7.316-8.447.316-8.447s-16-1.3-15.971,12.057v.3a8.839,8.839,0,0,1-8.618,8.751C730.32,2348.265,728.546,2348.35,726.905,2348.459Z" fill="url(#linear-gradient-19)"></path></g></g><path id="Path_903" data-name="Path 903" d="M730.478,2379.769l6.443,25.143a1.186,1.186,0,0,1-1.279,1.5H720.957a2.171,2.171,0,0,1-2.038-1.5l-6.443-25.143a1.18,1.18,0,0,1,1.269-1.493h14.686A2.172,2.172,0,0,1,730.478,2379.769Z" fill="#121c7c"></path><path id="Path_904" data-name="Path 904" d="M728.3,2395.463a3.993,3.993,0,0,0-.8.945.908.908,0,0,0,.588,1.308c.624.269,1.28.464,1.924.686.146.051.3.08.561.148-.387.183-.678.3-.946.452a.935.935,0,0,0-.145,1.638,5.07,5.07,0,0,0,2.621.9c.409.058.83.046,1.235.122a15.985,15.985,0,0,0,6.842-.358,9.731,9.731,0,0,1,5.625.415,10,10,0,0,1,1.267.6c1.6.809,3.2,1.625,4.8,2.435a.666.666,0,0,0,.2.016c.04-.167.088-.333.118-.5.479-2.673.948-5.347,1.44-8.017.074-.4-.015-.525-.421-.669-1.492-.524-2.956-1.126-4.427-1.707-.35-.138-.682-.32-1.03-.461a4.374,4.374,0,0,1-2.015-1.771,17.338,17.338,0,0,0-3.75-3.659,17.1,17.1,0,0,0-5.2-2.767,8.883,8.883,0,0,1-3.537-2.045,4.359,4.359,0,0,0-1.072-.713.512.512,0,0,0-.8.426,2.993,2.993,0,0,0,.807,2.368,12.094,12.094,0,0,0,3.958,2.8l.679.363a.756.756,0,0,1-.813.809,25.1,25.1,0,0,1-3.558-.119c-3.52-.52-7.023-1.163-10.542-1.7a4.032,4.032,0,0,0-1.821.223.543.543,0,0,0-.121,1.016,9.495,9.495,0,0,0,2.053,1.02c1.324.462,2.672.864,4.027,1.228,1.167.313,2.356.548,3.539.8.671.142,1.351.245,2.137.385-.139.155-.2.289-.281.3a10.529,10.529,0,0,1-1.165.125,24.771,24.771,0,0,0-3.163.149c-1.273.226-1.41,1.135-.94,1.938a1.684,1.684,0,0,0,1.317.731C727.782,2395.36,728.062,2395.421,728.3,2395.463Z" fill="#fcb3b3"></path><path id="Path_905" data-name="Path 905" d="M772.457,2350.985s7.341-1.516,12.327,2.637c2.6,1.46,25.4,55.178,25.4,55.178s1.734,11.044-10.351,11.046-51.47-16.332-51.47-16.332l3.775-8.892,35.829,4.473s-18.451-29.9-18.9-36.422S771.373,2351.006,772.457,2350.985Z" fill="#0072ff"></path></g></g><g id="Group_478" data-name="Group 478"><g id="Group_471" data-name="Group 471"><path id="Path_906" data-name="Path 906" d="M731.672,2312.623v10.559a15.057,15.057,0,1,0,30.114,0v-10.559a15.059,15.059,0,0,0-15.057-15.057c-4.157,0-6.885,3.6-10.649,4.408S730.307,2305.989,731.672,2312.623Z" fill="url(#linear-gradient-20)"></path><g id="Group_470" data-name="Group 470"><path id="Path_907" data-name="Path 907" d="M759.029,2317.882v-5.651s-6.236,1.169-11.5-14.81c0,0-6.333,11.01-15.784,10.231v5.943s-8.574-5.554-6.82-15.492,13.446-13.251,18.415-12.082c0,0,9.451-6.138,16.174-3.8s14.517,9.841,14.907,18.61-9.743,25.723-13.933,28.841Z" fill="#002450"></path></g><path id="Path_908" data-name="Path 908" d="M756.7,2319.424c-.314,3.419.958,6.33,2.841,6.5s3.663-2.458,3.977-5.876-.957-6.331-2.84-6.5S757.011,2316.006,756.7,2319.424Z" fill="url(#linear-gradient-21)"></path></g><g id="Group_477" data-name="Group 477"><g id="Group_472" data-name="Group 472"><path id="Path_909" data-name="Path 909" d="M740.6,2311.984a6.246,6.246,0,0,1-5.075,1.1c-.359-.086-.417-.421-.116-.657a6.2,6.2,0,0,1,2.436-1.1,5.921,5.921,0,0,1,2.629,0C740.829,2311.414,740.9,2311.748,740.6,2311.984Z" fill="#121c7c"></path></g><path id="Path_910" data-name="Path 910" d="M737.13,2317.1a1.573,1.573,0,1,0,1.574-1.574A1.574,1.574,0,0,0,737.13,2317.1Z" fill="#121c7c"></path><g id="Group_476" data-name="Group 476"><g id="Group_473" data-name="Group 473"><path id="Path_911" data-name="Path 911" d="M742.25,2324.28l3.113.346a.7.7,0,0,0,.779-.776l-1.057-5.523a.639.639,0,0,0-1.215-.13l-2.209,5.155A.7.7,0,0,0,742.25,2324.28Z" fill="url(#linear-gradient-22)"></path><path id="Path_912" data-name="Path 912" d="M749.19,2328.026a.631.631,0,0,1,.714.836,5.042,5.042,0,0,1-8.359,1.593.632.632,0,0,1,.357-1.041Z" fill="#fff"></path><path id="Path_913" data-name="Path 913" d="M749.741,2317.1a1.574,1.574,0,1,0,1.574-1.574A1.574,1.574,0,0,0,749.741,2317.1Z" fill="#121c7c"></path></g><g id="Group_475" data-name="Group 475"><g id="Group_474" data-name="Group 474"><path id="Path_914" data-name="Path 914" d="M754.029,2313.062a6.241,6.241,0,0,1-5.077-1.092c-.291-.226-.206-.555.166-.646a6.2,6.2,0,0,1,2.673,0,5.912,5.912,0,0,1,2.393,1.086C754.476,2312.639,754.4,2312.972,754.029,2313.062Z" fill="#121c7c"></path></g></g></g></g></g></g></g><path id="Path_915" data-name="Path 915" d="M914.823,2266.247a3.421,3.421,0,0,1-4.958,0,41.9,41.9,0,0,0-59.211,0,3.424,3.424,0,0,1-4.958,0,3.507,3.507,0,0,1,0-5.028,48.9,48.9,0,0,1,69.127,0A3.5,3.5,0,0,1,914.823,2266.247Z" fill="#eaeafa"></path><path id="Path_916" data-name="Path 916" d="M894.85,2281.264a3.576,3.576,0,0,1-2.55,6.09,3.443,3.443,0,0,1-2.478-1.062,13.592,13.592,0,0,0-19.124,0,3.556,3.556,0,0,1-5.029-5.028A20.729,20.729,0,0,1,894.85,2281.264Z" fill="#eaeafa"></path><path id="Path_917" data-name="Path 917" d="M887.838,2296.844a7.154,7.154,0,1,1-7.153-7.152A7.18,7.18,0,0,1,887.838,2296.844Z" fill="#eaeafa"></path><path id="Path_918" data-name="Path 918" d="M904.837,2271.276a3.424,3.424,0,0,1,0,4.959,3.51,3.51,0,0,1-5.029,0c-10.411-10.413-28.685-10.413-39.1,0a3.6,3.6,0,0,1-2.549,1.062,3.542,3.542,0,0,1-2.479-6.021,34.712,34.712,0,0,1,49.154,0Z" fill="#eaeafa"></path><path id="Path_919" data-name="Path 919" d="M622.7,2222.429h67.737a6.188,6.188,0,0,1,6.187,6.188v26.094a6.187,6.187,0,0,1-6.187,6.187h-61.9a3.088,3.088,0,0,0-2.183.905l-8.886,8.885a.556.556,0,0,1-.95-.394v-41.677A6.188,6.188,0,0,1,622.7,2222.429Z" fill="#f0f6ff" opacity="0.3"></path><path id="Path_920" data-name="Path 920" d="M584.228,2158.887H492.842a8.347,8.347,0,0,0-8.347,8.347v35.205a8.347,8.347,0,0,0,8.347,8.347h83.517a4.167,4.167,0,0,1,2.946,1.22l11.987,11.987a.752.752,0,0,0,1.283-.531v-56.228A8.347,8.347,0,0,0,584.228,2158.887Z" fill="#f0f6ff" opacity="0.3"></path><g id="Group_484" data-name="Group 484"><g id="Group_483" data-name="Group 483"><g id="Group_482" data-name="Group 482"><g id="Group_481" data-name="Group 481"><path id="Path_921" data-name="Path 921" d="M954.136,2709.021h-771.3a2.4,2.4,0,1,1,0-4.795h771.3a2.4,2.4,0,1,1,0,4.795Z" fill="#c5cced"></path></g></g></g></g></g></g></svg>