<svg xmlns="http://www.w3.org/2000/svg" xmlns:xlink="http://www.w3.org/1999/xlink" width="724.175" height="528.896" viewBox="0 0 724.175 528.896"><defs><linearGradient id="linear-gradient" x1="43.133" y1="0.603" x2="43.136" y2="0.891" gradientUnits="objectBoundingBox"><stop offset="0.004" stop-color="#fcb3b3"></stop><stop offset="1" stop-color="#fc8e8e"></stop></linearGradient><linearGradient id="linear-gradient-2" x1="39.286" y1="0.333" x2="39.243" y2="1.003" xlink:href="#linear-gradient"></linearGradient><linearGradient id="linear-gradient-3" x1="187.413" y1="0.5" x2="188.413" y2="0.5" xlink:href="#linear-gradient"></linearGradient><linearGradient id="linear-gradient-4" x1="251.124" y1="1.961" x2="251.124" y2="1.515" xlink:href="#linear-gradient"></linearGradient><linearGradient id="linear-gradient-5" y1="0.5" x2="1" y2="0.5" gradientUnits="objectBoundingBox"><stop offset="0" stop-color="#00c5ff"></stop><stop offset="0.995" stop-color="#0072ff"></stop></linearGradient></defs><g id="Group_520" data-name="Group 520" transform="translate(-1146.621 -2180.125)"><g id="Group_297" data-name="Group 297"><g id="Group_271" data-name="Group 271"><g id="Group_270" data-name="Group 270"><path id="Path_504" data-name="Path 504" d="M1868.4,2709.021H1149.019a2.4,2.4,0,1,1,0-4.795H1868.4a2.4,2.4,0,1,1,0,4.795Z" fill="#c5cced"></path></g></g><g id="Group_295" data-name="Group 295"><g id="Group_275" data-name="Group 275"><g id="Group_272" data-name="Group 272"><path id="Path_505" data-name="Path 505" d="M1516.623,2653.035l13.12.206c.86,9.279-7.11,29.053,5.245,34.915,15.124,7.175,21.332,9.784,24.266,18.26a1.492,1.492,0,0,1-1.405,2l-43.758-.685a1.438,1.438,0,0,1-1.4-1.738C1513.6,2701.773,1518.517,2660.842,1516.623,2653.035Z" fill="#0072ff"></path><path id="Path_506" data-name="Path 506" d="M1446.023,2650.971l13.117.327c.774,9.287-7.377,28.987,4.923,34.963,15.057,7.314,21.241,9.98,24.1,18.482a1.493,1.493,0,0,1-1.423,1.99l-43.749-1.089a1.439,1.439,0,0,1-1.39-1.751C1442.555,2699.679,1447.845,2658.8,1446.023,2650.971Z" fill="#0072ff"></path></g><g id="Group_274" data-name="Group 274"><g id="Group_273" data-name="Group 273"><path id="Path_507" data-name="Path 507" d="M1532.7,2667.2c-.5,1.118-9.344,1.179-14.742,1.1-2.4-.027-4.118-.083-4.118-.083l-9.027-72.57c-.465-5.275-1.218-10.522-2.076-15.749-4.006-24.177-4.483-121.327-4.483-121.327l-9.893-.359s-11.544,79.057-13.6,101.035a86.781,86.781,0,0,1-1.7,10.435,42.387,42.387,0,0,0-.813,12.317c.35,8.352-9.793,86.338-9.793,86.338l-18.593-1.748s2.286-94.217,4.132-113.928c1.59-16.935,1.15-107.495.988-132.566,0-.381,0-.75-.007-1.1-.027-3.405-.035-5.356-.035-5.356l1.164.076,81.745,4.4s.009.993.009,2.782c.005.692.007,1.523.018,2.447l0,.115c-.006.208,0,.416-.005.635.019,1.962.026,4.363.036,7.121.107,25.889.448,82.609.959,99.079C1533.621,2551.907,1533.383,2665.647,1532.7,2667.2Z" fill="#002450"></path></g><path id="Path_508" data-name="Path 508" d="M1473.059,2569.682a85.959,85.959,0,0,0,1.7-10.443c1.957-21,12.651-94.55,13.6-101.034l-9.339,0a48.948,48.948,0,0,0-5.228,16.5c-1.726,15.548-2.371,31.2-3.013,46.825-2.312,57.213-8.773,89.305-11.13,146.535l2.812.265s10.136-77.989,9.788-86.334A42.53,42.53,0,0,1,1473.059,2569.682Z" fill="#002450"></path><path id="Path_509" data-name="Path 509" d="M1507.113,2561.412c-3.77-33.624-8.489-69.753-1.8-102.657l-7.062-.186c.066,10.717.723,98.648,4.48,121.327.86,5.23,1.61,10.472,2.073,15.752l9.03,72.571s1.719.052,4.116.082C1516.032,2624.5,1512,2604.989,1507.113,2561.412Z" fill="#002450"></path></g></g><g id="Group_278" data-name="Group 278"><path id="Path_510" data-name="Path 510" d="M1531.836,2426.633c-6.11,1.562-16.594,5.332-35.325,3.569-14.437-1.364-38.436-2.5-47.53-10.11,0-.381,0-.75-.007-1.1-.027-3.405-.035-5.356-.035-5.356l1.164.076c9.04,7.919,32.817,7.365,47.242,8.728,18.49,1.735,28.377.962,34.512-1.546a.072.072,0,0,0,.046-.01c0,.934-.019,1.661-.028,2.457l0,.115C1531.85,2424.314,1531.837,2425.26,1531.836,2426.633Z" fill="#002450"></path><rect id="Rectangle_42" data-name="Rectangle 42" width="2.485" height="15.252" transform="matrix(0.996, 0.094, -0.094, 0.996, 1478.309, 2417.064)" fill="#002450"></rect><rect id="Rectangle_43" data-name="Rectangle 43" width="2.485" height="15.252" transform="matrix(0.996, 0.094, -0.094, 0.996, 1512.702, 2420.997)" fill="#002450"></rect><g id="Group_277" data-name="Group 277"><g id="Group_276" data-name="Group 276"><path id="Path_511" data-name="Path 511" d="M1499.816,2434.282l-8.793-.8a2.57,2.57,0,0,1-2.325-2.79l.418-4.583a2.573,2.573,0,0,1,2.793-2.324l8.793.8a2.571,2.571,0,0,1,2.325,2.791l-.418,4.583A2.572,2.572,0,0,1,1499.816,2434.282Zm-7.989-9.6a1.672,1.672,0,0,0-1.814,1.512l-.419,4.583a1.671,1.671,0,0,0,1.511,1.814l8.793.8a1.672,1.672,0,0,0,1.814-1.511l.418-4.583a1.671,1.671,0,0,0-1.51-1.815Z" fill="#e4e8fd"></path></g></g><rect id="Rectangle_44" data-name="Rectangle 44" width="0.89" height="18.36" transform="translate(1494.636 2433.43) rotate(5.378)" fill="#e4e8fd"></rect></g><g id="Group_279" data-name="Group 279"><path id="Path_512" data-name="Path 512" d="M1531.939,2419.216c-.661,11.008-83.471,4.949-82.795-6.058,4.177-70.779-14.056-124.236-3.161-135.629,1.21-1.268,5.2-5.836,22.942-12.19.7-.253,1.433-.506,2.179-.744.244-.085.5-.168.762-.252.547-.137,1.048-.245,1.579-.352.045,0,.122-.027.167-.026a82.576,82.576,0,0,1,9.651-1.232,80.956,80.956,0,0,1,8.129-.153c.362.009.724.019,1.086.043.71.018,1.418.067,2.141.116.573.044,1.147.059,1.763.166a67.388,67.388,0,0,1,7.812,1c.857.158,1.728.332,2.584.519q1.1.234,2.207.51c7.577,1.917,24.833,8.9,29.626,14.534C1543.754,2308.7,1530.825,2367.67,1531.939,2419.216Z" fill="#0072ff"></path></g><g id="Group_294" data-name="Group 294"><g id="Group_282" data-name="Group 282"><path id="Path_513" data-name="Path 513" d="M1508.985,2264.935a13.92,13.92,0,0,1-5.676,8.13,24.637,24.637,0,0,1-13.933,4.474c-.5.017-1.012.019-1.51.006-9.749-.25-17.471-5.357-18.941-12.206.7-.253,1.433-.506,2.179-.744.244-.085.5-.168.762-.252.547-.137,1.048-.245,1.579-.352.045,0,.122-.027.167-.026a82.576,82.576,0,0,1,9.651-1.232c3.052-.057,6.15-.113,9.215-.11.71.018,1.418.067,2.141.116.573.044,1.147.059,1.763.166a67.388,67.388,0,0,1,7.812,1c.857.158,1.728.332,2.584.519Q1507.882,2264.659,1508.985,2264.935Z" fill="#fff"></path><path id="Path_514" data-name="Path 514" d="M1506.778,2264.425c-1.346,5.946-8.594,10.622-17.465,10.862-9.279.26-17.056-4.425-18.209-10.692.244-.085.5-.168.762-.252.547-.137,1.048-.245,1.579-.352.045,0,.122-.027.167-.026q2.071-.4,4.185-.663l.875-34a10,10,0,1,1,20,.514l-.854,33.2c2.094.19,4.231.486,6.38.889C1505.051,2264.064,1505.922,2264.238,1506.778,2264.425Z" fill="url(#linear-gradient)"></path><g id="Group_281" data-name="Group 281"><path id="Path_515" data-name="Path 515" d="M1505.914,2209.3l2.443,24.543a18.393,18.393,0,1,1-36.605,3.643l-2.442-24.543a18.392,18.392,0,0,1,36.6-3.643Z" fill="url(#linear-gradient-2)"></path><path id="Path_516" data-name="Path 516" d="M1472.521,2229.453c-1.822.3-3.426-1.168-4.511-2.664a21.445,21.445,0,0,1-3.7-8.777c-.226-1.3-.227-2.944.874-3.737a2.392,2.392,0,0,1,2.3-.244,5.231,5.231,0,0,1,1.951,1.389,10.1,10.1,0,0,1,2.647,6.247Z" fill="url(#linear-gradient-3)"></path><g id="Group_280" data-name="Group 280"><path id="Path_517" data-name="Path 517" d="M1514.015,2209.537c-7.975,5.276-38.114.641-38.634.42-.049-.005-.111.137-.134.381-.307,2.48.067,16.266-1.261,18.354-1.444,2.275-1.393-2.713-1.841-3.962-.424-1.244-2.412-9.13-2.412-9.13a22.026,22.026,0,0,0-1.991-6.806c-1.643-3.179-4.832-10.588-1.169-15.532,3.639-4.947,8.231-2.251,8.231-2.251s10.527-12,21.631-10.8,6.4,9.828,6.4,9.828,5.6-1.49,9.625-.594c2.028.412,3.627,1.448,3.946,3.544C1516.41,2192.986,1521.992,2204.237,1514.015,2209.537Z" fill="#002450"></path></g></g></g><g id="Group_293" data-name="Group 293"><g id="Group_283" data-name="Group 283"><path id="Path_518" data-name="Path 518" d="M1502.264,2219.051a8.9,8.9,0,0,1-6.546-.465c-.411-.212-.383-.584.054-.734a8.951,8.951,0,0,1,6.542.464C1502.728,2218.526,1502.7,2218.9,1502.264,2219.051Z" fill="#121c7c"></path></g><g id="Group_284" data-name="Group 284"><path id="Path_519" data-name="Path 519" d="M1484.92,2218.573a8.881,8.881,0,0,1-6.509.866c-.447-.12-.493-.5-.092-.736a8.926,8.926,0,0,1,6.495-.865C1485.261,2217.958,1485.321,2218.332,1484.92,2218.573Z" fill="#121c7c"></path></g><g id="Group_291" data-name="Group 291"><g id="Group_285" data-name="Group 285"><path id="Path_520" data-name="Path 520" d="M1488.151,2247.644a5.77,5.77,0,0,1-4.943-2.932.695.695,0,0,1,1.215-.674,4.316,4.316,0,0,0,5.269,1.92.695.695,0,0,1,.468,1.308A6.13,6.13,0,0,1,1488.151,2247.644Z" fill="#fff"></path></g><g id="Group_286" data-name="Group 286"><path id="Path_521" data-name="Path 521" d="M1486.18,2228.192a1.321,1.321,0,1,1-1.336-1.306A1.321,1.321,0,0,1,1486.18,2228.192Z" fill="#121c7c"></path></g><g id="Group_287" data-name="Group 287"><path id="Path_522" data-name="Path 522" d="M1499.268,2228.045a1.321,1.321,0,1,1-1.336-1.306A1.321,1.321,0,0,1,1499.268,2228.045Z" fill="#121c7c"></path></g><g id="Group_288" data-name="Group 288"><path id="Path_523" data-name="Path 523" d="M1499.351,2235.452a6.578,6.578,0,1,1,6.505-6.651A6.585,6.585,0,0,1,1499.351,2235.452Zm-.135-12.043a5.466,5.466,0,1,0,5.527,5.405A5.473,5.473,0,0,0,1499.216,2223.409Z" fill="#fff"></path></g><g id="Group_289" data-name="Group 289"><path id="Path_524" data-name="Path 524" d="M1484.345,2235.621a6.578,6.578,0,1,1,6.5-6.651A6.586,6.586,0,0,1,1484.345,2235.621Zm-.135-12.044a5.467,5.467,0,1,0,5.525,5.405A5.473,5.473,0,0,0,1484.21,2223.577Z" fill="#fff"></path></g><g id="Group_290" data-name="Group 290"><path id="Path_525" data-name="Path 525" d="M1490.525,2229.39l-.745-.825a3.03,3.03,0,0,1,2.281-.984,2.342,2.342,0,0,1,1.64,1.026l-.889.671a1.269,1.269,0,0,0-.856-.59A2.085,2.085,0,0,0,1490.525,2229.39Z" fill="#fff"></path></g></g><g id="Group_292" data-name="Group 292"><path id="Path_526" data-name="Path 526" d="M1494.4,2240.01l-5.086.057a.478.478,0,0,1-.436-.692,29.235,29.235,0,0,0,1.971-5.219.451.451,0,0,1,.449-.348l.966-.011a.474.474,0,0,1,.468.338,28.428,28.428,0,0,0,2.088,5.173A.482.482,0,0,1,1494.4,2240.01Z" fill="url(#linear-gradient-4)"></path></g></g></g></g><path id="Path_527" data-name="Path 527" d="M1648.434,2631.189a71.492,71.492,0,0,1-32.775-8.585c-25.142-13.517-45.117-40.26-54.8-73.371-8.81-30.109-9.016-62.447-7.926-92.909.331-9.249.74-20.761-5.45-28.808-4.276-5.559-11.718-9.158-20.418-9.875-7.931-.657-15.893.925-23.592,2.45l-.31-1.568c7.808-1.547,15.882-3.145,24.033-2.476,9.148.754,17,4.579,21.555,10.494,6.541,8.5,6.119,20.335,5.781,29.84-1.085,30.328-.884,62.513,7.86,92.4,9.568,32.7,29.261,59.1,54.027,72.411,15.778,8.485,40.576,13.6,58.538.085,10.338-7.776,17.171-21.4,18.747-37.376,1.43-14.494-1.185-29.074-3.716-43.173l1.574-.282c2.549,14.206,5.184,28.9,3.734,43.613-1.62,16.421-8.683,30.452-19.377,38.495C1667.652,2628.772,1658.012,2631.189,1648.434,2631.189Z" fill="#0072ff"></path><path id="Path_528" data-name="Path 528" d="M1520.17,2408.322c-.43.126-.859.223-1.266.378a8.529,8.529,0,0,0-3.039,2.2,4.084,4.084,0,0,1-3.99.875,1.465,1.465,0,0,1-.973-.779c-.085-.264.289-.731.543-1.037.48-.581,1.2-1.027,1.505-1.677,1.055-2.226,3.438-2.82,5.062-4.329,1.711-1.589,3.926-2.225,5.981-3.154,1.21-.546,2.478-.97,3.736-1.4a7.469,7.469,0,0,0,3.055-1.916c1.74-1.823,3.628-3.514,5.266-5.421,1.864-2.172,3.521-4.52,5.4-6.959l15.121,5.885c-.7.652-1.308,1.245-1.941,1.815-3.187,2.867-6.435,5.672-9.552,8.614a17,17,0,0,0-4.3,6.881c-.629,1.8-1.043,3.682-1.795,5.424a38.358,38.358,0,0,1-2.546,4.471c-.873,1.448-1.777,2.879-2.7,4.3s-1.8,2.87-2.844,4.194a3.9,3.9,0,0,1-4.135,1.44c-.61-.179-1.433.287-2.135.528a12.541,12.541,0,0,0-1.5.717,1.446,1.446,0,0,1-1.69-.121,1.206,1.206,0,0,0-1.693-.02,5.93,5.93,0,0,1-4.572.923,2.006,2.006,0,0,0-.887.226c-.988.385-1.681-.08-1.634-1.145a4.289,4.289,0,0,1,1.887-3.21c.183-.145.438-.249.543-.437.813-1.459,1.665-2.9,2.36-4.418a10.71,10.71,0,0,0,.4-2.244c.342-1.644.715-3.281,1.076-4.921C1519.326,2412.148,1519.734,2410.3,1520.17,2408.322Z" fill="#fcb3b3"></path><path id="Path_529" data-name="Path 529" d="M1543.6,2377.131l-8.4,11.964a8.265,8.265,0,0,0,2.012,11.509l.7.493a8.252,8.252,0,0,0,11.495-2.023l8.4-11.964a8.248,8.248,0,0,0-2.008-11.485l-.7-.492A8.26,8.26,0,0,0,1543.6,2377.131Z" fill="#f0f2fc"></path><path id="Path_530" data-name="Path 530" d="M1553.885,2394.975a12.092,12.092,0,0,1-18.754-13.043l11.889-42.408-26.988-44.967a12.091,12.091,0,0,1,20.735-12.444l29.669,49.434a12.1,12.1,0,0,1,1.275,9.486l-13.294,47.426A12.046,12.046,0,0,1,1553.885,2394.975Z" fill="#0072ff"></path><path id="Path_531" data-name="Path 531" d="M1797.354,2433.905v128.7H1602.143V2399.8a9.852,9.852,0,0,1,9.852-9.852h77.347a9.852,9.852,0,0,1,7.488,3.449l23.266,27.21a9.849,9.849,0,0,0,7.487,3.449h59.92A9.852,9.852,0,0,1,1797.354,2433.905Z" fill="url(#linear-gradient-5)"></path><path id="Path_532" data-name="Path 532" d="M1786.107,2441.151H1599.985a6.532,6.532,0,0,0-6.542,6.541v81.853h136.9V2554.8h62.3V2447.692A6.532,6.532,0,0,0,1786.107,2441.151Z" fill="#eaeafa"></path><path id="Path_533" data-name="Path 533" d="M1797.354,2562.609H1602.143c-11.037-8.539-20.175-21.6-26.942-36a149.229,149.229,0,0,1-12.96-43.947l-2.472-19.851a8.036,8.036,0,0,1,8.14-9.313h176.61a10.856,10.856,0,0,1,10.462,9.313l2.472,19.851C1760.9,2510.348,1775.256,2545.531,1797.354,2562.609Z" fill="url(#linear-gradient-5)"></path><path id="Path_534" data-name="Path 534" d="M1742.368,2475.966a2.556,2.556,0,0,1-2.556,2.556h-68.544a2.556,2.556,0,1,1,0-5.111h68.544A2.556,2.556,0,0,1,1742.368,2475.966Z" fill="#f0f6ff"></path><path id="Path_535" data-name="Path 535" d="M1711.853,2489.628a2.557,2.557,0,0,1-2.556,2.556h-38.029a2.556,2.556,0,0,1,0-5.112H1709.3A2.557,2.557,0,0,1,1711.853,2489.628Z" fill="#f0f6ff"></path><g id="Group_296" data-name="Group 296"><path id="Path_536" data-name="Path 536" d="M1337.688,2636.677a58.2,58.2,0,0,1-56.22-74.168l1.538.439a56.643,56.643,0,0,0,36.558,69.259c24.177,8.06,53.556-1.206,73.1-23.062,16.072-17.969,25.826-43.139,28.99-74.811,1.853-18.546,1.386-37.535.935-55.9-.21-8.545-.427-17.38-.409-26.068.024-11.052,1.051-22.285,8.341-29.583,5.006-5.011,12.859-7.68,21.573-7.3,1.011.044,2.024.081,3.037.117,6.529.238,13.28.485,19.636,2.586l-.5,1.518c-6.139-2.03-12.775-2.272-19.192-2.506-1.017-.037-2.033-.074-3.048-.118-8.256-.359-15.682,2.134-20.373,6.83-6.881,6.887-7.85,17.747-7.873,28.456-.019,8.667.2,17.491.408,26.026.453,18.412.921,37.452-.942,56.1-3.2,32.016-13.087,57.491-29.39,75.718C1378.709,2627.149,1357.742,2636.675,1337.688,2636.677Z" fill="#002450"></path></g><path id="Path_537" data-name="Path 537" d="M1391.02,2433.905v128.7H1195.809V2399.8a9.852,9.852,0,0,1,9.852-9.852h77.347a9.853,9.853,0,0,1,7.488,3.449l23.266,27.21a9.851,9.851,0,0,0,7.487,3.449h59.92A9.851,9.851,0,0,1,1391.02,2433.905Z" fill="url(#linear-gradient-5)"></path><path id="Path_538" data-name="Path 538" d="M1382.621,2438.813H1196.5a6.532,6.532,0,0,0-6.542,6.541v92h126.756v25.254h72.45V2445.354A6.531,6.531,0,0,0,1382.621,2438.813Z" fill="#dadaf5"></path><path id="Path_539" data-name="Path 539" d="M1377.546,2443.887H1191.424a6.533,6.533,0,0,0-6.543,6.541v86.927h131.831v25.254h67.376V2450.428A6.532,6.532,0,0,0,1377.546,2443.887Z" fill="#eaeafa"></path><path id="Path_540" data-name="Path 540" d="M1372.472,2448.961H1186.35a6.532,6.532,0,0,0-6.542,6.541v81.853h136.9v25.254h62.3V2455.5A6.532,6.532,0,0,0,1372.472,2448.961Z" fill="#f6f6fe"></path><path id="Path_541" data-name="Path 541" d="M1391.02,2562.609H1195.809c-11.037-8.539-20.175-21.6-26.942-36a149.228,149.228,0,0,1-12.96-43.947l-2.472-19.851a8.036,8.036,0,0,1,8.141-9.313h176.609a10.856,10.856,0,0,1,10.462,9.313l2.472,19.851C1354.565,2510.348,1368.922,2545.531,1391.02,2562.609Z" fill="url(#linear-gradient-5)"></path><path id="Path_542" data-name="Path 542" d="M1283.414,2407.966a2.556,2.556,0,0,1-2.555,2.556h-68.545a2.556,2.556,0,0,1,0-5.112h68.545A2.556,2.556,0,0,1,1283.414,2407.966Z" fill="#f0f6ff"></path><path id="Path_543" data-name="Path 543" d="M1252.9,2421.628a2.557,2.557,0,0,1-2.556,2.556h-38.03a2.556,2.556,0,0,1,0-5.112h38.03A2.557,2.557,0,0,1,1252.9,2421.628Z" fill="#f0f6ff"></path><path id="Path_544" data-name="Path 544" d="M1336.034,2475.966a2.556,2.556,0,0,1-2.556,2.556h-68.544a2.556,2.556,0,1,1,0-5.111h68.544A2.556,2.556,0,0,1,1336.034,2475.966Z" fill="#f0f6ff"></path><path id="Path_545" data-name="Path 545" d="M1305.519,2489.628a2.556,2.556,0,0,1-2.556,2.556h-38.029a2.556,2.556,0,0,1,0-5.112h38.029A2.556,2.556,0,0,1,1305.519,2489.628Z" fill="#f0f6ff"></path><path id="Path_546" data-name="Path 546" d="M1463.326,2408.322c.43.126.859.223,1.266.378a8.529,8.529,0,0,1,3.039,2.2,4.084,4.084,0,0,0,3.99.875,1.465,1.465,0,0,0,.973-.779c.085-.264-.289-.731-.543-1.037-.48-.581-1.2-1.027-1.505-1.677-1.055-2.226-3.438-2.82-5.062-4.329-1.711-1.589-3.926-2.225-5.981-3.154-1.21-.546-2.478-.97-3.736-1.4a7.461,7.461,0,0,1-3.055-1.916c-1.74-1.823-3.628-3.514-5.266-5.421-1.864-2.172-3.521-4.52-5.4-6.959l-15.121,5.885c.7.652,1.308,1.245,1.941,1.815,3.187,2.867,6.435,5.672,9.553,8.614a17,17,0,0,1,4.3,6.881c.629,1.8,1.043,3.682,1.795,5.424a38.358,38.358,0,0,0,2.546,4.471c.873,1.448,1.777,2.879,2.7,4.3s1.8,2.87,2.844,4.194a3.9,3.9,0,0,0,4.135,1.44c.61-.179,1.433.287,2.135.528a12.541,12.541,0,0,1,1.5.717,1.446,1.446,0,0,0,1.69-.121,1.205,1.205,0,0,1,1.693-.02,5.93,5.93,0,0,0,4.572.923,2.006,2.006,0,0,1,.887.226c.988.385,1.681-.08,1.634-1.145a4.289,4.289,0,0,0-1.887-3.21c-.183-.145-.438-.249-.543-.437-.813-1.459-1.665-2.9-2.36-4.418a10.71,10.71,0,0,1-.4-2.244c-.342-1.644-.715-3.281-1.076-4.921C1464.17,2412.148,1463.762,2410.3,1463.326,2408.322Z" fill="#fcb3b3"></path><path id="Path_547" data-name="Path 547" d="M1439.9,2377.131l8.4,11.964a8.265,8.265,0,0,1-2.012,11.509l-.7.493a8.252,8.252,0,0,1-11.495-2.023l-8.4-11.964a8.248,8.248,0,0,1,2.008-11.485l.7-.492A8.263,8.263,0,0,1,1439.9,2377.131Z" fill="#f0f2fc"></path><path id="Path_548" data-name="Path 548" d="M1428.346,2394.975a12.092,12.092,0,0,0,18.754-13.043l-11.889-42.408,26.987-44.967a12.091,12.091,0,0,0-20.734-12.444l-29.67,49.434a12.1,12.1,0,0,0-1.275,9.486l13.295,47.426A12.046,12.046,0,0,0,1428.346,2394.975Z" fill="#0072ff"></path><path id="Path_549" data-name="Path 549" d="M1510.765,2415.814l-3.111-2.479a.963.963,0,0,0-.6-.21h-5.195v10.79h5.194a.957.957,0,0,0,.6-.211l3.112-2.486a.963.963,0,0,0,.362-.752v-3.9A.961.961,0,0,0,1510.765,2415.814Z" fill="#002450"></path><path id="Rectangle_45" data-name="Rectangle 45" d="M.807,0h.967a.807.807,0,0,1,.807.807V13.8a.808.808,0,0,1-.808.808H.807A.807.807,0,0,1,0,13.8V.807A.807.807,0,0,1,.807,0Z" transform="translate(1499.277 2411.215)" fill="#002450"></path><path id="Rectangle_46" data-name="Rectangle 46" d="M.658,0H7.342a0,0,0,0,1,0,0V2.1a0,0,0,0,1,0,0H.658A.658.658,0,0,1,0,1.445V.658A.658.658,0,0,1,.658,0Z" transform="translate(1491.935 2414.243)" fill="#fff"></path><path id="Rectangle_47" data-name="Rectangle 47" d="M.658,0H7.342a0,0,0,0,1,0,0V2.1a0,0,0,0,1,0,0H.658A.658.658,0,0,1,0,1.445V.658A.658.658,0,0,1,.658,0Z" transform="translate(1491.935 2420.694)" fill="#fff"></path><path id="Path_550" data-name="Path 550" d="M1472.969,2421.226l3.11,2.479a.963.963,0,0,0,.6.21h5.2v-10.79h-5.195a.966.966,0,0,0-.6.21l-3.112,2.487a.965.965,0,0,0-.361.752v3.9A.96.96,0,0,0,1472.969,2421.226Z" fill="#002450"></path><path id="Rectangle_48" data-name="Rectangle 48" d="M.808,0h.967a.808.808,0,0,1,.808.808V13.8a.807.807,0,0,1-.807.807H.807A.807.807,0,0,1,0,13.8V.808A.808.808,0,0,1,.808,0Z" transform="translate(1484.456 2425.824) rotate(180)" fill="#002450"></path><path id="Path_551" data-name="Path 551" d="M1760.032,2203.108l21.275,66.346c.8,2.481-.94,4.493-3.877,4.493H1669.505c-2.937,0-5.963-2.012-6.759-4.493l-15.975-49.819c-.8-2.481.94-4.493,3.877-4.493h49.142a4.292,4.292,0,0,0,3.38-1.366l11.4-13.795a4.292,4.292,0,0,1,3.38-1.366h35.324C1756.21,2198.615,1759.236,2200.626,1760.032,2203.108Z" fill="#eaeafa"></path><path id="Path_552" data-name="Path 552" d="M1782.747,2190.1v78.524a5.317,5.317,0,0,1-5.317,5.318H1669.505a5.318,5.318,0,0,1-5.318-5.318v-58.963a5.318,5.318,0,0,1,5.318-5.318h49.142a5.314,5.314,0,0,0,3.818-1.617l15.822-16.327a5.322,5.322,0,0,1,3.819-1.617h35.324A5.317,5.317,0,0,1,1782.747,2190.1Z" fill="#f0f6ff"></path><path id="Path_553" data-name="Path 553" d="M1713.03,2253.83a3.044,3.044,0,0,1-3.038,3.041h-15.214a3.04,3.04,0,0,1,0-6.08h15.214a3.034,3.034,0,0,1,3.038,3.039Z" fill="#0072ff"></path><path id="Path_554" data-name="Path 554" d="M1758.406,2253.83a3.045,3.045,0,0,1-3.039,3.041h-45.375a3.04,3.04,0,1,0,0-6.08h45.375a3.038,3.038,0,0,1,3.039,3.039Z" fill="#dadaf5"></path><path id="Path_555" data-name="Path 555" d="M1716.289,2222.705h2.209V2217.6a1.054,1.054,0,0,1,1.053-1.053h11.044a1.053,1.053,0,0,1,1.048,1.053v5.106h2.213a1.049,1.049,0,0,1,.936,1.52l-8.781,15.71a1.052,1.052,0,0,1-1.881,0l-8.777-15.71A1.049,1.049,0,0,1,1716.289,2222.705Z" fill="#dadaf5"></path><path id="Path_556" data-name="Path 556" d="M1329.854,2203.108l21.275,66.346c.8,2.481-.94,4.493-3.877,4.493H1239.327c-2.937,0-5.963-2.012-6.758-4.493l-15.976-49.819c-.8-2.481.94-4.493,3.877-4.493h49.142a4.292,4.292,0,0,0,3.38-1.366l11.4-13.795a4.292,4.292,0,0,1,3.38-1.366h35.324C1326.032,2198.615,1329.058,2200.626,1329.854,2203.108Z" fill="#eaeafa"></path><path id="Path_557" data-name="Path 557" d="M1352.57,2190.1v78.524a5.318,5.318,0,0,1-5.318,5.318H1239.327a5.317,5.317,0,0,1-5.317-5.318v-58.963a5.317,5.317,0,0,1,5.317-5.318h49.142a5.314,5.314,0,0,0,3.818-1.617l15.822-16.327a5.322,5.322,0,0,1,3.819-1.617h35.324A5.318,5.318,0,0,1,1352.57,2190.1Z" fill="#f0f6ff"></path><path id="Path_558" data-name="Path 558" d="M1303.679,2234.356h-2.209v5.106a1.054,1.054,0,0,1-1.053,1.053h-11.044a1.053,1.053,0,0,1-1.048-1.053v-5.106h-2.214a1.049,1.049,0,0,1-.935-1.52l8.781-15.71a1.052,1.052,0,0,1,1.88,0l8.777,15.71A1.049,1.049,0,0,1,1303.679,2234.356Z" fill="#dadaf5"></path><path id="Path_559" data-name="Path 559" d="M1311.628,2253.83a3.045,3.045,0,0,1-3.039,3.041H1264.6a3.04,3.04,0,0,1,0-6.08h43.989a3.034,3.034,0,0,1,3.039,3.039Z" fill="#0072ff"></path><path id="Path_560" data-name="Path 560" d="M1328.228,2253.83a3.044,3.044,0,0,1-3.038,3.041h-16.6a3.04,3.04,0,1,0,0-6.08h16.6a3.038,3.038,0,0,1,3.038,3.039Z" fill="#dadaf5"></path></g></g></svg>