<svg xmlns="http://www.w3.org/2000/svg" xmlns:xlink="http://www.w3.org/1999/xlink" width="724.175" height="577.992" viewBox="0 0 724.175 577.992"><defs><linearGradient id="linear-gradient" y1="0.5" x2="1" y2="0.5" gradientUnits="objectBoundingBox"><stop offset="0" stop-color="#00c5ff"></stop><stop offset="0.995" stop-color="#0072ff"></stop></linearGradient><linearGradient id="linear-gradient-3" x1="-45.333" y1="0.603" x2="-45.33" y2="0.891" gradientUnits="objectBoundingBox"><stop offset="0.004" stop-color="#fcb3b3"></stop><stop offset="1" stop-color="#fc8e8e"></stop></linearGradient><linearGradient id="linear-gradient-4" x1="-41.167" y1="0.333" x2="-41.21" y2="1.003" xlink:href="#linear-gradient-3"></linearGradient><linearGradient id="linear-gradient-5" x1="-196.187" y1="0.5" x2="-195.187" y2="0.5" xlink:href="#linear-gradient-3"></linearGradient><linearGradient id="linear-gradient-6" x1="-269.95" y1="1.961" x2="-269.95" y2="1.515" xlink:href="#linear-gradient-3"></linearGradient></defs><g id="Group_516" data-name="Group 516" transform="translate(-1146.621 -1169.306)"><g id="Group_337" data-name="Group 337"><g id="Group_298" data-name="Group 298"><path id="Path_561" data-name="Path 561" d="M1868.4,1747.3H1149.019a2.4,2.4,0,1,1,0-4.8H1868.4a2.4,2.4,0,1,1,0,4.8Z" fill="#c5cced"></path></g><rect id="Rectangle_49" data-name="Rectangle 49" width="505.922" height="321.37" rx="12.012" transform="translate(1256.497 1210.288)" fill="#dadaf5" opacity="0.8"></rect><rect id="Rectangle_50" data-name="Rectangle 50" width="505.922" height="321.37" rx="12.012" transform="translate(1239.021 1189.797)" fill="#eaeafa"></rect><rect id="Rectangle_51" data-name="Rectangle 51" width="505.922" height="321.37" rx="12.012" transform="translate(1221.544 1169.306)" fill="#f0f6ff"></rect><path id="Path_562" data-name="Path 562" d="M1580.562,1310.8H1281.778a19.19,19.19,0,0,0,0,38.38h298.784Z" fill="#fff"></path><path id="Path_563" data-name="Path 563" d="M1667.232,1310.8h-78.8v38.38h78.8a19.19,19.19,0,0,0,0-38.38Z" fill="url(#linear-gradient)"></path><rect id="Rectangle_52" data-name="Rectangle 52" width="139.362" height="38.879" rx="7.275" transform="translate(1404.824 1400.808)" fill="url(#linear-gradient)"></rect><g id="Group_303" data-name="Group 303"><g id="Group_302" data-name="Group 302"><g id="Group_299" data-name="Group 299"><path id="Path_564" data-name="Path 564" d="M1443.855,1427.46a6.719,6.719,0,0,0,3.4.959c1.939,0,3.072-1.024,3.072-2.506,0-1.372-.785-2.157-2.767-2.92-2.4-.849-3.879-2.091-3.879-4.161,0-2.288,1.9-3.988,4.75-3.988a6.678,6.678,0,0,1,3.247.719l-.523,1.547a5.855,5.855,0,0,0-2.789-.7c-2.005,0-2.767,1.2-2.767,2.2,0,1.373.893,2.048,2.919,2.832,2.484.959,3.748,2.158,3.748,4.315,0,2.266-1.678,4.227-5.142,4.227a7.593,7.593,0,0,1-3.748-.937Z" fill="#fff"></path></g><g id="Group_300" data-name="Group 300"><path id="Path_565" data-name="Path 565" d="M1465.123,1429.291a9.422,9.422,0,0,1-3.879.7c-4.139,0-7.255-2.615-7.255-7.43a7.308,7.308,0,0,1,7.669-7.714,7.862,7.862,0,0,1,3.487.654l-.458,1.547a6.9,6.9,0,0,0-2.963-.61c-3.443,0-5.731,2.2-5.731,6.057,0,3.6,2.07,5.905,5.644,5.905a7.579,7.579,0,0,0,3.094-.61Z" fill="#fff"></path></g><g id="Group_301" data-name="Group 301"><path id="Path_566" data-name="Path 566" d="M1469.961,1425.151l-1.525,4.619h-1.961l4.99-14.686h2.288l5.011,14.686h-2.026l-1.569-4.619Zm4.816-1.482-1.438-4.227c-.327-.959-.545-1.83-.763-2.68h-.043c-.218.871-.458,1.765-.741,2.658l-1.438,4.249Z" fill="#fff"></path><path id="Path_567" data-name="Path 567" d="M1480.923,1429.77v-14.686h2.07l4.706,7.43a41.639,41.639,0,0,1,2.637,4.772l.043-.022c-.174-1.961-.218-3.748-.218-6.035v-6.145h1.787v14.686h-1.917l-4.663-7.452a46.633,46.633,0,0,1-2.746-4.9l-.065.022c.109,1.852.152,3.617.152,6.058v6.275Z" fill="#fff"></path></g></g></g><path id="Path_568" data-name="Path 568" d="M1647.162,1340.056l-6.067-6.066a10.335,10.335,0,1,0-2.049,2.05l6.066,6.066a1.45,1.45,0,0,0,2.05-2.05Zm-19.582-7.01a7.44,7.44,0,1,1,10.521,0A7.449,7.449,0,0,1,1627.58,1333.046Z" fill="#fff"></path><g id="Group_308" data-name="Group 308"><g id="Group_307" data-name="Group 307"><g id="Group_304" data-name="Group 304"><path id="Path_569" data-name="Path 569" d="M1284.57,1333.449a1.288,1.288,0,0,1,1.307-1.372,1.375,1.375,0,1,1-1.307,1.372Z" fill="#dadaf5"></path></g><g id="Group_305" data-name="Group 305"><path id="Path_570" data-name="Path 570" d="M1297.056,1334.19a7.056,7.056,0,0,1-3.029.61,5.01,5.01,0,0,1-5.251-5.382,5.358,5.358,0,0,1,5.665-5.6,6.417,6.417,0,0,1,2.658.544l-.435,1.482a4.444,4.444,0,0,0-2.223-.5c-2.418,0-3.726,1.787-3.726,3.987a3.616,3.616,0,0,0,3.661,3.944,5.444,5.444,0,0,0,2.353-.523Z" fill="#dadaf5"></path></g><g id="Group_306" data-name="Group 306"><path id="Path_571" data-name="Path 571" d="M1308.714,1329.222c0,3.9-2.7,5.6-5.251,5.6-2.855,0-5.055-2.092-5.055-5.425,0-3.53,2.309-5.6,5.229-5.6C1306.666,1323.8,1308.714,1326,1308.714,1329.222Zm-8.367.109c0,2.31,1.329,4.053,3.2,4.053,1.83,0,3.2-1.721,3.2-4.1,0-1.787-.893-4.053-3.159-4.053S1300.347,1327.327,1300.347,1329.331Z" fill="#dadaf5"></path><path id="Path_572" data-name="Path 572" d="M1311.134,1326.891c0-1.09-.022-1.983-.087-2.855h1.677l.087,1.7h.066a3.635,3.635,0,0,1,3.312-1.939,3.117,3.117,0,0,1,2.985,2.113h.043a4.335,4.335,0,0,1,1.177-1.372,3.6,3.6,0,0,1,2.332-.741c1.394,0,3.464.915,3.464,4.576v6.21h-1.874v-5.971c0-2.026-.741-3.246-2.288-3.246a2.483,2.483,0,0,0-2.266,1.743,3.162,3.162,0,0,0-.152.958v6.516h-1.874v-6.319c0-1.678-.741-2.9-2.2-2.9a2.855,2.855,0,0,0-2.527,2.854v6.363h-1.874Z" fill="#dadaf5"></path></g></g></g><rect id="Rectangle_53" data-name="Rectangle 53" width="123.728" height="47.382" rx="5.045" transform="translate(1301.91 1229.126) rotate(180)" fill="#eaeafa"></rect><g id="Group_311" data-name="Group 311"><g id="Group_309" data-name="Group 309"><path id="Path_573" data-name="Path 573" d="M1201.14,1213.376l-4.9-18.253,2.609-.007,2.292,9.236c.573,2.275,1.089,4.55,1.434,6.311h.056c.308-1.817.9-3.986,1.543-6.345l2.528-9.22,2.58-.007,2.349,9.263c.544,2.167,1.06,4.334,1.348,6.257h.057c.392-2.007.925-4.04,1.515-6.318l2.5-9.22,2.523-.006-5.367,18.278-2.58.006-2.435-9.506a52.982,52.982,0,0,1-1.263-5.959h-.056a55.221,55.221,0,0,1-1.459,5.966l-2.7,9.518Z" fill="#fff"></path><path id="Path_574" data-name="Path 574" d="M1225.578,1213.318l-4.9-18.254,2.608-.006,2.292,9.236c.573,2.275,1.089,4.55,1.434,6.311h.057c.307-1.816.9-3.985,1.542-6.345l2.528-9.22,2.58-.006,2.349,9.263c.544,2.166,1.06,4.333,1.349,6.257h.056c.392-2.007.925-4.041,1.515-6.318l2.5-9.22,2.523-.006-5.367,18.278-2.58.006-2.435-9.506a52.958,52.958,0,0,1-1.263-5.959h-.056a54.971,54.971,0,0,1-1.459,5.965l-2.7,9.519Z" fill="#fff"></path></g><g id="Group_310" data-name="Group 310"><path id="Path_575" data-name="Path 575" d="M1250.016,1213.26l-4.9-18.254,2.609-.006,2.292,9.236c.573,2.275,1.089,4.55,1.434,6.311h.056c.308-1.816.9-3.986,1.543-6.345l2.528-9.22,2.58-.006,2.349,9.263c.544,2.167,1.06,4.333,1.348,6.257h.057c.392-2.006.925-4.04,1.515-6.317l2.5-9.22,2.523-.006-5.367,18.278-2.58.006-2.435-9.506a53,53,0,0,1-1.263-5.959h-.056a55.2,55.2,0,0,1-1.459,5.965l-2.7,9.519Z" fill="#fff"></path></g></g><path id="Path_576" data-name="Path 576" d="M1312.729,1225.016l-6.8,3.271a.634.634,0,0,0-.177,1.034l6.408,6.124a.629.629,0,0,1,0,.919l-1.644,1.572a.7.7,0,0,1-.956,0l-6.408-6.124a.7.7,0,0,0-1.088.163l-3.423,6.5a.689.689,0,0,1-1.246-.085l-7.389-20.811a.664.664,0,0,1,.86-.822l21.775,7.068A.638.638,0,0,1,1312.729,1225.016Z" fill="#dadaf5"></path><g id="Group_333" data-name="Group 333"><path id="Path_577" data-name="Path 577" d="M1660.875,1698.07l-10.034.748c-.241,7.143,6.75,21.923-2.445,26.967-11.255,6.174-15.891,8.451-17.755,15.071a1.145,1.145,0,0,0,1.166,1.47l33.469-2.494a1.1,1.1,0,0,0,1-1.394C1665.38,1735.247,1659.777,1704.132,1660.875,1698.07Z" fill="#0072ff"></path><path id="Path_578" data-name="Path 578" d="M1824.9,1698.042l-3.068,9.584c6.532,2.9,22.855,1.959,24.085,12.374,1.505,12.749,1.879,17.9,7.318,22.11a1.146,1.146,0,0,0,1.8-.53l10.232-31.964a1.1,1.1,0,0,0-.919-1.448C1861.053,1707.8,1830.107,1701.333,1824.9,1698.042Z" fill="#0072ff"></path><g id="Group_332" data-name="Group 332"><g id="Group_312" data-name="Group 312"><path id="Path_579" data-name="Path 579" d="M1689.345,1563.163s-74.773,15.445-80.118,32.632c-5.316,17.217,33.252,112.751,33.252,112.751h22.533l-15.977-95.534,72.942-8.889s.658-23.355,11.042-40.96Z" fill="#002450"></path><path id="Path_580" data-name="Path 580" d="M1834.941,1696.074l-1.776,14.492-.087.713-.6,4.816s-122.429-25.245-127.522-27.675c-5.078-2.415,11.335-91.858,11.335-91.858s3.507-23.107,15.962-39.3l7.669.946.771.087,27.7,3.42c12.426,30.251-28.228,102.96-28.228,102.96C1748.771,1662.724,1834.941,1696.074,1834.941,1696.074Z" fill="#002450"></path></g><g id="Group_331" data-name="Group 331"><g id="Group_330" data-name="Group 330"><g id="Group_329" data-name="Group 329"><path id="Path_581" data-name="Path 581" d="M1627.1,1508.366l-13.461,6.053a8.345,8.345,0,0,0-4.186,11.028l.355.789a8.331,8.331,0,0,0,11.021,4.169l13.46-6.053a8.327,8.327,0,0,0,4.177-11.005l-.355-.789A8.341,8.341,0,0,0,1627.1,1508.366Z" fill="#eaeafa"></path><path id="Path_582" data-name="Path 582" d="M1626.8,1530.648a13.382,13.382,0,0,1-3.18-25.081l43.669-21.66,16.958-55.509a13.382,13.382,0,0,1,25.6,7.819l-18.642,61.025a13.4,13.4,0,0,1-6.853,8.079l-48.834,24.223A13.335,13.335,0,0,1,1626.8,1530.648Z" fill="#0072ff"></path><g id="Group_313" data-name="Group 313"><path id="Path_583" data-name="Path 583" d="M1685.956,1563.773c.677,11.28,84.235,10.563,83.542-.717-4.28-72.535,14.4-124.041,3.24-135.717-1.24-1.3-5.33-9.257-23.511-15.769-.719-.26-1.469-.519-2.233-.762-.25-.087-.515-.173-.781-.259-.56-.14-1.074-.251-1.618-.361-.047,0-.125-.027-.171-.026a84.539,84.539,0,0,0-9.891-1.262,82.293,82.293,0,0,0-8.331-.157c-.371.009-.742.019-1.113.044-.727.018-1.453.068-2.194.118-.587.046-1.175.061-1.807.17a69.286,69.286,0,0,0-8.005,1.026c-.878.163-1.771.34-2.649.533q-1.131.238-2.261.523c-7.765,1.964-15.09,5.4-20,11.177C1682.9,1452.288,1687.1,1510.948,1685.956,1563.773Z" fill="#0072ff"></path></g><g id="Group_328" data-name="Group 328"><g id="Group_316" data-name="Group 316"><path id="Path_584" data-name="Path 584" d="M1708.173,1411.157a14.267,14.267,0,0,0,5.817,8.331,25.257,25.257,0,0,0,14.279,4.585c.511.018,1.037.019,1.547.006,9.991-.257,17.9-5.49,19.411-12.509-.719-.26-1.469-.519-2.233-.762-.25-.087-.515-.173-.781-.259-.56-.14-1.074-.251-1.618-.361-.047,0-.125-.027-.171-.026a84.539,84.539,0,0,0-9.891-1.262c-3.128-.059-6.3-.117-9.444-.113-.727.018-1.453.068-2.194.118-.587.046-1.175.061-1.807.17a69.286,69.286,0,0,0-8.005,1.026c-.878.163-1.771.34-2.649.533Q1709.3,1410.872,1708.173,1411.157Z" fill="#fff"></path><path id="Path_585" data-name="Path 585" d="M1710.434,1410.634c1.38,6.093,8.808,10.885,17.9,11.131,9.509.266,17.48-4.535,18.661-10.957-.25-.087-.515-.173-.781-.259-.56-.14-1.074-.251-1.618-.361-.047,0-.125-.027-.171-.026q-2.124-.409-4.289-.679l-.9-34.845a10.249,10.249,0,1,0-20.492.527l.875,34.025c-2.146.2-4.336.5-6.538.911C1712.2,1410.264,1711.312,1410.441,1710.434,1410.634Z" fill="url(#linear-gradient-3)"></path><g id="Group_315" data-name="Group 315"><path id="Path_586" data-name="Path 586" d="M1711.32,1354.138l-2.5,25.151a18.849,18.849,0,1,0,37.512,3.734l2.5-25.151a18.849,18.849,0,0,0-37.513-3.734Z" fill="url(#linear-gradient-4)"></path><path id="Path_587" data-name="Path 587" d="M1745.542,1374.794c1.867.307,3.511-1.2,4.622-2.73a21.979,21.979,0,0,0,3.8-8.995c.231-1.335.232-3.017-.9-3.829a2.452,2.452,0,0,0-2.353-.251,5.371,5.371,0,0,0-2,1.424,10.352,10.352,0,0,0-2.713,6.4Z" fill="url(#linear-gradient-5)"></path><g id="Group_314" data-name="Group 314"><path id="Path_588" data-name="Path 588" d="M1703.018,1354.384c8.173,5.407,39.059.657,39.593.43.05,0,.114.141.137.391.315,2.542-.069,16.669,1.293,18.809,1.48,2.331,1.427-2.781,1.886-4.06.434-1.275,2.471-9.357,2.471-9.357a22.588,22.588,0,0,1,2.041-6.974c1.684-3.258,4.952-10.852,1.2-15.917-3.729-5.07-8.435-2.308-8.435-2.308s-10.788-12.293-22.167-11.07-6.564,10.071-6.564,10.071-5.74-1.527-9.863-.608c-2.078.422-3.718,1.483-4.044,3.631C1700.564,1337.422,1694.843,1348.953,1703.018,1354.384Z" fill="#002450"></path><path id="Path_589" data-name="Path 589" d="M1703.018,1354.384c8.173,5.407,39.059.657,39.593.43.05,0,.114.141.137.391a3.386,3.386,0,0,0,.478-.55c-.725-.738-2.448-.3-3.4-.283-1.384.029-2.77.033-4.135-.015a51.849,51.849,0,0,1-8.217-.789c-5.645-1.056-11.179-3.333-15.286-7.333-3.524-3.423-5.8-7.8-7.575-12.444-2.078.422-3.718,1.483-4.044,3.631C1700.564,1337.422,1694.843,1348.953,1703.018,1354.384Z" fill="#002450"></path></g></g></g><g id="Group_327" data-name="Group 327"><g id="Group_317" data-name="Group 317"><path id="Path_590" data-name="Path 590" d="M1715.061,1364.134a9.119,9.119,0,0,0,6.708-.477c.421-.217.393-.6-.055-.752a9.177,9.177,0,0,0-6.7.476C1714.585,1363.6,1714.612,1363.979,1715.061,1364.134Z" fill="#121c7c"></path></g><g id="Group_318" data-name="Group 318"><path id="Path_591" data-name="Path 591" d="M1732.835,1363.644a9.1,9.1,0,0,0,6.671.887c.457-.123.5-.507.094-.754a9.165,9.165,0,0,0-6.657-.887C1732.486,1363.013,1732.425,1363.4,1732.835,1363.644Z" fill="#121c7c"></path></g><g id="Group_325" data-name="Group 325"><g id="Group_319" data-name="Group 319"><path id="Path_592" data-name="Path 592" d="M1729.524,1393.436a5.914,5.914,0,0,0,5.066-3.005.712.712,0,0,0-1.246-.69,4.42,4.42,0,0,1-5.4,1.967.712.712,0,0,0-.48,1.341A6.281,6.281,0,0,0,1729.524,1393.436Z" fill="#fff"></path></g><g id="Group_320" data-name="Group 320"><path id="Path_593" data-name="Path 593" d="M1731.544,1373.5a1.354,1.354,0,1,0,1.369-1.338A1.354,1.354,0,0,0,1731.544,1373.5Z" fill="#121c7c"></path></g><g id="Group_321" data-name="Group 321"><path id="Path_594" data-name="Path 594" d="M1718.131,1373.351a1.354,1.354,0,1,0,1.369-1.338A1.354,1.354,0,0,0,1718.131,1373.351Z" fill="#121c7c"></path></g><g id="Group_322" data-name="Group 322"><path id="Path_595" data-name="Path 595" d="M1711.379,1374.126a6.743,6.743,0,1,1,6.667,6.816A6.75,6.75,0,0,1,1711.379,1374.126Zm1.141.013a5.6,5.6,0,1,0,5.664-5.539A5.608,5.608,0,0,0,1712.52,1374.139Z" fill="#fff"></path></g><g id="Group_323" data-name="Group 323"><path id="Path_596" data-name="Path 596" d="M1726.76,1374.3a6.741,6.741,0,1,1,6.664,6.816A6.748,6.748,0,0,1,1726.76,1374.3Zm1.14.013a5.6,5.6,0,1,0,5.663-5.539A5.607,5.607,0,0,0,1727.9,1374.312Z" fill="#fff"></path></g><g id="Group_324" data-name="Group 324"><path id="Path_597" data-name="Path 597" d="M1727.091,1374.729l.764-.845a3.109,3.109,0,0,0-2.339-1.008,2.4,2.4,0,0,0-1.679,1.051l.91.687a1.3,1.3,0,0,1,.878-.6A2.137,2.137,0,0,1,1727.091,1374.729Z" fill="#fff"></path></g></g><g id="Group_326" data-name="Group 326"><path id="Path_598" data-name="Path 598" d="M1723.116,1385.613l5.212.058a.49.49,0,0,0,.447-.709,29.968,29.968,0,0,1-2.02-5.348.462.462,0,0,0-.46-.357l-.99-.011a.486.486,0,0,0-.48.346,29.082,29.082,0,0,1-2.14,5.3A.5.5,0,0,0,1723.116,1385.613Z" fill="url(#linear-gradient-6)"></path></g></g></g></g></g></g></g></g><g id="Group_334" data-name="Group 334"><path id="Path_599" data-name="Path 599" d="M1523.966,1355.385a78.089,78.089,0,1,0,13.436,109.607A78.09,78.09,0,0,0,1523.966,1355.385Z" fill="none"></path><path id="Path_600" data-name="Path 600" d="M1627.846,1527.278a78.514,78.514,0,0,1-8.426-6.872q-4-2.984-7.641-6.278a7.111,7.111,0,0,0-4.042,1.077,9.014,9.014,0,0,1-1.965.723c-.342.142-.851.362-.9.617a1.36,1.36,0,0,0,.46,1.062,3.794,3.794,0,0,0,3.658,1.015,7.94,7.94,0,0,1,3.451-.485c.4.05.8.157,1.2.24l-3.493,4.118c-1.01,1.191-2.027,2.374-3.023,3.576a9.97,9.97,0,0,1-1.306,1.667c-1.229.943-2.557,1.759-3.859,2.6a1.838,1.838,0,0,1-.636.123,3.986,3.986,0,0,0-2.944,1.817c-.5.855-.134,1.538.845,1.651a1.863,1.863,0,0,1,.826.2,5.511,5.511,0,0,0,4.157,1.229,1.12,1.12,0,0,1,1.382.752,1.344,1.344,0,0,0,1.335.834,11.511,11.511,0,0,1,1.545.063c.681.106,1.56.082,1.983.494a3.62,3.62,0,0,0,4.022.613c1.432-.634,2.787-1.445,4.159-2.209s2.737-1.548,4.083-2.358a35.613,35.613,0,0,0,4.035-2.566,37.159,37.159,0,0,0,2.951-2.82A6.336,6.336,0,0,1,1627.846,1527.278Z" fill="#fcb3b3"></path><path id="Path_601" data-name="Path 601" d="M1666.463,1553.611,1555.142,1466.6a93.558,93.558,0,0,0-154.349-105.517c-30.2,40.579-22.295,98.589,17.625,129.659a93.567,93.567,0,0,0,124.833-8.929l111.322,87.009a9.655,9.655,0,0,0,11.89-15.214ZM1537.4,1464.992a78.089,78.089,0,1,1-13.436-109.607A78.091,78.091,0,0,1,1537.4,1464.992Z" fill="#c8c8ee"></path></g><g id="Group_335" data-name="Group 335"><path id="Path_602" data-name="Path 602" d="M1537.407,1464.987a78.126,78.126,0,0,1-131.559-13.462v-.011a78.141,78.141,0,0,1,86.688-110.912h.011a78.119,78.119,0,0,1,44.861,124.386Z" fill="none"></path></g><path id="Path_603" data-name="Path 603" d="M1652.989,1543.874c-.412-.06-.812-.144-1.216-.171a7.915,7.915,0,0,0-3.418.68,3.794,3.794,0,0,1-3.71-.806,1.361,1.361,0,0,1-.519-1.034c.03-.256.526-.506.859-.667a8.971,8.971,0,0,0,1.921-.834c1.753-1.472,4-1.051,5.953-1.7,2.06-.68,4.178-.36,6.274-.349,1.233.006,2.469.14,3.7.261a6.922,6.922,0,0,0,3.322-.436c2.176-.866,4.426-1.564,6.548-2.542,2.416-1.112,4.725-2.455,7.254-3.789,3.382,3.489,6.9,7.119,10.5,10.825-.84.282-1.586.546-2.342.782-3.8,1.189-7.632,2.3-11.405,3.58a15.811,15.811,0,0,0-6.294,4.15c-1.227,1.276-2.307,2.707-3.616,3.888a35.792,35.792,0,0,1-3.882,2.791c-1.3.886-2.616,1.745-3.943,2.587s-2.633,1.727-4.027,2.442a3.621,3.621,0,0,1-4.05-.384c-.446-.388-1.322-.313-2.008-.381a11.548,11.548,0,0,0-1.545.025,1.345,1.345,0,0,1-1.381-.756,1.119,1.119,0,0,0-1.422-.673,5.506,5.506,0,0,1-4.22-.99,1.863,1.863,0,0,0-.837-.152c-.984-.057-1.389-.719-.938-1.6a3.987,3.987,0,0,1,2.837-1.981,1.851,1.851,0,0,0,.628-.159c1.252-.918,2.531-1.808,3.7-2.82a9.92,9.92,0,0,0,1.21-1.739c.925-1.256,1.874-2.495,2.814-3.741Z" fill="#fcb3b3"></path><path id="Path_604" data-name="Path 604" d="M1690.364,1527.711l-12.611,4.2a7.517,7.517,0,0,0-4.751,9.5l.247.739a7.5,7.5,0,0,0,9.5,4.735l12.611-4.2a7.5,7.5,0,0,0,4.74-9.482l-.246-.74A7.514,7.514,0,0,0,1690.364,1527.711Z" fill="#eaeafa"></path><g id="Group_336" data-name="Group 336"><path id="Path_605" data-name="Path 605" d="M1688.4,1548.488a14.183,14.183,0,0,1-2.567-26.671l46.953-21.55L1752.527,1442c2.512-7.418,9.509-21.1,16.924-18.608,7.418,2.513,12.454,20.29,9.942,27.71l-21.7,64.051a14.186,14.186,0,0,1-7.516,8.339l-52.507,24.1A14.132,14.132,0,0,1,1688.4,1548.488Z" fill="#0072ff"></path></g><path id="Path_606" data-name="Path 606" d="M1492.535,1340.6l-86.688,110.912a78.221,78.221,0,0,1-7.844-28.792l64.7-82.776A78.228,78.228,0,0,1,1492.535,1340.6Z" fill="#4f5cd3" opacity="0.05"></path><path id="Path_607" data-name="Path 607" d="M1551.8,1398.678l-75.278,96.314a78.27,78.27,0,0,1-61.788-29.486l93.529-119.665a78.088,78.088,0,0,1,43.537,52.837Z" fill="#4f5cd3" opacity="0.05"></path><path id="Path_608" data-name="Path 608" d="M1291.758,1684.69v23.319a5.5,5.5,0,0,1-5.5,5.5h-71.525a5.5,5.5,0,0,1-5.495-5.5V1684.69a5.49,5.49,0,0,1,5.495-5.486h71.525A5.49,5.49,0,0,1,1291.758,1684.69Z" fill="#f0f6ff"></path><path id="Path_609" data-name="Path 609" d="M1307.572,1640.966v23.319a5.5,5.5,0,0,1-5.5,5.495h-34.421a5.5,5.5,0,0,1-5.495-5.495v-23.319a5.489,5.489,0,0,1,5.495-5.486h34.421A5.489,5.489,0,0,1,1307.572,1640.966Z" fill="#f6f6fe"></path><path id="Path_610" data-name="Path 610" d="M1221.69,1591.755h71.525a5.49,5.49,0,0,1,5.5,5.487v23.319a5.5,5.5,0,0,1-5.5,5.495H1221.69a5.5,5.5,0,0,1-5.495-5.495v-23.319A5.49,5.49,0,0,1,1221.69,1591.755Z" fill="#f0f6ff"></path><path id="Path_611" data-name="Path 611" d="M1247.02,1669.78h-71.525a5.5,5.5,0,0,1-5.495-5.495v-23.319a5.489,5.489,0,0,1,5.495-5.486h71.525a5.489,5.489,0,0,1,5.495,5.486v23.319A5.5,5.5,0,0,1,1247.02,1669.78Z" fill="#f0f6ff"></path></g></g></svg>