<svg xmlns="http://www.w3.org/2000/svg" width="750" height="750" viewBox="0 0 750 750"><g id="Group_113" data-name="Group 113" transform="translate(30 44)"><g id="Group_112" data-name="Group 112"><g id="surface1" transform="translate(-30 -44)"><path id="Path_105" data-name="Path 105" d="M637.5,71.063V0h-25V63.5a88.124,88.124,0,0,0-12.5-1H575V0H550V62.5H512.5V0h-25V62.5H450V0H425V62.5H387.5V0h-25V62.5H325V0H300V62.5H262.5V0h-25V62.5H200V0H175V62.5H150a88.136,88.136,0,0,0-12.5,1V0h-25V71.063A87.928,87.928,0,0,0,71.063,112.5H0v25H63.5a88.136,88.136,0,0,0-1,12.5v25H0v25H62.5v37.5H0v25H62.5V300H0v25H62.5v37.5H0v25H62.5V425H0v25H62.5v37.5H0v25H62.5V550H0v25H62.5v25a88.124,88.124,0,0,0,1,12.5H0v25H71.063A87.926,87.926,0,0,0,112.5,678.938V750h25V686.5a88.093,88.093,0,0,0,12.5,1h25V750h25V687.5h37.5V750h25V687.5H300V750h25V687.5h37.5V750h25V687.5H425V750h25V687.5h37.5V750h25V687.5H550V750h25V687.5h25a88.081,88.081,0,0,0,12.5-1V750h25V678.938A87.925,87.925,0,0,0,678.938,637.5H750v-25H686.5a88.081,88.081,0,0,0,1-12.5V575H750V550H687.5V512.5H750v-25H687.5V450H750V425H687.5V387.5H750v-25H687.5V325H750V300H687.5V262.5H750v-25H687.5V200H750V175H687.5V150a88.093,88.093,0,0,0-1-12.5H750v-25H678.938A87.926,87.926,0,0,0,637.5,71.063ZM662.5,600A62.578,62.578,0,0,1,600,662.5H150A62.578,62.578,0,0,1,87.5,600V150A62.578,62.578,0,0,1,150,87.5H600A62.578,62.578,0,0,1,662.5,150Zm0,0" fill="#fff"></path><path id="Path_106" data-name="Path 106" d="M587.5,125h-425A37.5,37.5,0,0,0,125,162.5v425A37.5,37.5,0,0,0,162.5,625h425A37.5,37.5,0,0,0,625,587.5v-425A37.5,37.5,0,0,0,587.5,125ZM600,587.5A12.5,12.5,0,0,1,587.5,600h-425A12.5,12.5,0,0,1,150,587.5v-425A12.5,12.5,0,0,1,162.5,150h425A12.5,12.5,0,0,1,600,162.5Zm0,0" fill="#fff"></path><path id="Path_107" data-name="Path 107" d="M550,175h25v25H550Zm0,0" fill="#fff"></path><path id="Path_108" data-name="Path 108" d="M175,550h25v25H175Zm0,0" fill="#fff"></path><path id="Path_109" data-name="Path 109" d="M175,200v37.5h25V200h37.5V175H200A25,25,0,0,0,175,200Zm0,0" fill="#fff"></path><path id="Path_110" data-name="Path 110" d="M550,550H512.5v25H575V512.5H550Zm0,0" fill="#fff"></path></g></g></g></svg>