<svg xmlns="http://www.w3.org/2000/svg" width="425.416" height="512" viewBox="0 0 425.416 512"><g id="Group_126" data-name="Group 126" transform="translate(-166 -3)"><g id="Group_125" data-name="Group 125"><g id="Group_124" data-name="Group 124"><g id="_001-ram-1" data-name="001-ram-1" transform="translate(122.708 3)"><g id="Group_113" data-name="Group 113"><g id="Group_112" data-name="Group 112"><path id="Path_99" data-name="Path 99" d="M235.6,433.271H195.368a5.263,5.263,0,0,1-5.257-5.256V83.985a5.262,5.262,0,0,1,5.257-5.256H235.5a7.287,7.287,0,0,0,0-14.574H195.368a19.852,19.852,0,0,0-19.83,19.829V428.013a19.852,19.852,0,0,0,19.83,19.829H235.6a7.286,7.286,0,1,0,0-14.571Z" fill="#fff"></path></g></g><g id="Group_115" data-name="Group 115"><g id="Group_114" data-name="Group 114"><path id="Path_100" data-name="Path 100" d="M316.631,64.156H272.638a7.287,7.287,0,0,0,0,14.574h43.993a5.262,5.262,0,0,1,5.256,5.256V428.015a5.262,5.262,0,0,1-5.256,5.256h-43.9a7.287,7.287,0,0,0,0,14.574h43.9a19.851,19.851,0,0,0,19.829-19.829V83.985A19.852,19.852,0,0,0,316.631,64.156Z" fill="#fff"></path></g></g><g id="Group_117" data-name="Group 117"><g id="Group_116" data-name="Group 116"><path id="Path_101" data-name="Path 101" d="M447.025,197.754a21.707,21.707,0,0,0,21.683-21.682v-19.3a21.707,21.707,0,0,0-21.683-21.682H400.616V108.176h46.408a21.707,21.707,0,0,0,21.683-21.682v-19.3a21.707,21.707,0,0,0-21.683-21.682H400.615V28.258A28.289,28.289,0,0,0,372.358,0H139.641a28.29,28.29,0,0,0-28.258,28.258V45.51H64.974A21.707,21.707,0,0,0,43.292,67.192v19.3a21.707,21.707,0,0,0,21.682,21.682h46.409v26.913H64.974A21.707,21.707,0,0,0,43.292,156.77v19.3a21.707,21.707,0,0,0,21.682,21.682h46.409v26.914H64.974a21.707,21.707,0,0,0-21.682,21.682v19.3a21.707,21.707,0,0,0,21.682,21.682h46.409v26.914H64.974a21.707,21.707,0,0,0-21.682,21.682v19.3a21.707,21.707,0,0,0,21.682,21.682h46.409v26.913H64.974a21.707,21.707,0,0,0-21.682,21.682v19.3a21.707,21.707,0,0,0,21.682,21.682h46.409v17.253A28.29,28.29,0,0,0,139.641,512H372.358a28.289,28.289,0,0,0,28.257-28.258V466.49h46.409a21.707,21.707,0,0,0,21.683-21.682v-19.3a21.707,21.707,0,0,0-21.683-21.682H400.615V376.912h46.409a21.707,21.707,0,0,0,21.683-21.682v-19.3a21.707,21.707,0,0,0-21.683-21.682H400.615V287.333h46.409a21.707,21.707,0,0,0,21.683-21.682v-19.3a21.707,21.707,0,0,0-21.683-21.682H400.615V197.754ZM400.616,60.083h46.408a7.118,7.118,0,0,1,7.11,7.109v19.3a7.118,7.118,0,0,1-7.11,7.109H400.616Zm0,89.579h46.408a7.118,7.118,0,0,1,7.11,7.109v19.3a7.118,7.118,0,0,1-7.11,7.109H400.616ZM111.384,451.917H64.974a7.117,7.117,0,0,1-7.109-7.109v-19.3a7.117,7.117,0,0,1,7.109-7.109h46.409v33.519Zm0-89.579H64.974a7.117,7.117,0,0,1-7.109-7.109v-19.3a7.117,7.117,0,0,1,7.109-7.109h46.409v33.519Zm0-89.579H64.974a7.117,7.117,0,0,1-7.109-7.109v-19.3a7.117,7.117,0,0,1,7.109-7.109h46.409v33.518Zm0-89.578H64.974a7.117,7.117,0,0,1-7.109-7.109v-19.3a7.117,7.117,0,0,1,7.109-7.109h46.409v33.519Zm0-89.579H64.974a7.117,7.117,0,0,1-7.109-7.109v-19.3a7.117,7.117,0,0,1,7.109-7.109h46.409V93.6Zm274.658,390.14a13.7,13.7,0,0,1-13.684,13.685H139.641a13.7,13.7,0,0,1-13.685-13.685V28.258a13.7,13.7,0,0,1,13.685-13.685H372.358a13.7,13.7,0,0,1,13.684,13.685ZM447.023,418.4a7.118,7.118,0,0,1,7.11,7.109v19.3a7.118,7.118,0,0,1-7.11,7.109H400.615V418.4Zm0-89.579a7.118,7.118,0,0,1,7.11,7.109v19.3a7.118,7.118,0,0,1-7.11,7.109H400.615V328.819Zm0-89.578a7.118,7.118,0,0,1,7.11,7.109v19.3a7.118,7.118,0,0,1-7.11,7.109H400.615V239.241h46.408Z" fill="#fff"></path></g></g><g id="Group_119" data-name="Group 119"><g id="Group_118" data-name="Group 118"><path id="Path_102" data-name="Path 102" d="M287.875,306.164a3.834,3.834,0,0,0,2.909-3.72v-5.669a3.829,3.829,0,0,0-5.033-3.64q-11.667,3.87-27.247,8.78a15.4,15.4,0,0,0-2.6-4.118,13.073,13.073,0,0,0-3.172-2.672,14.82,14.82,0,0,0-3.711-1.465,24,24,0,0,0-3.729-.686q-1.634-.147-3.711-.148a20.637,20.637,0,0,0-8.218,1.484,12.7,12.7,0,0,0-5.454,4.342,19.6,19.6,0,0,0-2.968,6.66,36.71,36.71,0,0,0-.946,8.812v10.86a3.833,3.833,0,0,0,3.833,3.833h59.12a3.835,3.835,0,0,0,3.834-3.834v-5.84a3.833,3.833,0,0,0-3.833-3.833H260.025v-2.226Zm-36.089,9.146H233.9v-4.49a3.259,3.259,0,0,1,.983-2.393,5.618,5.618,0,0,1,2.523-1.41,20.858,20.858,0,0,1,2.8-.593,18.715,18.715,0,0,1,2.449-.167,16.734,16.734,0,0,1,2.523.2,19.9,19.9,0,0,1,2.931.7,5.965,5.965,0,0,1,2.634,1.614,3.777,3.777,0,0,1,1.039,2.672Z" fill="#fff"></path></g></g><g id="Group_121" data-name="Group 121"><g id="Group_120" data-name="Group 120"><path id="Path_103" data-name="Path 103" d="M288.242,258.536a3.134,3.134,0,0,0,2.542-3.077v-6.852a3.133,3.133,0,0,0-3.793-3.063l-60.52,13.045A3.133,3.133,0,0,0,224,261.652v6.89a3.133,3.133,0,0,0,2.471,3.062l60.52,13.079a3.133,3.133,0,0,0,3.8-3.061v-6.9a3.133,3.133,0,0,0-2.573-3.083L276.5,269.513v-8.72Zm-20.054,10.048L243.4,265.06l24.786-3.377Z" fill="#fff"></path></g></g><g id="Group_123" data-name="Group 123"><g id="Group_122" data-name="Group 122"><path id="Path_104" data-name="Path 104" d="M288.478,225.107l-44.963-.282,45.345-7.866a2.321,2.321,0,0,0,1.925-2.287v-6.151a2.32,2.32,0,0,0-1.957-2.293q-7.317-1.156-21.53-3.591-16.252-2.782-23.487-3.9l44.666-.282a2.323,2.323,0,0,0,2.307-2.322v-5.315a2.322,2.322,0,0,0-2.322-2.322H226.319A2.322,2.322,0,0,0,224,190.822v11.344a2.322,2.322,0,0,0,1.927,2.288l42.6,7.348-42.57,6.811A2.321,2.321,0,0,0,224,220.9v11.876a2.322,2.322,0,0,0,2.322,2.322h62.143a2.324,2.324,0,0,0,2.323-2.322v-5.352A2.322,2.322,0,0,0,288.478,225.107Z" fill="#fff"></path></g></g></g></g></g></g></svg>