<svg xmlns="http://www.w3.org/2000/svg" width="512" height="384" viewBox="0 0 512 384"><g id="Group_114" data-name="Group 114" transform="translate(-101 -30)"><g id="_002-hard-drive_1_" data-name="002-hard-drive (1)" transform="translate(101 -34)"><g id="Group_113" data-name="Group 113"><g id="Group_112" data-name="Group 112"><path id="Path_99" data-name="Path 99" d="M128,362.667a21.333,21.333,0,1,0-21.333-21.333A21.341,21.341,0,0,0,128,362.667Z" fill="#fff"></path><path id="Path_100" data-name="Path 100" d="M64,362.667a21.333,21.333,0,1,0-21.333-21.334A21.341,21.341,0,0,0,64,362.667Z" fill="#fff"></path><path id="Path_101" data-name="Path 101" d="M507.968,302.187c-.021-.064-.021-.128-.043-.192L401.152,88.32a10.863,10.863,0,0,0-.683-1.152A42.845,42.845,0,0,0,362.624,64H149.291a42.828,42.828,0,0,0-37.8,23.1,8.977,8.977,0,0,0-.725,1.237L3.989,302.016c-.064.149-.064.3-.128.448A42.327,42.327,0,0,0,0,320v85.333A42.71,42.71,0,0,0,42.667,448H469.334A42.71,42.71,0,0,0,512,405.333V320A41.926,41.926,0,0,0,507.968,302.187ZM129.3,99.029a8.645,8.645,0,0,0,.832-1.429,21.155,21.155,0,0,1,19.2-12.245H362.666a21.132,21.132,0,0,1,19.2,12.245,12.745,12.745,0,0,0,.789,1.365l89.28,178.624c-.875-.043-1.707-.256-2.6-.256H42.667c-.9,0-1.728.213-2.6.256Zm361.366,306.3a21.368,21.368,0,0,1-21.333,21.333H42.667a21.368,21.368,0,0,1-21.333-21.333V320a21.368,21.368,0,0,1,21.333-21.333H469.334A21.368,21.368,0,0,1,490.667,320Z" fill="#fff"></path><path id="Path_102" data-name="Path 102" d="M458.667,384H53.333a10.667,10.667,0,1,0,0,21.334H458.666a10.667,10.667,0,0,0,0-21.334Z" fill="#fff"></path></g></g></g></g></svg>