<svg xmlns="http://www.w3.org/2000/svg" xmlns:xlink="http://www.w3.org/1999/xlink" width="282.84" height="355.894" viewBox="0 0 282.84 355.894"><defs><linearGradient id="linear-gradient" y1="0.5" x2="1" y2="0.5" gradientUnits="objectBoundingBox"><stop offset="0" stop-color="#00c6ff"></stop><stop offset="1" stop-color="#0072ff"></stop></linearGradient><linearGradient id="linear-gradient-25" x1="0" y1="0.5" x2="1" y2="0.5" xlink:href="#linear-gradient"></linearGradient><linearGradient id="linear-gradient-29" x1="0" y1="0.5" x2="1" y2="0.5" xlink:href="#linear-gradient"></linearGradient><linearGradient id="linear-gradient-33" x1="0" y1="0.5" x2="1" y2="0.5" xlink:href="#linear-gradient"></linearGradient></defs><g id="Group_73" data-name="Group 73" transform="translate(-140.331 -19.73)"><g id="Group_72" data-name="Group 72"><path id="Path_1" data-name="Path 1" d="M397.5,253.325a4.4,4.4,0,0,1-2.265-.627l-13.58-8.141.823-1.372,13.58,8.142a2.8,2.8,0,0,0,2.857.016l22.1-12.927a1.112,1.112,0,0,0-.034-1.939L391.53,220.7l.754-1.41,29.457,15.774a2.708,2.708,0,0,1,.085,4.728l-22.1,12.926A4.4,4.4,0,0,1,397.5,253.325Z" fill="#b2d3ea"></path><path id="Path_2" data-name="Path 2" d="M342.575,375.624a5.7,5.7,0,0,1-2.78-.72l-54.2-30.168a2.493,2.493,0,0,1-.015-4.349l24.527-13.832a.853.853,0,0,0,.005-1.48l-27.288-15.669a2.45,2.45,0,0,1-.089-4.193l11.148-7.064.855,1.35L283.6,306.563a.851.851,0,0,0,.03,1.457l27.288,15.669a2.451,2.451,0,0,1-.015,4.257l-24.528,13.832a.9.9,0,0,0,.006,1.562l54.195,30.168a4.136,4.136,0,0,0,4.14-.076l20.608-12.669a.382.382,0,0,0,.187-.335.392.392,0,0,0-.188-.335L350.4,351.026l.83-1.365,14.915,9.066a1.991,1.991,0,0,1,.008,3.4L345.545,374.8A5.724,5.724,0,0,1,342.575,375.624Z" fill="#b2d3ea"></path><g id="Group_8" data-name="Group 8"><path id="Path_3" data-name="Path 3" d="M365.982,254.147l-26.128-15.085c-1.6-.926-1.4-2.543.449-3.612l25.229-14.566a6.956,6.956,0,0,1,6.256-.26l26.129,15.086c1.6.926,1.4,2.543-.449,3.612l-25.23,14.566A6.953,6.953,0,0,1,365.982,254.147Z" fill="#b2d3ea"></path><g id="Group_2" data-name="Group 2"><path id="Path_4" data-name="Path 4" d="M406.585,224.22h0V212.93l-25.315-.014-8.749-5.051c-2.009-1.16-5.516-1.014-7.835.324l-8.163,4.714-25.337-.015V224.5a2.27,2.27,0,0,0,1.345,2.1l32.719,18.89c2.008,1.159,5.515,1.014,7.834-.325l31.593-18.24C406.014,226.151,406.66,225.151,406.585,224.22Z" fill="url(#linear-gradient)"></path><path id="Path_5" data-name="Path 5" d="M368.886,207.088a9.048,9.048,0,0,0-4.2,1.1l-8.163,4.714-25.337-.015V224.5a2.27,2.27,0,0,0,1.345,2.1l32.719,18.89a7.094,7.094,0,0,0,3.636.777Z" fill="url(#linear-gradient)"></path><path id="Path_6" data-name="Path 6" d="M334.053,212.89l-2.867,0V224.5a2.27,2.27,0,0,0,1.345,2.1l1.522.879Z" fill="#5793ce"></path><path id="Path_7" data-name="Path 7" d="M365.754,245.735a8.921,8.921,0,0,0,6.262-.072V232.481h-6.262Z" fill="#fff"></path><path id="Path_8" data-name="Path 8" d="M365.25,233.919l-32.719-18.89c-2.008-1.159-1.756-3.184.563-4.523l31.592-18.24c2.319-1.339,5.826-1.484,7.835-.325l32.718,18.891c2.008,1.159,1.756,3.184-.562,4.523L373.084,233.6C370.765,234.933,367.258,235.079,365.25,233.919Z" fill="#d4ecff"></path><path id="Path_9" data-name="Path 9" d="M365.839,230.519l-27.419-15.83c-1.683-.971-1.472-2.668.471-3.79l26.475-15.285a7.3,7.3,0,0,1,6.566-.273l27.418,15.831c1.683.971,1.472,2.668-.471,3.79L372.4,230.247A7.3,7.3,0,0,1,365.839,230.519Z" fill="#002350"></path><g id="Group_1" data-name="Group 1"><path id="Path_10" data-name="Path 10" d="M394.55,227.2a2.921,2.921,0,0,1-1.321,2.289c-.73.421-1.322.08-1.322-.763a2.92,2.92,0,0,1,1.322-2.289C393.959,226.015,394.55,226.356,394.55,227.2Z" fill="#fff"></path><path id="Path_11" data-name="Path 11" d="M398.8,224.744a2.922,2.922,0,0,1-1.321,2.289c-.73.421-1.322.08-1.322-.763a2.922,2.922,0,0,1,1.322-2.289C398.21,223.56,398.8,223.9,398.8,224.744Z" fill="#fff"></path><path id="Path_12" data-name="Path 12" d="M403.054,222.289a2.92,2.92,0,0,1-1.322,2.289c-.729.422-1.321.08-1.321-.763a2.925,2.925,0,0,1,1.321-2.289C402.462,221.1,403.054,221.447,403.054,222.289Z" fill="#fff"></path></g></g><g id="Group_4" data-name="Group 4"><path id="Path_13" data-name="Path 13" d="M406.585,206.179h0v-11.29l-25.315-.014-8.749-5.051c-2.009-1.16-5.516-1.014-7.835.324l-8.163,4.714-25.337-.015v11.611a2.27,2.27,0,0,0,1.345,2.1l32.719,18.89c2.008,1.159,5.515,1.014,7.834-.325l31.593-18.24C406.014,208.11,406.66,207.11,406.585,206.179Z" fill="url(#linear-gradient)"></path><path id="Path_14" data-name="Path 14" d="M368.886,189.047a9.048,9.048,0,0,0-4.2,1.1l-8.163,4.714-25.337-.015v11.611a2.27,2.27,0,0,0,1.345,2.1l32.719,18.89a7.094,7.094,0,0,0,3.636.777Z" fill="url(#linear-gradient)"></path><path id="Path_15" data-name="Path 15" d="M334.053,194.849l-2.867,0v11.611a2.27,2.27,0,0,0,1.345,2.1l1.522.879Z" fill="#5793ce"></path><path id="Path_16" data-name="Path 16" d="M365.754,227.694a8.921,8.921,0,0,0,6.262-.072V214.44h-6.262Z" fill="#fff"></path><path id="Path_17" data-name="Path 17" d="M365.25,215.879l-32.719-18.891c-2.008-1.159-1.756-3.184.563-4.523l31.592-18.24c2.319-1.339,5.826-1.484,7.835-.325l32.718,18.891c2.008,1.159,1.756,3.184-.562,4.523l-31.593,18.24C370.765,216.892,367.258,217.038,365.25,215.879Z" fill="#d4ecff"></path><path id="Path_18" data-name="Path 18" d="M365.839,212.479,338.42,196.648c-1.683-.971-1.472-2.668.471-3.79l26.475-15.285a7.3,7.3,0,0,1,6.566-.273l27.418,15.831c1.683.971,1.472,2.668-.471,3.79L372.4,212.206A7.3,7.3,0,0,1,365.839,212.479Z" fill="#002350"></path><g id="Group_3" data-name="Group 3"><path id="Path_19" data-name="Path 19" d="M394.55,209.158a2.919,2.919,0,0,1-1.321,2.289c-.73.421-1.322.08-1.322-.763a2.92,2.92,0,0,1,1.322-2.289C393.959,207.974,394.55,208.315,394.55,209.158Z" fill="#fff"></path><path id="Path_20" data-name="Path 20" d="M398.8,206.7a2.922,2.922,0,0,1-1.321,2.289c-.73.421-1.322.08-1.322-.763a2.922,2.922,0,0,1,1.322-2.289C398.21,205.519,398.8,205.86,398.8,206.7Z" fill="#fff"></path><path id="Path_21" data-name="Path 21" d="M403.054,204.248a2.92,2.92,0,0,1-1.322,2.289c-.729.422-1.321.08-1.321-.763a2.925,2.925,0,0,1,1.321-2.289C402.462,203.064,403.054,203.406,403.054,204.248Z" fill="#fff"></path></g></g><g id="Group_7" data-name="Group 7"><path id="Path_22" data-name="Path 22" d="M406.585,188.138h0V176.849l-25.315-.015-8.749-5.051c-2.009-1.16-5.516-1.014-7.835.324l-8.163,4.714-25.337-.015v11.611a2.27,2.27,0,0,0,1.345,2.1l32.719,18.89c2.008,1.159,5.515,1.014,7.834-.325l31.593-18.24C406.014,190.069,406.66,189.069,406.585,188.138Z" fill="url(#linear-gradient)"></path><path id="Path_23" data-name="Path 23" d="M368.886,171.006a9.048,9.048,0,0,0-4.2,1.1l-8.163,4.714-25.337-.015v11.611a2.27,2.27,0,0,0,1.345,2.1l32.719,18.89a7.094,7.094,0,0,0,3.636.777Z" fill="url(#linear-gradient)"></path><path id="Path_24" data-name="Path 24" d="M334.053,176.808l-2.867,0v11.611a2.27,2.27,0,0,0,1.345,2.1l1.522.879Z" fill="#5793ce"></path><path id="Path_25" data-name="Path 25" d="M365.754,209.653a8.921,8.921,0,0,0,6.262-.072V196.4h-6.262Z" fill="#fff"></path><path id="Path_26" data-name="Path 26" d="M365.25,197.838l-32.719-18.891c-2.008-1.159-1.756-3.184.563-4.523l31.592-18.24c2.319-1.338,5.826-1.484,7.835-.325l32.718,18.891c2.008,1.159,1.756,3.184-.562,4.523l-31.593,18.24C370.765,198.852,367.258,199,365.25,197.838Z" fill="#d4ecff"></path><path id="Path_27" data-name="Path 27" d="M404.677,177.051l-31.593,18.24c-2.319,1.339-5.826,1.484-7.834.325l-32.719-18.89a3.031,3.031,0,0,1-1-.889c-.69,1.11-.377,2.314,1,3.11l32.719,18.891c2.008,1.159,5.515,1.013,7.834-.325l31.593-18.24c1.8-1.04,2.349-2.494,1.564-3.634A4.384,4.384,0,0,1,404.677,177.051Z" fill="#fff"></path><g id="Group_5" data-name="Group 5"><path id="Path_28" data-name="Path 28" d="M394.55,191.117a2.919,2.919,0,0,1-1.321,2.289c-.73.421-1.322.08-1.322-.763a2.92,2.92,0,0,1,1.322-2.289C393.959,189.933,394.55,190.274,394.55,191.117Z" fill="#d4ecff"></path><path id="Path_29" data-name="Path 29" d="M398.8,188.662a2.922,2.922,0,0,1-1.321,2.289c-.73.422-1.322.08-1.322-.763a2.922,2.922,0,0,1,1.322-2.289C398.21,187.478,398.8,187.819,398.8,188.662Z" fill="#d4ecff"></path><path id="Path_30" data-name="Path 30" d="M403.054,186.207a2.92,2.92,0,0,1-1.322,2.289c-.729.422-1.321.08-1.321-.763a2.925,2.925,0,0,1,1.321-2.289C402.462,185.023,403.054,185.365,403.054,186.207Z" fill="#d4ecff"></path></g><g id="Group_6" data-name="Group 6"><path id="Path_31" data-name="Path 31" d="M367.184,186.126l-15.31-8.84c-.94-.542-.822-1.49.263-2.116l14.784-8.536a4.078,4.078,0,0,1,3.666-.152l15.311,8.84c.939.542.821,1.49-.264,2.117l-14.783,8.535A4.08,4.08,0,0,1,367.184,186.126Z" fill="url(#linear-gradient)"></path><path id="Path_32" data-name="Path 32" d="M368.65,178.725l-2.118-1.223c-.13-.075-.114-.207.036-.293l2.046-1.181a.562.562,0,0,1,.507-.021l2.118,1.223c.13.075.114.206-.036.293l-2.045,1.181A.568.568,0,0,1,368.65,178.725Z" fill="#fff"></path><path id="Path_33" data-name="Path 33" d="M351.874,177.286l.043.025a2.558,2.558,0,0,1,.22-.151l14.784-8.535a4.071,4.071,0,0,1,3.666-.152l15.267,8.814c.866-.62.912-1.464.044-1.965l-15.311-8.84a4.078,4.078,0,0,0-3.666.152l-14.784,8.536C351.052,175.8,350.934,176.744,351.874,177.286Z" fill="#396caa"></path></g></g></g><g id="Group_28" data-name="Group 28"><g id="Group_20" data-name="Group 20"><g id="Group_11" data-name="Group 11"><path id="Path_34" data-name="Path 34" d="M307.127,308.279l-56.472-32.2c-2.065-1.192-1.806-3.275.579-4.652l32.492-18.759c2.385-1.377,5.992-1.526,8.057-.334l56.472,32.2c2.065,1.193,1.806,3.276-.579,4.652l-32.492,18.76C312.8,309.322,309.192,309.471,307.127,308.279Z" fill="#b2d3ea"></path><path id="Path_35" data-name="Path 35" d="M353.29,273.694h0V141.858l-52.411-13.717-9.654-5.574c-2.216-1.279-6.085-1.119-8.644.358l-9.007,5.2-27.954-.015L253.9,255.379a2.5,2.5,0,0,0,1.484,2.315l52.3,39.465c2.215,1.28,6.085,1.119,8.644-.358l34.856-20.124C352.661,275.825,353.373,274.721,353.29,273.694Z" fill="#002350"></path><path id="Path_36" data-name="Path 36" d="M287.215,121.71a9.973,9.973,0,0,0-4.634,1.215l-9.007,5.2-27.954-.015V260.3a2.506,2.506,0,0,0,1.484,2.316l60.581,34.543a7.813,7.813,0,0,0,4.011.857L312.321,165Z" fill="#d4ecff"></path><path id="Path_37" data-name="Path 37" d="M308.241,297.432a9.851,9.851,0,0,0,6.909-.079V163.428h-6.909Z" fill="#002350"></path><path id="Path_38" data-name="Path 38" d="M307.685,165.015,247.1,130.472c-2.215-1.279-1.938-3.514.621-4.991l34.856-20.124c2.559-1.477,6.428-1.638,8.644-.358l60.581,34.543c2.215,1.279,1.937,3.514-.621,4.991l-34.856,20.124C313.77,166.134,309.9,166.294,307.685,165.015Z" fill="#d4ecff"></path><path id="Path_39" data-name="Path 39" d="M351.185,142.081l-34.856,20.125c-2.559,1.477-6.429,1.637-8.644.358L247.1,128.021A3.343,3.343,0,0,1,246,127.04c-.762,1.225-.416,2.553,1.105,3.432l60.581,34.543c2.215,1.28,6.085,1.119,8.644-.358l34.856-20.124c1.988-1.148,2.592-2.751,1.726-4.01A4.817,4.817,0,0,1,351.185,142.081Z" fill="#fafdff"></path><g id="Group_10" data-name="Group 10"><path id="Path_40" data-name="Path 40" d="M309.4,151.015l-40.333-23.38c-1.036-.6-.906-1.644.291-2.335l16.311-9.417a4.5,4.5,0,0,1,4.045-.168l40.333,23.38c1.037.6.907,1.644-.291,2.335l-16.311,9.418A4.5,4.5,0,0,1,309.4,151.015Z" fill="url(#linear-gradient)"></path><g id="Group_9" data-name="Group 9"><path id="Path_41" data-name="Path 41" d="M287.624,128.686l-2.337-1.35c-.144-.083-.126-.227.04-.323l2.257-1.3a.622.622,0,0,1,.559-.023l2.337,1.349c.144.083.126.228-.04.323l-2.257,1.3A.622.622,0,0,1,287.624,128.686Z" fill="#fff"></path><path id="Path_42" data-name="Path 42" d="M295.432,133.175l-2.337-1.349c-.144-.083-.126-.228.04-.323l2.257-1.3a.619.619,0,0,1,.559-.023l2.338,1.349c.143.083.125.227-.041.323l-2.256,1.3A.621.621,0,0,1,295.432,133.175Z" fill="#fff"></path><path id="Path_43" data-name="Path 43" d="M303.24,137.665l-2.337-1.349c-.144-.083-.126-.228.04-.324l2.257-1.3a.622.622,0,0,1,.559-.023l2.338,1.35c.143.082.125.227-.041.323l-2.256,1.3A.624.624,0,0,1,303.24,137.665Z" fill="#fff"></path><path id="Path_44" data-name="Path 44" d="M311.048,142.155l-2.337-1.35c-.143-.083-.125-.227.04-.323l2.257-1.3a.624.624,0,0,1,.56-.023l2.337,1.349c.143.083.125.228-.04.323l-2.257,1.3A.624.624,0,0,1,311.048,142.155Z" fill="#fff"></path></g><path id="Path_45" data-name="Path 45" d="M269.065,127.636l.048.027c.079-.056.152-.114.243-.167l16.311-9.417a4.5,4.5,0,0,1,4.045-.168L330,141.264c.956-.684,1.006-1.616.048-2.169l-40.333-23.38a4.5,4.5,0,0,0-4.045.168L269.356,125.3C268.159,125.991,268.029,127.037,269.065,127.636Z" fill="#5793ce"></path></g></g><g id="Group_13" data-name="Group 13"><path id="Path_46" data-name="Path 46" d="M323.134,191.135l22.933-13.13a5.6,5.6,0,0,0,2.336-4.464v-8.2c0-1.721-1.046-2.511-2.336-1.766L323.134,176.7a5.6,5.6,0,0,0-2.336,4.465v8.2C320.8,191.089,321.844,191.88,323.134,191.135Z" fill="url(#linear-gradient)"></path><path id="Path_47" data-name="Path 47" d="M347.2,163.326a2.293,2.293,0,0,1,.586,1.707v8.2a5.6,5.6,0,0,1-2.336,4.465l-22.933,13.13a1.686,1.686,0,0,1-1.135.247,1.394,1.394,0,0,0,1.75.06l22.933-13.13a5.6,5.6,0,0,0,2.336-4.464v-8.2C348.4,164.172,347.915,163.448,347.2,163.326Z" fill="#fff"></path><g id="Group_12" data-name="Group 12"><path id="Path_48" data-name="Path 48" d="M330.032,182.227l2.1-1.215a1.218,1.218,0,0,0,.51-.973v-2.247c0-.375-.228-.547-.51-.385l-2.1,1.214a1.221,1.221,0,0,0-.51.974v2.247C329.522,182.217,329.75,182.389,330.032,182.227Z" fill="#002350"></path><path id="Path_49" data-name="Path 49" d="M337.066,178.166l2.1-1.215a1.218,1.218,0,0,0,.51-.973v-2.247c0-.375-.228-.548-.51-.385l-2.1,1.214a1.219,1.219,0,0,0-.51.974v2.246C336.556,178.156,336.784,178.328,337.066,178.166Z" fill="#fff"></path></g></g><g id="Group_15" data-name="Group 15"><path id="Path_50" data-name="Path 50" d="M323.134,250.4l22.933-13.129A5.6,5.6,0,0,0,348.4,232.8v-8.2c0-1.72-1.046-2.511-2.336-1.766l-22.933,13.13a5.6,5.6,0,0,0-2.336,4.464v8.2C320.8,250.35,321.844,251.14,323.134,250.4Z" fill="url(#linear-gradient)"></path><path id="Path_51" data-name="Path 51" d="M347.2,222.587a2.291,2.291,0,0,1,.586,1.706v8.2a5.6,5.6,0,0,1-2.336,4.464l-22.933,13.13a1.686,1.686,0,0,1-1.135.247,1.393,1.393,0,0,0,1.75.06l22.933-13.13A5.594,5.594,0,0,0,348.4,232.8v-8.2C348.4,223.432,347.915,222.708,347.2,222.587Z" fill="#fff"></path><g id="Group_14" data-name="Group 14"><path id="Path_52" data-name="Path 52" d="M330.032,241.487l2.1-1.215a1.218,1.218,0,0,0,.51-.973v-2.247c0-.375-.228-.547-.51-.385l-2.1,1.215a1.218,1.218,0,0,0-.51.973V241.1C329.522,241.477,329.75,241.649,330.032,241.487Z" fill="#002350"></path><path id="Path_53" data-name="Path 53" d="M337.066,237.426l2.1-1.215a1.218,1.218,0,0,0,.51-.973v-2.247c0-.375-.228-.547-.51-.385l-2.1,1.215a1.218,1.218,0,0,0-.51.973v2.247C336.556,237.416,336.784,237.588,337.066,237.426Z" fill="#fff"></path></g></g><g id="Group_17" data-name="Group 17"><path id="Path_54" data-name="Path 54" d="M323.134,280.025,346.067,266.9a5.6,5.6,0,0,0,2.336-4.465v-8.2c0-1.72-1.046-2.511-2.336-1.766l-22.933,13.13a5.6,5.6,0,0,0-2.336,4.464v8.2C320.8,279.98,321.844,280.77,323.134,280.025Z" fill="url(#linear-gradient)"></path><path id="Path_55" data-name="Path 55" d="M347.2,252.217a2.291,2.291,0,0,1,.586,1.706v8.2a5.6,5.6,0,0,1-2.336,4.464l-22.933,13.13a1.68,1.68,0,0,1-1.135.247,1.393,1.393,0,0,0,1.75.06L346.067,266.9a5.6,5.6,0,0,0,2.336-4.465v-8.2C348.4,253.062,347.915,252.338,347.2,252.217Z" fill="#fff"></path><g id="Group_16" data-name="Group 16"><path id="Path_56" data-name="Path 56" d="M330.032,271.117l2.1-1.215a1.218,1.218,0,0,0,.51-.973v-2.247c0-.375-.228-.547-.51-.385l-2.1,1.215a1.218,1.218,0,0,0-.51.973v2.247C329.522,271.107,329.75,271.279,330.032,271.117Z" fill="#fff"></path><path id="Path_57" data-name="Path 57" d="M337.066,267.056l2.1-1.215a1.218,1.218,0,0,0,.51-.973v-2.247c0-.375-.228-.547-.51-.385l-2.1,1.215a1.218,1.218,0,0,0-.51.973v2.247C336.556,267.046,336.784,267.218,337.066,267.056Z" fill="#396caa"></path></g></g><g id="Group_19" data-name="Group 19"><path id="Path_58" data-name="Path 58" d="M323.134,220.765l22.933-13.13a5.6,5.6,0,0,0,2.336-4.464v-8.2c0-1.721-1.046-2.511-2.336-1.766l-22.933,13.13A5.6,5.6,0,0,0,320.8,210.8V219C320.8,220.719,321.844,221.51,323.134,220.765Z" fill="url(#linear-gradient)"></path><path id="Path_59" data-name="Path 59" d="M347.2,192.956a2.294,2.294,0,0,1,.586,1.707v8.2a5.6,5.6,0,0,1-2.336,4.465l-22.933,13.13a1.686,1.686,0,0,1-1.135.247,1.393,1.393,0,0,0,1.75.06l22.933-13.13a5.6,5.6,0,0,0,2.336-4.464v-8.2C348.4,193.8,347.915,193.078,347.2,192.956Z" fill="#fff"></path><g id="Group_18" data-name="Group 18"><path id="Path_60" data-name="Path 60" d="M330.032,211.857l2.1-1.215a1.218,1.218,0,0,0,.51-.973v-2.247c0-.375-.228-.547-.51-.385l-2.1,1.215a1.218,1.218,0,0,0-.51.973v2.247C329.522,211.847,329.75,212.019,330.032,211.857Z" fill="#fff"></path><path id="Path_61" data-name="Path 61" d="M337.066,207.8l2.1-1.215a1.218,1.218,0,0,0,.51-.973v-2.247c0-.375-.228-.547-.51-.385l-2.1,1.215a1.218,1.218,0,0,0-.51.973v2.247C336.556,207.786,336.784,207.958,337.066,207.8Z" fill="#fff"></path></g></g></g><g id="Group_21" data-name="Group 21"><path id="Path_62" data-name="Path 62" d="M303.272,182.74,250.365,152.2a5.136,5.136,0,0,1-2.144-4.1V138.009c0-1.578.96-2.3,2.144-1.62l52.907,30.545a5.136,5.136,0,0,1,2.144,4.1v10.088C305.416,182.7,304.456,183.424,303.272,182.74Z" fill="url(#linear-gradient)"></path><path id="Path_63" data-name="Path 63" d="M262.277,152.577l-7.443-4.3a2.53,2.53,0,0,1-1.056-2.018h0c0-.778.473-1.135,1.056-.8l7.443,4.3a2.532,2.532,0,0,1,1.056,2.019h0C263.333,152.556,262.86,152.914,262.277,152.577Z" fill="#fff"></path><path id="Path_64" data-name="Path 64" d="M268.619,154.83c0,.778-.546,1.093-1.22.705a2.7,2.7,0,0,1-1.22-2.113c0-.778.547-1.093,1.22-.7A2.694,2.694,0,0,1,268.619,154.83Z" fill="#fff"></path><path id="Path_65" data-name="Path 65" d="M272.922,157.315c0,.778-.546,1.093-1.22.7a2.7,2.7,0,0,1-1.219-2.113c0-.778.546-1.093,1.219-.7A2.7,2.7,0,0,1,272.922,157.315Z" fill="#fff"></path><path id="Path_66" data-name="Path 66" d="M277.225,159.8c0,.778-.546,1.093-1.219.7a2.694,2.694,0,0,1-1.22-2.112c0-.778.546-1.093,1.22-.705A2.7,2.7,0,0,1,277.225,159.8Z" fill="#fff"></path><path id="Path_67" data-name="Path 67" d="M281.529,162.284c0,.777-.547,1.093-1.22.7a2.7,2.7,0,0,1-1.22-2.113c0-.778.546-1.093,1.22-.7A2.7,2.7,0,0,1,281.529,162.284Z" fill="#fff"></path><path id="Path_68" data-name="Path 68" d="M299.656,174.979l-2.507-1.447a1.624,1.624,0,0,1-.678-1.295v-2.652c0-.5.3-.729.678-.513l2.507,1.447a1.626,1.626,0,0,1,.678,1.3v2.652C300.334,174.966,300.03,175.2,299.656,174.979Z" fill="#002350"></path></g><g id="Group_22" data-name="Group 22"><path id="Path_69" data-name="Path 69" d="M303.272,200.53l-52.907-30.545a5.136,5.136,0,0,1-2.144-4.1V155.8c0-1.578.96-2.3,2.144-1.621l52.907,30.546a5.136,5.136,0,0,1,2.144,4.1v10.088C305.416,200.488,304.456,201.214,303.272,200.53Z" fill="url(#linear-gradient)"></path><path id="Path_70" data-name="Path 70" d="M262.277,170.367l-7.443-4.3a2.53,2.53,0,0,1-1.056-2.018h0c0-.778.473-1.136,1.056-.8l7.443,4.3a2.532,2.532,0,0,1,1.056,2.018h0C263.333,170.346,262.86,170.7,262.277,170.367Z" fill="#fff"></path><path id="Path_71" data-name="Path 71" d="M268.619,172.62c0,.778-.546,1.093-1.22.7a2.7,2.7,0,0,1-1.22-2.112c0-.778.547-1.093,1.22-.7A2.693,2.693,0,0,1,268.619,172.62Z" fill="#fff"></path><path id="Path_72" data-name="Path 72" d="M272.922,175.1c0,.778-.546,1.093-1.22.7a2.7,2.7,0,0,1-1.219-2.113c0-.778.546-1.093,1.219-.7A2.7,2.7,0,0,1,272.922,175.1Z" fill="#fff"></path><path id="Path_73" data-name="Path 73" d="M277.225,177.589c0,.778-.546,1.093-1.219.7a2.7,2.7,0,0,1-1.22-2.112c0-.778.546-1.094,1.22-.705A2.7,2.7,0,0,1,277.225,177.589Z" fill="#fff"></path><path id="Path_74" data-name="Path 74" d="M281.529,180.074c0,.777-.547,1.093-1.22.7a2.7,2.7,0,0,1-1.22-2.113c0-.778.546-1.093,1.22-.7A2.7,2.7,0,0,1,281.529,180.074Z" fill="#fff"></path><path id="Path_75" data-name="Path 75" d="M299.656,192.769l-2.507-1.447a1.624,1.624,0,0,1-.678-1.3v-2.653c0-.5.3-.728.678-.512l2.507,1.447a1.625,1.625,0,0,1,.678,1.3v2.652C300.334,192.756,300.03,192.986,299.656,192.769Z" fill="#002350"></path></g><g id="Group_23" data-name="Group 23"><path id="Path_76" data-name="Path 76" d="M303.272,218.32l-52.907-30.546a5.133,5.133,0,0,1-2.144-4.1V173.589c0-1.579.96-2.3,2.144-1.621l52.907,30.546a5.136,5.136,0,0,1,2.144,4.1V216.7C305.416,218.278,304.456,219,303.272,218.32Z" fill="url(#linear-gradient)"></path><path id="Path_77" data-name="Path 77" d="M262.277,188.157l-7.443-4.3a2.53,2.53,0,0,1-1.056-2.018h0c0-.778.473-1.136,1.056-.8l7.443,4.3a2.532,2.532,0,0,1,1.056,2.018h0C263.333,188.136,262.86,188.494,262.277,188.157Z" fill="#fff"></path><path id="Path_78" data-name="Path 78" d="M268.619,190.41c0,.778-.546,1.093-1.22.7a2.7,2.7,0,0,1-1.22-2.112c0-.778.547-1.093,1.22-.705A2.7,2.7,0,0,1,268.619,190.41Z" fill="#fff"></path><path id="Path_79" data-name="Path 79" d="M272.922,192.9c0,.777-.546,1.093-1.22.7a2.7,2.7,0,0,1-1.219-2.113c0-.778.546-1.093,1.219-.7A2.7,2.7,0,0,1,272.922,192.9Z" fill="#fff"></path><path id="Path_80" data-name="Path 80" d="M277.225,195.379c0,.778-.546,1.093-1.219.7a2.7,2.7,0,0,1-1.22-2.112c0-.778.546-1.094,1.22-.7A2.7,2.7,0,0,1,277.225,195.379Z" fill="#fff"></path><path id="Path_81" data-name="Path 81" d="M281.529,197.863c0,.778-.547,1.094-1.22.7a2.7,2.7,0,0,1-1.22-2.113c0-.778.546-1.093,1.22-.7A2.7,2.7,0,0,1,281.529,197.863Z" fill="#fff"></path><path id="Path_82" data-name="Path 82" d="M299.656,210.559l-2.507-1.447a1.624,1.624,0,0,1-.678-1.295v-2.653c0-.5.3-.728.678-.512l2.507,1.447a1.625,1.625,0,0,1,.678,1.3v2.652C300.334,210.546,300.03,210.776,299.656,210.559Z" fill="#002350"></path></g><g id="Group_24" data-name="Group 24"><path id="Path_83" data-name="Path 83" d="M303.272,236.11l-52.907-30.546a5.133,5.133,0,0,1-2.144-4.1V191.379c0-1.579.96-2.3,2.144-1.621L303.272,220.3a5.136,5.136,0,0,1,2.144,4.1v10.088C305.416,236.068,304.456,236.794,303.272,236.11Z" fill="url(#linear-gradient)"></path><path id="Path_84" data-name="Path 84" d="M262.277,205.947l-7.443-4.3a2.53,2.53,0,0,1-1.056-2.018h0c0-.778.473-1.136,1.056-.8l7.443,4.3a2.53,2.53,0,0,1,1.056,2.018h0C263.333,205.926,262.86,206.284,262.277,205.947Z" fill="#fff"></path><path id="Path_85" data-name="Path 85" d="M268.619,208.2c0,.778-.546,1.093-1.22.7a2.7,2.7,0,0,1-1.22-2.112c0-.778.547-1.094,1.22-.705A2.7,2.7,0,0,1,268.619,208.2Z" fill="#fff"></path><path id="Path_86" data-name="Path 86" d="M272.922,210.685c0,.777-.546,1.093-1.22.7a2.7,2.7,0,0,1-1.219-2.113c0-.778.546-1.093,1.219-.7A2.7,2.7,0,0,1,272.922,210.685Z" fill="#fff"></path><path id="Path_87" data-name="Path 87" d="M277.225,213.169c0,.778-.546,1.093-1.219.7a2.7,2.7,0,0,1-1.22-2.113c0-.777.546-1.093,1.22-.7A2.7,2.7,0,0,1,277.225,213.169Z" fill="#fff"></path><path id="Path_88" data-name="Path 88" d="M281.529,215.653c0,.778-.547,1.094-1.22.705a2.7,2.7,0,0,1-1.22-2.113c0-.778.546-1.093,1.22-.7A2.7,2.7,0,0,1,281.529,215.653Z" fill="#fff"></path><path id="Path_89" data-name="Path 89" d="M299.656,228.349l-2.507-1.447a1.624,1.624,0,0,1-.678-1.295v-2.653c0-.5.3-.728.678-.512l2.507,1.447a1.624,1.624,0,0,1,.678,1.295v2.653C300.334,228.336,300.03,228.565,299.656,228.349Z" fill="#d4ecff"></path></g><g id="Group_25" data-name="Group 25"><path id="Path_90" data-name="Path 90" d="M303.272,253.9l-52.907-30.546a5.134,5.134,0,0,1-2.144-4.1V209.169c0-1.579.96-2.3,2.144-1.621l52.907,30.546a5.136,5.136,0,0,1,2.144,4.1v10.088C305.416,253.858,304.456,254.584,303.272,253.9Z" fill="url(#linear-gradient)"></path><path id="Path_91" data-name="Path 91" d="M262.277,223.737l-7.443-4.3a2.53,2.53,0,0,1-1.056-2.018h0c0-.778.473-1.136,1.056-.8l7.443,4.3a2.53,2.53,0,0,1,1.056,2.018h0C263.333,223.716,262.86,224.074,262.277,223.737Z" fill="#fff"></path><path id="Path_92" data-name="Path 92" d="M268.619,225.99c0,.778-.546,1.093-1.22.7a2.7,2.7,0,0,1-1.22-2.112c0-.778.547-1.094,1.22-.705A2.7,2.7,0,0,1,268.619,225.99Z" fill="#fff"></path><path id="Path_93" data-name="Path 93" d="M272.922,228.474c0,.778-.546,1.094-1.22.705a2.7,2.7,0,0,1-1.219-2.113c0-.778.546-1.093,1.219-.7A2.7,2.7,0,0,1,272.922,228.474Z" fill="#fff"></path><path id="Path_94" data-name="Path 94" d="M277.225,230.959c0,.778-.546,1.093-1.219.7a2.7,2.7,0,0,1-1.22-2.113c0-.777.546-1.093,1.22-.7A2.7,2.7,0,0,1,277.225,230.959Z" fill="#fff"></path><path id="Path_95" data-name="Path 95" d="M281.529,233.443c0,.778-.547,1.094-1.22.705a2.7,2.7,0,0,1-1.22-2.113c0-.778.546-1.093,1.22-.7A2.7,2.7,0,0,1,281.529,233.443Z" fill="#fff"></path><path id="Path_96" data-name="Path 96" d="M299.656,246.139l-2.507-1.447a1.624,1.624,0,0,1-.678-1.295v-2.653c0-.5.3-.728.678-.512l2.507,1.447a1.624,1.624,0,0,1,.678,1.295v2.653C300.334,246.126,300.03,246.355,299.656,246.139Z" fill="#d4ecff"></path></g><g id="Group_26" data-name="Group 26"><path id="Path_97" data-name="Path 97" d="M303.272,271.69l-52.907-30.546a5.134,5.134,0,0,1-2.144-4.1V226.959c0-1.579.96-2.3,2.144-1.621l52.907,30.546a5.136,5.136,0,0,1,2.144,4.1v10.088C305.416,271.648,304.456,272.374,303.272,271.69Z" fill="url(#linear-gradient)"></path><path id="Path_98" data-name="Path 98" d="M262.277,241.527l-7.443-4.3a2.532,2.532,0,0,1-1.056-2.018h0c0-.778.473-1.136,1.056-.8l7.443,4.3a2.53,2.53,0,0,1,1.056,2.018h0C263.333,241.506,262.86,241.864,262.277,241.527Z" fill="#fff"></path><path id="Path_99" data-name="Path 99" d="M268.619,243.78c0,.778-.546,1.093-1.22.7a2.7,2.7,0,0,1-1.22-2.113c0-.777.547-1.093,1.22-.7A2.7,2.7,0,0,1,268.619,243.78Z" fill="#fff"></path><path id="Path_100" data-name="Path 100" d="M272.922,246.264c0,.778-.546,1.094-1.22.7a2.7,2.7,0,0,1-1.219-2.113c0-.778.546-1.093,1.219-.7A2.7,2.7,0,0,1,272.922,246.264Z" fill="#fff"></path><path id="Path_101" data-name="Path 101" d="M277.225,248.749c0,.778-.546,1.093-1.219.7a2.7,2.7,0,0,1-1.22-2.113c0-.777.546-1.093,1.22-.7A2.7,2.7,0,0,1,277.225,248.749Z" fill="#fff"></path><path id="Path_102" data-name="Path 102" d="M281.529,251.233c0,.778-.547,1.093-1.22.705a2.7,2.7,0,0,1-1.22-2.113c0-.778.546-1.093,1.22-.7A2.7,2.7,0,0,1,281.529,251.233Z" fill="#fff"></path><path id="Path_103" data-name="Path 103" d="M299.656,263.929l-2.507-1.447a1.624,1.624,0,0,1-.678-1.295v-2.653c0-.5.3-.728.678-.512l2.507,1.447a1.624,1.624,0,0,1,.678,1.3v2.653C300.334,263.916,300.03,264.145,299.656,263.929Z" fill="#002350"></path></g><g id="Group_27" data-name="Group 27"><path id="Path_104" data-name="Path 104" d="M303.272,289.48l-52.907-30.546a5.135,5.135,0,0,1-2.144-4.1V244.749c0-1.579.96-2.3,2.144-1.621l52.907,30.546a5.136,5.136,0,0,1,2.144,4.1v10.088C305.416,289.438,304.456,290.164,303.272,289.48Z" fill="url(#linear-gradient)"></path><path id="Path_105" data-name="Path 105" d="M262.277,259.317l-7.443-4.3A2.532,2.532,0,0,1,253.778,253h0c0-.778.473-1.136,1.056-.8l7.443,4.3a2.53,2.53,0,0,1,1.056,2.018h0C263.333,259.3,262.86,259.654,262.277,259.317Z" fill="#fff"></path><path id="Path_106" data-name="Path 106" d="M268.619,261.57c0,.778-.546,1.093-1.22.7a2.7,2.7,0,0,1-1.22-2.113c0-.777.547-1.093,1.22-.7A2.7,2.7,0,0,1,268.619,261.57Z" fill="#fff"></path><path id="Path_107" data-name="Path 107" d="M272.922,264.054c0,.778-.546,1.094-1.22.705a2.7,2.7,0,0,1-1.219-2.113c0-.778.546-1.093,1.219-.7A2.7,2.7,0,0,1,272.922,264.054Z" fill="#fff"></path><path id="Path_108" data-name="Path 108" d="M277.225,266.539c0,.778-.546,1.093-1.219.7a2.7,2.7,0,0,1-1.22-2.113c0-.778.546-1.093,1.22-.7A2.7,2.7,0,0,1,277.225,266.539Z" fill="#d4ecff"></path><path id="Path_109" data-name="Path 109" d="M281.529,269.023c0,.778-.547,1.093-1.22.7a2.693,2.693,0,0,1-1.22-2.112c0-.778.546-1.093,1.22-.7A2.7,2.7,0,0,1,281.529,269.023Z" fill="#fff"></path><path id="Path_110" data-name="Path 110" d="M299.656,281.719l-2.507-1.447a1.625,1.625,0,0,1-.678-1.3v-2.652c0-.5.3-.728.678-.512l2.507,1.447a1.624,1.624,0,0,1,.678,1.295v2.653C300.334,281.706,300.03,281.935,299.656,281.719Z" fill="#d4ecff"></path></g></g><g id="Group_32" data-name="Group 32"><path id="Path_111" data-name="Path 111" d="M287.884,127.433a.8.8,0,0,1-.8-.8V93.747a.8.8,0,0,1,1.6,0v32.888A.8.8,0,0,1,287.884,127.433Z" fill="#002350"></path><g id="Group_31" data-name="Group 31"><g id="Group_29" data-name="Group 29"><rect id="Rectangle_1" data-name="Rectangle 1" width="5.714" height="12.33" transform="translate(285.027 91.679)" fill="url(#linear-gradient)"></rect><path id="Path_112" data-name="Path 112" d="M289.9,105.175a4.468,4.468,0,0,1-4.041,0,1.232,1.232,0,0,1,0-2.333,4.468,4.468,0,0,1,4.041,0A1.232,1.232,0,0,1,289.9,105.175Z" fill="url(#linear-gradient)"></path></g><g id="Group_30" data-name="Group 30"><rect id="Rectangle_2" data-name="Rectangle 2" width="9.259" height="19.338" transform="translate(283.254 74.494)" fill="url(#linear-gradient)"></rect><path id="Path_113" data-name="Path 113" d="M285.027,93.707v4.172a7.389,7.389,0,0,0,5.713,0V93.707A7.389,7.389,0,0,0,285.027,93.707Z" fill="#002350"></path><path id="Path_114" data-name="Path 114" d="M291.157,95.723a7.241,7.241,0,0,1-6.547,0c-1.808-1.044-1.808-2.737,0-3.78a7.234,7.234,0,0,1,6.547,0C292.965,92.986,292.965,94.679,291.157,95.723Z" fill="url(#linear-gradient)"></path></g></g></g><g id="Group_36" data-name="Group 36"><path id="Path_115" data-name="Path 115" d="M295.692,132.1a.8.8,0,0,1-.8-.8V98.409a.8.8,0,1,1,1.6,0V131.3A.8.8,0,0,1,295.692,132.1Z" fill="#002350"></path><g id="Group_35" data-name="Group 35"><g id="Group_33" data-name="Group 33"><rect id="Rectangle_3" data-name="Rectangle 3" width="5.714" height="12.33" transform="translate(292.835 96.341)" fill="url(#linear-gradient)"></rect><path id="Path_116" data-name="Path 116" d="M297.712,109.837a4.466,4.466,0,0,1-4.04,0,1.232,1.232,0,0,1,0-2.333,4.465,4.465,0,0,1,4.041,0A1.231,1.231,0,0,1,297.712,109.837Z" fill="url(#linear-gradient-25)"></path></g><g id="Group_34" data-name="Group 34"><rect id="Rectangle_4" data-name="Rectangle 4" width="9.259" height="19.338" transform="translate(291.062 79.157)" fill="url(#linear-gradient)"></rect><path id="Path_117" data-name="Path 117" d="M292.835,98.369v4.173a7.391,7.391,0,0,0,5.714,0V98.369A7.391,7.391,0,0,0,292.835,98.369Z" fill="#002350"></path><path id="Path_118" data-name="Path 118" d="M298.965,100.385a7.234,7.234,0,0,1-6.547,0c-1.808-1.044-1.808-2.736,0-3.78a7.234,7.234,0,0,1,6.547,0C300.773,97.649,300.773,99.341,298.965,100.385Z" fill="url(#linear-gradient)"></path></g></g></g><g id="Group_40" data-name="Group 40"><path id="Path_119" data-name="Path 119" d="M303.5,136.759a.8.8,0,0,1-.8-.8V103.072a.8.8,0,0,1,1.6,0V135.96A.8.8,0,0,1,303.5,136.759Z" fill="#002350"></path><g id="Group_39" data-name="Group 39"><g id="Group_37" data-name="Group 37"><rect id="Rectangle_5" data-name="Rectangle 5" width="5.714" height="12.33" transform="translate(300.643 101.003)" fill="url(#linear-gradient)"></rect><path id="Path_120" data-name="Path 120" d="M305.52,114.5a4.465,4.465,0,0,1-4.04,0,1.231,1.231,0,0,1,0-2.333,4.465,4.465,0,0,1,4.04,0A1.231,1.231,0,0,1,305.52,114.5Z" fill="url(#linear-gradient-29)"></path></g><g id="Group_38" data-name="Group 38"><rect id="Rectangle_6" data-name="Rectangle 6" width="9.259" height="19.338" transform="translate(298.87 83.819)" fill="url(#linear-gradient)"></rect><path id="Path_121" data-name="Path 121" d="M300.643,103.032V107.2a7.4,7.4,0,0,0,5.714,0v-4.173A7.391,7.391,0,0,0,300.643,103.032Z" fill="#002350"></path><path id="Path_122" data-name="Path 122" d="M306.773,105.047a7.234,7.234,0,0,1-6.547,0c-1.808-1.043-1.808-2.736,0-3.779a7.234,7.234,0,0,1,6.547,0C308.581,102.311,308.581,104,306.773,105.047Z" fill="url(#linear-gradient)"></path></g></g></g><g id="Group_44" data-name="Group 44"><path id="Path_123" data-name="Path 123" d="M311.308,141.421a.8.8,0,0,1-.8-.8V107.734a.8.8,0,1,1,1.6,0v32.888A.8.8,0,0,1,311.308,141.421Z" fill="#002350"></path><g id="Group_43" data-name="Group 43"><g id="Group_41" data-name="Group 41"><rect id="Rectangle_7" data-name="Rectangle 7" width="5.714" height="12.33" transform="translate(308.451 105.666)" fill="url(#linear-gradient)"></rect><path id="Path_124" data-name="Path 124" d="M313.328,119.162a4.466,4.466,0,0,1-4.04,0,1.231,1.231,0,0,1,0-2.333,4.466,4.466,0,0,1,4.04,0A1.231,1.231,0,0,1,313.328,119.162Z" fill="url(#linear-gradient-33)"></path></g><g id="Group_42" data-name="Group 42"><rect id="Rectangle_8" data-name="Rectangle 8" width="9.259" height="19.338" transform="translate(306.678 88.482)" fill="url(#linear-gradient)"></rect><path id="Path_125" data-name="Path 125" d="M308.451,107.694v4.173a7.391,7.391,0,0,0,5.714,0v-4.173A7.391,7.391,0,0,0,308.451,107.694Z" fill="#002350"></path><path id="Path_126" data-name="Path 126" d="M314.581,109.71a7.234,7.234,0,0,1-6.547,0c-1.807-1.044-1.808-2.736,0-3.78a7.234,7.234,0,0,1,6.547,0C316.389,106.974,316.389,108.666,314.581,109.71Z" fill="url(#linear-gradient)"></path></g></g></g><g id="Group_51" data-name="Group 51"><g id="Group_47" data-name="Group 47"><path id="Path_127" data-name="Path 127" d="M347.6,123.837l12.414-7.312L348.188,101.77l-3.108,5.078Z" fill="#00c6ff"></path><path id="Path_128" data-name="Path 128" d="M257.457,42.852l19.813-11.4s-.745,11.376-.745,11.4-11.382,3.526-11.382,3.526Z" fill="#00c6ff"></path><path id="Path_129" data-name="Path 129" d="M351.047,86.732a12.467,12.467,0,0,0-4.287-1.589c-2-10.5-9.3-21.647-18.013-26.676a17.631,17.631,0,0,0-7.371-2.495c-1.189-12.725-10.037-27.186-20.781-33.389-5.613-3.24-10.7-3.624-14.462-1.639v-.01l-.182.1c-.1.053-.191.108-.285.164l-11.683,6.9,3.882,3.066c-3.485,1.523-5.688,5.432-5.688,11.209,0,10.654,7.48,23.609,16.707,28.936L351.047,115.7c6.929,4,12.545.757,12.545-7.243S357.976,90.732,351.047,86.732Z" fill="#00c6ff"></path><path id="Path_130" data-name="Path 130" d="M272.754,37.687,299.569,22.02c-5.206-2.715-9.909-2.939-13.436-1.076v-.01l-.182.1c-.1.053-.191.108-.285.164l-11.683,6.9,3.882,3.066A9.371,9.371,0,0,0,272.754,37.687Z" fill="#00c6ff"></path><path id="Path_131" data-name="Path 131" d="M322.274,83.777l19.565-11.482c-3.355-5.8-7.976-10.874-13.092-13.828q-1.016-.586-2-1.031L301.858,71.989Z" fill="#00c6ff"></path><path id="Path_132" data-name="Path 132" d="M279.5,29.385l8.719,5.034,15.967-9.4a31.629,31.629,0,0,0-3.587-2.431,22.418,22.418,0,0,0-5.58-2.344Z" fill="#00c6ff"></path><path id="Path_133" data-name="Path 133" d="M339.682,68.917l-15.616,9.2,5.431,6.058,14.176-8.37A45.513,45.513,0,0,0,339.682,68.917Z" fill="#00c6ff"></path><path id="Path_134" data-name="Path 134" d="M338.781,93.957a12.484,12.484,0,0,0-4.287-1.588c-2-10.5-9.3-21.648-18.013-26.677A17.628,17.628,0,0,0,309.11,63.2c-1.189-12.725-10.037-27.187-20.781-33.39-11.555-6.671-20.922-1.263-20.922,12.079,0,.452.013.909.034,1.368-8.449-3.919-15.051.5-15.051,10.5,0,10.654,7.48,23.609,16.706,28.936l69.685,40.232c6.929,4,12.545.758,12.545-7.242S345.71,97.957,338.781,93.957Z" fill="#d4ecff"></path><g id="Group_45" data-name="Group 45"><path id="Path_135" data-name="Path 135" d="M267.441,43.254c-.021-.458-.034-.915-.034-1.367,0-.02,0-.038,0-.057-4.668-1.815-8.679-1.025-11.2,1.888C258.946,41.466,262.923,41.159,267.441,43.254Z" fill="#fff"></path><path id="Path_136" data-name="Path 136" d="M339.8,92.963a12.467,12.467,0,0,0-4.287-1.589c-2-10.5-9.3-21.647-18.013-26.676A17.626,17.626,0,0,0,310.13,62.2c-1.189-12.725-10.037-27.186-20.781-33.389-7.2-4.156-13.547-3.623-17.311.6,3.835-3.278,9.706-3.4,16.291.4,10.744,6.2,19.592,20.665,20.781,33.39a17.628,17.628,0,0,1,7.371,2.494c8.711,5.029,16.016,16.178,18.013,26.677a12.484,12.484,0,0,1,4.287,1.588c6.929,4,12.545,13.729,12.545,21.729a10.33,10.33,0,0,1-2,6.673c1.879-1.447,3.02-4.072,3.02-7.668C352.346,106.691,346.73,96.963,339.8,92.963Z" fill="#fff"></path></g><g id="Group_46" data-name="Group 46"><path id="Path_137" data-name="Path 137" d="M265.968,46.432l5.238,2.429-.266-5.768c-.019-.4-.031-.807-.031-1.206,0-5.149,1.555-8.882,4.377-10.512s6.833-1.108,11.292,1.466c9.589,5.537,17.955,19.014,19.045,30.682l.275,2.94,2.944.227a14.161,14.161,0,0,1,5.888,2.035c7.617,4.4,14.482,14.617,16.324,24.3l.461,2.424,2.437.381a9.065,9.065,0,0,1,3.078,1.162c5.851,3.379,10.794,11.94,10.794,18.695,0,2.528-.7,4.384-1.923,5.089s-3.179.386-5.369-.879L270.847,79.663c-8.106-4.68-14.955-16.542-14.955-25.9,0-3.673,1.084-6.472,2.972-7.678a5.09,5.09,0,0,1,2.778-.743A10.472,10.472,0,0,1,265.968,46.432Z" fill="url(#linear-gradient)"></path></g></g><g id="Group_50" data-name="Group 50"><path id="Path_138" data-name="Path 138" d="M300.747,90.106l1.838-.923-1.81-1.371Z" fill="#002350"></path><path id="Path_139" data-name="Path 139" d="M295.226,65.274l1.784-.9.033.934Z" fill="#5793ce"></path><path id="Path_140" data-name="Path 140" d="M305.991,84.3l1.862-.937-3.585-3.409Z" fill="#002350"></path><g id="Group_48" data-name="Group 48"><path id="Path_141" data-name="Path 141" d="M302.047,89.124,293.344,84a1.852,1.852,0,0,1-.8-1.463l.028-10.076,10.3,6.068L302.85,88.6C302.848,89.151,302.489,89.384,302.047,89.124Z" fill="#002350"></path><path id="Path_142" data-name="Path 142" d="M296.991,64.383l-9.4,6.048c-.4.257-.076,1.214.53,1.571l9.6,5.654,9.6,5.654c.606.357.932-.218.536-.943l-9.334-17.082C298.12,64.547,297.4,64.122,296.991,64.383Z" fill="#002350"></path></g><g id="Group_49" data-name="Group 49"><path id="Path_143" data-name="Path 143" d="M300.181,90.064l-8.7-5.126a1.852,1.852,0,0,1-.8-1.463l.028-10.076,10.3,6.068-.029,10.076C300.982,90.091,300.622,90.324,300.181,90.064Z" fill="#fff"></path><path id="Path_144" data-name="Path 144" d="M295.125,65.323l-9.4,6.048c-.4.257-.077,1.214.529,1.57l9.6,5.655,9.6,5.654c.605.356.932-.218.536-.943l-9.334-17.082C296.253,65.487,295.531,65.061,295.125,65.323Z" fill="#fff"></path></g></g></g><path id="Path_145" data-name="Path 145" d="M331.616,268.707H330.55V209.14l7.034-4.062V175.756h1.066v29.938l-7.034,4.062Z" fill="#fff"></path><g id="Group_52" data-name="Group 52"><path id="Path_146" data-name="Path 146" d="M162.518,281.576a3.661,3.661,0,0,1-1.8-.477l-19.436-11.006a1.866,1.866,0,0,1-.016-3.24l48.482-28.045a9.041,9.041,0,0,1,9.019,0l55.415,32.028-.8,1.385-55.414-32.029a7.445,7.445,0,0,0-7.419,0l-48.481,28.044a.26.26,0,0,0-.134.234.258.258,0,0,0,.136.232L161.5,279.708a2.047,2.047,0,0,0,2.131-.063l8.214-5.31.867,1.342-8.214,5.311A3.646,3.646,0,0,1,162.518,281.576Z" fill="#b2d3ea"></path></g><g id="Group_63" data-name="Group 63"><path id="Path_147" data-name="Path 147" d="M187.827,285.829,161.7,270.743c-1.6-.925-1.4-2.543.45-3.612l25.229-14.566a6.953,6.953,0,0,1,6.256-.259l26.129,15.085c1.6.926,1.4,2.543-.449,3.612l-25.23,14.566A6.953,6.953,0,0,1,187.827,285.829Z" fill="#b2d3ea"></path><g id="Group_54" data-name="Group 54"><path id="Path_148" data-name="Path 148" d="M228.429,255.9h0V244.612l-25.314-.014-8.75-5.052c-2.008-1.159-5.515-1.014-7.834.325l-8.163,4.713-25.337-.014v11.61a2.27,2.27,0,0,0,1.345,2.1l32.719,18.89c2.008,1.16,5.515,1.014,7.834-.324l31.593-18.24C227.859,257.832,228.505,256.832,228.429,255.9Z" fill="url(#linear-gradient)"></path><path id="Path_149" data-name="Path 149" d="M190.731,238.769a9.037,9.037,0,0,0-4.2,1.1l-8.163,4.713-25.337-.014v11.61a2.27,2.27,0,0,0,1.345,2.1l32.719,18.89a7.082,7.082,0,0,0,3.636.777Z" fill="url(#linear-gradient)"></path><path id="Path_150" data-name="Path 150" d="M155.9,244.571h-2.867v11.61a2.27,2.27,0,0,0,1.345,2.1l1.522.879Z" fill="#fff"></path><path id="Path_151" data-name="Path 151" d="M187.6,277.416a8.926,8.926,0,0,0,6.262-.071V264.162H187.6Z" fill="#fff"></path><path id="Path_152" data-name="Path 152" d="M187.1,265.6l-32.719-18.89c-2.008-1.16-1.756-3.185.562-4.523l31.593-18.24c2.319-1.339,5.826-1.484,7.834-.325l32.719,18.89c2.008,1.159,1.756,3.184-.562,4.523l-31.593,18.24C192.61,266.615,189.1,266.76,187.1,265.6Z" fill="#d4ecff"></path><path id="Path_153" data-name="Path 153" d="M187.684,262.2l-27.419-15.83c-1.683-.972-1.472-2.669.471-3.791l26.475-15.285a7.3,7.3,0,0,1,6.566-.272l27.418,15.83c1.683.972,1.472,2.669-.471,3.79l-26.475,15.286A7.3,7.3,0,0,1,187.684,262.2Z" fill="#002350"></path><g id="Group_53" data-name="Group 53"><path id="Path_154" data-name="Path 154" d="M216.4,258.88a2.922,2.922,0,0,1-1.321,2.289c-.73.422-1.322.08-1.322-.763a2.923,2.923,0,0,1,1.322-2.289C215.8,257.7,216.4,258.038,216.4,258.88Z" fill="#fff"></path><path id="Path_155" data-name="Path 155" d="M220.647,256.426a2.92,2.92,0,0,1-1.322,2.288c-.729.422-1.321.08-1.321-.762a2.922,2.922,0,0,1,1.321-2.289C220.055,255.241,220.647,255.583,220.647,256.426Z" fill="#fff"></path><path id="Path_156" data-name="Path 156" d="M224.9,253.971a2.922,2.922,0,0,1-1.322,2.289c-.73.421-1.321.079-1.321-.763a2.919,2.919,0,0,1,1.321-2.289C224.307,252.786,224.9,253.128,224.9,253.971Z" fill="#fff"></path></g></g><g id="Group_56" data-name="Group 56"><path id="Path_157" data-name="Path 157" d="M228.429,237.86h0V226.571l-25.314-.014-8.75-5.052c-2.008-1.159-5.515-1.014-7.834.325l-8.163,4.713-25.337-.014v11.61a2.27,2.27,0,0,0,1.345,2.1l32.719,18.89c2.008,1.16,5.515,1.014,7.834-.324l31.593-18.24C227.859,239.792,228.505,238.791,228.429,237.86Z" fill="url(#linear-gradient)"></path><path id="Path_158" data-name="Path 158" d="M190.731,220.728a9.037,9.037,0,0,0-4.2,1.1l-8.163,4.713-25.337-.014v11.61a2.27,2.27,0,0,0,1.345,2.1l32.719,18.89a7.082,7.082,0,0,0,3.636.777Z" fill="url(#linear-gradient)"></path><path id="Path_159" data-name="Path 159" d="M155.9,226.53h-2.867v11.61a2.27,2.27,0,0,0,1.345,2.1l1.522.879Z" fill="#fff"></path><path id="Path_160" data-name="Path 160" d="M187.6,259.375a8.926,8.926,0,0,0,6.262-.071V246.121H187.6Z" fill="#fff"></path><path id="Path_161" data-name="Path 161" d="M187.1,247.56l-32.719-18.89c-2.008-1.16-1.756-3.185.562-4.523l31.593-18.24c2.319-1.339,5.826-1.484,7.834-.325l32.719,18.89c2.008,1.159,1.756,3.185-.562,4.523l-31.593,18.24C192.61,248.574,189.1,248.719,187.1,247.56Z" fill="#d4ecff"></path><path id="Path_162" data-name="Path 162" d="M187.684,244.16l-27.419-15.83c-1.683-.972-1.472-2.669.471-3.791l26.475-15.285a7.3,7.3,0,0,1,6.566-.272l27.418,15.83c1.683.972,1.472,2.669-.471,3.791l-26.475,15.285A7.3,7.3,0,0,1,187.684,244.16Z" fill="#002350"></path><g id="Group_55" data-name="Group 55"><path id="Path_163" data-name="Path 163" d="M216.4,240.839a2.922,2.922,0,0,1-1.321,2.289c-.73.422-1.322.08-1.322-.763a2.923,2.923,0,0,1,1.322-2.289C215.8,239.655,216.4,240,216.4,240.839Z" fill="#fff"></path><path id="Path_164" data-name="Path 164" d="M220.647,238.385a2.923,2.923,0,0,1-1.322,2.289c-.729.421-1.321.079-1.321-.763a2.922,2.922,0,0,1,1.321-2.289C220.055,237.2,220.647,237.542,220.647,238.385Z" fill="#fff"></path><path id="Path_165" data-name="Path 165" d="M224.9,235.93a2.922,2.922,0,0,1-1.322,2.289c-.73.421-1.321.08-1.321-.763a2.919,2.919,0,0,1,1.321-2.289C224.307,234.745,224.9,235.087,224.9,235.93Z" fill="#fff"></path></g></g><g id="Group_59" data-name="Group 59"><path id="Path_166" data-name="Path 166" d="M228.429,219.819h0V208.53l-25.314-.014-8.75-5.052c-2.008-1.159-5.515-1.014-7.834.325l-8.163,4.713-25.337-.014V220.1a2.27,2.27,0,0,0,1.345,2.1L187.1,241.088c2.008,1.159,5.515,1.013,7.834-.325l31.593-18.24C227.859,221.751,228.505,220.75,228.429,219.819Z" fill="url(#linear-gradient)"></path><path id="Path_167" data-name="Path 167" d="M190.731,202.687a9.037,9.037,0,0,0-4.2,1.1l-8.163,4.713-25.337-.014V220.1a2.27,2.27,0,0,0,1.345,2.1L187.1,241.088a7.091,7.091,0,0,0,3.636.776Z" fill="url(#linear-gradient)"></path><path id="Path_168" data-name="Path 168" d="M155.9,208.489h-2.867V220.1a2.27,2.27,0,0,0,1.345,2.1l1.522.879Z" fill="#fff"></path><path id="Path_169" data-name="Path 169" d="M187.6,241.334a8.926,8.926,0,0,0,6.262-.071V228.08H187.6Z" fill="#fff"></path><path id="Path_170" data-name="Path 170" d="M187.1,229.519l-32.719-18.89c-2.008-1.16-1.756-3.185.562-4.523l31.593-18.24c2.319-1.339,5.826-1.484,7.834-.325l32.719,18.89c2.008,1.159,1.756,3.185-.562,4.523l-31.593,18.24C192.61,230.533,189.1,230.678,187.1,229.519Z" fill="#d4ecff"></path><path id="Path_171" data-name="Path 171" d="M226.522,208.733l-31.593,18.24c-2.319,1.338-5.826,1.484-7.834.324l-32.719-18.89a3.01,3.01,0,0,1-1-.889c-.69,1.11-.377,2.315,1,3.111l32.719,18.89c2.008,1.159,5.515,1.014,7.834-.325l31.593-18.24c1.8-1.04,2.349-2.493,1.564-3.634A4.395,4.395,0,0,1,226.522,208.733Z" fill="#fff"></path><g id="Group_57" data-name="Group 57"><path id="Path_172" data-name="Path 172" d="M216.4,222.8a2.922,2.922,0,0,1-1.321,2.289c-.73.422-1.322.08-1.322-.763a2.92,2.92,0,0,1,1.322-2.288C215.8,221.614,216.4,221.956,216.4,222.8Z" fill="#fff"></path><path id="Path_173" data-name="Path 173" d="M220.647,220.344a2.923,2.923,0,0,1-1.322,2.289c-.729.421-1.321.079-1.321-.763a2.922,2.922,0,0,1,1.321-2.289C220.055,219.159,220.647,219.5,220.647,220.344Z" fill="#fff"></path><path id="Path_174" data-name="Path 174" d="M224.9,217.889a2.922,2.922,0,0,1-1.322,2.289c-.73.421-1.321.08-1.321-.763a2.919,2.919,0,0,1,1.321-2.289C224.307,216.705,224.9,217.046,224.9,217.889Z" fill="#fff"></path></g><g id="Group_58" data-name="Group 58"><path id="Path_175" data-name="Path 175" d="M189.029,217.807l-15.31-8.839c-.94-.543-.822-1.49.263-2.117l14.784-8.535a4.071,4.071,0,0,1,3.666-.152L207.742,207c.94.543.822,1.491-.263,2.117L192.7,217.655A4.071,4.071,0,0,1,189.029,217.807Z" fill="url(#linear-gradient)"></path><path id="Path_176" data-name="Path 176" d="M190.495,210.406l-2.118-1.223c-.13-.075-.114-.206.036-.293l2.046-1.181a.566.566,0,0,1,.507-.021l2.118,1.223c.13.075.114.206-.036.293L191,210.385A.562.562,0,0,1,190.495,210.406Z" fill="#d4ecff"></path><path id="Path_177" data-name="Path 177" d="M173.719,208.968l.043.025a2.358,2.358,0,0,1,.22-.151l14.784-8.536a4.078,4.078,0,0,1,3.666-.152l15.267,8.815c.866-.62.912-1.464.043-1.966l-15.31-8.839a4.071,4.071,0,0,0-3.666.152l-14.784,8.535C172.9,207.478,172.779,208.425,173.719,208.968Z" fill="#396caa"></path></g></g><g id="Group_60" data-name="Group 60"><path id="Path_178" data-name="Path 178" d="M184.986,232.818c0,.567-.4.8-.889.513a1.966,1.966,0,0,1-.89-1.54c0-.567.4-.8.89-.513A1.965,1.965,0,0,1,184.986,232.818Z" fill="#fff"></path><path id="Path_179" data-name="Path 179" d="M182.227,231.236c0,.567-.4.8-.889.513a1.964,1.964,0,0,1-.889-1.54c0-.567.4-.8.889-.514A1.968,1.968,0,0,1,182.227,231.236Z" fill="#fff"></path><path id="Path_180" data-name="Path 180" d="M184.986,236.147c0,.568-.4.8-.889.514a1.967,1.967,0,0,1-.89-1.54c0-.568.4-.8.89-.514A1.966,1.966,0,0,1,184.986,236.147Z" fill="#fff"></path><path id="Path_181" data-name="Path 181" d="M182.227,234.565c0,.567-.4.8-.889.514a1.968,1.968,0,0,1-.889-1.541c0-.567.4-.8.889-.513A1.965,1.965,0,0,1,182.227,234.565Z" fill="#fff"></path></g><g id="Group_61" data-name="Group 61"><path id="Path_182" data-name="Path 182" d="M184.986,250.769c0,.568-.4.8-.889.514a1.967,1.967,0,0,1-.89-1.54c0-.568.4-.8.89-.514A1.966,1.966,0,0,1,184.986,250.769Z" fill="#fff"></path><path id="Path_183" data-name="Path 183" d="M182.227,249.187c0,.567-.4.8-.889.514a1.968,1.968,0,0,1-.889-1.541c0-.567.4-.8.889-.513A1.964,1.964,0,0,1,182.227,249.187Z" fill="#fff"></path><path id="Path_184" data-name="Path 184" d="M184.986,254.1c0,.567-.4.8-.889.513a1.966,1.966,0,0,1-.89-1.54c0-.567.4-.8.89-.513A1.964,1.964,0,0,1,184.986,254.1Z" fill="#fff"></path><path id="Path_185" data-name="Path 185" d="M182.227,252.517c0,.567-.4.8-.889.513a1.966,1.966,0,0,1-.889-1.54c0-.568.4-.8.889-.514A1.966,1.966,0,0,1,182.227,252.517Z" fill="#fff"></path></g><g id="Group_62" data-name="Group 62"><path id="Path_186" data-name="Path 186" d="M184.986,268.721c0,.567-.4.8-.889.513a1.966,1.966,0,0,1-.89-1.54c0-.567.4-.8.89-.513A1.964,1.964,0,0,1,184.986,268.721Z" fill="#fff"></path><path id="Path_187" data-name="Path 187" d="M182.227,267.138c0,.568-.4.8-.889.514a1.966,1.966,0,0,1-.889-1.54c0-.568.4-.8.889-.514A1.966,1.966,0,0,1,182.227,267.138Z" fill="#fff"></path><path id="Path_188" data-name="Path 188" d="M184.986,272.05c0,.567-.4.8-.889.514a1.969,1.969,0,0,1-.89-1.541c0-.567.4-.8.89-.513A1.966,1.966,0,0,1,184.986,272.05Z" fill="#fff"></path><path id="Path_189" data-name="Path 189" d="M182.227,270.468c0,.567-.4.8-.889.513a1.964,1.964,0,0,1-.889-1.54c0-.567.4-.8.889-.513A1.964,1.964,0,0,1,182.227,270.468Z" fill="#fff"></path></g></g><path id="Path_190" data-name="Path 190" d="M191.155,299.255a5.39,5.39,0,0,1-2.706-.726l-16.487-9.568a1.8,1.8,0,0,1,0-3.109l10.843-6.288.8,1.383-10.843,6.288a.2.2,0,0,0,0,.343l16.487,9.568a3.808,3.808,0,0,0,3.78.015l32.293-18.4a5.413,5.413,0,0,1,5.378.022L257.754,294.4a3.8,3.8,0,0,0,3.807.006l13.043-7.543.8,1.385L262.362,295.8a5.4,5.4,0,0,1-5.41-.008L229.9,280.165a3.809,3.809,0,0,0-3.787-.018l-32.293,18.4A5.394,5.394,0,0,1,191.155,299.255Z" fill="#b2d3ea"></path><g id="Group_71" data-name="Group 71"><path id="Path_191" data-name="Path 191" d="M334.381,360.128l-26.129-15.085c-1.6-.926-1.4-2.543.45-3.612l25.229-14.567a6.953,6.953,0,0,1,6.256-.259l26.129,15.085c1.6.926,1.4,2.543-.449,3.612l-25.23,14.567A6.953,6.953,0,0,1,334.381,360.128Z" fill="#b2d3ea"></path><g id="Group_65" data-name="Group 65"><path id="Path_192" data-name="Path 192" d="M374.983,330.2h0V318.911l-25.314-.014-8.75-5.052c-2.008-1.159-5.515-1.014-7.834.325l-8.163,4.713-25.337-.014V330.48a2.27,2.27,0,0,0,1.345,2.1l32.719,18.891c2.008,1.159,5.515,1.014,7.834-.325l31.593-18.24C374.413,332.132,375.059,331.131,374.983,330.2Z" fill="url(#linear-gradient)"></path><path id="Path_193" data-name="Path 193" d="M337.285,313.069a9.024,9.024,0,0,0-4.2,1.1l-8.163,4.713-25.337-.014V330.48a2.27,2.27,0,0,0,1.345,2.1l32.719,18.891a7.091,7.091,0,0,0,3.636.776Z" fill="url(#linear-gradient)"></path><path id="Path_194" data-name="Path 194" d="M302.452,318.871l-2.867,0V330.48a2.27,2.27,0,0,0,1.345,2.1l1.522.879Z" fill="#fff"></path><path id="Path_195" data-name="Path 195" d="M334.153,351.715a8.921,8.921,0,0,0,6.262-.071V338.461h-6.262Z" fill="#fff"></path><path id="Path_196" data-name="Path 196" d="M333.649,339.9,300.93,321.01c-2.008-1.159-1.756-3.184.562-4.523l31.593-18.24c2.319-1.339,5.826-1.484,7.834-.325l32.719,18.89c2.008,1.16,1.756,3.185-.562,4.523l-31.593,18.24C339.164,340.914,335.657,341.059,333.649,339.9Z" fill="#d4ecff"></path><path id="Path_197" data-name="Path 197" d="M334.238,336.5l-27.419-15.83c-1.683-.972-1.472-2.669.471-3.79l26.475-15.286a7.3,7.3,0,0,1,6.566-.272l27.418,15.83c1.683.972,1.472,2.669-.471,3.791L340.8,336.228A7.3,7.3,0,0,1,334.238,336.5Z" fill="#002350"></path><g id="Group_64" data-name="Group 64"><path id="Path_198" data-name="Path 198" d="M362.949,333.18a2.925,2.925,0,0,1-1.321,2.289c-.73.421-1.322.079-1.322-.763a2.92,2.92,0,0,1,1.322-2.289C362.357,331.995,362.949,332.337,362.949,333.18Z" fill="#fff"></path><path id="Path_199" data-name="Path 199" d="M367.2,330.725a2.922,2.922,0,0,1-1.322,2.289c-.729.421-1.321.08-1.321-.763a2.922,2.922,0,0,1,1.321-2.289C366.609,329.54,367.2,329.882,367.2,330.725Z" fill="#fff"></path><path id="Path_200" data-name="Path 200" d="M371.453,328.27a2.922,2.922,0,0,1-1.322,2.289c-.73.421-1.321.08-1.321-.763a2.919,2.919,0,0,1,1.321-2.289C370.861,327.086,371.453,327.427,371.453,328.27Z" fill="#fff"></path></g></g><g id="Group_67" data-name="Group 67"><path id="Path_201" data-name="Path 201" d="M374.983,312.159h0V300.87l-25.314-.014-8.75-5.052c-2.008-1.159-5.515-1.014-7.834.325l-8.163,4.713-25.337-.014v11.611a2.272,2.272,0,0,0,1.345,2.1l32.719,18.89c2.008,1.159,5.515,1.014,7.834-.325l31.593-18.24C374.413,314.091,375.059,313.09,374.983,312.159Z" fill="url(#linear-gradient)"></path><path id="Path_202" data-name="Path 202" d="M337.285,295.028a9.024,9.024,0,0,0-4.2,1.1l-8.163,4.713-25.337-.014v11.611a2.272,2.272,0,0,0,1.345,2.1l32.719,18.89a7.092,7.092,0,0,0,3.636.776Z" fill="url(#linear-gradient)"></path><path id="Path_203" data-name="Path 203" d="M302.452,300.83l-2.867,0v11.611a2.272,2.272,0,0,0,1.345,2.1l1.522.878Z" fill="#fff"></path><path id="Path_204" data-name="Path 204" d="M334.153,333.675a8.926,8.926,0,0,0,6.262-.072V320.42h-6.262Z" fill="#fff"></path><path id="Path_205" data-name="Path 205" d="M333.649,321.859l-32.719-18.89c-2.008-1.159-1.756-3.184.562-4.523l31.593-18.24c2.319-1.339,5.826-1.484,7.834-.325l32.719,18.89c2.008,1.16,1.756,3.185-.562,4.523l-31.593,18.24C339.164,322.873,335.657,323.019,333.649,321.859Z" fill="#d4ecff"></path><path id="Path_206" data-name="Path 206" d="M334.238,318.459l-27.419-15.83c-1.683-.972-1.472-2.669.471-3.79l26.475-15.286a7.3,7.3,0,0,1,6.566-.272l27.418,15.83c1.683.972,1.472,2.669-.471,3.791L340.8,318.187A7.3,7.3,0,0,1,334.238,318.459Z" fill="#002350"></path><g id="Group_66" data-name="Group 66"><path id="Path_207" data-name="Path 207" d="M362.949,315.139a2.925,2.925,0,0,1-1.321,2.289c-.73.421-1.322.079-1.322-.763a2.92,2.92,0,0,1,1.322-2.289C362.357,313.954,362.949,314.3,362.949,315.139Z" fill="#fff"></path><path id="Path_208" data-name="Path 208" d="M367.2,312.684a2.922,2.922,0,0,1-1.322,2.289c-.729.421-1.321.08-1.321-.763a2.922,2.922,0,0,1,1.321-2.289C366.609,311.5,367.2,311.841,367.2,312.684Z" fill="#fff"></path><path id="Path_209" data-name="Path 209" d="M371.453,310.229a2.92,2.92,0,0,1-1.322,2.289c-.73.421-1.321.08-1.321-.763a2.919,2.919,0,0,1,1.321-2.289C370.861,309.045,371.453,309.386,371.453,310.229Z" fill="#fff"></path></g></g><g id="Group_70" data-name="Group 70"><path id="Path_210" data-name="Path 210" d="M374.983,294.118h0V282.829l-25.314-.014-8.75-5.052c-2.008-1.159-5.515-1.014-7.834.325l-8.163,4.713-25.337-.014V294.4a2.271,2.271,0,0,0,1.345,2.1l32.719,18.89c2.008,1.159,5.515,1.014,7.834-.325l31.593-18.24C374.413,296.05,375.059,295.05,374.983,294.118Z" fill="url(#linear-gradient)"></path><path id="Path_211" data-name="Path 211" d="M337.285,276.987a9.024,9.024,0,0,0-4.2,1.1l-8.163,4.713-25.337-.014V294.4a2.271,2.271,0,0,0,1.345,2.1l32.719,18.89a7.082,7.082,0,0,0,3.636.776Z" fill="url(#linear-gradient)"></path><path id="Path_212" data-name="Path 212" d="M302.452,282.789l-2.867,0V294.4a2.271,2.271,0,0,0,1.345,2.1l1.522.878Z" fill="#fff"></path><path id="Path_213" data-name="Path 213" d="M334.153,315.634a8.926,8.926,0,0,0,6.262-.072V302.379h-6.262Z" fill="#fff"></path><path id="Path_214" data-name="Path 214" d="M333.649,303.818l-32.719-18.89c-2.008-1.159-1.756-3.184.562-4.523l31.593-18.24c2.319-1.339,5.826-1.484,7.834-.325l32.719,18.89c2.008,1.16,1.756,3.185-.562,4.523l-31.593,18.24C339.164,304.832,335.657,304.978,333.649,303.818Z" fill="#d4ecff"></path><path id="Path_215" data-name="Path 215" d="M373.076,283.032l-31.593,18.24c-2.319,1.338-5.826,1.484-7.834.325L300.93,282.706a3.009,3.009,0,0,1-1-.889c-.69,1.111-.377,2.315,1,3.111l32.719,18.89c2.008,1.16,5.515,1.014,7.834-.325l31.593-18.24c1.8-1.04,2.349-2.493,1.564-3.634A4.377,4.377,0,0,1,373.076,283.032Z" fill="#fff"></path><g id="Group_68" data-name="Group 68"><path id="Path_216" data-name="Path 216" d="M362.949,297.1a2.925,2.925,0,0,1-1.321,2.289c-.73.421-1.322.079-1.322-.763a2.92,2.92,0,0,1,1.322-2.289C362.357,295.913,362.949,296.255,362.949,297.1Z" fill="#fff"></path><path id="Path_217" data-name="Path 217" d="M367.2,294.643a2.922,2.922,0,0,1-1.322,2.289c-.729.421-1.321.08-1.321-.763a2.922,2.922,0,0,1,1.321-2.289C366.609,293.459,367.2,293.8,367.2,294.643Z" fill="#fff"></path><path id="Path_218" data-name="Path 218" d="M371.453,292.188a2.92,2.92,0,0,1-1.322,2.289c-.73.421-1.321.08-1.321-.763a2.919,2.919,0,0,1,1.321-2.289C370.861,291,371.453,291.345,371.453,292.188Z" fill="#fff"></path></g><g id="Group_69" data-name="Group 69"><path id="Path_219" data-name="Path 219" d="M335.583,292.107l-15.31-8.84c-.94-.543-.822-1.49.263-2.117l14.784-8.535a4.071,4.071,0,0,1,3.666-.152l15.31,8.84c.94.542.822,1.49-.263,2.116l-14.784,8.536A4.078,4.078,0,0,1,335.583,292.107Z" fill="url(#linear-gradient)"></path><path id="Path_220" data-name="Path 220" d="M337.049,284.7l-2.118-1.223c-.13-.075-.114-.206.036-.293l2.046-1.181a.566.566,0,0,1,.507-.021l2.118,1.223c.13.076.114.207-.036.293l-2.046,1.181A.562.562,0,0,1,337.049,284.7Z" fill="#fff"></path><path id="Path_221" data-name="Path 221" d="M320.273,283.267l.043.025a2.351,2.351,0,0,1,.22-.151l14.784-8.536a4.078,4.078,0,0,1,3.666-.152l15.267,8.815c.866-.62.912-1.464.043-1.965l-15.31-8.84a4.071,4.071,0,0,0-3.666.152l-14.784,8.535C319.451,281.777,319.333,282.724,320.273,283.267Z" fill="#396caa"></path></g></g></g><path id="Path_222" data-name="Path 222" d="M287.006,101.871c0,.567-.4.8-.889.513a1.965,1.965,0,0,1-.889-1.54c0-.567.4-.8.889-.513A1.965,1.965,0,0,1,287.006,101.871Z" fill="#fff"></path><path id="Path_223" data-name="Path 223" d="M294.84,106.621c0,.567-.4.8-.89.513a1.965,1.965,0,0,1-.889-1.54c0-.567.4-.8.889-.513A1.963,1.963,0,0,1,294.84,106.621Z" fill="#fff"></path><path id="Path_224" data-name="Path 224" d="M302.673,111.371c0,.567-.4.8-.889.513a1.966,1.966,0,0,1-.89-1.54c0-.567.4-.8.89-.513A1.965,1.965,0,0,1,302.673,111.371Z" fill="#fff"></path><path id="Path_225" data-name="Path 225" d="M310.506,116.121c0,.567-.4.8-.889.513a1.965,1.965,0,0,1-.889-1.54c0-.567.4-.8.889-.513A1.965,1.965,0,0,1,310.506,116.121Z" fill="#fff"></path></g><path id="Path_226" data-name="Path 226" d="M292.466,111.349a.8.8,0,1,1-.8-.8A.8.8,0,0,1,292.466,111.349Z" fill="#d4ecff"></path><path id="Path_227" data-name="Path 227" d="M299.769,115.724a.8.8,0,1,1-.8-.8A.8.8,0,0,1,299.769,115.724Z" fill="#d4ecff"></path><circle id="Ellipse_1" data-name="Ellipse 1" cx="0.8" cy="0.8" r="0.8" transform="translate(305.473 119.299)" fill="#d4ecff"></circle><path id="Path_228" data-name="Path 228" d="M314.376,124.3a.8.8,0,1,1-.8-.8A.8.8,0,0,1,314.376,124.3Z" fill="#d4ecff"></path></g></svg>