<svg xmlns="http://www.w3.org/2000/svg" width="791.53" height="823.886" viewBox="0 0 791.53 823.886">
  <g id="Group_144" data-name="Group 144" transform="translate(-917.448 -309.248)">
    <g id="Group_80" data-name="Group 80" transform="translate(917.448 309.248)">
      <ellipse id="Ellipse_44" data-name="Ellipse 44" cx="395.765" cy="25.891" rx="395.765" ry="25.891" transform="translate(0 772.104)" fill="#a9bdd2"/>
      <g id="Group_79" data-name="Group 79" transform="translate(55.042)">
        <path id="Path_102" data-name="Path 102" d="M1094.7,844.989c34.212,0,51.781-9.247,51.781-175.69s73.05-96.167,73.05-96.167" transform="translate(-901.442 -209.381)" fill="none" stroke="#242638" stroke-miterlimit="10" stroke-width="2.63"/>
        <g id="Group_51" data-name="Group 51" transform="translate(245.328 182.739)">
          <path id="Path_103" data-name="Path 103" d="M1255.764,591.962H1186.1A26.507,26.507,0,0,0,1159.6,618.47v98.016" transform="translate(-1120.759 -378.668)" fill="none" stroke="#a9bdd2" stroke-miterlimit="10" stroke-width="7.921"/>
          <circle id="Ellipse_45" data-name="Ellipse 45" cx="10.865" cy="10.865" r="10.865" transform="translate(249.141 588.135) rotate(-9.24)" fill="#242638"/>
          <circle id="Ellipse_46" data-name="Ellipse 46" cx="10.865" cy="10.865" r="10.865" transform="translate(21.206 588.135) rotate(-9.24)" fill="#242638"/>
          <rect id="Rectangle_186" data-name="Rectangle 186" width="17.569" height="252.439" transform="translate(141.169 317.167)" fill="#a9bdd2"/>
          <path id="Path_104" data-name="Path 104" d="M1373.215,661.492H1145.743a13.912,13.912,0,0,0-13.871,13.871h0a13.911,13.911,0,0,0,13.871,13.87h227.472a13.911,13.911,0,0,0,13.871-13.87h0A13.912,13.912,0,0,0,1373.215,661.492Z" transform="translate(-1131.872 -350.799)" fill="#356493"/>
          <rect id="Rectangle_187" data-name="Rectangle 187" width="188.636" height="338.434" rx="17.493" transform="translate(101.716)" fill="#356493"/>
          <path id="Path_105" data-name="Path 105" d="M1204.043,739.192h157.5a12.021,12.021,0,0,0,12.021-12.021V467.643" transform="translate(-1102.944 -428.498)" fill="none" stroke="#242638" stroke-linecap="round" stroke-linejoin="round" stroke-width="1.32"/>
          <path id="Path_106" data-name="Path 106" d="M1358.827,591.962h-69.659a26.508,26.508,0,0,0-26.508,26.508l-.308,99.249" transform="translate(-1079.572 -378.668)" fill="none" stroke="#a9bdd2" stroke-miterlimit="10" stroke-width="7.921"/>
          <path id="Path_107" data-name="Path 107" d="M1150.8,862.26,1273.47,845l119.592,17.261" transform="translate(-1124.287 -277.244)" fill="none" stroke="#a9bdd2" stroke-miterlimit="10" stroke-width="7.921"/>
        </g>
        <g id="Group_57" data-name="Group 57" transform="translate(168.293)">
          <g id="Group_53" data-name="Group 53" transform="translate(99.096 680.529)">
            <path id="Path_108" data-name="Path 108" d="M1216.512,880.6l-10.1-85.545-30.85,3.977,20.5,87.87Z" transform="translate(-1136.419 -795.054)" fill="#fac5c2"/>
            <g id="Group_52" data-name="Group 52" transform="translate(0 77.493)">
              <path id="Path_109" data-name="Path 109" d="M1226.406,850.373s15.674,19.068,15.225,36.195l-91.862,18.686s-9.247-16.465,10.621-25.093,45.8-28.734,45.8-28.734S1219.927,859.56,1226.406,850.373Z" transform="translate(-1147.62 -850.373)"/>
              <path id="Path_110" data-name="Path 110" d="M1241.648,878.91l-91.863,18.684a19.736,19.736,0,0,1-2.136-9.176l93.166-18.95A45.764,45.764,0,0,1,1241.648,878.91Z" transform="translate(-1147.611 -842.719)" fill="#f7ead5"/>
              <path id="Path_111" data-name="Path 111" d="M1197.892,856.136a13,13,0,0,0-3.844-3.564c-2.218-1.2-4.871-1.21-7.385-1.028a56.792,56.792,0,0,0-6.525.854c-2.81.534-5.728,1.362-7.721,3.414a2.282,2.282,0,0,0-.792,2.328,2.125,2.125,0,0,0,1.548,1.06c2.013.472,4.1-.219,6.038-.937q7.029-2.605,13.8-5.851a30.212,30.212,0,0,0,.69,8.052,16.253,16.253,0,0,0,3.071,6.891,6.052,6.052,0,0,0,2.573,1.951,3.2,3.2,0,0,0,3.09-.448,3.375,3.375,0,0,0,.986-2.957,8.675,8.675,0,0,0-1.118-3.027A45.408,45.408,0,0,0,1197.892,856.136Z" transform="translate(-1138.042 -849.938)" fill="none" stroke="#fff" stroke-linecap="round" stroke-linejoin="round" stroke-width="0.917"/>
            </g>
          </g>
          <g id="Group_55" data-name="Group 55" transform="translate(173.995 673.132)">
            <path id="Path_112" data-name="Path 112" d="M1269.98,875.317l-10.1-85.544-30.85,3.977,20.5,87.87Z" transform="translate(-1189.887 -789.773)" fill="#fac5c2"/>
            <g id="Group_54" data-name="Group 54" transform="translate(0 77.493)">
              <path id="Path_113" data-name="Path 113" d="M1279.873,845.092s15.674,19.068,15.226,36.2l-91.862,18.684s-9.247-16.465,10.621-25.093,45.8-28.732,45.8-28.732S1273.395,854.279,1279.873,845.092Z" transform="translate(-1201.088 -845.092)"/>
              <path id="Path_114" data-name="Path 114" d="M1295.116,873.629l-91.863,18.686a19.744,19.744,0,0,1-2.136-9.177l93.166-18.95A45.771,45.771,0,0,1,1295.116,873.629Z" transform="translate(-1201.079 -837.438)" fill="#f7ead5"/>
              <path id="Path_115" data-name="Path 115" d="M1251.36,850.855a12.993,12.993,0,0,0-3.844-3.564c-2.218-1.2-4.871-1.21-7.385-1.028a57.172,57.172,0,0,0-6.525.854c-2.81.534-5.728,1.363-7.722,3.414a2.283,2.283,0,0,0-.791,2.328,2.125,2.125,0,0,0,1.548,1.06c2.013.474,4.1-.219,6.038-.937q7.029-2.606,13.8-5.851a30.2,30.2,0,0,0,.69,8.052,16.254,16.254,0,0,0,3.071,6.891,6.04,6.04,0,0,0,2.573,1.951,3.2,3.2,0,0,0,3.09-.448,3.375,3.375,0,0,0,.986-2.957,8.7,8.7,0,0,0-1.118-3.027A45.414,45.414,0,0,0,1251.36,850.855Z" transform="translate(-1191.51 -844.657)" fill="none" stroke="#fff" stroke-linecap="round" stroke-linejoin="round" stroke-width="0.917"/>
            </g>
          </g>
          <path id="Path_116" data-name="Path 116" d="M1371.885,588.633s3.268,88.077-4.932,93.7-73.975,44.384-73.975,44.384l32.057,199.733s-33.456,18.99-65.344,4.931L1216.537,774.8l32.057,157.813s-34.366,15.488-65.344,9.863c0,0-52.5-230.154-50.242-234.87,5.395-11.25,87.229-84.454,87.229-84.454L1226.4,587.4Z" transform="translate(-1054.41 -197.758)" fill="#242638"/>
          <path id="Path_117" data-name="Path 117" d="M1322.8,593.56s-3.575,56.843-5.853,63.871-79.728,50.864-82.918,56.955,41.92,213.294,41.92,213.294" transform="translate(-1013.954 -195.289)" fill="none" stroke="#356493" stroke-miterlimit="10" stroke-width="1.32"/>
          <path id="Path_118" data-name="Path 118" d="M1200.039,768.014s-21.092-58.906-19.726-67.81,53.016-61.645,53.016-61.645,25.843-20.319,66.387-9.541" transform="translate(-1035.446 -182.34)" fill="none" stroke="#356493" stroke-miterlimit="10" stroke-width="1.32"/>
          <path id="Path_119" data-name="Path 119" d="M1234.917,638.194l1.277-27.028-16.856-5.155-1.528,24.323,11.558,9.247" transform="translate(-1020.39 -190.298)" fill="none" stroke="#356493" stroke-miterlimit="10" stroke-width="1.32"/>
          <path id="Path_120" data-name="Path 120" d="M1248.87,491.025s-22.808,94.934-27.74,98.016-144.25-.616-144.25-.616l8.63-33.9,22.192,15.411,70.893-13.561,21.576-57.947Z" transform="translate(-1076.879 -236.387)" fill="#fac5c2"/>
          <rect id="Rectangle_188" data-name="Rectangle 188" width="102.871" height="7.629" transform="translate(60.567 347.337)" fill="#242638"/>
          <path id="Path_121" data-name="Path 121" d="M1284.46,406.7s76.863,15.9,86.31,23.25,20.462,90.562,20.462,90.562l-13.255,1.849L1365.521,593.7l3.826,115.448-158.429-16.028,2.467-140.552-3.7,20.959-58.116-17.967s21.863-86.77,33.408-99.366,47.236-37.789,47.236-37.789Z" transform="translate(-1046.941 -270.187)"/>
          <path id="Path_122" data-name="Path 122" d="M1273.368,460.66l3.545,49.239,3.545-1.156" transform="translate(-998.121 -248.558)" fill="none" stroke="#242638" stroke-linecap="round" stroke-linejoin="round" stroke-width="0.721"/>
          <path id="Path_123" data-name="Path 123" d="M1384.534,488.825s9.247,80.138,6.165,87.536S1226.1,589.923,1226.1,589.923l-28.357-9.247-14.8,1.234-16.643,7.4-11.1,1.851-3.082-1.234,20.959-26.506,25.891-9.247,31.44,15.411,103.564-25.89-4.932-46.234Z" transform="translate(-1046.717 -237.269)" fill="#fac5c2"/>
          <path id="Path_124" data-name="Path 124" d="M1248.961,372.85l14.47,49.411s2.5,26.216-26.813,31.748c-28.424,5.364-27.714-21.421-27.714-21.421l1.867-8.883-2.72-29.552Z" transform="translate(-1024.302 -283.755)" fill="#fac5c2"/>
          <path id="Path_125" data-name="Path 125" d="M1251.257,380.979l-2.071-7.073-12.755,4.937-12.051,6.276-15.814,16.461,1.482,16.105C1218.393,416.481,1247.28,410.213,1251.257,380.979Z" transform="translate(-1024.095 -283.332)" fill="#d88080"/>
          <g id="Group_56" data-name="Group 56" transform="translate(136.706)">
            <path id="Path_126" data-name="Path 126" d="M1185.171,367.834c2.839,22.633,14.119,67.114,36.882,65.7,23.953-1.486,35.249-15.165,37.775-37.675,0,0,12.19,3.905,10.751-12.354-.635-7.172-8.5-3.062-8.5-3.062s11.551-59.5-25.9-62.98S1181.284,336.853,1185.171,367.834Z" transform="translate(-1170.392 -306.095)" fill="#fac5c2"/>
            <path id="Path_127" data-name="Path 127" d="M1215.622,355.7a6.824,6.824,0,0,1-2.024,1.038,1.849,1.849,0,0,1-2.009-.768,3.616,3.616,0,0,1,.384-3.662c1.36-2.049,3.589-2.739,5.672-3.249a18.586,18.586,0,0,1,6.472-.733,8.283,8.283,0,0,1,5.844,3.292,1.572,1.572,0,0,1,.363.848.993.993,0,0,1-.67.96,2.115,2.115,0,0,1-1.09-.064A17.085,17.085,0,0,0,1215.622,355.7Z" transform="translate(-1159.731 -293.611)" fill="#242638"/>
            <path id="Path_128" data-name="Path 128" d="M1202.288,357.763a5.807,5.807,0,0,0,2.01.486,1.56,1.56,0,0,0,1.5-1.24,4.006,4.006,0,0,0-1.349-3.421c-1.73-1.626-3.817-1.729-5.731-1.7a14.7,14.7,0,0,0-5.707.923,7.228,7.228,0,0,0-4.051,4.628,1.68,1.68,0,0,0-.072.9.991.991,0,0,0,.838.754,1.67,1.67,0,0,0,.908-.336A13.7,13.7,0,0,1,1202.288,357.763Z" transform="translate(-1168.705 -292.157)" fill="#242638"/>
            <path id="Path_129" data-name="Path 129" d="M1206.592,364.372c1.132,5.169-.364,10.508-1.792,15.6a2.025,2.025,0,0,0-.013,1.541,1.723,1.723,0,0,0,.475.486,6.33,6.33,0,0,0,3.356,1.261c1.727.122,3.737-.387,5,.8" transform="translate(-1162.376 -287.153)" fill="none" stroke="#242638" stroke-miterlimit="10" stroke-width="0.679"/>
            <path id="Path_130" data-name="Path 130" d="M1194.776,367.711c-.523-3.821.646-7.137,2.608-7.406s3.977,2.614,4.5,6.435-.646,7.139-2.608,7.406S1195.3,371.534,1194.776,367.711Z" transform="translate(-1166.379 -288.79)" fill="#242638"/>
            <path id="Path_131" data-name="Path 131" d="M1216.284,364.457c-.522-3.823.646-7.139,2.608-7.406s3.977,2.613,4.5,6.434-.646,7.139-2.608,7.406S1216.806,368.279,1216.284,364.457Z" transform="translate(-1157.758 -290.095)" fill="#242638"/>
            <path id="Path_132" data-name="Path 132" d="M1200.844,384.294s15.132,2.234,28.913-3.188c0,0-4.394,11.7-13.821,12.243S1200.844,384.294,1200.844,384.294Z" transform="translate(-1163.896 -280.446)" fill="#fff"/>
            <path id="Path_133" data-name="Path 133" d="M1179.487,353.01c-2.068-1.184-4.652-2.37-4.986-4.728-.321-2.276,1.751-4.173,3.806-5.2s4.427-1.771,5.753-3.648c-4.791-.338-7.291-6.51-5.78-11.068,1.321-3.985,4.7-7.041,8.5-8.828a38.589,38.589,0,0,1,12.194-2.924,146.147,146.147,0,0,1,23.642-.726c6.618.333,13.952.911,19.146-3.2,1.479-1.173,2.771-2.719,4.583-3.251,2.9-.85,5.973,1.383,7.139,4.167s.916,5.93.646,8.936c3.071-1.233,6.718-1.925,9.573-.252s3.693,6.529.811,8.154c-.936.528-2.206.748-2.621,1.74-.465,1.109.507,2.253,1.355,3.106a36.574,36.574,0,0,1-.112,51.709c-3.162-8.011-7.584-15.464-11.041-23.353s-5.968-16.489-4.97-25.044c-14.361,11.149-33.544,14.454-51.677,13.129-1.374-.1-2.9-.181-3.969.688-1.139.926-1.321,2.566-1.416,4.032q-.527,8.111-1.056,16.224A19.842,19.842,0,0,0,1179.487,353.01Z" transform="translate(-1174.468 -309.248)" fill="#242638"/>
            <path id="Path_134" data-name="Path 134" d="M1262.511,376.431a176.728,176.728,0,0,1-14.922-50.738c.213,1.794-6.664,4.6-7.889,5.224a67.924,67.924,0,0,1-14.225,5.376c-13.063,3.293-26.174,2.46-39.477,2.814-1.829.049-3.782.167-5.249,1.261s-2.051,3.538-.671,4.739" transform="translate(-1172.534 -302.657)" fill="none" stroke="#fff" stroke-linecap="round" stroke-linejoin="round" stroke-width="0.69"/>
            <path id="Path_135" data-name="Path 135" d="M1182.194,331.756c6.692-3.987,15.029-3.389,22.807-2.956,11.432.639,23.335.56,33.729-4.24" transform="translate(-1171.372 -303.111)" fill="none" stroke="#fff" stroke-linecap="round" stroke-linejoin="round" stroke-width="0.69"/>
          </g>
          <rect id="Rectangle_189" data-name="Rectangle 189" width="22.308" height="19.765" rx="1.976" transform="matrix(0.984, -0.18, 0.18, 0.984, 185.257, 65.995)" fill="none" stroke="#242638" stroke-miterlimit="10" stroke-width="0.855"/>
          <rect id="Rectangle_190" data-name="Rectangle 190" width="20.69" height="19.765" rx="1.903" transform="matrix(0.984, -0.18, 0.18, 0.984, 155.582, 71.426)" fill="none" stroke="#242638" stroke-miterlimit="10" stroke-width="0.823"/>
          <line id="Line_10" data-name="Line 10" x1="14.747" y2="1.602" transform="translate(209.719 72.214)" fill="none" stroke="#242638" stroke-miterlimit="10" stroke-width="0.66"/>
          <path id="Path_136" data-name="Path 136" d="M1213.4,364.806s-7.422-2.344-9.478,2.146" transform="translate(-1025.959 -287.224)" fill="none" stroke="#242638" stroke-miterlimit="10" stroke-width="0.66"/>
          <line id="Line_11" data-name="Line 11" x1="1.929" y2="0.588" transform="translate(155.558 82.906)" fill="none" stroke="#242638" stroke-miterlimit="10" stroke-width="0.66"/>
          <path id="Path_137" data-name="Path 137" d="M1202.526,537.013l-3.545-1.541-27.432,9.863-19.418,25.89s1.079,2.467,14.179-.616l16.643-7.4,12.176-1.234" transform="translate(-1046.717 -218.572)" fill="none" stroke="#242638" stroke-linecap="round" stroke-miterlimit="10" stroke-width="0.66"/>
        </g>
        <g id="Group_74" data-name="Group 74" transform="translate(23.83 140.511)">
          <g id="Group_58" data-name="Group 58" transform="translate(399.041 230.554)">
            <path id="Path_138" data-name="Path 138" d="M1476.833,996.72a3.782,3.782,0,0,1-3.688-3.624l-25.663-411.2H1278.226l-12.219,411.071a3.7,3.7,0,1,1-7.391-.241l12.324-414.828a3.787,3.787,0,0,1,3.7-3.756h176.308a3.777,3.777,0,0,1,3.691,3.624l25.891,414.827a3.822,3.822,0,0,1-3.45,4.123C1477,996.716,1476.913,996.72,1476.833,996.72Z" transform="translate(-1258.614 -574.138)" fill="#242638"/>
            <rect id="Rectangle_191" data-name="Rectangle 191" width="193.567" height="6.623" transform="translate(10.477 185.446)" fill="#242638"/>
          </g>
          <g id="Group_59" data-name="Group 59" transform="translate(5.743 230.554)">
            <path id="Path_139" data-name="Path 139" d="M1196.072,996.72a3.781,3.781,0,0,1-3.688-3.624l-25.663-411.2H997.464L985.243,992.963a3.7,3.7,0,1,1-7.389-.241l12.324-414.828a3.787,3.787,0,0,1,3.7-3.756h176.308a3.777,3.777,0,0,1,3.691,3.624l25.891,414.827a3.822,3.822,0,0,1-3.45,4.123C1196.234,996.716,1196.151,996.72,1196.072,996.72Z" transform="translate(-977.852 -574.138)" fill="#242638"/>
            <rect id="Rectangle_192" data-name="Rectangle 192" width="193.567" height="6.623" transform="translate(10.477 185.446)" fill="#242638"/>
          </g>
          <rect id="Rectangle_193" data-name="Rectangle 193" width="602.894" height="24.851" transform="translate(4.507 214.739)" fill="#fbdbd0"/>
          <rect id="Rectangle_194" data-name="Rectangle 194" width="602.894" height="6.781" transform="translate(4.507 233.638)" fill="#242638"/>
          <line id="Line_12" data-name="Line 12" y1="22.192" transform="translate(401.504 213.911)" fill="none" stroke="#242638" stroke-miterlimit="10" stroke-width="1.32"/>
          <g id="Group_60" data-name="Group 60" transform="translate(32.451)">
            <path id="Path_140" data-name="Path 140" d="M1198.256,409.554H1002.608a5.691,5.691,0,0,0-5.638,6.452l20.654,152.6a5.688,5.688,0,0,0,5.637,4.925h195.648a5.689,5.689,0,0,0,5.637-6.452l-20.652-152.6A5.689,5.689,0,0,0,1198.256,409.554Z" transform="translate(-996.918 -409.554)" fill="#242638"/>
            <path id="Path_141" data-name="Path 141" d="M1108.506,570.915l17.26-53.016-66.577-1.849L1033.3,582.011h117.127v-11.1Zm-29.127-11.1a10.942,10.942,0,1,1,10.942-10.942A10.942,10.942,0,0,1,1079.379,559.819Z" transform="translate(-982.336 -366.868)" fill="#242638"/>
            <path id="Path_142" data-name="Path 142" d="M1115.961,530.894l4.623-12.946h-67.849l-5.548,12.637" transform="translate(-976.768 -366.107)" fill="none" stroke="#fff" stroke-linecap="round" stroke-linejoin="round" stroke-width="0.66"/>
            <line id="Line_13" data-name="Line 13" x2="23.579" y2="165.981" transform="translate(197.216 0.001)" fill="none" stroke="#fff" stroke-linecap="round" stroke-linejoin="round" stroke-width="0.66"/>
          </g>
          <g id="Group_71" data-name="Group 71" transform="translate(0 78.207)">
            <g id="Group_62" data-name="Group 62" transform="translate(31.274)">
              <g id="Group_61" data-name="Group 61">
                <path id="Path_143" data-name="Path 143" d="M1016.776,465.515c-1.72-.646-3.342,1.21-3.971,2.936-1.605,4.407-1.136,9.9-4.593,13.064-.681.625-1.482,1.115-2.1,1.8a6.993,6.993,0,0,0-1.572,4.27c-.21,3.1.754,6.155,1.132,9.244s.015,6.578-2.269,8.691c-1.105,1.023-2.573,1.631-3.541,2.785-2.013,2.4-1.108,5.991-.176,8.982s1.622,6.7-.625,8.88c-.607.588-1.378,1-1.939,1.628-1.349,1.523-1.116,3.831-.783,5.837q1.834,11.036,4.506,21.91a2.235,2.235,0,0,0,2.924,2.03l5.75-.3a5.652,5.652,0,0,0,2.979-.716,5.549,5.549,0,0,0,1.755-2.8q2.564-6.951,4.462-14.123c.78-2.947,1.453-6.182.189-8.956-.663-1.453-1.813-2.657-2.366-4.155-2.063-5.573,4.858-10.778,4.714-16.719-.092-3.828-3.138-7.127-3.178-10.957-.046-4.414,3.9-8.764,2.1-12.8-.594-1.332-1.741-2.342-2.44-3.621-2.168-3.964.508-8.75.719-13.263C1018.514,467.738,1018.12,466.019,1016.776,465.515Z" transform="translate(-996.077 -465.383)" fill="#356493"/>
                <path id="Path_144" data-name="Path 144" d="M1013.081,467.946c-2.184,5.781-4.406,11.922-3.295,18a20.377,20.377,0,0,1,.543,3.41c.036,3.457-2.66,6.368-3.237,9.778-.6,3.555,1.171,7.162.737,10.742-.41,3.375-2.687,6.169-4.345,9.136s-2.664,6.884-.632,9.61c.944,1.266,2.419,2.07,3.3,3.38,1.7,2.514.7,5.9-.409,8.722-1.884,4.806-3.967,10.013-2.548,14.978" transform="translate(-993.816 -464.356)" fill="none" stroke="#242638" stroke-linecap="round" stroke-linejoin="round" stroke-width="0.217"/>
                <path id="Path_145" data-name="Path 145" d="M1006.148,500.083a4.941,4.941,0,0,1,.448-2.839c.771-1.241,2.506-1.611,3.278-2.852.709-1.14.378-2.6.455-3.945a6.33,6.33,0,0,1,2.747-4.816" transform="translate(-992.049 -457.267)" fill="none" stroke="#242638" stroke-linecap="round" stroke-linejoin="round" stroke-width="0.217"/>
                <path id="Path_146" data-name="Path 146" d="M1011.254,477.958a4.778,4.778,0,0,1-1.946,2.32,4.01,4.01,0,0,0-1.783,2.419" transform="translate(-991.489 -460.343)" fill="none" stroke="#242638" stroke-linecap="round" stroke-linejoin="round" stroke-width="0.217"/>
                <path id="Path_147" data-name="Path 147" d="M1004.288,482.239c1.356,2.954.478,6.633,2.086,9.458" transform="translate(-992.786 -458.627)" fill="none" stroke="#242638" stroke-linecap="round" stroke-linejoin="round" stroke-width="0.217"/>
                <path id="Path_148" data-name="Path 148" d="M1004.1,504.558a6.76,6.76,0,0,1,4.376-2.882c.507-.092,1.024-.126,1.524-.249a4.651,4.651,0,0,0,3.239-3.1c.123-.391.322-.9.73-.863" transform="translate(-992.86 -452.524)" fill="none" stroke="#242638" stroke-linecap="round" stroke-linejoin="round" stroke-width="0.217"/>
              </g>
              <path id="Path_149" data-name="Path 149" d="M1000.9,496.546a8.78,8.78,0,0,1,1.811,5.448,21.313,21.313,0,0,0,.708,5.788" transform="translate(-994.144 -452.892)" fill="none" stroke="#242638" stroke-linecap="round" stroke-linejoin="round" stroke-width="0.217"/>
            </g>
            <g id="Group_64" data-name="Group 64" transform="translate(49.744 46.719)">
              <path id="Path_150" data-name="Path 150" d="M1046.505,499.224c-.511-.873-1.821-.444-2.669.234-2.161,1.729-3.807,4.666-6.337,5.18a15.111,15.111,0,0,0-1.495.248,4.445,4.445,0,0,0-2.1,1.671,35.248,35.248,0,0,0-2.628,5.051c-.878,1.689-2.2,3.347-3.883,3.7a17.789,17.789,0,0,0-2.436.293c-1.659.581-2.484,2.691-3.094,4.505s-1.566,3.915-3.251,4.312c-.454.106-.917.07-1.367.213-1.083.346-1.761,1.593-2.295,2.716q-2.933,6.186-5.459,12.554a2.05,2.05,0,0,0-.213,1.038,1.467,1.467,0,0,0,.769.919l2.534,1.671a2.572,2.572,0,0,0,1.5.58,3.263,3.263,0,0,0,1.685-.866q3.421-2.719,6.637-5.76a9.384,9.384,0,0,0,3.092-4.488c.207-.947.126-1.923.4-2.859,1-3.484,5.68-3.935,7.618-7,1.248-1.974,1.068-4.614,2.338-6.571,1.465-2.257,4.6-3.218,5.191-5.834.2-.864.05-1.74.184-2.611.416-2.7,3.157-4.282,4.764-6.508C1046.494,500.9,1046.906,499.906,1046.505,499.224Z" transform="translate(-1009.263 -498.734)" fill="#fbdbd0"/>
              <g id="Group_63" data-name="Group 63" transform="translate(3.93 4.915)">
                <path id="Path_151" data-name="Path 151" d="M1041.1,502.243c-1.909,1.413-3.942,3-4.556,5.3-.153.572-.21,1.167-.408,1.723-.971,2.729-4.787,3.478-5.979,6.117-.363.8-.443,1.715-.832,2.506-.77,1.569-2.542,2.323-4.146,3.017s-3.34,1.639-3.838,3.316a11.424,11.424,0,0,0-.247,2.056,7.2,7.2,0,0,1-2.877,4.983c-.653.478-1.39.843-1.992,1.383a8.986,8.986,0,0,0-1.911,2.926l-2.244,4.669" transform="translate(-1012.068 -502.243)" fill="none" stroke="#242638" stroke-linecap="round" stroke-linejoin="round" stroke-width="0.084"/>
                <path id="Path_152" data-name="Path 152" d="M1022.357,512.272a3.832,3.832,0,0,1,.018,1.645c-.277,1.142-1.289,2.027-1.441,3.191" transform="translate(-1008.514 -498.223)" fill="none" stroke="#242638" stroke-linecap="round" stroke-linejoin="round" stroke-width="0.084"/>
                <path id="Path_153" data-name="Path 153" d="M1028.723,504.513c-.721,1.234-.55,2.769-.784,4.18a7.19,7.19,0,0,1-1.575,3.429" transform="translate(-1006.338 -501.333)" fill="none" stroke="#242638" stroke-linecap="round" stroke-linejoin="round" stroke-width="0.084"/>
                <path id="Path_154" data-name="Path 154" d="M1032.428,506.862c-1.028.9-2.66.836-3.649,1.776" transform="translate(-1005.37 -500.392)" fill="none" stroke="#242638" stroke-linecap="round" stroke-linejoin="round" stroke-width="0.084"/>
                <path id="Path_155" data-name="Path 155" d="M1028.384,515.4a8.881,8.881,0,0,1-4.676,2.037,16.192,16.192,0,0,0-4.953,1.415c-.048.028-.1.067-.1.12s.113.05.094,0" transform="translate(-1009.426 -496.969)" fill="none" stroke="#242638" stroke-linecap="round" stroke-linejoin="round" stroke-width="0.084"/>
                <path id="Path_156" data-name="Path 156" d="M1015.987,518.074a20.52,20.52,0,0,0,.636,3.518,5.377,5.377,0,0,1-.246,3.5" transform="translate(-1010.497 -495.898)" fill="none" stroke="#242638" stroke-linecap="round" stroke-linejoin="round" stroke-width="0.084"/>
                <path id="Path_157" data-name="Path 157" d="M1021.269,524.531a2.032,2.032,0,0,1-.7.468c-1.751.8-3.751.775-5.654,1.081-.556.09-1.2.29-1.37.828" transform="translate(-1011.475 -493.309)" fill="none" stroke="#242638" stroke-linecap="round" stroke-linejoin="round" stroke-width="0.084"/>
              </g>
            </g>
            <g id="Group_66" data-name="Group 66" transform="translate(39.762 29.133)">
              <path id="Path_158" data-name="Path 158" d="M1036.57,486.571c-.9-.941-2.41-.02-3.27,1.076-2.2,2.8-3.394,6.954-6.407,8.339-.593.273-1.226.416-1.8.749a5.711,5.711,0,0,0-2.138,2.706c-.974,2.222-1.2,4.722-1.806,7.091s-1.776,4.833-3.772,5.762a23.124,23.124,0,0,0-2.96,1.081c-1.905,1.214-2.317,4.1-2.55,6.543s-.808,5.358-2.8,6.347c-.536.268-1.128.357-1.647.668-1.254.751-1.736,2.509-2.073,4.071q-1.853,8.6-3.142,17.3a2.626,2.626,0,0,0,.038,1.362,1.888,1.888,0,0,0,1.23.923l3.66,1.346a3.3,3.3,0,0,0,2.049.284,4.175,4.175,0,0,0,1.853-1.577q3.482-4.4,6.612-9.151c1.286-1.951,2.583-4.142,2.55-6.521-.018-1.247-.408-2.443-.346-3.693.228-4.651,5.951-6.589,7.475-10.988.982-2.835-.018-6.085,1-8.906,1.17-3.251,4.8-5.372,4.781-8.82-.008-1.139-.448-2.191-.536-3.321-.273-3.5,2.692-6.281,4.048-9.537C1037.048,488.675,1037.27,487.307,1036.57,486.571Z" transform="translate(-1002.137 -486.181)" fill="#698eae"/>
              <g id="Group_65" data-name="Group 65" transform="translate(5.214 7.181)">
                <path id="Path_159" data-name="Path 159" d="M1031.016,491.307c-1.974,2.33-4.05,4.911-4.144,7.964-.022.758.08,1.52,0,2.275-.412,3.7-4.965,5.755-5.682,9.405-.217,1.111-.051,2.275-.3,3.379-.5,2.19-2.5,3.651-4.3,4.991s-3.7,3.031-3.828,5.273a14.584,14.584,0,0,0,.3,2.645,9.257,9.257,0,0,1-2.136,7.077c-.678.789-1.492,1.462-2.087,2.314a11.58,11.58,0,0,0-1.531,4.221q-.719,3.251-1.436,6.5" transform="translate(-1005.859 -491.307)" fill="none" stroke="#d6dde5" stroke-linecap="round" stroke-linejoin="round" stroke-width="0.217"/>
                <path id="Path_160" data-name="Path 160" d="M1013.311,507.034a4.906,4.906,0,0,1,.5,2.051c-.011,1.509-1.017,2.914-.866,4.415" transform="translate(-1003.023 -485.003)" fill="none" stroke="#d6dde5" stroke-linecap="round" stroke-linejoin="round" stroke-width="0.217"/>
                <path id="Path_161" data-name="Path 161" d="M1018.757,495.539c-.541,1.755.125,3.625.247,5.458a9.244,9.244,0,0,1-.964,4.753" transform="translate(-1000.977 -489.611)" fill="none" stroke="#d6dde5" stroke-linecap="round" stroke-linejoin="round" stroke-width="0.217"/>
                <path id="Path_162" data-name="Path 162" d="M1024.572,497.5c-1.026,1.422-3.082,1.828-4.044,3.295" transform="translate(-999.979 -488.826)" fill="none" stroke="#d6dde5" stroke-linecap="round" stroke-linejoin="round" stroke-width="0.217"/>
                <path id="Path_163" data-name="Path 163" d="M1021.869,509.875c-1.177,1.878-3.23,3.008-5.25,3.92a20.776,20.776,0,0,0-5.781,3.223c-.052.048-.106.114-.084.179s.158.029.118-.028" transform="translate(-1003.899 -483.865)" fill="none" stroke="#d6dde5" stroke-linecap="round" stroke-linejoin="round" stroke-width="0.217"/>
                <path id="Path_164" data-name="Path 164" d="M1007.447,516.041a26.361,26.361,0,0,0,1.827,4.212,6.909,6.909,0,0,1,.721,4.455" transform="translate(-1005.222 -481.393)" fill="none" stroke="#d6dde5" stroke-linecap="round" stroke-linejoin="round" stroke-width="0.217"/>
                <path id="Path_165" data-name="Path 165" d="M1015.75,523.214a2.612,2.612,0,0,1-.737.792c-1.954,1.518-4.463,2.07-6.753,3.012-.668.275-1.418.714-1.469,1.437" transform="translate(-1005.486 -478.518)" fill="none" stroke="#d6dde5" stroke-linecap="round" stroke-linejoin="round" stroke-width="0.217"/>
              </g>
            </g>
            <g id="Group_68" data-name="Group 68" transform="translate(0 28.517)">
              <path id="Path_166" data-name="Path 166" d="M974.2,486.131c.9-.941,2.41-.02,3.27,1.076,2.2,2.8,3.394,6.954,6.406,8.339.594.273,1.226.415,1.8.749A5.711,5.711,0,0,1,987.815,499c.974,2.22,1.2,4.721,1.806,7.091s1.776,4.833,3.771,5.762a23.107,23.107,0,0,1,2.961,1.081c1.9,1.215,2.317,4.1,2.548,6.543s.808,5.358,2.8,6.347c.538.268,1.128.357,1.649.668,1.252.751,1.736,2.509,2.072,4.071q1.855,8.6,3.143,17.3a2.636,2.636,0,0,1-.038,1.36,1.891,1.891,0,0,1-1.231.925l-3.66,1.346a3.291,3.291,0,0,1-2.048.284,4.174,4.174,0,0,1-1.853-1.577q-3.484-4.4-6.612-9.152c-1.286-1.951-2.583-4.142-2.55-6.522.018-1.245.408-2.442.346-3.691-.23-4.651-5.952-6.59-7.475-10.988-.982-2.835.018-6.085-1-8.906-1.17-3.251-4.8-5.372-4.781-8.82.008-1.139.448-2.191.536-3.321.273-3.5-2.692-6.283-4.048-9.537C973.724,488.235,973.5,486.867,974.2,486.131Z" transform="translate(-973.752 -485.741)" fill="#698eae"/>
              <g id="Group_67" data-name="Group 67" transform="translate(4.51 7.181)">
                <path id="Path_167" data-name="Path 167" d="M976.972,490.867c1.974,2.33,4.05,4.911,4.144,7.962.024.759-.08,1.521,0,2.276.413,3.7,4.966,5.755,5.682,9.4.219,1.112.052,2.276.305,3.38.5,2.188,2.5,3.651,4.3,4.991s3.7,3.03,3.828,5.273a14.593,14.593,0,0,1-.3,2.645,9.246,9.246,0,0,0,2.136,7.077c.678.789,1.49,1.463,2.087,2.314a11.577,11.577,0,0,1,1.531,4.221q.719,3.251,1.436,6.5" transform="translate(-976.972 -490.867)" fill="none" stroke="#d6dde5" stroke-linecap="round" stroke-linejoin="round" stroke-width="0.217"/>
                <path id="Path_168" data-name="Path 168" d="M987.733,506.594a4.909,4.909,0,0,0-.506,2.051c.013,1.509,1.017,2.914.867,4.415" transform="translate(-972.862 -484.563)" fill="none" stroke="#d6dde5" stroke-linecap="round" stroke-linejoin="round" stroke-width="0.217"/>
                <path id="Path_169" data-name="Path 169" d="M982.315,495.1c.539,1.755-.125,3.625-.247,5.458a9.257,9.257,0,0,0,.962,4.753" transform="translate(-974.937 -489.171)" fill="none" stroke="#d6dde5" stroke-linecap="round" stroke-linejoin="round" stroke-width="0.217"/>
                <path id="Path_170" data-name="Path 170" d="M977.376,497.057c1.025,1.422,3.082,1.828,4.043,3.295" transform="translate(-976.81 -488.386)" fill="none" stroke="#d6dde5" stroke-linecap="round" stroke-linejoin="round" stroke-width="0.217"/>
                <path id="Path_171" data-name="Path 171" d="M982.1,509.435c1.177,1.879,3.229,3.008,5.25,3.919a20.782,20.782,0,0,1,5.781,3.223c.05.048.106.113.084.179s-.158.029-.118-.028" transform="translate(-974.915 -483.424)" fill="none" stroke="#d6dde5" stroke-linecap="round" stroke-linejoin="round" stroke-width="0.217"/>
                <path id="Path_172" data-name="Path 172" d="M994.11,515.6a26.16,26.16,0,0,1-1.827,4.212,6.908,6.908,0,0,0-.72,4.455" transform="translate(-971.177 -480.953)" fill="none" stroke="#d6dde5" stroke-linecap="round" stroke-linejoin="round" stroke-width="0.217"/>
                <path id="Path_173" data-name="Path 173" d="M987.6,522.774a2.625,2.625,0,0,0,.735.792c1.956,1.518,4.464,2.07,6.753,3.012.67.275,1.419.714,1.471,1.436" transform="translate(-972.71 -478.078)" fill="none" stroke="#d6dde5" stroke-linecap="round" stroke-linejoin="round" stroke-width="0.217"/>
              </g>
            </g>
            <g id="Group_70" data-name="Group 70" transform="translate(24.998 38.77)">
              <path id="Path_174" data-name="Path 174" d="M992.208,493.237c.831-.577,1.841.363,2.325,1.334,1.234,2.477,1.5,5.833,3.575,7.363.409.3.87.508,1.254.853a4.443,4.443,0,0,1,1.2,2.4,35.2,35.2,0,0,1,.263,5.69c.088,1.9.6,3.963,1.972,4.984a18.135,18.135,0,0,1,2.087,1.289c1.262,1.224,1.123,3.487.916,5.389s-.224,4.211,1.139,5.278c.368.289.8.448,1.153.768.838.769.929,2.185.941,3.429q.063,6.846-.319,13.686a2.054,2.054,0,0,1-.242,1.031,1.474,1.474,0,0,1-1.083.511q-1.5.225-3,.452a2.566,2.566,0,0,1-1.607-.105,3.25,3.25,0,0,1-1.165-1.493q-1.965-3.9-3.606-8.016a9.384,9.384,0,0,1-.919-5.371c.209-.948.693-1.8.842-2.761.555-3.582-3.5-5.958-3.974-9.549-.3-2.316.968-4.637.637-6.947-.381-2.663-2.82-4.85-2.261-7.473.185-.867.685-1.6.93-2.449.756-2.624-1.068-5.212-1.59-7.906C991.513,494.766,991.559,493.688,992.208,493.237Z" transform="translate(-991.597 -493.06)" fill="#fbdbd0"/>
              <g id="Group_69" data-name="Group 69" transform="translate(1.711 5.992)">
                <path id="Path_175" data-name="Path 175" d="M993.483,497.337c1.139,2.086,2.316,4.379,1.909,6.721-.1.581-.3,1.147-.354,1.734-.265,2.884,2.883,5.166,2.856,8.062-.009.883-.318,1.744-.3,2.625.041,1.748,1.332,3.174,2.495,4.48s2.344,2.89,2.091,4.621a11.428,11.428,0,0,1-.64,1.968,7.2,7.2,0,0,0,.518,5.731,23.779,23.779,0,0,1,1.227,2.093,8.984,8.984,0,0,1,.506,3.457q.038,2.591.076,5.18" transform="translate(-992.553 -497.337)" fill="none" stroke="#242638" stroke-linecap="round" stroke-linejoin="round" stroke-width="0.084"/>
                <path id="Path_176" data-name="Path 176" d="M999.327,510.992a3.828,3.828,0,0,0-.706,1.485c-.228,1.153.318,2.381-.032,3.5" transform="translate(-990.517 -491.864)" fill="none" stroke="#242638" stroke-linecap="round" stroke-linejoin="round" stroke-width="0.084"/>
                <path id="Path_177" data-name="Path 177" d="M997.205,501.39c.137,1.422-.663,2.744-1.044,4.121a7.207,7.207,0,0,0-.011,3.775" transform="translate(-991.582 -495.712)" fill="none" stroke="#242638" stroke-linecap="round" stroke-linejoin="round" stroke-width="0.084"/>
                <path id="Path_178" data-name="Path 178" d="M992.819,502.12c.559,1.244,2.063,1.877,2.566,3.145" transform="translate(-992.819 -495.42)" fill="none" stroke="#242638" stroke-linecap="round" stroke-linejoin="round" stroke-width="0.084"/>
                <path id="Path_179" data-name="Path 179" d="M994.481,512.3a8.891,8.891,0,0,0,3.389,3.812,16.156,16.156,0,0,1,3.9,3.365c.032.045.065.1.036.15s-.125,0-.085-.041" transform="translate(-992.153 -491.34)" fill="none" stroke="#242638" stroke-linecap="round" stroke-linejoin="round" stroke-width="0.084"/>
                <path id="Path_180" data-name="Path 180" d="M1003.029,518.762a20.524,20.524,0,0,1-2.054,2.926,5.37,5.37,0,0,0-1.248,3.282" transform="translate(-990.051 -488.749)" fill="none" stroke="#242638" stroke-linecap="round" stroke-linejoin="round" stroke-width="0.084"/>
                <path id="Path_181" data-name="Path 181" d="M996.583,523.331a2.007,2.007,0,0,0,.437.719c1.251,1.464,3.078,2.278,4.676,3.355.466.315.968.768.9,1.326" transform="translate(-991.31 -486.918)" fill="none" stroke="#242638" stroke-linecap="round" stroke-linejoin="round" stroke-width="0.084"/>
              </g>
            </g>
            <path id="Path_182" data-name="Path 182" d="M1037.526,529.693H985.743l2.649,35.322a11.794,11.794,0,0,0,11.761,10.911h22.962a11.793,11.793,0,0,0,11.76-10.911Z" transform="translate(-968.946 -439.606)"/>
          </g>
          <g id="Group_73" data-name="Group 73" transform="translate(370.373 85.77)">
            <g id="Group_72" data-name="Group 72">
              <path id="Path_183" data-name="Path 183" d="M1483.479,470.782l-174.016,2.388-22.371,127.175,172.857-.678Z" transform="translate(-1218.53 -470.782)" fill="#a9bdd2"/>
              <rect id="Rectangle_195" data-name="Rectangle 195" width="110.867" height="11.008" transform="translate(0 118.708) rotate(-0.786)" fill="#a9bdd2"/>
            </g>
            <path id="Path_184" data-name="Path 184" d="M1381.927,514.659a14.939,14.939,0,1,0-14.733,15.143A14.94,14.94,0,0,0,1381.927,514.659Z" transform="translate(-1192.494 -459.101)" fill="#fff"/>
          </g>
        </g>
        <g id="Group_78" data-name="Group 78" transform="translate(0 535.742)">
          <rect id="Rectangle_196" data-name="Rectangle 196" width="216.376" height="257.987" fill="#242638"/>
          <line id="Line_14" data-name="Line 14" y1="256.137" transform="translate(96.167 0.925)" fill="none" stroke="#a9bdd2" stroke-miterlimit="10" stroke-width="1.32"/>
          <circle id="Ellipse_47" data-name="Ellipse 47" cx="3.699" cy="3.699" r="3.699" transform="translate(74.437 100.328)" fill="none" stroke="#a9bdd2" stroke-miterlimit="10" stroke-width="1.32"/>
          <path id="Path_185" data-name="Path 185" d="M1017.277,778.318a3.7,3.7,0,1,0-3.7,3.7A3.7,3.7,0,0,0,1017.277,778.318Z" transform="translate(-935.442 -658.456)" fill="none" stroke="#a9bdd2" stroke-miterlimit="10" stroke-width="1.32"/>
          <rect id="Rectangle_197" data-name="Rectangle 197" width="74.899" height="5.548" transform="translate(6.473 139.627)" fill="none" stroke="#a9bdd2" stroke-miterlimit="10" stroke-width="1.32"/>
          <rect id="Rectangle_198" data-name="Rectangle 198" width="74.899" height="5.548" transform="translate(6.473 152.804)" fill="none" stroke="#a9bdd2" stroke-miterlimit="10" stroke-width="1.32"/>
          <rect id="Rectangle_199" data-name="Rectangle 199" width="74.899" height="5.548" transform="translate(6.473 181.007)" fill="none" stroke="#a9bdd2" stroke-miterlimit="10" stroke-width="1.32"/>
          <rect id="Rectangle_200" data-name="Rectangle 200" width="74.899" height="5.548" transform="translate(6.473 192.103)" fill="none" stroke="#a9bdd2" stroke-miterlimit="10" stroke-width="1.32"/>
          <g id="Group_77" data-name="Group 77" transform="translate(13.493 15.056)">
            <g id="Group_76" data-name="Group 76">
              <g id="Group_75" data-name="Group 75">
                <path id="Path_186" data-name="Path 186" d="M1029.854,740.512c0-20.169-13.916-36.52-31.083-36.52s-31.08,16.35-31.08,36.52,13.916,36.521,31.08,36.521S1029.854,760.682,1029.854,740.512Z" transform="translate(-965.845 -701.822)" fill="#242638"/>
                <path id="Path_187" data-name="Path 187" d="M999.3,779.823c-18.156,0-32.926-17.356-32.926-38.691s14.77-38.689,32.926-38.689,32.929,17.356,32.929,38.689S1017.457,779.823,999.3,779.823Zm0-73.042c-16.119,0-29.234,15.411-29.234,34.351s13.115,34.351,29.234,34.351,29.237-15.409,29.237-34.351S1015.42,706.781,999.3,706.781Z" transform="translate(-966.373 -702.443)" fill="#d4dee8"/>
              </g>
              <path id="Path_188" data-name="Path 188" d="M1024.937,735.853a20.948,20.948,0,0,0-22.014.706,27.181,27.181,0,0,1,19.424-10.281,29.937,29.937,0,0,0-10.222-14.115s-11.7,5.406-13.762,21.808a37.939,37.939,0,0,1,6.235-24.881,22.116,22.116,0,0,0-15.772-.36s-4.169,13.469,4.4,26c-3.3-1.859-10.551-7.084-14.238-18.586a30.82,30.82,0,0,0-8.318,15.748s7.2,10.4,19.923,9.056a26.462,26.462,0,0,1-19.264,3.071A28,28,0,0,0,977.2,759.5s10.492-1.486,17.01-12.858a31.42,31.42,0,0,1-14.478,15.75,25.461,25.461,0,0,0,13.75,9.084s7.859-8.254,6.962-22.109a38.569,38.569,0,0,1,3.167,20.458,24.74,24.74,0,0,0,13.633-9.327s-1.792-10.474-10.548-16.865a28.016,28.016,0,0,1,15.48,10.466A34.543,34.543,0,0,0,1024.937,735.853Zm-24.093,4.633-3.352,3.2-1.477-.65c.014-.038.034-.068.049-.106l-2.31-4.073,1.136-3.146,3.63-.579s-.016-.091-.036-.225l2.849,2.887-.053,2.886C1001.13,740.614,1001,740.541,1000.844,740.485Z" transform="translate(-964.651 -700.436)" fill="#a2bed4" opacity="0.32"/>
              <path id="Path_189" data-name="Path 189" d="M997.519,732.873c0-3.744-2.583-6.779-5.77-6.779s-5.77,3.034-5.77,6.779,2.583,6.78,5.77,6.78S997.519,736.617,997.519,732.873Z" transform="translate(-958.514 -692.963)" fill="#242638"/>
            </g>
            <path id="Path_190" data-name="Path 190" d="M1015.219,769.318l-40.858-59.553,1.608-1.525,40.858,59.554Z" transform="translate(-963.171 -700.12)" fill="#d4dee8"/>
            <path id="Path_191" data-name="Path 191" d="M975.969,769.318l40.858-59.553-1.609-1.525-40.858,59.554Z" transform="translate(-963.171 -700.12)" fill="#d4dee8"/>
            <path id="Path_192" data-name="Path 192" d="M997.411,770.421c-14.5,0-26.292-13.858-26.292-30.891s11.795-30.89,26.292-30.89S1023.7,722.5,1023.7,739.53,1011.908,770.421,997.411,770.421Zm0-60.565c-13.928,0-25.258,13.312-25.258,29.674s11.33,29.675,25.258,29.675,25.257-13.312,25.257-29.675S1011.338,709.856,997.411,709.856Z" transform="translate(-964.471 -699.959)" fill="#d4dee8"/>
            <path id="Path_193" data-name="Path 193" d="M995.795,763.158c-11.976,0-21.723-11.45-21.723-25.524s9.747-25.523,21.723-25.523,21.723,11.449,21.723,25.523S1007.77,763.158,995.795,763.158Zm0-49.832c-11.406,0-20.687,10.905-20.687,24.307s9.282,24.307,20.687,24.307,20.687-10.9,20.687-24.307S1007.2,713.326,995.795,713.326Z" transform="translate(-963.287 -698.568)" fill="#d4dee8"/>
            <path id="Path_194" data-name="Path 194" d="M994.5,754.037c-8.412,0-15.258-8.042-15.258-17.926s6.846-17.926,15.258-17.926,15.256,8.042,15.256,17.926S1002.911,754.037,994.5,754.037Zm0-34.638c-7.843,0-14.223,7.5-14.223,16.712s6.379,16.712,14.223,16.712,14.223-7.5,14.223-16.712S1002.341,719.4,994.5,719.4Z" transform="translate(-961.215 -696.134)" fill="#d4dee8"/>
          </g>
          <path id="Path_195" data-name="Path 195" d="M1010.8,844.178h0a1.7,1.7,0,0,0-1.695,1.695v32.981a1.7,1.7,0,0,0,1.695,1.7h0a1.7,1.7,0,0,0,1.7-1.7V845.873A1.7,1.7,0,0,0,1010.8,844.178Z" transform="translate(-935.75 -630.576)" fill="#a2bed4"/>
          <rect id="Rectangle_201" data-name="Rectangle 201" width="3.39" height="36.371" rx="1.21" transform="translate(66.886 213.602)" fill="#a2bed4"/>
          <path id="Path_196" data-name="Path 196" d="M988.691,844.178h0a1.7,1.7,0,0,0-1.7,1.695v32.981a1.7,1.7,0,0,0,1.7,1.7h0a1.7,1.7,0,0,0,1.7-1.7V845.873A1.7,1.7,0,0,0,988.691,844.178Z" transform="translate(-944.614 -630.576)" fill="#a2bed4"/>
          <path id="Path_197" data-name="Path 197" d="M984.07,844.178h0a1.7,1.7,0,0,0-1.7,1.695v32.981a1.7,1.7,0,0,0,1.7,1.7h0a1.7,1.7,0,0,0,1.695-1.7V845.873A1.7,1.7,0,0,0,984.07,844.178Z" transform="translate(-946.466 -630.576)" fill="#a2bed4"/>
          <path id="Path_198" data-name="Path 198" d="M969.218,844.178h0a1.7,1.7,0,0,0-1.7,1.695v32.981a1.7,1.7,0,0,0,1.7,1.7h0a1.7,1.7,0,0,0,1.7-1.7V845.873A1.7,1.7,0,0,0,969.218,844.178Z" transform="translate(-952.42 -630.576)" fill="#a2bed4"/>
          <path id="Path_199" data-name="Path 199" d="M964.6,844.178h0a1.7,1.7,0,0,0-1.7,1.695v32.981a1.7,1.7,0,0,0,1.7,1.7h0a1.7,1.7,0,0,0,1.7-1.7V845.873A1.7,1.7,0,0,0,964.6,844.178Z" transform="translate(-954.271 -630.576)" fill="#a2bed4"/>
        </g>
        <path id="Path_200" data-name="Path 200" d="M1053,778.635s-1.849-61.46-1.849-115.581-2.2-114.439,21.094-114.439" transform="translate(-918.921 -213.304)" fill="none" stroke="#242638" stroke-miterlimit="10" stroke-width="2.63"/>
      </g>
    </g>
  </g>
</svg>
