<svg xmlns="http://www.w3.org/2000/svg" width="1284.164" height="772.596" viewBox="0 0 1284.164 772.596"><g id="Group_144" data-name="Group 144" transform="translate(-1595.735 -1419.668)"><g id="Group_124" data-name="Group 124" transform="translate(1595.735 1420.041)"><ellipse id="Ellipse_54" data-name="Ellipse 54" cx="642.082" cy="29.281" rx="642.082" ry="29.281" transform="translate(0 713.662)" fill="#a9bdd2"></ellipse><g id="Group_123" data-name="Group 123" transform="translate(47.779)"><path id="Path_245" data-name="Path 245" d="M1875.349,1664.9l10.457,40.784,76.862,46.012,30.849,1.569,8.889,7.843-17.255,11.5-8.889,10.457-18.823-9.935-103.528-36.078-19.869-60.653Z" transform="translate(-1504.293 -1276.992)" fill="#d88080"></path><g id="Group_119" data-name="Group 119" transform="translate(415.986)"><path id="Path_246" data-name="Path 246" d="M2026.438,1892.993c38.693,0,58.562-10.458,58.562-198.689s82.613-108.758,82.613-108.758" transform="translate(-1807.88 -1333.083)" fill="none" stroke="#242638" stroke-miterlimit="10" stroke-width="2.63"></path><g id="Group_99" data-name="Group 99" transform="translate(277.445 47.755)"><path id="Path_247" data-name="Path 247" d="M2200.091,1602.448h-78.78a29.98,29.98,0,0,0-29.978,29.978v110.849" transform="translate(-2047.412 -1361.233)" fill="none" stroke="#a9bdd2" stroke-miterlimit="10" stroke-width="7.921"></path><circle id="Ellipse_55" data-name="Ellipse 55" cx="12.287" cy="12.287" r="12.287" transform="translate(283.57 662.997)" fill="#242638"></circle><circle id="Ellipse_56" data-name="Ellipse 56" cx="12.287" cy="12.287" r="12.287" transform="translate(25.795 662.997)" fill="#242638"></circle><rect id="Rectangle_209" data-name="Rectangle 209" width="19.869" height="285.486" transform="translate(159.65 358.688)" fill="#a9bdd2"></rect><path id="Path_248" data-name="Path 248" d="M2336.546,1671.979H2079.3a15.733,15.733,0,0,0-15.687,15.685h0a15.734,15.734,0,0,0,15.687,15.687h257.25a15.734,15.734,0,0,0,15.688-15.687h0A15.733,15.733,0,0,0,2336.546,1671.979Z" transform="translate(-2063.609 -1320.612)" fill="#356493"></path><rect id="Rectangle_210" data-name="Rectangle 210" width="213.33" height="382.739" rx="17.493" transform="translate(115.032)" fill="#356493"></rect><path id="Path_249" data-name="Path 249" d="M2135.78,1785.228H2313.9a13.594,13.594,0,0,0,13.594-13.594v-293.5" transform="translate(-2021.446 -1433.86)" fill="none" stroke="#242638" stroke-linecap="round" stroke-linejoin="round" stroke-width="1.32"></path><path id="Path_250" data-name="Path 250" d="M2303.194,1602.448h-78.778a29.979,29.979,0,0,0-29.978,29.978l-.348,112.243" transform="translate(-1987.381 -1361.233)" fill="none" stroke="#a9bdd2" stroke-miterlimit="10" stroke-width="7.921"></path><path id="Path_251" data-name="Path 251" d="M2082.532,1875.007l138.734-19.521,135.249,19.521" transform="translate(-2052.554 -1213.404)" fill="none" stroke="#a9bdd2" stroke-miterlimit="10" stroke-width="7.921"></path></g><g id="Group_114" data-name="Group 114" transform="translate(32.046)"><g id="Group_100" data-name="Group 100" transform="translate(446.184 260.736)"><path id="Path_252" data-name="Path 252" d="M2437.138,2062.526a4.274,4.274,0,0,1-4.171-4.1l-29.023-465.036H2212.53l-13.821,464.885a4.185,4.185,0,1,1-8.356-.274l13.938-469.133a4.282,4.282,0,0,1,4.183-4.247h199.389a4.27,4.27,0,0,1,4.174,4.1l29.281,469.132a4.323,4.323,0,0,1-3.9,4.664C2437.322,2062.521,2437.229,2062.526,2437.138,2062.526Z" transform="translate(-2190.351 -1584.625)" fill="#242638"></path><rect id="Rectangle_211" data-name="Rectangle 211" width="218.907" height="7.49" transform="translate(11.848 209.723)" fill="#242638"></rect></g><g id="Group_101" data-name="Group 101" transform="translate(1.398 260.736)"><path id="Path_253" data-name="Path 253" d="M2156.376,2062.526a4.274,4.274,0,0,1-4.171-4.1l-29.023-465.036H1931.767l-13.819,464.885a4.185,4.185,0,1,1-8.357-.274l13.938-469.133a4.282,4.282,0,0,1,4.182-4.247H2127.1a4.27,4.27,0,0,1,4.174,4.1l29.281,469.132a4.324,4.324,0,0,1-3.9,4.664C2156.56,2062.521,2156.467,2062.526,2156.376,2062.526Z" transform="translate(-1909.589 -1584.625)" fill="#242638"></path><rect id="Rectangle_212" data-name="Rectangle 212" width="218.907" height="7.49" transform="translate(11.848 209.723)" fill="#242638"></rect></g><rect id="Rectangle_213" data-name="Rectangle 213" width="681.82" height="28.104" transform="translate(0 242.851)" fill="#fbdbd0"></rect><rect id="Rectangle_214" data-name="Rectangle 214" width="681.82" height="7.669" transform="translate(0 264.223)" fill="#242638"></rect><line id="Line_19" data-name="Line 19" y1="25.098" transform="translate(448.969 241.914)" fill="none" stroke="#242638" stroke-miterlimit="10" stroke-width="1.32"></line><g id="Group_102" data-name="Group 102" transform="translate(31.603)"><path id="Path_254" data-name="Path 254" d="M2156.351,1420.041H1935.09a6.434,6.434,0,0,0-6.376,7.3l23.356,172.576a6.436,6.436,0,0,0,6.376,5.572h221.261a6.433,6.433,0,0,0,6.375-7.3l-23.356-172.576A6.433,6.433,0,0,0,2156.351,1420.041Z" transform="translate(-1928.655 -1420.041)" fill="#242638"></path><path id="Path_255" data-name="Path 255" d="M2050.089,1588.584l19.519-59.956-75.293-2.091-29.281,74.6h132.46v-12.549Zm-32.94-12.549a12.375,12.375,0,1,1,12.374-12.376A12.375,12.375,0,0,1,2017.148,1576.036Z" transform="translate(-1907.401 -1357.825)" fill="#242638"></path><path id="Path_256" data-name="Path 256" d="M2056.7,1543.075l5.229-14.64H1985.2l-6.275,14.292" transform="translate(-1899.287 -1356.716)" fill="none" stroke="#fff" stroke-linecap="round" stroke-linejoin="round" stroke-width="0.66"></path><line id="Line_20" data-name="Line 20" x2="26.666" y2="187.71" transform="translate(223.034 0)" fill="none" stroke="#fff" stroke-linecap="round" stroke-linejoin="round" stroke-width="0.66"></line></g><g id="Group_113" data-name="Group 113" transform="translate(565.551 88.445)"><g id="Group_104" data-name="Group 104" transform="translate(35.368)"><g id="Group_103" data-name="Group 103"><path id="Path_257" data-name="Path 257" d="M2311.433,1476.019c-1.947-.73-3.78,1.367-4.491,3.321-1.817,4.982-1.285,11.191-5.195,14.774-.77.705-1.678,1.261-2.379,2.034a7.916,7.916,0,0,0-1.778,4.83c-.237,3.511.853,6.959,1.28,10.453s.018,7.439-2.566,9.83c-1.25,1.155-2.91,1.844-4,3.148-2.277,2.715-1.255,6.776-.2,10.158s1.836,7.576-.707,10.044c-.686.666-1.557,1.126-2.191,1.841-1.527,1.72-1.264,4.333-.887,6.6q2.077,12.481,5.1,24.777a3.342,3.342,0,0,0,.846,1.784,3.378,3.378,0,0,0,2.458.513l6.5-.334a6.383,6.383,0,0,0,3.37-.81,6.281,6.281,0,0,0,1.985-3.167q2.9-7.859,5.047-15.972c.881-3.331,1.643-6.99.212-10.128-.748-1.643-2.05-3-2.676-4.7-2.333-6.3,5.494-12.189,5.333-18.907-.1-4.331-3.55-8.062-3.594-12.393-.054-4.992,4.405-9.911,2.373-14.47-.671-1.507-1.969-2.647-2.759-4.1-2.451-4.483.577-9.9.813-15C2313.4,1478.531,2312.954,1476.589,2311.433,1476.019Z" transform="translate(-2288.024 -1475.87)" fill="#356493"></path><path id="Path_258" data-name="Path 258" d="M2306.514,1478.432c-2.469,6.54-4.982,13.483-3.726,20.36a23.037,23.037,0,0,1,.615,3.856c.043,3.91-3.008,7.2-3.661,11.056-.679,4.021,1.324,8.1.833,12.149-.463,3.815-3.037,6.977-4.913,10.332s-3.013,7.785-.716,10.866c1.068,1.432,2.736,2.343,3.735,3.824,1.918,2.844.788,6.668-.464,9.862-2.131,5.436-4.485,11.326-2.882,16.94" transform="translate(-2284.728 -1474.374)" fill="none" stroke="#242638" stroke-linecap="round" stroke-linejoin="round" stroke-width="0.217"></path><path id="Path_259" data-name="Path 259" d="M2298.1,1512.461a5.585,5.585,0,0,1,.508-3.211c.872-1.4,2.833-1.822,3.706-3.224.8-1.29.428-2.947.515-4.462a7.162,7.162,0,0,1,3.106-5.445" transform="translate(-2282.152 -1464.041)" fill="none" stroke="#242638" stroke-linecap="round" stroke-linejoin="round" stroke-width="0.217"></path><path id="Path_260" data-name="Path 260" d="M2303.688,1488.445a5.382,5.382,0,0,1-2.2,2.622,4.532,4.532,0,0,0-2.015,2.736" transform="translate(-2281.335 -1468.524)" fill="none" stroke="#242638" stroke-linecap="round" stroke-linejoin="round" stroke-width="0.217"></path><path id="Path_261" data-name="Path 261" d="M2296.234,1492.726c1.534,3.341.542,7.5,2.359,10.7" transform="translate(-2283.227 -1466.023)" fill="none" stroke="#242638" stroke-linecap="round" stroke-linejoin="round" stroke-width="0.217"></path><path id="Path_262" data-name="Path 262" d="M2296.05,1515.974a7.657,7.657,0,0,1,4.949-3.26c.573-.1,1.159-.141,1.725-.28a5.269,5.269,0,0,0,3.663-3.5c.138-.442.363-1.015.824-.977" transform="translate(-2283.334 -1457.129)" fill="none" stroke="#242638" stroke-linecap="round" stroke-linejoin="round" stroke-width="0.217"></path></g><path id="Path_263" data-name="Path 263" d="M2292.848,1507.033c1.484,1.632,1.907,3.958,2.046,6.16s.069,4.466.8,6.547" transform="translate(-2285.205 -1457.665)" fill="none" stroke="#242638" stroke-linecap="round" stroke-linejoin="round" stroke-width="0.217"></path></g><g id="Group_106" data-name="Group 106" transform="translate(56.257 52.835)"><path id="Path_264" data-name="Path 264" d="M2343.328,1509.776c-.58-.987-2.061-.5-3.02.264-2.444,1.955-4.306,5.275-7.167,5.858-.562.114-1.133.109-1.69.279a5.033,5.033,0,0,0-2.376,1.89c-1.282,1.708-1.98,3.805-2.973,5.714s-2.494,3.785-4.392,4.179a20.608,20.608,0,0,0-2.753.331c-1.877.657-2.811,3.045-3.5,5.1s-1.77,4.428-3.677,4.876c-.514.121-1.038.078-1.546.241-1.224.39-1.991,1.8-2.595,3.072q-3.318,7-6.172,14.2a2.309,2.309,0,0,0-.242,1.174,1.671,1.671,0,0,0,.87,1.039q1.433.943,2.865,1.89a2.9,2.9,0,0,0,1.7.654,3.654,3.654,0,0,0,1.906-.979q3.871-3.073,7.508-6.513c1.494-1.413,3.045-3.031,3.495-5.076.236-1.073.143-2.175.447-3.233,1.131-3.94,6.426-4.451,8.615-7.915,1.411-2.232,1.207-5.217,2.644-7.432,1.657-2.552,5.2-3.637,5.871-6.6.222-.978.057-1.968.209-2.955.469-3.053,3.571-4.842,5.387-7.359C2343.316,1511.675,2343.78,1510.547,2343.328,1509.776Z" transform="translate(-2301.209 -1509.221)" fill="#fbdbd0"></path><g id="Group_105" data-name="Group 105" transform="translate(4.444 5.557)"><path id="Path_265" data-name="Path 265" d="M2336.844,1512.729c-2.159,1.6-4.458,3.4-5.152,5.991-.173.645-.238,1.32-.461,1.949-1.1,3.086-5.412,3.934-6.76,6.917-.412.909-.5,1.941-.941,2.836-.873,1.774-2.877,2.625-4.691,3.412s-3.777,1.854-4.341,3.748a12.785,12.785,0,0,0-.277,2.326,8.145,8.145,0,0,1-3.254,5.636,27.131,27.131,0,0,0-2.254,1.564,10.157,10.157,0,0,0-2.161,3.308q-1.269,2.643-2.538,5.282" transform="translate(-2304.014 -1512.729)" fill="none" stroke="#242638" stroke-linecap="round" stroke-linejoin="round" stroke-width="0.084"></path><path id="Path_266" data-name="Path 266" d="M2314.491,1522.759a4.306,4.306,0,0,1,.019,1.86c-.314,1.29-1.456,2.292-1.63,3.609" transform="translate(-2298.834 -1506.87)" fill="none" stroke="#242638" stroke-linecap="round" stroke-linejoin="round" stroke-width="0.084"></path><path id="Path_267" data-name="Path 267" d="M2320.978,1515c-.815,1.394-.622,3.132-.885,4.726a8.137,8.137,0,0,1-1.782,3.88" transform="translate(-2295.662 -1511.402)" fill="none" stroke="#242638" stroke-linecap="round" stroke-linejoin="round" stroke-width="0.084"></path><path id="Path_268" data-name="Path 268" d="M2324.853,1517.348c-1.165,1.012-3.01.947-4.127,2.01" transform="translate(-2294.25 -1510.031)" fill="none" stroke="#242638" stroke-linecap="round" stroke-linejoin="round" stroke-width="0.084"></path><path id="Path_269" data-name="Path 269" d="M2321.6,1525.887a10.053,10.053,0,0,1-5.288,2.3,18.281,18.281,0,0,0-5.6,1.6c-.054.03-.114.074-.108.136s.13.057.106,0" transform="translate(-2300.164 -1505.042)" fill="none" stroke="#242638" stroke-linecap="round" stroke-linejoin="round" stroke-width="0.084"></path><path id="Path_270" data-name="Path 270" d="M2307.934,1528.561a23.022,23.022,0,0,0,.718,3.978,6.082,6.082,0,0,1-.277,3.962" transform="translate(-2301.724 -1503.48)" fill="none" stroke="#242638" stroke-linecap="round" stroke-linejoin="round" stroke-width="0.084"></path><path id="Path_271" data-name="Path 271" d="M2314.227,1535.017a2.328,2.328,0,0,1-.791.531c-1.98.908-4.242.876-6.393,1.223-.629.1-1.359.326-1.549.935" transform="translate(-2303.149 -1499.708)" fill="none" stroke="#242638" stroke-linecap="round" stroke-linejoin="round" stroke-width="0.084"></path></g></g><g id="Group_108" data-name="Group 108" transform="translate(44.967 32.947)"><path id="Path_272" data-name="Path 272" d="M2333.023,1497.109c-1.014-1.065-2.725-.024-3.7,1.217-2.484,3.162-3.839,7.863-7.245,9.431-.672.307-1.386.469-2.035.846a6.478,6.478,0,0,0-2.417,3.061c-1.1,2.512-1.359,5.34-2.042,8.021s-2.009,5.464-4.265,6.516c-1.093.509-2.313.562-3.349,1.221-2.153,1.374-2.621,4.633-2.882,7.4s-.914,6.058-3.167,7.178c-.608.3-1.275.4-1.865.756-1.418.847-1.963,2.836-2.345,4.6q-2.1,9.724-3.553,19.57a2.967,2.967,0,0,0,.042,1.538,2.138,2.138,0,0,0,1.393,1.046l4.14,1.522a3.733,3.733,0,0,0,2.316.322,4.722,4.722,0,0,0,2.1-1.784q3.94-4.98,7.478-10.351c1.454-2.205,2.921-4.683,2.883-7.375-.021-1.41-.461-2.761-.391-4.175.26-5.26,6.729-7.452,8.453-12.428,1.111-3.207-.021-6.88,1.126-10.071,1.323-3.678,5.434-6.075,5.407-9.974-.009-1.288-.507-2.479-.607-3.756-.309-3.956,3.045-7.105,4.579-10.787C2333.565,1499.488,2333.815,1497.94,2333.023,1497.109Z" transform="translate(-2294.083 -1496.667)" fill="#698eae"></path><g id="Group_107" data-name="Group 107" transform="translate(5.897 8.122)"><path id="Path_273" data-name="Path 273" d="M2326.257,1501.794c-2.232,2.633-4.58,5.554-4.686,9-.027.859.091,1.72,0,2.573-.467,4.182-5.616,6.508-6.425,10.636-.247,1.258-.059,2.574-.345,3.821-.571,2.476-2.826,4.128-4.865,5.646s-4.179,3.427-4.33,5.963a16.634,16.634,0,0,0,.336,2.989,10.461,10.461,0,0,1-2.416,8.005c-.767.892-1.686,1.654-2.361,2.617a13.079,13.079,0,0,0-1.731,4.773q-.813,3.674-1.624,7.349" transform="translate(-2297.805 -1501.794)" fill="none" stroke="#d6dde5" stroke-linecap="round" stroke-linejoin="round" stroke-width="0.217"></path><path id="Path_274" data-name="Path 274" d="M2305.306,1517.52a5.543,5.543,0,0,1,.57,2.321c-.013,1.706-1.148,3.293-.979,4.992" transform="translate(-2293.672 -1492.607)" fill="none" stroke="#d6dde5" stroke-linecap="round" stroke-linejoin="round" stroke-width="0.217"></path><path id="Path_275" data-name="Path 275" d="M2310.8,1506.026c-.611,1.983.141,4.1.279,6.172a10.469,10.469,0,0,1-1.088,5.375" transform="translate(-2290.688 -1499.322)" fill="none" stroke="#d6dde5" stroke-linecap="round" stroke-linejoin="round" stroke-width="0.217"></path><path id="Path_276" data-name="Path 276" d="M2317.047,1507.984c-1.16,1.608-3.486,2.067-4.572,3.725" transform="translate(-2289.234 -1498.177)" fill="none" stroke="#d6dde5" stroke-linecap="round" stroke-linejoin="round" stroke-width="0.217"></path><path id="Path_277" data-name="Path 277" d="M2315.271,1520.361c-1.331,2.125-3.652,3.4-5.938,4.434s-4.7,1.945-6.538,3.645c-.057.054-.121.127-.1.2s.179.033.133-.03" transform="translate(-2294.948 -1490.947)" fill="none" stroke="#d6dde5" stroke-linecap="round" stroke-linejoin="round" stroke-width="0.217"></path><path id="Path_278" data-name="Path 278" d="M2299.394,1526.527a29.747,29.747,0,0,0,2.064,4.766,7.8,7.8,0,0,1,.815,5.038" transform="translate(-2296.876 -1487.344)" fill="none" stroke="#d6dde5" stroke-linecap="round" stroke-linejoin="round" stroke-width="0.217"></path><path id="Path_279" data-name="Path 279" d="M2308.869,1533.7a2.981,2.981,0,0,1-.832.895c-2.211,1.716-5.049,2.34-7.637,3.4-.757.312-1.6.81-1.663,1.625" transform="translate(-2297.261 -1483.154)" fill="none" stroke="#d6dde5" stroke-linecap="round" stroke-linejoin="round" stroke-width="0.217"></path></g></g><g id="Group_110" data-name="Group 110" transform="translate(0 32.25)"><path id="Path_280" data-name="Path 280" d="M2266.208,1496.669c1.014-1.064,2.725-.024,3.7,1.217,2.484,3.162,3.839,7.863,7.246,9.431a21.947,21.947,0,0,1,2.032.846,6.467,6.467,0,0,1,2.418,3.061c1.1,2.513,1.359,5.34,2.042,8.019s2.009,5.466,4.266,6.518c1.092.508,2.311.562,3.347,1.221,2.155,1.373,2.621,4.632,2.882,7.4s.916,6.058,3.168,7.178c.607.3,1.275.4,1.863.756,1.418.848,1.963,2.836,2.344,4.6q2.1,9.724,3.554,19.57a2.959,2.959,0,0,1-.043,1.538,2.135,2.135,0,0,1-1.391,1.045l-4.139,1.522a3.738,3.738,0,0,1-2.318.322,4.714,4.714,0,0,1-2.1-1.786q-3.937-4.978-7.478-10.35c-1.454-2.205-2.921-4.683-2.883-7.375.021-1.408.461-2.763.391-4.176-.26-5.258-6.729-7.452-8.453-12.427-1.11-3.206.021-6.88-1.126-10.071-1.323-3.679-5.434-6.076-5.407-9.974.01-1.29.507-2.479.607-3.756.309-3.956-3.045-7.105-4.578-10.787C2265.666,1499.048,2265.416,1497.5,2266.208,1496.669Z" transform="translate(-2265.698 -1496.227)" fill="#698eae"></path><g id="Group_109" data-name="Group 109" transform="translate(5.102 8.122)"><path id="Path_281" data-name="Path 281" d="M2268.919,1501.354c2.232,2.633,4.579,5.554,4.686,9,.025.859-.09,1.72,0,2.573.466,4.181,5.615,6.508,6.426,10.636.246,1.258.057,2.574.344,3.821.57,2.476,2.826,4.128,4.865,5.646s4.181,3.427,4.33,5.963a16.683,16.683,0,0,1-.336,2.99,10.472,10.472,0,0,0,2.416,8,35.07,35.07,0,0,1,2.361,2.617,13.081,13.081,0,0,1,1.731,4.773q.813,3.674,1.624,7.349" transform="translate(-2268.919 -1501.354)" fill="none" stroke="#d6dde5" stroke-linecap="round" stroke-linejoin="round" stroke-width="0.217"></path><path id="Path_282" data-name="Path 282" d="M2279.744,1517.08a5.557,5.557,0,0,0-.57,2.321c.012,1.706,1.148,3.294.979,4.992" transform="translate(-2262.927 -1492.167)" fill="none" stroke="#d6dde5" stroke-linecap="round" stroke-linejoin="round" stroke-width="0.217"></path><path id="Path_283" data-name="Path 283" d="M2274.3,1505.586c.611,1.983-.141,4.1-.279,6.172a10.453,10.453,0,0,0,1.09,5.375" transform="translate(-2265.954 -1498.882)" fill="none" stroke="#d6dde5" stroke-linecap="round" stroke-linejoin="round" stroke-width="0.217"></path><path id="Path_284" data-name="Path 284" d="M2269.322,1507.544c1.159,1.608,3.485,2.067,4.572,3.725" transform="translate(-2268.684 -1497.738)" fill="none" stroke="#d6dde5" stroke-linecap="round" stroke-linejoin="round" stroke-width="0.217"></path><path id="Path_285" data-name="Path 285" d="M2274.05,1519.921c1.33,2.124,3.653,3.4,5.938,4.433s4.7,1.945,6.538,3.647c.058.054.12.127.1.2s-.179.033-.134-.03" transform="translate(-2265.922 -1490.507)" fill="none" stroke="#d6dde5" stroke-linecap="round" stroke-linejoin="round" stroke-width="0.217"></path><path id="Path_286" data-name="Path 286" d="M2286.409,1526.087a29.858,29.858,0,0,1-2.066,4.765,7.8,7.8,0,0,0-.816,5.036" transform="translate(-2260.474 -1486.905)" fill="none" stroke="#d6dde5" stroke-linecap="round" stroke-linejoin="round" stroke-width="0.217"></path><path id="Path_287" data-name="Path 287" d="M2279.551,1533.261a2.975,2.975,0,0,0,.833.9c2.21,1.716,5.047,2.34,7.636,3.4.757.312,1.6.81,1.663,1.625" transform="translate(-2262.708 -1482.714)" fill="none" stroke="#d6dde5" stroke-linecap="round" stroke-linejoin="round" stroke-width="0.217"></path></g></g><g id="Group_112" data-name="Group 112" transform="translate(28.271 43.846)"><path id="Path_288" data-name="Path 288" d="M2284.235,1503.747c.939-.653,2.08.41,2.628,1.508,1.4,2.8,1.692,6.6,4.043,8.325.464.341.984.577,1.418.965a5.034,5.034,0,0,1,1.363,2.714c.445,2.088.2,4.284.3,6.433s.673,4.482,2.229,5.638a20.336,20.336,0,0,1,2.36,1.458c1.428,1.385,1.271,3.941,1.038,6.093s-.253,4.764,1.288,5.971c.415.325.909.507,1.3.868.947.868,1.052,2.47,1.064,3.878q.071,7.74-.361,15.476a2.306,2.306,0,0,1-.274,1.166,1.665,1.665,0,0,1-1.225.58l-3.4.51a2.9,2.9,0,0,1-1.817-.119,3.658,3.658,0,0,1-1.318-1.689q-2.221-4.415-4.076-9.063c-.763-1.91-1.492-4.029-1.041-6.075.236-1.071.784-2.032.952-3.121.629-4.051-3.96-6.738-4.495-10.8-.344-2.619,1.1-5.242.721-7.854-.431-3.011-3.189-5.485-2.557-8.453.209-.981.776-1.809,1.052-2.768.857-2.967-1.207-5.9-1.8-8.941C2283.449,1505.475,2283.5,1504.257,2284.235,1503.747Z" transform="translate(-2283.544 -1503.547)" fill="#fbdbd0"></path><g id="Group_111" data-name="Group 111" transform="translate(1.934 6.774)"><path id="Path_289" data-name="Path 289" d="M2285.429,1507.823c1.288,2.359,2.62,4.954,2.159,7.6-.114.659-.339,1.3-.4,1.963-.3,3.26,3.259,5.843,3.229,9.117-.008,1-.359,1.971-.335,2.967.046,1.977,1.506,3.591,2.823,5.068s2.649,3.268,2.366,5.225a12.891,12.891,0,0,1-.726,2.228,8.148,8.148,0,0,0,.586,6.481c.445.8,1.026,1.526,1.389,2.365a10.2,10.2,0,0,1,.572,3.911q.042,2.93.083,5.858" transform="translate(-2284.377 -1507.823)" fill="none" stroke="#242638" stroke-linecap="round" stroke-linejoin="round" stroke-width="0.084"></path><path id="Path_290" data-name="Path 290" d="M2291.373,1521.479a4.319,4.319,0,0,0-.8,1.679c-.257,1.3.359,2.692-.037,3.961" transform="translate(-2281.409 -1499.845)" fill="none" stroke="#242638" stroke-linecap="round" stroke-linejoin="round" stroke-width="0.084"></path><path id="Path_291" data-name="Path 291" d="M2289.323,1511.876c.153,1.61-.751,3.105-1.182,4.662a8.149,8.149,0,0,0-.013,4.268" transform="translate(-2282.962 -1505.455)" fill="none" stroke="#242638" stroke-linecap="round" stroke-linejoin="round" stroke-width="0.084"></path><path id="Path_292" data-name="Path 292" d="M2284.765,1512.606c.632,1.408,2.334,2.125,2.9,3.558" transform="translate(-2284.765 -1505.029)" fill="none" stroke="#242638" stroke-linecap="round" stroke-linejoin="round" stroke-width="0.084"></path><path id="Path_293" data-name="Path 293" d="M2286.428,1522.784a10.06,10.06,0,0,0,3.831,4.312,18.237,18.237,0,0,1,4.412,3.805c.036.049.073.115.041.168s-.141,0-.1-.044" transform="translate(-2283.793 -1499.083)" fill="none" stroke="#242638" stroke-linecap="round" stroke-linejoin="round" stroke-width="0.084"></path><path id="Path_294" data-name="Path 294" d="M2295.407,1529.249a23.111,23.111,0,0,1-2.323,3.308,6.075,6.075,0,0,0-1.411,3.712" transform="translate(-2280.731 -1495.306)" fill="none" stroke="#242638" stroke-linecap="round" stroke-linejoin="round" stroke-width="0.084"></path><path id="Path_295" data-name="Path 295" d="M2288.529,1533.817a2.268,2.268,0,0,0,.494.813c1.417,1.656,3.482,2.578,5.288,3.8.527.355,1.1.868,1.012,1.5" transform="translate(-2282.566 -1492.637)" fill="none" stroke="#242638" stroke-linecap="round" stroke-linejoin="round" stroke-width="0.084"></path></g></g><path id="Path_296" data-name="Path 296" d="M2336.251,1540.179h-58.562l3,39.946a13.339,13.339,0,0,0,13.3,12.341h25.968a13.338,13.338,0,0,0,13.3-12.341Z" transform="translate(-2258.693 -1438.3)" fill="#fa6325"></path></g></g><g id="Group_118" data-name="Group 118" transform="translate(0 446.97)"><rect id="Rectangle_215" data-name="Rectangle 215" width="244.702" height="291.76" fill="#242638"></rect><line id="Line_21" data-name="Line 21" y1="289.669" transform="translate(108.757 1.046)" fill="none" stroke="#a9bdd2" stroke-miterlimit="10" stroke-width="1.32"></line><path id="Path_297" data-name="Path 297" d="M1949.981,1777.986a4.182,4.182,0,1,0-4.182,4.182A4.184,4.184,0,0,0,1949.981,1777.986Z" transform="translate(-1857.434 -1660.34)" fill="none" stroke="#a9bdd2" stroke-miterlimit="10" stroke-width="1.32"></path><path id="Path_298" data-name="Path 298" d="M1949.981,1789.289a4.182,4.182,0,1,0-4.182,4.182A4.182,4.182,0,0,0,1949.981,1789.289Z" transform="translate(-1857.434 -1653.736)" fill="none" stroke="#a9bdd2" stroke-miterlimit="10" stroke-width="1.32"></path><rect id="Rectangle_216" data-name="Rectangle 216" width="84.705" height="6.274" transform="translate(7.32 157.906)" fill="none" stroke="#a9bdd2" stroke-miterlimit="10" stroke-width="1.32"></rect><rect id="Rectangle_217" data-name="Rectangle 217" width="84.705" height="6.274" transform="translate(7.32 172.808)" fill="none" stroke="#a9bdd2" stroke-miterlimit="10" stroke-width="1.32"></rect><rect id="Rectangle_218" data-name="Rectangle 218" width="84.705" height="6.274" transform="translate(7.32 204.703)" fill="none" stroke="#a9bdd2" stroke-miterlimit="10" stroke-width="1.32"></rect><rect id="Rectangle_219" data-name="Rectangle 219" width="84.705" height="6.274" transform="translate(7.32 217.252)" fill="none" stroke="#a9bdd2" stroke-miterlimit="10" stroke-width="1.32"></rect><g id="Group_117" data-name="Group 117" transform="translate(15.258 17.026)"><g id="Group_116" data-name="Group 116"><g id="Group_115" data-name="Group 115"><path id="Path_299" data-name="Path 299" d="M1969.727,1755.779c0-22.809-15.736-41.3-35.15-41.3s-35.149,18.491-35.149,41.3,15.736,41.3,35.149,41.3S1969.727,1778.59,1969.727,1755.779Z" transform="translate(-1897.339 -1712.024)" fill="#242638"></path><path id="Path_300" data-name="Path 300" d="M1935.348,1800.441c-20.533,0-37.239-19.628-37.239-43.756s16.706-43.756,37.239-43.756,37.24,19.628,37.24,43.756S1955.882,1800.441,1935.348,1800.441Zm0-82.6c-18.229,0-33.061,17.428-33.061,38.848s14.832,38.848,33.061,38.848,33.064-17.428,33.064-38.848S1953.577,1717.837,1935.348,1717.837Z" transform="translate(-1898.109 -1712.929)" fill="#d4dee8"></path></g><path id="Path_301" data-name="Path 301" d="M1963.778,1750.058a23.689,23.689,0,0,0-24.9.8c2.813-3.51,10.1-10.929,21.967-11.627a33.859,33.859,0,0,0-11.562-15.962s-13.227,6.114-15.563,24.665a42.92,42.92,0,0,1,7.053-28.139,25.018,25.018,0,0,0-17.836-.409s-4.715,15.234,4.974,29.411c-3.728-2.1-11.932-8.011-16.1-21.019a34.853,34.853,0,0,0-9.407,17.81s8.147,11.761,22.531,10.242a29.938,29.938,0,0,1-21.788,3.473,31.649,31.649,0,0,0,6.646,17.505s11.866-1.679,19.237-14.541a35.529,35.529,0,0,1-16.373,17.811,28.791,28.791,0,0,0,15.549,10.275s8.889-9.336,7.875-25a43.618,43.618,0,0,1,3.582,23.136,27.99,27.99,0,0,0,15.417-10.548s-2.026-11.845-11.929-19.072c4.78,1.176,11.565,4.186,17.507,11.834A39.058,39.058,0,0,0,1963.778,1750.058Zm-27.247,5.239-3.791,3.614-1.67-.737c.016-.041.038-.078.055-.12l-2.614-4.605,1.286-3.56,4.1-.654s-.017-.1-.041-.254l3.222,3.264-.06,3.265C1936.855,1755.443,1936.7,1755.36,1936.532,1755.3Z" transform="translate(-1895.599 -1710.003)" fill="#a2bed4" opacity="0.32"></path><path id="Path_302" data-name="Path 302" d="M1930.767,1744.248c0-4.235-2.921-7.668-6.525-7.668s-6.525,3.433-6.525,7.668,2.921,7.668,6.525,7.668S1930.767,1748.482,1930.767,1744.248Z" transform="translate(-1886.655 -1699.112)" fill="#242638"></path></g><path id="Path_303" data-name="Path 303" d="M1952.3,1787.8l-46.206-67.349,1.818-1.724,46.207,67.35Z" transform="translate(-1893.442 -1709.542)" fill="#d4dee8"></path><path id="Path_304" data-name="Path 304" d="M1907.916,1787.8l46.207-67.349-1.819-1.724-46.206,67.35Z" transform="translate(-1893.442 -1709.542)" fill="#d4dee8"></path><path id="Path_305" data-name="Path 305" d="M1932.59,1788.994c-16.4,0-29.734-15.672-29.734-34.933s13.337-34.934,29.734-34.934,29.732,15.671,29.732,34.934S1948.985,1788.994,1932.59,1788.994Zm0-68.493c-15.752,0-28.565,15.055-28.565,33.56s12.813,33.56,28.565,33.56,28.563-15.056,28.563-33.56S1948.341,1720.5,1932.59,1720.5Z" transform="translate(-1895.336 -1709.308)" fill="#d4dee8"></path><path id="Path_306" data-name="Path 306" d="M1930.376,1780.326c-13.544,0-24.567-12.948-24.567-28.864s11.023-28.864,24.567-28.864,24.565,12.948,24.565,28.864S1943.919,1780.326,1930.376,1780.326Zm0-56.354c-12.9,0-23.4,12.332-23.4,27.489s10.5,27.489,23.4,27.489,23.4-12.333,23.4-27.489S1943.276,1723.972,1930.376,1723.972Z" transform="translate(-1893.611 -1707.281)" fill="#d4dee8"></path><path id="Path_307" data-name="Path 307" d="M1928.233,1769.218c-9.513,0-17.255-9.095-17.255-20.275s7.742-20.273,17.255-20.273,17.254,9.095,17.254,20.273S1937.746,1769.218,1928.233,1769.218Zm0-39.173c-8.87,0-16.086,8.477-16.086,18.9s7.216,18.9,16.086,18.9,16.084-8.479,16.084-18.9S1937.1,1730.045,1928.233,1730.045Z" transform="translate(-1890.591 -1703.733)" fill="#d4dee8"></path></g><path id="Path_308" data-name="Path 308" d="M1942.763,1854.665h0a1.922,1.922,0,0,0-1.917,1.917v37.3a1.922,1.922,0,0,0,1.917,1.917h0a1.922,1.922,0,0,0,1.917-1.917v-37.3A1.922,1.922,0,0,0,1942.763,1854.665Z" transform="translate(-1857.884 -1613.099)" fill="#a2bed4"></path><path id="Path_309" data-name="Path 309" d="M1938.142,1854.665h0a1.922,1.922,0,0,0-1.917,1.917v37.3a1.922,1.922,0,0,0,1.917,1.917h0a1.922,1.922,0,0,0,1.917-1.917v-37.3A1.921,1.921,0,0,0,1938.142,1854.665Z" transform="translate(-1860.583 -1613.099)" fill="#a2bed4"></path><path id="Path_310" data-name="Path 310" d="M1920.649,1854.665h0a1.922,1.922,0,0,0-1.917,1.917v37.3a1.923,1.923,0,0,0,1.917,1.917h0a1.923,1.923,0,0,0,1.918-1.917v-37.3A1.923,1.923,0,0,0,1920.649,1854.665Z" transform="translate(-1870.803 -1613.099)" fill="#a2bed4"></path><path id="Path_311" data-name="Path 311" d="M1916.029,1854.665h0a1.921,1.921,0,0,0-1.917,1.917v37.3a1.921,1.921,0,0,0,1.917,1.917h0a1.922,1.922,0,0,0,1.917-1.917v-37.3A1.922,1.922,0,0,0,1916.029,1854.665Z" transform="translate(-1873.502 -1613.099)" fill="#a2bed4"></path><path id="Path_312" data-name="Path 312" d="M1901.177,1854.665h0a1.923,1.923,0,0,0-1.918,1.917v37.3a1.923,1.923,0,0,0,1.918,1.917h0a1.923,1.923,0,0,0,1.917-1.917v-37.3A1.923,1.923,0,0,0,1901.177,1854.665Z" transform="translate(-1882.179 -1613.099)" fill="#a2bed4"></path><path id="Path_313" data-name="Path 313" d="M1896.556,1854.665h0a1.921,1.921,0,0,0-1.917,1.917v37.3a1.921,1.921,0,0,0,1.917,1.917h0a1.922,1.922,0,0,0,1.917-1.917v-37.3A1.922,1.922,0,0,0,1896.556,1854.665Z" transform="translate(-1884.878 -1613.099)" fill="#a2bed4"></path></g><path id="Path_314" data-name="Path 314" d="M1984.987,1819.234s-2.091-69.506-2.091-130.712-2.486-129.42,23.855-129.42" transform="translate(-1833.355 -1338.8)" fill="none" stroke="#242638" stroke-miterlimit="10" stroke-width="2.63"></path></g><g id="Group_121" data-name="Group 121" transform="translate(0 647.481)"><path id="Path_315" data-name="Path 315" d="M1683.026,1845.46l85.025,3.8-4.183,34.161-95.51-9.76Z" transform="translate(-1601.088 -1818.988)" fill="#fac5c2"></path><g id="Group_120" data-name="Group 120"><path id="Path_316" data-name="Path 316" d="M1715.124,1855.961s-12.816-20.463-30.984-27.195l-58.245,88.583s13.4,16.631,30.81-.6,47.439-32.292,47.439-32.292S1702.756,1858.9,1715.124,1855.961Z" transform="translate(-1625.895 -1828.741)" fill="#fa6325"></path><path id="Path_317" data-name="Path 317" d="M1684.15,1828.75l-58.244,88.583a22.293,22.293,0,0,0,8.734,6.1l59.071-89.839A51.616,51.616,0,0,0,1684.15,1828.75Z" transform="translate(-1625.889 -1828.75)" fill="#f7ead5"></path><path id="Path_318" data-name="Path 318" d="M1678.51,1863.221a14.713,14.713,0,0,1,2.124,5.535c.323,2.831-.778,5.622-2.026,8.184a64.411,64.411,0,0,1-3.641,6.492c-1.741,2.725-3.839,5.44-6.831,6.671a2.58,2.58,0,0,1-2.777-.149,2.4,2.4,0,0,1-.461-2.071c.349-2.313,1.952-4.211,3.522-5.944q5.691-6.283,11.945-12.024a34.124,34.124,0,0,1-8.163-4.111,18.376,18.376,0,0,1-5.942-6.121,6.846,6.846,0,0,1-.968-3.521,3.622,3.622,0,0,1,1.771-3.056,3.824,3.824,0,0,1,3.52.208,9.849,9.849,0,0,1,2.706,2.448A51.355,51.355,0,0,1,1678.51,1863.221Z" transform="translate(-1603.137 -1814.72)" fill="none" stroke="#fff" stroke-linecap="round" stroke-linejoin="round" stroke-width="0.917"></path></g></g><path id="Path_319" data-name="Path 319" d="M2012.888,1808.372c-6.275-20.218-126.883-68.322-126.883-68.322l-7.669-16.731-117.819,27.188s-2.788,22.309-.7,29.978,65.533,128.277,65.533,128.277l-134.552,6.972V1972.9s205.139,6.275,210.716,6.275,27.713-19.521,20.74-37.647C1922.256,1941.528,2019.163,1828.59,2012.888,1808.372Zm-112.94,57.864-16.034-50.2,39.739,21.612Z" transform="translate(-1587.977 -1242.863)" fill="#242638"></path><path id="Path_320" data-name="Path 320" d="M1790.752,1740.921s0,20.915,2.788,25.1,78.78,148.495,78.78,154.768-181.959,11.156-181.959,11.156" transform="translate(-1588.234 -1232.579)" fill="none" stroke="#356493" stroke-linecap="round" stroke-linejoin="round" stroke-width="1.32"></path><path id="Path_321" data-name="Path 321" d="M1825.388,1813.413l-33.812-79.476,16.383-3.137,14.989,43.572-3.486,18.126" transform="translate(-1529.103 -1238.492)" fill="none" stroke="#356493" stroke-linecap="round" stroke-linejoin="round" stroke-width="1.32"></path><path id="Path_322" data-name="Path 322" d="M1771.226,1736.741s17.429,34.509-6.273,58.212" transform="translate(-1544.656 -1235.021)" fill="none" stroke="#356493" stroke-linecap="round" stroke-linejoin="round" stroke-width="1.32"></path><path id="Path_323" data-name="Path 323" d="M1811.379,1762.925l85.053,35.555-55.772,82.264" transform="translate(-1517.533 -1219.724)" fill="none" stroke="#356493" stroke-linecap="round" stroke-linejoin="round" stroke-width="1.32"></path><line id="Line_22" data-name="Line 22" x2="22.309" y2="75.293" transform="translate(311.971 623.373)" fill="none" stroke="#356493" stroke-linecap="round" stroke-linejoin="round" stroke-width="1.32"></line><g id="Group_122" data-name="Group 122" transform="translate(303.082 128.396)"><path id="Path_324" data-name="Path 324" d="M1851.948,1562.171l-21.149,16.1-13.589,6s8.472,27.865,32.614,48.382l5.473-15.558,22.326-25.1Z" transform="translate(-1817.209 -1465.403)" fill="#fac5c2"></path><path id="Path_325" data-name="Path 325" d="M1831.438,1551.621a57.038,57.038,0,0,1,12.682-30.374c23.776-29.059,57.882-8.739,78.457,13.182a35.974,35.974,0,0,1,7.284,36.445c-2.025,5.393-5.337,10.205-7.669,15.471a31.388,31.388,0,0,0-2.112,6.434,21.77,21.77,0,0,0-.442,3.869c-.046,2.164-2.478,16.023-3.805,15.023-.542-.407-2.738,2.284-3.481,3.77-3.148,6.3-8.046,14.21-13.238,18.969-18.418,16.885-32-3.267-43.5-20.234C1842.678,1595.082,1828.894,1574.588,1831.438,1551.621Z" transform="translate(-1809.075 -1497.734)" fill="#fac5c2"></path><path id="Path_326" data-name="Path 326" d="M1854.257,1561.409c-6.145,18.714,16.471,42.4,23.236,47.468-7.143-.124-13.472-5.454-19.229-12.407l-1.875,2.107c-8.926-17.155-12.183-36.971-12.183-36.971Z" transform="translate(-1801.438 -1465.848)" fill="#d88080"></path><path id="Path_327" data-name="Path 327" d="M1894.692,1550.526a14.513,14.513,0,0,0-10.747-1.92,4.315,4.315,0,0,0-2.137.969,1.842,1.842,0,0,0-.448,2.159c1.844-.545,3.791.235,5.554,1l3.382,1.466a7.242,7.242,0,0,0,3.74.873c1.286-.171,2.533-1.336,2.294-2.609A3.25,3.25,0,0,0,1894.692,1550.526Z" transform="translate(-1779.842 -1473.513)" fill="#242638"></path><path id="Path_328" data-name="Path 328" d="M1838.875,1591.731s22.537,2.535,41.31-9.226l7.506-5.405,30.6-42.059-77.948-17.52s-13.726,24.078-9.192,40.079S1838.875,1591.731,1838.875,1591.731Z" transform="translate(-1809.603 -1491.488)" fill="#242638"></path><path id="Path_329" data-name="Path 329" d="M1882.722,1583.688a.8.8,0,0,0,.55-1.494c-.06-.025-5.822-2.709-9.37-6.589a.8.8,0,1,0-1.176,1.079,35.261,35.261,0,0,0,9.874,6.963A.808.808,0,0,0,1882.722,1583.688Z" transform="translate(-1784.9 -1457.707)" fill="#242638"></path><path id="Path_330" data-name="Path 330" d="M1852.958,1501.378c.776.6.67,1.784.488,2.75q-.613,3.239-1.225,6.478c6.682-7.534,18.364-8.505,28.047-5.741s18.18,8.542,27.28,12.857a96.1,96.1,0,0,0,25.387,7.956c3.479.578,7.113,1.008,10.1,2.882s5.093,5.727,3.728,8.978c-1.458,3.466-5.806,4.5-9.548,4.883,3.628-.472,7.414-.585,10.844.689s6.443,4.182,6.947,7.805c.979,7.058-7.778,11.972-14.822,10.893s-12.973-5.691-19.589-8.339c2.223-.076,3.639,2.894,2.617,4.868s-3.6,2.739-5.774,2.283a12.96,12.96,0,0,1-5.684-3.343,52.3,52.3,0,0,1-10.363-12.587c-9.287,5.817-21.311,3.813-31.907,1.022s-27.594,7.52-37.934,11.145c-4.6-9.9,5.475-36.72,15.1-41.871a15.486,15.486,0,0,1,3.056-12.441C1850.51,1501.546,1851.946,1500.592,1852.958,1501.378Z" transform="translate(-1809.502 -1501.088)" fill="#242638"></path><path id="Path_331" data-name="Path 331" d="M1882.365,1558.481c1.743-3.568,4.548-5.779,6.266-4.941s1.7,4.412-.044,7.979-4.547,5.781-6.266,4.941S1880.622,1562.05,1882.365,1558.481Z" transform="translate(-1779.915 -1470.549)" fill="#242638"></path><path id="Path_332" data-name="Path 332" d="M1893.263,1583.139c.578,3.281-11.435,2.1-11.435,2.1l9.291-26.025A152.545,152.545,0,0,0,1893.263,1583.139Z" transform="translate(-1779.458 -1467.13)" fill="#fac5c2"></path><path id="Path_333" data-name="Path 333" d="M1847.353,1512.359c3.65-1.088,7.565.326,10.934,2.1,5.6,2.95,10.587,6.921,15.536,10.866q13.186,10.513,26.371,21.024a16.281,16.281,0,0,0,5.011,3.081,5.514,5.514,0,0,0,5.534-1c1.388-1.4,1.356-4.127-.353-5.112a107.337,107.337,0,0,0,18.185,6.167c2.642.64,5.694,1.1,7.859-.543,3.122-2.372,2.039-7.721-1.071-10.112s-7.3-2.654-11.218-2.822" transform="translate(-1799.599 -1494.726)" fill="none" stroke="#fff" stroke-linecap="round" stroke-linejoin="round" stroke-width="0.66"></path><path id="Path_334" data-name="Path 334" d="M1847.08,1510.8a13.36,13.36,0,0,1,10.5-1.839,31.819,31.819,0,0,1,9.99,4.417,107.647,107.647,0,0,1,21.68,17.474c4.086,4.276,8.6,9.266,14.518,9.257.673,0,1.537-.25,1.578-.924s-1.4-.326-.868.089" transform="translate(-1799.758 -1496.683)" fill="none" stroke="#fff" stroke-linecap="round" stroke-linejoin="round" stroke-width="0.66"></path><path id="Path_335" data-name="Path 335" d="M1898.318,1532.436c-4.441,20.4-21.637,37.428-42.077,41.671-5.152,1.07-10.494,1.4-15.425,3.233" transform="translate(-1803.418 -1482.774)" fill="none" stroke="#fff" stroke-linecap="round" stroke-linejoin="round" stroke-width="0.66"></path><path id="Path_336" data-name="Path 336" d="M1895.237,1531.7c-3.753,11.608-11.932,21.529-21.992,28.432s-21.919,10.909-33.981,12.735" transform="translate(-1804.324 -1483.203)" fill="none" stroke="#fff" stroke-linecap="round" stroke-linejoin="round" stroke-width="0.66"></path><path id="Path_337" data-name="Path 337" d="M1873.611,1556.907s-3.413-11.874-10.991-9.1-4.323,19.05,1.4,21.1S1873.611,1556.907,1873.611,1556.907Z" transform="translate(-1793.271 -1474.04)" fill="#fac5c2"></path><line id="Line_23" data-name="Line 23" x2="27.712" y2="15.163" transform="translate(81.83 77.555)" fill="none" stroke="#242638" stroke-miterlimit="10" stroke-width="1.32"></line><line id="Line_24" data-name="Line 24" x1="8.105" y2="14.64" transform="translate(105.489 85.136)" fill="none" stroke="#242638" stroke-linecap="round" stroke-linejoin="round" stroke-width="0.66"></line><path id="Path_338" data-name="Path 338" d="M1886.355,1559.807a9.233,9.233,0,0,1,2.614-.523" transform="translate(-1776.813 -1467.089)" fill="none" stroke="#242638" stroke-linecap="round" stroke-linejoin="round" stroke-width="0.66"></path></g><path id="Path_339" data-name="Path 339" d="M1879.425,1573.476s-27.19,3.138-40.261,10.98-50.719,39.738-65.881,74.247-33.465,124.443-33.465,124.443l-9.412,65.358s78.431,24.053,128.627-30.327l2.091-24.574,28.758-58.038,3.137,8.889,53.333-16.21s-14.117-83.659-19.346-89.41-26.143-37.647-26.143-37.647Z" transform="translate(-1564.839 -1330.403)" fill="#fa6325"></path><path id="Path_340" data-name="Path 340" d="M1846.834,1667.21l9.935,49.15,92.548,61.176s21.438,17.254,28.757,32.418l-15.163-5.752,10.98,17.778,10.457,10.457-8.366,1.046,3.66,2.614-15.163,8.889-17.255-15.163-15.163-36.079s-109.8-44.444-117.645-55.947-21.96-62.744-21.96-62.744Z" transform="translate(-1528.588 -1275.642)" fill="#fac5c2"></path><path id="Path_341" data-name="Path 341" d="M1785.525,1687.777l4.705,29.281,67.451-10.98s0-104.051-19.346-107.188" transform="translate(-1532.637 -1315.556)" fill="none" stroke="#242638" stroke-linecap="round" stroke-linejoin="round" stroke-width="1.32"></path></g></g></g></svg>