<svg xmlns="http://www.w3.org/2000/svg" xmlns:xlink="http://www.w3.org/1999/xlink" width="1594.432" height="841.452" viewBox="0 0 1594.432 841.452"><defs><linearGradient id="linear-gradient" y1="0.5" x2="1" y2="0.5" gradientUnits="objectBoundingBox"><stop offset="0.001" stop-color="#00c6ff"></stop><stop offset="0.998" stop-color="#0072ff"></stop></linearGradient><linearGradient id="linear-gradient-7" x1="15.029" y1="0.046" x2="10.785" y2="0.179" gradientUnits="objectBoundingBox"><stop offset="0" stop-color="#fa71cd"></stop><stop offset="0.99" stop-color="#c471f5"></stop></linearGradient><linearGradient id="linear-gradient-9" y1="0.5" x2="1" y2="0.5" gradientUnits="objectBoundingBox"><stop offset="0" stop-color="#d1defd"></stop><stop offset="0.987" stop-color="#fff"></stop></linearGradient><linearGradient id="linear-gradient-10" x1="0" y1="0.5" x2="1" y2="0.5" xlink:href="#linear-gradient"></linearGradient></defs><g id="Group_74" data-name="Group 74" transform="translate(-528.846 -323.821)"><g id="Group_73" data-name="Group 73"><g id="Group_72" data-name="Group 72"><g id="Group_71" data-name="Group 71"><g id="Group_70" data-name="Group 70"><g id="Group_69" data-name="Group 69"><ellipse id="Ellipse_1" data-name="Ellipse 1" cx="797.216" cy="19.829" rx="797.216" ry="19.829" transform="translate(528.846 1125.615)" fill="#39414e" opacity="0.8" style="mix-blend-mode: multiply;isolation: isolate"></ellipse><g id="Group_3" data-name="Group 3"><g id="Group_1" data-name="Group 1"><path id="Path_1" data-name="Path 1" d="M945.136,323.821l-20.5,81.412L884.8,392.544,920.345,349.2l-45.869,40.214-37.26-11.642Z" fill="#f5f9ff" fill-rule="evenodd"></path><path id="Path_2" data-name="Path 2" d="M896.648,402.8l-13.119,18.52V398.912Z" fill="#f5f9ff" fill-rule="evenodd"></path></g><g id="Group_2" data-name="Group 2"><path id="Path_3" data-name="Path 3" d="M848.129,473.364l5.608-8.416,5,3.3-5.636,8.456Z" fill="#f5f9ff" fill-rule="evenodd"></path><path id="Path_4" data-name="Path 4" d="M863.16,461.508l-5.02-3.269,5.481-8.5,5.049,3.224Z" fill="#f5f9ff" fill-rule="evenodd"></path><path id="Path_5" data-name="Path 5" d="M873.208,434.428l5.112,3.124-5.364,8.649-5.073-3.185Z" fill="#f5f9ff" fill-rule="evenodd"></path><path id="Path_6" data-name="Path 6" d="M816.709,517.863l5.985-8.149,4.843,3.526-6.019,8.193Z" fill="#f5f9ff" fill-rule="evenodd"></path><path id="Path_7" data-name="Path 7" d="M832.262,506.7l-4.868-3.492,5.862-8.24,4.9,3.45Z" fill="#f5f9ff" fill-rule="evenodd"></path><path id="Path_8" data-name="Path 8" d="M843.553,480.112l4.949,3.376-5.76,8.373-4.92-3.417Z" fill="#f5f9ff" fill-rule="evenodd"></path><path id="Path_9" data-name="Path 9" d="M789.482,552.865l4.639,3.791-6.488,7.843-4.59-3.849Z" fill="#f5f9ff" fill-rule="evenodd"></path><path id="Path_10" data-name="Path 10" d="M794.527,546.632l6.28-7.919,4.715,3.7L799.2,550.38Z" fill="#f5f9ff" fill-rule="evenodd"></path><path id="Path_11" data-name="Path 11" d="M805.692,532.426l6.134-8.035L816.608,528l-6.171,8.084Z" fill="#f5f9ff" fill-rule="evenodd"></path><path id="Path_12" data-name="Path 12" d="M746.446,600.864l7.068-7.2,4.317,4.153-7.152,7.283Z" fill="#f5f9ff" fill-rule="evenodd"></path><path id="Path_13" data-name="Path 13" d="M759.023,587.854l6.836-7.427,4.444,4.017-6.9,7.5Z" fill="#f5f9ff" fill-rule="evenodd"></path><path id="Path_14" data-name="Path 14" d="M777.777,566.864l4.548,3.9-6.676,7.693-4.493-3.962Z" fill="#f5f9ff" fill-rule="evenodd"></path><path id="Path_15" data-name="Path 15" d="M717.232,635.039c-2.693,2.114-5.425,4.182-8.221,6.177l-3.5-4.861c2.725-1.944,5.4-3.965,8.031-6.035Z" fill="#f5f9ff" fill-rule="evenodd"></path><path id="Path_16" data-name="Path 16" d="M731.373,623.279c-.536.47-1.089.923-1.628,1.39,1.166,1.721,2.342,3.436,3.5,5.161l-4.979,3.333c-1.028-1.531-2.073-3.051-3.106-4.58-.53.446-1.047.909-1.581,1.351l-3.819-4.615q3.871-3.21,7.654-6.536Z" fill="#f5f9ff" fill-rule="evenodd"></path><path id="Path_17" data-name="Path 17" d="M733.312,613.475c2.461-2.287,4.932-4.563,7.332-6.915l4.159,4.312c-2.433,2.383-4.94,4.694-7.438,7.014Z" fill="#f5f9ff" fill-rule="evenodd"></path><path id="Path_18" data-name="Path 18" d="M667.172,657.256l1.946,5.665c-1.648.6-3.317,1.143-5.03,1.583-1.7.465-3.382.99-5.133,1.3l-1.287-5.85c1.619-.284,3.195-.781,4.784-1.215A49.144,49.144,0,0,0,667.172,657.256Z" fill="#f5f9ff" fill-rule="evenodd"></path><path id="Path_19" data-name="Path 19" d="M686.286,655.426c-3.038,1.659-6.218,3.091-9.4,4.5l-2.363-5.505c3.03-1.347,6.064-2.707,8.986-4.3Z" fill="#f5f9ff" fill-rule="evenodd"></path><path id="Path_20" data-name="Path 20" d="M702.188,645.958c-2.888,1.873-5.759,3.775-8.76,5.491l-3.043-5.16c2.893-1.654,5.683-3.5,8.484-5.318Z" fill="#f5f9ff" fill-rule="evenodd"></path><path id="Path_21" data-name="Path 21" d="M616.425,653.954l-3.155,5.093a60.823,60.823,0,0,1-8.611-6.447l3.956-4.5A54.807,54.807,0,0,0,616.425,653.954Z" fill="#f5f9ff" fill-rule="evenodd"></path><path id="Path_22" data-name="Path 22" d="M632.5,660.449l-1.243,5.861a54.523,54.523,0,0,1-10.358-3.281l2.36-5.506A48.454,48.454,0,0,0,632.5,660.449Z" fill="#f5f9ff" fill-rule="evenodd"></path><path id="Path_23" data-name="Path 23" d="M649.85,661.251l.624,5.958a66.257,66.257,0,0,1-10.754.248l.369-5.979A60.432,60.432,0,0,0,649.85,661.251Z" fill="#f5f9ff" fill-rule="evenodd"></path><path id="Path_24" data-name="Path 24" d="M581.3,613.966l-5.071,3.189c-1.849-2.906-3.58-5.889-5.279-8.892l5.237-2.906C577.836,608.261,579.51,611.148,581.3,613.966Z" fill="#f5f9ff" fill-rule="evenodd"></path><path id="Path_25" data-name="Path 25" d="M591.557,628.73l-4.769,3.625c-2.115-2.709-4.07-5.542-6.066-8.343l4.938-3.392C587.6,623.341,589.5,626.094,591.557,628.73Z" fill="#f5f9ff" fill-rule="evenodd"></path><path id="Path_26" data-name="Path 26" d="M602.964,642.554l-4.443,4.017c-2.309-2.6-4.555-5.152-6.709-7.842l4.637-3.792C598.535,637.544,600.765,640.072,602.964,642.554Z" fill="#f5f9ff" fill-rule="evenodd"></path><path id="Path_27" data-name="Path 27" d="M560.914,564.565l-5.9,1.066a88.5,88.5,0,0,1-1.317-10.476l5.977-.4A82.39,82.39,0,0,0,560.914,564.565Z" fill="#f5f9ff" fill-rule="evenodd"></path><path id="Path_28" data-name="Path 28" d="M565.521,581.775l-5.655,1.975q-1.734-4.914-3.05-9.989l5.8-1.505Q563.854,577.07,565.521,581.775Z" fill="#f5f9ff" fill-rule="evenodd"></path><path id="Path_29" data-name="Path 29" d="M572.46,598.207l-5.371,2.651c-1.546-3.091-2.956-6.255-4.3-9.446l5.533-2.295C569.614,592.182,570.969,595.226,572.46,598.207Z" fill="#f5f9ff" fill-rule="evenodd"></path><path id="Path_30" data-name="Path 30" d="M570.027,511.847a34.441,34.441,0,0,1,10.358-4.71l1.554,5.786a28.446,28.446,0,0,0-8.525,3.873Z" fill="#f5f9ff" fill-rule="evenodd"></path><path id="Path_31" data-name="Path 31" d="M557.554,527.6a39.96,39.96,0,0,1,5.772-9.676L567.9,521.8a33.989,33.989,0,0,0-4.822,8.128Z" fill="#f5f9ff" fill-rule="evenodd"></path><path id="Path_32" data-name="Path 32" d="M559.571,546.83l-5.984-.265a58.234,58.234,0,0,1,1.373-10.7l5.847,1.3A52.255,52.255,0,0,0,559.571,546.83Z" fill="#f5f9ff" fill-rule="evenodd"></path><path id="Path_33" data-name="Path 33" d="M622.871,521.732l2.872-5.258c3.045,1.686,6.05,3.441,8.935,5.353l-3.256,5.029C628.647,525.014,625.773,523.339,622.871,521.732Z" fill="#f5f9ff" fill-rule="evenodd"></path><path id="Path_34" data-name="Path 34" d="M606.627,514.615l1.814-5.709a94.939,94.939,0,0,1,9.862,3.838l-2.477,5.455A89.021,89.021,0,0,0,606.627,514.615Z" fill="#f5f9ff" fill-rule="evenodd"></path><path id="Path_35" data-name="Path 35" d="M589.525,511.916l-.168-5.988a50.237,50.237,0,0,1,10.889.908l-1.1,5.89A44.186,44.186,0,0,0,589.525,511.916Z" fill="#f5f9ff" fill-rule="evenodd"></path><path id="Path_36" data-name="Path 36" d="M669.559,550.5c2.466,2.371,4.8,4.866,7.2,7.293l-4.331,4.139c-2.362-2.383-4.654-4.839-7.072-7.162Z" fill="#f5f9ff" fill-rule="evenodd"></path><path id="Path_37" data-name="Path 37" d="M663.68,544.864l-4.084,4.383c-2.46-2.275-4.926-4.544-7.481-6.706L656.024,538C658.645,540.221,661.166,542.539,663.68,544.864Z" fill="#f5f9ff" fill-rule="evenodd"></path><path id="Path_38" data-name="Path 38" d="M649.791,532.808l-3.749,4.673c-2.583-2.126-5.276-4.1-7.963-6.081l3.5-4.86C644.357,528.582,647.138,530.626,649.791,532.808Z" fill="#f5f9ff" fill-rule="evenodd"></path><path id="Path_39" data-name="Path 39" d="M701.183,595.519l4.726-3.682q3.162,4.005,6.194,8.1l-4.79,3.6Q704.312,599.477,701.183,595.519Z" fill="#f5f9ff" fill-rule="evenodd"></path><path id="Path_40" data-name="Path 40" d="M700.89,585.482l-4.669,3.753c-2.137-2.595-4.2-5.252-6.4-7.8l4.589-3.85C696.638,580.168,698.727,582.854,700.89,585.482Z" fill="#f5f9ff" fill-rule="evenodd"></path><path id="Path_41" data-name="Path 41" d="M677.967,567.871l4.422-4.042,6.808,7.63-4.52,3.931Z" fill="#f5f9ff" fill-rule="evenodd"></path><path id="Path_42" data-name="Path 42" d="M743.243,645.107l-5.052,3.219-5.488-8.484,5.011-3.281Z" fill="#f5f9ff" fill-rule="evenodd"></path><path id="Path_43" data-name="Path 43" d="M717,606.541l5.952,8.272-4.894,3.456-5.9-8.2Z" fill="#f5f9ff" fill-rule="evenodd"></path><path id="Path_44" data-name="Path 44" d="M775.23,688.63l-4.567,3.877-6.349-7.967,4.67-3.752Z" fill="#f5f9ff" fill-rule="evenodd"></path><path id="Path_45" data-name="Path 45" d="M764.025,674.565l-4.749,3.652c-2.082-2.681-4.335-5.237-6.165-8.1l4.843-3.526C759.756,669.416,761.975,671.927,764.025,674.565Z" fill="#f5f9ff" fill-rule="evenodd"></path><path id="Path_46" data-name="Path 46" d="M753.485,660.071l-4.912,3.43-5.759-8.4,4.995-3.307Z" fill="#f5f9ff" fill-rule="evenodd"></path><path id="Path_47" data-name="Path 47" d="M813.191,726.9l-3.892,4.554c-2.606-2.18-5.011-4.59-7.525-6.875l4.029-4.432C808.273,722.389,810.633,724.76,813.191,726.9Z" fill="#f5f9ff" fill-rule="evenodd"></path><path id="Path_48" data-name="Path 48" d="M799.984,714.736l-4.136,4.333c-2.439-2.362-5.086-4.521-7.355-7.052l4.266-4.206C794.987,710.3,797.589,712.415,799.984,714.736Z" fill="#f5f9ff" fill-rule="evenodd"></path><path id="Path_49" data-name="Path 49" d="M787.4,702.017l-4.359,4.108-6.921-7.482,4.477-3.98Z" fill="#f5f9ff" fill-rule="evenodd"></path><path id="Path_50" data-name="Path 50" d="M857.048,758.114,854,763.27c-2.909-1.755-5.966-3.275-8.754-5.225l3.216-5.054C851.194,754.905,854.2,756.392,857.048,758.114Z" fill="#f5f9ff" fill-rule="evenodd"></path><path id="Path_51" data-name="Path 51" d="M841.9,748.52l-3.344,4.97-8.43-5.742,3.5-4.859Z" fill="#f5f9ff" fill-rule="evenodd"></path><path id="Path_52" data-name="Path 52" d="M827.323,738.17l-3.625,4.769-7.973-6.358,3.775-4.652Z" fill="#f5f9ff" fill-rule="evenodd"></path><path id="Path_53" data-name="Path 53" d="M905.564,781.419l-2.11,5.607-9.466-3.794,2.286-5.537Z" fill="#f5f9ff" fill-rule="evenodd"></path><path id="Path_54" data-name="Path 54" d="M888.916,774.715l-2.427,5.477-9.179-4.446,2.6-5.4Z" fill="#f5f9ff" fill-rule="evenodd"></path><path id="Path_55" data-name="Path 55" d="M872.82,766.916l-2.739,5.327a101.15,101.15,0,0,1-8.96-4.861l2.912-5.236A97.964,97.964,0,0,0,872.82,766.916Z" fill="#f5f9ff" fill-rule="evenodd"></path><path id="Path_56" data-name="Path 56" d="M957.4,796.12l-1.175,5.874c-3.324-.7-6.694-1.185-9.98-2.048l1.342-5.838C950.812,794.957,954.126,795.436,957.4,796.12Z" fill="#f5f9ff" fill-rule="evenodd"></path><path id="Path_57" data-name="Path 57" d="M939.885,792.131l-1.48,5.8-9.874-2.534,1.651-5.758Z" fill="#f5f9ff" fill-rule="evenodd"></path><path id="Path_58" data-name="Path 58" d="M922.668,787.26l-1.791,5.716-9.7-3.155,1.967-5.658Z" fill="#f5f9ff" fill-rule="evenodd"></path><path id="Path_59" data-name="Path 59" d="M1010.938,802.86l-.318,5.981c-3.393-.084-6.77-.507-10.155-.746l.47-5.971C1004.27,802.357,1007.592,802.778,1010.938,802.86Z" fill="#f5f9ff" fill-rule="evenodd"></path><path id="Path_60" data-name="Path 60" d="M993,801.464l-.592,5.961c-3.391-.209-6.75-.72-10.114-1.177l.749-5.943C986.357,800.756,989.662,801.26,993,801.464Z" fill="#f5f9ff" fill-rule="evenodd"></path><path id="Path_61" data-name="Path 61" d="M975.22,799.238l-.876,5.927c-3.368-.44-6.734-.889-10.058-1.608l1.04-5.9C968.593,798.367,971.906,798.806,975.22,799.238Z" fill="#f5f9ff" fill-rule="evenodd"></path><path id="Path_62" data-name="Path 62" d="M1065.425,808.285l-10.162.538-.3-5.983,10.032-.53Z" fill="#f5f9ff" fill-rule="evenodd"></path><path id="Path_63" data-name="Path 63" d="M1047.2,809.24l-10.179.111-.053-5.99,10.041-.109Z" fill="#f5f9ff" fill-rule="evenodd"></path><path id="Path_64" data-name="Path 64" d="M1029.056,803.448l-.056,5.99-10.176-.314.2-5.987Z" fill="#f5f9ff" fill-rule="evenodd"></path><path id="Path_65" data-name="Path 65" d="M1119.766,801.356c-3.331.628-6.689,1.113-10.032,1.676l-.957-5.913c3.305-.558,6.623-1.036,9.918-1.657Z" fill="#f5f9ff" fill-rule="evenodd"></path><path id="Path_66" data-name="Path 66" d="M1101.767,804.328l-10.089,1.3-.748-5.944,9.97-1.283Z" fill="#f5f9ff" fill-rule="evenodd"></path><path id="Path_67" data-name="Path 67" d="M1083.728,806.629l-10.132.933-.528-5.967,10.007-.92Z" fill="#f5f9ff" fill-rule="evenodd"></path><path id="Path_68" data-name="Path 68" d="M1173.087,788.859l-9.793,2.741-1.547-5.787,9.688-2.712Z" fill="#f5f9ff" fill-rule="evenodd"></path><path id="Path_69" data-name="Path 69" d="M1155.473,793.585c-3.287.83-6.566,1.694-9.882,2.4l-1.355-5.835c3.28-.7,6.522-1.553,9.773-2.374Z" fill="#f5f9ff" fill-rule="evenodd"></path><path id="Path_70" data-name="Path 70" d="M1137.776,797.743c-3.3.785-6.635,1.391-9.962,2.045l-1.161-5.877c3.29-.646,6.59-1.245,9.852-2.023Z" fill="#f5f9ff" fill-rule="evenodd"></path><path id="Path_71" data-name="Path 71" d="M1224.88,770.951c-3.139,1.316-6.3,2.572-9.459,3.8l-2.16-5.588c3.116-1.212,6.219-2.447,9.288-3.735Z" fill="#f5f9ff" fill-rule="evenodd"></path><path id="Path_72" data-name="Path 72" d="M1207.858,777.593l-9.593,3.393-1.936-5.669,9.473-3.35Z" fill="#f5f9ff" fill-rule="evenodd"></path><path id="Path_73" data-name="Path 73" d="M1190.656,783.5c-3.211,1.09-6.467,2.035-9.706,3.035l-1.741-5.733c3.2-.988,6.426-1.922,9.6-3Z" fill="#f5f9ff" fill-rule="evenodd"></path></g></g><g id="Group_48" data-name="Group 48"><g id="Group_25" data-name="Group 25"><path id="Path_74" data-name="Path 74" d="M1244.234,1140.562H923.424a11.021,11.021,0,0,1-11.021-11.021V837.662h342.851v291.879A11.02,11.02,0,0,1,1244.234,1140.562Z" fill="#39414e"></path><rect id="Rectangle_1" data-name="Rectangle 1" width="305.902" height="12.514" rx="3.04" transform="translate(930.878 1055.006)" fill="#2f353f"></rect><rect id="Rectangle_2" data-name="Rectangle 2" width="305.902" height="12.514" rx="3.04" transform="translate(930.878 1014.461)" fill="#2f353f"></rect><rect id="Rectangle_3" data-name="Rectangle 3" width="305.902" height="12.514" rx="3.04" transform="translate(930.878 1095.55)" fill="#2f353f"></rect><g id="Group_7" data-name="Group 7"><rect id="Rectangle_4" data-name="Rectangle 4" width="346.979" height="65.059" rx="6.659" transform="translate(910.339 485.241)" fill="#39414e"></rect><g id="Group_4" data-name="Group 4"><rect id="Rectangle_5" data-name="Rectangle 5" width="330.107" height="9.393" transform="translate(918.776 550.322)" fill="#636b76"></rect><rect id="Rectangle_6" data-name="Rectangle 6" width="330.107" height="3.288" transform="translate(918.776 550.322)" fill="#2f353f"></rect></g><rect id="Rectangle_7" data-name="Rectangle 7" width="261.341" height="45.292" rx="3.023" transform="translate(983.887 490.388)" fill="#2f353f"></rect><g id="Group_6" data-name="Group 6"><rect id="Rectangle_8" data-name="Rectangle 8" width="70.019" height="29.366" rx="2.732" transform="translate(1168.525 493.695)" fill="#7acdf5"></rect><g id="Group_5" data-name="Group 5"><rect id="Rectangle_9" data-name="Rectangle 9" width="7.91" height="5.203" transform="translate(1168.659 527.671)" fill="#1b75bc"></rect><rect id="Rectangle_10" data-name="Rectangle 10" width="7.91" height="5.203" transform="translate(1209.886 527.671)" fill="#1b75bc"></rect><rect id="Rectangle_11" data-name="Rectangle 11" width="7.91" height="5.203" transform="translate(1189.272 527.671)" fill="#1b75bc"></rect><rect id="Rectangle_12" data-name="Rectangle 12" width="7.91" height="5.203" transform="translate(1230.499 527.671)" fill="#1b75bc"></rect></g></g></g><g id="Group_11" data-name="Group 11"><rect id="Rectangle_13" data-name="Rectangle 13" width="346.979" height="65.059" rx="6.659" transform="translate(910.339 559.947)" fill="#39414e"></rect><g id="Group_8" data-name="Group 8"><rect id="Rectangle_14" data-name="Rectangle 14" width="330.107" height="9.393" transform="translate(918.776 625.028)" fill="#636b76"></rect><rect id="Rectangle_15" data-name="Rectangle 15" width="330.107" height="3.288" transform="translate(918.776 625.028)" fill="#2f353f"></rect></g><rect id="Rectangle_16" data-name="Rectangle 16" width="261.341" height="45.292" rx="3.023" transform="translate(983.887 565.093)" fill="#2f353f"></rect><g id="Group_10" data-name="Group 10"><rect id="Rectangle_17" data-name="Rectangle 17" width="70.019" height="29.366" rx="2.732" transform="translate(1168.525 568.4)" fill="#7acdf5"></rect><g id="Group_9" data-name="Group 9"><rect id="Rectangle_18" data-name="Rectangle 18" width="7.91" height="5.203" transform="translate(1168.659 602.376)" fill="#1b75bc"></rect><rect id="Rectangle_19" data-name="Rectangle 19" width="7.91" height="5.203" transform="translate(1209.886 602.376)" fill="#1b75bc"></rect><rect id="Rectangle_20" data-name="Rectangle 20" width="7.91" height="5.203" transform="translate(1189.272 602.376)" fill="#1b75bc"></rect><rect id="Rectangle_21" data-name="Rectangle 21" width="7.91" height="5.203" transform="translate(1230.499 602.376)" fill="#1b75bc"></rect></g></g></g><g id="Group_15" data-name="Group 15"><rect id="Rectangle_22" data-name="Rectangle 22" width="346.979" height="65.059" rx="6.659" transform="translate(910.339 634.652)" fill="#39414e"></rect><g id="Group_12" data-name="Group 12"><rect id="Rectangle_23" data-name="Rectangle 23" width="330.107" height="9.393" transform="translate(918.776 699.733)" fill="#636b76"></rect><rect id="Rectangle_24" data-name="Rectangle 24" width="330.107" height="3.288" transform="translate(918.776 699.733)" fill="#2f353f"></rect></g><rect id="Rectangle_25" data-name="Rectangle 25" width="261.341" height="45.292" rx="3.023" transform="translate(983.887 639.798)" fill="#2f353f"></rect><g id="Group_14" data-name="Group 14"><rect id="Rectangle_26" data-name="Rectangle 26" width="70.019" height="29.366" rx="2.732" transform="translate(1168.525 643.106)" fill="#7acdf5"></rect><g id="Group_13" data-name="Group 13"><rect id="Rectangle_27" data-name="Rectangle 27" width="7.91" height="5.203" transform="translate(1168.659 677.081)" fill="#1b75bc"></rect><rect id="Rectangle_28" data-name="Rectangle 28" width="7.91" height="5.203" transform="translate(1209.886 677.081)" fill="#1b75bc"></rect><rect id="Rectangle_29" data-name="Rectangle 29" width="7.91" height="5.203" transform="translate(1189.272 677.081)" fill="#1b75bc"></rect><rect id="Rectangle_30" data-name="Rectangle 30" width="7.91" height="5.203" transform="translate(1230.499 677.081)" fill="#1b75bc"></rect></g></g></g><g id="Group_19" data-name="Group 19"><rect id="Rectangle_31" data-name="Rectangle 31" width="346.979" height="65.059" rx="6.659" transform="translate(910.339 709.357)" fill="#39414e"></rect><g id="Group_16" data-name="Group 16"><rect id="Rectangle_32" data-name="Rectangle 32" width="330.107" height="9.393" transform="translate(918.776 774.438)" fill="#636b76"></rect><rect id="Rectangle_33" data-name="Rectangle 33" width="330.107" height="3.288" transform="translate(918.776 774.438)" fill="#2f353f"></rect></g><rect id="Rectangle_34" data-name="Rectangle 34" width="261.341" height="45.292" rx="3.023" transform="translate(983.887 714.504)" fill="#2f353f"></rect><g id="Group_18" data-name="Group 18"><rect id="Rectangle_35" data-name="Rectangle 35" width="70.019" height="29.366" rx="2.732" transform="translate(1168.525 717.811)" fill="#7acdf5"></rect><g id="Group_17" data-name="Group 17"><rect id="Rectangle_36" data-name="Rectangle 36" width="7.91" height="5.203" transform="translate(1168.659 751.787)" fill="#1b75bc"></rect><rect id="Rectangle_37" data-name="Rectangle 37" width="7.91" height="5.203" transform="translate(1209.886 751.787)" fill="#1b75bc"></rect><rect id="Rectangle_38" data-name="Rectangle 38" width="7.91" height="5.203" transform="translate(1189.272 751.787)" fill="#1b75bc"></rect><rect id="Rectangle_39" data-name="Rectangle 39" width="7.91" height="5.203" transform="translate(1230.499 751.787)" fill="#1b75bc"></rect></g></g></g><rect id="Rectangle_40" data-name="Rectangle 40" width="330.107" height="3.288" transform="translate(918.776 849.144)" fill="#2f353f"></rect><g id="Group_22" data-name="Group 22"><rect id="Rectangle_41" data-name="Rectangle 41" width="346.979" height="65.059" rx="6.659" transform="translate(910.339 784.063)" fill="#39414e"></rect><rect id="Rectangle_42" data-name="Rectangle 42" width="261.341" height="45.292" rx="3.023" transform="translate(983.887 789.209)" fill="#2f353f"></rect><g id="Group_21" data-name="Group 21"><rect id="Rectangle_43" data-name="Rectangle 43" width="70.019" height="29.366" rx="2.732" transform="translate(1168.525 792.516)" fill="#7acdf5"></rect><g id="Group_20" data-name="Group 20"><rect id="Rectangle_44" data-name="Rectangle 44" width="7.91" height="5.203" transform="translate(1168.659 826.492)" fill="#1b75bc"></rect><rect id="Rectangle_45" data-name="Rectangle 45" width="7.91" height="5.203" transform="translate(1209.886 826.492)" fill="#1b75bc"></rect><rect id="Rectangle_46" data-name="Rectangle 46" width="7.91" height="5.203" transform="translate(1189.272 826.492)" fill="#1b75bc"></rect><rect id="Rectangle_47" data-name="Rectangle 47" width="7.91" height="5.203" transform="translate(1230.499 826.492)" fill="#1b75bc"></rect></g></g></g><g id="Group_23" data-name="Group 23"><rect id="Rectangle_48" data-name="Rectangle 48" width="127.554" height="24.688" rx="6.002" transform="translate(1020.052 903.511)" fill="#fbb040"></rect><rect id="Rectangle_49" data-name="Rectangle 49" width="102.456" height="9.5" rx="2.034" transform="translate(1032.339 910.703)" fill="#2f353f"></rect></g><g id="Group_24" data-name="Group 24"><rect id="Rectangle_50" data-name="Rectangle 50" width="127.554" height="24.688" rx="6.002" transform="translate(1020.052 950.826)" fill="#fbb040"></rect><rect id="Rectangle_51" data-name="Rectangle 51" width="102.456" height="9.5" rx="2.034" transform="translate(1032.339 958.018)" fill="#2f353f"></rect></g></g><g id="Group_47" data-name="Group 47"><path id="Path_75" data-name="Path 75" d="M1244.234,1140.562H923.424a11.021,11.021,0,0,1-11.021-11.021V837.662h342.851v291.879A11.02,11.02,0,0,1,1244.234,1140.562Z" fill="#39414e"></path><path id="Path_76" data-name="Path 76" d="M1233.824,1067.52H942.336a3,3,0,0,1-2.956-3.04v-6.434a3,3,0,0,1,2.956-3.04h291.488a3,3,0,0,1,2.956,3.04v6.434A3,3,0,0,1,1233.824,1067.52Z" fill="#f5f9ff"></path><path id="Path_77" data-name="Path 77" d="M1233.824,1026.975H942.336a3,3,0,0,1-2.956-3.04V1017.5a3,3,0,0,1,2.956-3.04h291.488a3,3,0,0,1,2.956,3.04v6.434A3,3,0,0,1,1233.824,1026.975Z" fill="#f5f9ff"></path><path id="Path_78" data-name="Path 78" d="M1233.824,1108.064H942.336a3,3,0,0,1-2.956-3.04v-6.434a3,3,0,0,1,2.956-3.04h291.488a3,3,0,0,1,2.956,3.04v6.434A3,3,0,0,1,1233.824,1108.064Z" fill="#f5f9ff"></path><g id="Group_29" data-name="Group 29"><rect id="Rectangle_52" data-name="Rectangle 52" width="346.979" height="65.059" rx="6.659" transform="translate(910.339 485.241)" fill="#39414e"></rect><g id="Group_26" data-name="Group 26"><rect id="Rectangle_53" data-name="Rectangle 53" width="330.107" height="9.393" transform="translate(918.776 550.322)" fill="#636b76"></rect><rect id="Rectangle_54" data-name="Rectangle 54" width="330.107" height="3.288" transform="translate(918.776 550.322)" fill="#2f353f"></rect></g><rect id="Rectangle_55" data-name="Rectangle 55" width="261.341" height="45.292" rx="3.023" transform="translate(983.887 490.388)" fill="#2f353f"></rect><g id="Group_28" data-name="Group 28"><rect id="Rectangle_56" data-name="Rectangle 56" width="70.019" height="29.366" rx="2.732" transform="translate(1168.525 493.695)" fill="url(#linear-gradient)"></rect><g id="Group_27" data-name="Group 27"><rect id="Rectangle_57" data-name="Rectangle 57" width="7.91" height="5.203" transform="translate(1168.659 527.671)" fill="#fff"></rect><rect id="Rectangle_58" data-name="Rectangle 58" width="7.91" height="5.203" transform="translate(1209.886 527.671)" fill="#fff"></rect><rect id="Rectangle_59" data-name="Rectangle 59" width="7.91" height="5.203" transform="translate(1189.272 527.671)" fill="#fff"></rect><rect id="Rectangle_60" data-name="Rectangle 60" width="7.91" height="5.203" transform="translate(1230.499 527.671)" fill="#fff"></rect></g></g></g><g id="Group_33" data-name="Group 33"><rect id="Rectangle_61" data-name="Rectangle 61" width="346.979" height="65.059" rx="6.659" transform="translate(910.339 559.947)" fill="#39414e"></rect><g id="Group_30" data-name="Group 30"><rect id="Rectangle_62" data-name="Rectangle 62" width="330.107" height="9.393" transform="translate(918.776 625.028)" fill="#636b76"></rect><rect id="Rectangle_63" data-name="Rectangle 63" width="330.107" height="3.288" transform="translate(918.776 625.028)" fill="#2f353f"></rect></g><rect id="Rectangle_64" data-name="Rectangle 64" width="261.341" height="45.292" rx="3.023" transform="translate(983.887 565.093)" fill="#2f353f"></rect><g id="Group_32" data-name="Group 32"><rect id="Rectangle_65" data-name="Rectangle 65" width="70.019" height="29.366" rx="2.732" transform="translate(1168.525 568.4)" fill="url(#linear-gradient)"></rect><g id="Group_31" data-name="Group 31"><rect id="Rectangle_66" data-name="Rectangle 66" width="7.91" height="5.203" transform="translate(1168.659 602.376)" fill="#fff"></rect><rect id="Rectangle_67" data-name="Rectangle 67" width="7.91" height="5.203" transform="translate(1209.886 602.376)" fill="#fff"></rect><rect id="Rectangle_68" data-name="Rectangle 68" width="7.91" height="5.203" transform="translate(1189.272 602.376)" fill="#fff"></rect><rect id="Rectangle_69" data-name="Rectangle 69" width="7.91" height="5.203" transform="translate(1230.499 602.376)" fill="#fff"></rect></g></g></g><g id="Group_37" data-name="Group 37"><rect id="Rectangle_70" data-name="Rectangle 70" width="346.979" height="65.059" rx="6.659" transform="translate(910.339 634.652)" fill="#39414e"></rect><g id="Group_34" data-name="Group 34"><rect id="Rectangle_71" data-name="Rectangle 71" width="330.107" height="9.393" transform="translate(918.776 699.733)" fill="#636b76"></rect><rect id="Rectangle_72" data-name="Rectangle 72" width="330.107" height="3.288" transform="translate(918.776 699.733)" fill="#2f353f"></rect></g><rect id="Rectangle_73" data-name="Rectangle 73" width="261.341" height="45.292" rx="3.023" transform="translate(983.887 639.798)" fill="#2f353f"></rect><g id="Group_36" data-name="Group 36"><rect id="Rectangle_74" data-name="Rectangle 74" width="70.019" height="29.366" rx="2.732" transform="translate(1168.525 643.106)" fill="url(#linear-gradient)"></rect><g id="Group_35" data-name="Group 35"><rect id="Rectangle_75" data-name="Rectangle 75" width="7.91" height="5.203" transform="translate(1168.659 677.081)" fill="#fff"></rect><rect id="Rectangle_76" data-name="Rectangle 76" width="7.91" height="5.203" transform="translate(1209.886 677.081)" fill="#fff"></rect><rect id="Rectangle_77" data-name="Rectangle 77" width="7.91" height="5.203" transform="translate(1189.272 677.081)" fill="#fff"></rect><rect id="Rectangle_78" data-name="Rectangle 78" width="7.91" height="5.203" transform="translate(1230.499 677.081)" fill="#fff"></rect></g></g></g><g id="Group_41" data-name="Group 41"><rect id="Rectangle_79" data-name="Rectangle 79" width="346.979" height="65.059" rx="6.659" transform="translate(910.339 709.357)" fill="#39414e"></rect><g id="Group_38" data-name="Group 38"><rect id="Rectangle_80" data-name="Rectangle 80" width="330.107" height="9.393" transform="translate(918.776 774.438)" fill="#636b76"></rect><rect id="Rectangle_81" data-name="Rectangle 81" width="330.107" height="3.288" transform="translate(918.776 774.438)" fill="#2f353f"></rect></g><rect id="Rectangle_82" data-name="Rectangle 82" width="261.341" height="45.292" rx="3.023" transform="translate(983.887 714.504)" fill="#2f353f"></rect><g id="Group_40" data-name="Group 40"><rect id="Rectangle_83" data-name="Rectangle 83" width="70.019" height="29.366" rx="2.732" transform="translate(1168.525 717.811)" fill="url(#linear-gradient)"></rect><g id="Group_39" data-name="Group 39"><rect id="Rectangle_84" data-name="Rectangle 84" width="7.91" height="5.203" transform="translate(1168.659 751.787)" fill="#fff"></rect><rect id="Rectangle_85" data-name="Rectangle 85" width="7.91" height="5.203" transform="translate(1209.886 751.787)" fill="#fff"></rect><rect id="Rectangle_86" data-name="Rectangle 86" width="7.91" height="5.203" transform="translate(1189.272 751.787)" fill="#fff"></rect><rect id="Rectangle_87" data-name="Rectangle 87" width="7.91" height="5.203" transform="translate(1230.499 751.787)" fill="#fff"></rect></g></g></g><rect id="Rectangle_88" data-name="Rectangle 88" width="330.107" height="3.288" transform="translate(918.776 849.144)" fill="#2f353f"></rect><g id="Group_44" data-name="Group 44"><rect id="Rectangle_89" data-name="Rectangle 89" width="346.979" height="65.059" rx="6.659" transform="translate(910.339 784.063)" fill="#39414e"></rect><rect id="Rectangle_90" data-name="Rectangle 90" width="261.341" height="45.292" rx="3.023" transform="translate(983.887 789.209)" fill="#2f353f"></rect><g id="Group_43" data-name="Group 43"><rect id="Rectangle_91" data-name="Rectangle 91" width="70.019" height="29.366" rx="2.732" transform="translate(1168.525 792.516)" fill="url(#linear-gradient)"></rect><g id="Group_42" data-name="Group 42"><rect id="Rectangle_92" data-name="Rectangle 92" width="7.91" height="5.203" transform="translate(1168.659 826.492)" fill="#fff"></rect><rect id="Rectangle_93" data-name="Rectangle 93" width="7.91" height="5.203" transform="translate(1209.886 826.492)" fill="#fff"></rect><rect id="Rectangle_94" data-name="Rectangle 94" width="7.91" height="5.203" transform="translate(1189.272 826.492)" fill="#fff"></rect><rect id="Rectangle_95" data-name="Rectangle 95" width="7.91" height="5.203" transform="translate(1230.499 826.492)" fill="#fff"></rect></g></g></g><g id="Group_45" data-name="Group 45"><rect id="Rectangle_96" data-name="Rectangle 96" width="127.554" height="24.688" rx="6.002" transform="translate(1020.052 903.511)" fill="#f5f9ff"></rect><rect id="Rectangle_97" data-name="Rectangle 97" width="102.456" height="9.5" rx="2.034" transform="translate(1032.339 910.703)" fill="#2f353f"></rect></g><g id="Group_46" data-name="Group 46"><rect id="Rectangle_98" data-name="Rectangle 98" width="127.554" height="24.688" rx="6.002" transform="translate(1020.052 950.826)" fill="#f5f9ff"></rect><rect id="Rectangle_99" data-name="Rectangle 99" width="102.456" height="9.5" rx="2.034" transform="translate(1032.339 958.018)" fill="#2f353f"></rect></g></g></g><g id="Group_50" data-name="Group 50"><g id="Group_49" data-name="Group 49"><path id="Path_79" data-name="Path 79" d="M1712.83,787.541a13.994,13.994,0,0,0-13.994-13.994H1259.144a14,14,0,0,0-13.995,13.994v253.8H1712.83Z" fill="#2f353f"></path><path id="Path_80" data-name="Path 80" d="M1264.725,790.194v251.6h381.153l-193.109-251.6Z" fill="#f5f9ff"></path><path id="Path_81" data-name="Path 81" d="M1693.255,790.194H1452.769l193.109,251.6h47.377Z" fill="#f5f9ff"></path></g><path id="Path_82" data-name="Path 82" d="M1259.144,1090.706h439.692a13.994,13.994,0,0,0,13.994-13.995v-35.369H1245.149v35.369A14,14,0,0,0,1259.144,1090.706Z" fill="#2f353f"></path><path id="Path_83" data-name="Path 83" d="M1768.771,1111.462a18.617,18.617,0,0,0-3.984-3.423l-51.977-33.321H1245.17l-51.978,33.321a18.611,18.611,0,0,0-3.983,3.423c-9.391,10.729-2.231,29.1,13.717,29.1h552.128C1771,1140.562,1778.161,1122.19,1768.771,1111.462Z" fill="#2f353f"></path><path id="Path_84" data-name="Path 84" d="M1202.926,1117.726h552.128a17.444,17.444,0,0,0,13.717-6.264,18.617,18.617,0,0,0-3.984-3.423l-51.977-33.321H1245.17l-51.978,33.321a18.611,18.611,0,0,0-3.983,3.423A17.441,17.441,0,0,0,1202.926,1117.726Z" fill="#39414e"></path></g><path id="Path_85" data-name="Path 85" d="M882.17,621.251a1.776,1.776,0,0,0-1.566-1.932l-12.428-1.371a35.238,35.238,0,0,0-3.09-7.461q3.909-4.879,7.817-9.758a1.774,1.774,0,0,0-.258-2.473,74.751,74.751,0,0,1-9.138-9.137,1.775,1.775,0,0,0-2.473-.259q-4.878,3.909-9.757,7.817a35.31,35.31,0,0,0-7.461-3.089q-.687-6.215-1.374-12.428a1.774,1.774,0,0,0-1.93-1.566,74.765,74.765,0,0,1-12.923,0,1.774,1.774,0,0,0-1.931,1.566q-.686,6.215-1.372,12.428a35.289,35.289,0,0,0-7.461,3.089l-9.757-7.817a1.776,1.776,0,0,0-2.473.259,74.837,74.837,0,0,1-9.138,9.138,1.774,1.774,0,0,0-.258,2.472q3.908,4.879,7.817,9.758a35.238,35.238,0,0,0-3.089,7.461L787.5,619.319a1.776,1.776,0,0,0-1.566,1.932,74.765,74.765,0,0,1,0,12.923A1.774,1.774,0,0,0,787.5,636.1l12.429,1.373a35.232,35.232,0,0,0,3.089,7.461L795.2,654.7a1.776,1.776,0,0,0,.259,2.474,74.674,74.674,0,0,1,9.137,9.137,1.774,1.774,0,0,0,2.473.258l9.758-7.817a35.235,35.235,0,0,0,7.461,3.089q.685,6.215,1.372,12.429a1.774,1.774,0,0,0,1.931,1.566,74.765,74.765,0,0,1,12.923,0,1.774,1.774,0,0,0,1.93-1.566q.688-6.215,1.374-12.429a35.256,35.256,0,0,0,7.461-3.089l9.758,7.817a1.774,1.774,0,0,0,2.473-.258,74.69,74.69,0,0,1,9.138-9.138,1.775,1.775,0,0,0,.258-2.473l-7.818-9.757a35.283,35.283,0,0,0,3.09-7.461L880.6,636.1a1.774,1.774,0,0,0,1.566-1.931A74.765,74.765,0,0,1,882.17,621.251Zm-48.119,26.926a20.464,20.464,0,1,1,20.464-20.464A20.464,20.464,0,0,1,834.051,648.177Z" fill="#f5f9ff"></path><g id="Group_53" data-name="Group 53"><path id="Path_86" data-name="Path 86" d="M1298.32,885.072v-27.36a6.065,6.065,0,0,1,6.065-6.064h34.221a6.062,6.062,0,0,1,5.453,3.412l3.421,7.03a6.064,6.064,0,0,0,5.453,3.412h84.155a6.065,6.065,0,0,1,6.065,6.064v13.506Z" fill="#002450"></path><g id="Group_52" data-name="Group 52"><rect id="Rectangle_100" data-name="Rectangle 100" width="128.292" height="170.912" transform="translate(1360.162 829.27)" fill="#fff"></rect><g id="Group_51" data-name="Group 51"><rect id="Rectangle_101" data-name="Rectangle 101" width="111.492" height="5.543" transform="translate(1368.562 860.68)" fill="#002450"></rect><rect id="Rectangle_102" data-name="Rectangle 102" width="111.492" height="5.543" transform="translate(1368.562 879.158)" fill="#002450"></rect><rect id="Rectangle_103" data-name="Rectangle 103" width="111.492" height="5.543" transform="translate(1368.562 897.635)" fill="#2e3192"></rect><rect id="Rectangle_104" data-name="Rectangle 104" width="111.492" height="5.543" transform="translate(1368.562 916.111)" fill="#2e3192"></rect><rect id="Rectangle_105" data-name="Rectangle 105" width="111.492" height="5.543" transform="translate(1368.562 934.588)" fill="#2e3192"></rect><rect id="Rectangle_106" data-name="Rectangle 106" width="111.492" height="5.543" transform="translate(1368.562 953.065)" fill="#2e3192"></rect><rect id="Rectangle_107" data-name="Rectangle 107" width="111.492" height="5.543" transform="translate(1368.562 842.203)" fill="#002450"></rect><rect id="Rectangle_108" data-name="Rectangle 108" width="111.492" height="5.543" transform="translate(1368.562 971.542)" fill="#2e3192"></rect></g></g><path id="Path_87" data-name="Path 87" d="M1481.766,895.822H1307.43a13.236,13.236,0,0,0-13.236,13.237v116.386a13.235,13.235,0,0,0,.091,1.5h200.626a13.236,13.236,0,0,0,.091-1.5V909.059A13.236,13.236,0,0,0,1481.766,895.822Z" fill="url(#linear-gradient)"></path></g><g id="Group_55" data-name="Group 55"><path id="Path_88" data-name="Path 88" d="M1870.05,1005.274l-71.705,124.2a7.394,7.394,0,0,0,6.4,11.091h143.409a7.4,7.4,0,0,0,6.4-11.092l-71.7-124.2A7.394,7.394,0,0,0,1870.05,1005.274Z" fill="#f5f9ff"></path><g id="Group_54" data-name="Group 54"><path id="Path_89" data-name="Path 89" d="M1876.305,1132.177c-5.328,0-9.031-3.851-9.031-9.476,0-5.33,3.7-9.475,9.031-9.475a9.231,9.231,0,0,1,9.328,9.475A9.06,9.06,0,0,1,1876.305,1132.177Zm-.147-100.383c4,0,8.44.888,8.587,5.033a46.292,46.292,0,0,1-.444,5.775c-1.036,11.4-4,38.049-5.181,55.668h-5.775c-1.332-17.619-4-43.527-5.183-55.521-.147-1.924-.444-4.589-.444-6.069C1867.718,1032.829,1872.013,1031.794,1876.158,1031.794Z" fill="#0072ff"></path></g></g><g id="Group_56" data-name="Group 56"><path id="Path_90" data-name="Path 90" d="M1107.208,381.236h21.2a57.176,57.176,0,0,1,4.828,20.946h-24.331A147.577,147.577,0,0,0,1107.208,381.236Zm-9.271-29.621a56.054,56.054,0,0,1,28.417,25.429h-19.831C1104.266,365.326,1100.851,357,1097.937,351.615Zm-17.76,25.429V347.831a55.818,55.818,0,0,1,12.673,2.051c3.086,5.284,7.058,14.091,9.572,27.162ZM1053.2,427.3a147.037,147.037,0,0,1-1.728-20.945h24.6V427.3Zm-.042-46.069h22.917v20.946h-24.618A147.383,147.383,0,0,1,1053.16,381.236Zm10.286-31.441a54.013,54.013,0,0,1,12.631-1.95v29.2h-22.232C1056.36,363.9,1060.361,355.065,1063.446,349.8ZM1029.3,377.044a56.1,56.1,0,0,1,29.1-25.6c-2.928,5.386-6.386,13.784-8.672,25.6Zm18.044,25.138H1022.5a57.132,57.132,0,0,1,4.743-20.946h21.8A147.847,147.847,0,0,0,1047.344,402.182ZM1049.1,427.3h-21.7a56.792,56.792,0,0,1-4.929-20.945h24.888A145.045,145.045,0,0,0,1049.1,427.3Zm.657,4.178c2.3,11.965,5.815,20.335,8.759,25.662a55.833,55.833,0,0,1-29.147-25.662Zm26.318,0V460.7a53.517,53.517,0,0,1-12.488-1.907c-3.1-5.167-7.129-14.046-9.658-27.307Zm26.26,0c-2.529,13.173-6.53,22.023-9.6,27.206a55.073,55.073,0,0,1-12.559,1.935V431.483Zm-22.16-25.123h24.6a147.217,147.217,0,0,1-1.729,20.945h-22.874Zm24.617-4.178h-24.617V381.236h22.917A147.538,147.538,0,0,1,1104.794,402.182Zm4.1,4.178h24.3a57.171,57.171,0,0,1-4.915,20.945h-21.117A147.379,147.379,0,0,0,1108.9,406.36Zm17.416,25.123a55.606,55.606,0,0,1-28.489,25.488c2.943-5.328,6.4-13.639,8.673-25.488Z" fill="#f5f9ff" fill-rule="evenodd"></path></g><g id="Group_65" data-name="Group 65"><g id="Group_58" data-name="Group 58"><g id="Group_57" data-name="Group 57"><path id="Path_91" data-name="Path 91" d="M2033.905,594.629V579.612a2.369,2.369,0,0,0,.037-.411v-.069a2.369,2.369,0,0,0-.037-.411V563.7a2.368,2.368,0,0,0,.037-.411c0-4.1-10.637-7.419-23.758-7.419s-23.759,3.322-23.759,7.419a2.356,2.356,0,0,0,.037.411v15.017a2.357,2.357,0,0,0-.037.411l0,.035,0,.034a2.357,2.357,0,0,0,.037.411v15.017a2.356,2.356,0,0,0-.037.411c0,.062,0,.125.008.187s-.008.124-.008.187a2.345,2.345,0,0,0,.037.41v15.017a2.357,2.357,0,0,0-.037.411c0,4.1,10.637,7.419,23.759,7.419s23.758-3.321,23.758-7.419a2.369,2.369,0,0,0-.037-.411V595.824a2.357,2.357,0,0,0,.037-.41c0-.063,0-.125-.008-.187s.008-.125.008-.187A2.368,2.368,0,0,0,2033.905,594.629Z" fill="#002450"></path><path id="Path_92" data-name="Path 92" d="M2034.931,578.64V563.764a3.434,3.434,0,0,0,.036-.471c0-5.485-12.769-8.444-24.783-8.444s-24.784,2.959-24.784,8.444a3.271,3.271,0,0,0,.037.471V578.64a3.306,3.306,0,0,0-.037.492v.069a3.272,3.272,0,0,0,.037.471v14.876a3.306,3.306,0,0,0-.037.492c0,.062,0,.125.008.187s-.008.124-.008.187a3.3,3.3,0,0,0,.037.471V610.76a3.306,3.306,0,0,0-.037.492c0,5.485,12.769,8.445,24.784,8.445s24.783-2.96,24.783-8.445a3.457,3.457,0,0,0-.036-.492V595.885a3.459,3.459,0,0,0,.036-.471c0-.063,0-.125-.007-.187s.007-.125.007-.187a3.457,3.457,0,0,0-.036-.492V579.672a3.435,3.435,0,0,0,.036-.471v-.069A3.457,3.457,0,0,0,2034.931,578.64Zm-47.191-11.6.085.062c.1.071.2.142.307.211l.016.01c.1.065.2.129.3.192l.1.061c.076.046.152.091.229.135l.119.068c.075.042.151.084.228.125l.117.063c.087.046.175.091.264.136l.085.043c.117.059.236.116.355.172l.075.035.287.131.124.054.246.106.133.055.249.1.122.049.308.118.063.024c.124.047.247.092.371.137l.1.036.268.094.133.045.242.08.134.044.25.079.116.037.358.108a67.63,67.63,0,0,0,33.3,0l.359-.108.115-.037.251-.079.133-.044.244-.081.131-.044.27-.094.1-.036c.124-.045.248-.09.372-.137l.061-.023.309-.12c.041-.015.081-.032.122-.048l.251-.1.131-.055.248-.107.121-.053c.1-.044.2-.088.293-.134l.069-.031c.12-.057.239-.114.358-.173l.079-.041c.091-.045.181-.091.269-.138l.114-.061.232-.128.116-.066c.079-.045.156-.091.233-.137l.1-.06c.1-.064.209-.13.311-.2l.008-.005c.1-.069.208-.14.309-.212l.08-.059c.072-.052.144-.105.214-.159l.042-.032v11.866a1.056,1.056,0,0,0,.015.177,1.337,1.337,0,0,1,.022.221l0,.033h0c0,.021,0,.042-.006.063h-.029v.223l-.006.025-.008.028-.011.039-.01.031-.015.042-.013.034-.018.045-.016.038-.023.048-.02.042-.027.052-.023.043-.035.059-.025.042q-.031.051-.069.105l-.028.04c-.017.023-.033.047-.052.071l-.039.05-.052.066-.048.056c-.018.021-.036.043-.056.065l-.054.059-.062.066-.061.062-.069.068-.069.064-.076.069c-.024.022-.05.044-.076.066s-.055.047-.084.071-.055.046-.084.068l-.091.073-.093.07-.1.073-.1.072-.109.075-.11.072-.119.077-.117.073-.13.078-.126.074-.141.079-.136.075-.151.081-.146.075-.163.081c-.051.026-.1.051-.155.076l-.177.083-.164.075-.19.084-.174.075-.206.086c-.06.024-.119.049-.181.073l-.225.088-.187.072-.246.09-.191.07-.274.094-.19.066-.322.1-.167.054c-.168.053-.341.106-.518.159a65.64,65.64,0,0,1-32.136,0c-.178-.053-.35-.106-.518-.159l-.167-.054-.323-.1-.19-.066-.274-.094-.19-.07-.247-.09-.187-.072-.225-.088-.18-.073-.207-.086-.173-.075c-.064-.028-.129-.056-.19-.084s-.111-.05-.165-.076l-.176-.082c-.053-.025-.1-.05-.155-.076l-.164-.081-.145-.075-.152-.081-.136-.075-.14-.079-.126-.074-.13-.078-.118-.073-.119-.077-.109-.072-.109-.075-.1-.072-.1-.073-.092-.07-.092-.073c-.028-.022-.057-.045-.084-.068l-.084-.071-.076-.066-.076-.069-.068-.064-.069-.068c-.021-.021-.042-.041-.061-.062s-.042-.044-.062-.066-.038-.04-.055-.059-.038-.044-.056-.065-.033-.038-.047-.056-.035-.044-.053-.066l-.039-.05c-.018-.024-.033-.046-.049-.069l-.031-.043c-.025-.035-.047-.07-.069-.1l-.024-.042c-.012-.02-.025-.04-.035-.059l-.023-.043-.028-.052-.02-.042-.022-.048-.016-.038-.019-.045-.012-.034-.015-.042-.01-.031-.012-.039-.007-.028-.006-.025v-.223h-.03c0-.021-.006-.042-.006-.063h0v-.037a1.385,1.385,0,0,1,.021-.217,1.058,1.058,0,0,0,.016-.177V566.855l.043.033C1987.6,566.94,1987.669,566.992,1987.74,567.044Zm39.454,18.412.115-.037.251-.079.133-.044.244-.081.131-.044.27-.094.1-.036c.124-.045.248-.09.372-.137l.061-.023.309-.119.122-.049.251-.1.131-.055.247-.107.122-.053c.1-.044.2-.088.293-.134l.069-.031c.12-.057.239-.114.357-.173l.082-.042c.09-.045.179-.091.267-.137l.115-.062.231-.127.116-.066c.078-.045.155-.091.232-.137l.1-.06c.1-.064.206-.128.306-.194l.012-.008c.1-.069.207-.14.308-.211l.083-.061c.071-.052.142-.1.211-.158l.043-.032v11.866a1.057,1.057,0,0,0,.015.177,1.289,1.289,0,0,1,.022.234c0,.035,0,.071-.005.106h0a1.119,1.119,0,0,1-.017.128h0c-.094.543-.854,2.445-6.643,4.163a65.64,65.64,0,0,1-32.136,0c-5.788-1.717-6.549-3.619-6.644-4.162-.007-.043-.013-.086-.017-.129s0-.071,0-.106a1.379,1.379,0,0,1,.021-.234,1.059,1.059,0,0,0,.016-.177V582.764l.047.035c.064.049.129.1.194.145l.1.073c.1.069.2.138.3.2l.053.034q.13.086.264.168l.119.072.211.124.133.075c.069.039.14.078.211.116l.132.071c.079.042.159.083.239.124l.108.055q.172.086.348.168l.1.046c.086.04.173.08.26.118l.139.061c.076.034.153.066.229.1l.146.061.235.095.134.054c.1.038.192.075.289.111l.08.031c.123.046.245.091.368.135l.111.039.26.091.138.047.237.079.137.044.249.079.116.037.358.108a67.63,67.63,0,0,0,33.3,0Zm-33.5-26.43a65.015,65.015,0,0,1,32.988,0c3.848,1.2,6.239,2.837,6.239,4.267v.014h-.037v.293l-.006.025-.008.028-.011.037-.01.033-.015.04-.013.036-.018.045-.016.038c-.007.016-.016.032-.023.049l-.02.04c-.008.017-.018.035-.028.053l-.022.042c-.011.02-.024.041-.037.062l-.023.039q-.031.051-.069.1l-.027.039c-.017.024-.034.048-.053.072s-.026.035-.04.052-.033.043-.051.064-.032.038-.048.057-.036.043-.056.065l-.054.059-.062.066-.062.062c-.022.022-.044.045-.068.067s-.046.043-.069.065l-.076.069c-.024.022-.05.044-.076.066l-.084.071-.084.068c-.03.024-.06.048-.092.072l-.091.07-.1.074-.1.071-.11.075-.108.072c-.039.026-.079.052-.12.077s-.077.049-.117.073l-.13.078-.126.075-.141.079c-.044.025-.089.05-.135.074l-.153.081-.144.075-.165.082-.154.075c-.057.028-.117.055-.177.083l-.164.075-.19.084-.173.075c-.067.029-.137.057-.206.085l-.182.075-.223.087-.189.072-.245.091-.192.069c-.088.032-.181.063-.272.094l-.192.066c-.1.035-.213.07-.321.1l-.168.055c-.168.053-.341.106-.518.158a65.64,65.64,0,0,1-32.136,0c-.178-.052-.35-.1-.518-.158l-.167-.054-.323-.105-.191-.066c-.092-.031-.184-.062-.272-.094l-.193-.07-.245-.09-.188-.072-.223-.087-.182-.074c-.069-.029-.139-.057-.206-.086l-.173-.075c-.064-.028-.129-.056-.19-.084l-.165-.075c-.06-.028-.119-.055-.176-.083l-.155-.075-.164-.082-.145-.075-.152-.081c-.046-.024-.091-.049-.135-.074l-.141-.079-.126-.074-.131-.079-.117-.073-.119-.077-.109-.072-.109-.075-.1-.071-.1-.074-.092-.07c-.032-.024-.062-.048-.092-.072l-.084-.068-.083-.071-.077-.066-.076-.07-.068-.063c-.024-.024-.047-.046-.069-.069l-.061-.061-.063-.067-.054-.058-.056-.066c-.016-.018-.033-.037-.047-.055s-.036-.045-.053-.067-.027-.033-.039-.049l-.052-.072-.028-.04q-.038-.054-.069-.1l-.023-.039c-.012-.021-.025-.042-.036-.062l-.023-.043c-.01-.017-.019-.035-.028-.052l-.019-.041-.023-.048-.016-.038-.019-.045-.013-.035-.014-.041-.01-.032-.012-.038-.007-.028-.006-.025v-.293h-.037v-.014C1987.451,561.863,1989.841,560.228,1993.69,559.026Zm32.988,56.494a65.046,65.046,0,0,1-32.988,0c-3.849-1.2-6.239-2.837-6.239-4.268a1.388,1.388,0,0,1,.021-.234,1.037,1.037,0,0,0,.016-.176V598.976l.043.032c.068.053.138.1.209.156.029.021.056.042.085.062.1.072.2.142.307.211l.016.011c.1.065.2.128.3.191l.1.062.229.135.119.067c.075.043.151.084.228.126l.117.063q.131.069.264.135l.085.044c.117.058.236.116.355.172l.075.034.287.131.124.054.246.106.133.056.249.1.122.049.308.119.063.024c.124.046.247.092.371.136l.1.037.268.093.133.045.242.081.134.043.25.08.116.036.358.109a67.661,67.661,0,0,0,33.3,0c.119-.035.238-.072.359-.109l.115-.036.251-.08.133-.043.244-.081.131-.045c.09-.03.18-.062.27-.094l.1-.036c.124-.044.248-.09.372-.136l.061-.024.309-.119.122-.049c.084-.033.167-.067.251-.1l.131-.055.248-.106.121-.054c.1-.043.2-.088.293-.133l.069-.032c.12-.056.239-.114.358-.173l.079-.04c.091-.046.181-.092.269-.139l.114-.061.232-.128.116-.065.233-.138.1-.059c.1-.065.209-.13.311-.2l.008-.005q.157-.105.309-.213l.08-.058c.072-.053.144-.106.214-.16l.042-.031v11.866a1.036,1.036,0,0,0,.015.176,1.3,1.3,0,0,1,.022.234C2032.917,612.683,2030.526,614.318,2026.678,615.52Z" fill="#00c6ff"></path></g><circle id="Ellipse_2" data-name="Ellipse 2" cx="1.982" cy="1.982" r="1.982" transform="translate(1989.671 573.735)" fill="url(#linear-gradient-7)"></circle></g><g id="Group_64" data-name="Group 64"><g id="Group_60" data-name="Group 60"><g id="Group_59" data-name="Group 59"><path id="Path_93" data-name="Path 93" d="M1767.249,729.117a22.893,22.893,0,1,1,45.787,0v27.046h-45.787Zm37.946,0a15.052,15.052,0,1,0-30.1,0v19.205h30.1Z" fill="#0072ff"></path></g><rect id="Rectangle_109" data-name="Rectangle 109" width="63.929" height="56.947" rx="4.684" transform="translate(1822.107 794.275) rotate(180)" fill="url(#linear-gradient)"></rect><path id="Path_94" data-name="Path 94" d="M1796.243,750.541a5.847,5.847,0,1,0-7.3,5.656v8.553h-1.292v2.579h1.292V777.3h-2.9v2.579h2.9v0h3.493V756.017A5.845,5.845,0,0,0,1796.243,750.541Z" fill="#fff"></path></g><g id="Group_61" data-name="Group 61"><ellipse id="Ellipse_3" data-name="Ellipse 3" cx="12.256" cy="12.486" rx="12.256" ry="12.486" transform="translate(1590.352 909.626)" fill="#002450"></ellipse><path id="Path_95" data-name="Path 95" d="M1582.4,903.793a3.012,3.012,0,0,0,0,4.2,2.879,2.879,0,0,0,4.126,0,22.071,22.071,0,0,1,31.585,0,2.879,2.879,0,0,0,4.126,0,3.011,3.011,0,0,0,0-4.2A27.833,27.833,0,0,0,1582.4,903.793Z" fill="#002450"></path><path id="Path_96" data-name="Path 96" d="M1602.316,880.474a39.122,39.122,0,0,0-28.1,11.86,3.011,3.011,0,0,0,0,4.2,2.879,2.879,0,0,0,4.127,0,33.472,33.472,0,0,1,47.957,0,2.88,2.88,0,0,0,4.127,0,3.013,3.013,0,0,0,0-4.2A39.123,39.123,0,0,0,1602.316,880.474Z" fill="#002450"></path><path id="Path_97" data-name="Path 97" d="M1636.875,880.875a48.235,48.235,0,0,0-69.117,0,3.011,3.011,0,0,0,0,4.2,2.879,2.879,0,0,0,4.126,0,42.477,42.477,0,0,1,60.864,0,2.88,2.88,0,0,0,4.127,0A3.011,3.011,0,0,0,1636.875,880.875Z" fill="#002450"></path></g><g id="Group_62" data-name="Group 62"><path id="Path_98" data-name="Path 98" d="M1950.792,868.951h12.5a33.7,33.7,0,0,1,2.848,12.352H1951.8A87.01,87.01,0,0,0,1950.792,868.951Zm-5.467-17.468a33.053,33.053,0,0,1,16.758,15h-11.7A52.4,52.4,0,0,0,1945.325,851.483Zm-10.473,15V849.251a32.948,32.948,0,0,1,7.473,1.21,50.694,50.694,0,0,1,5.645,16.018Zm-15.908,29.64a86.772,86.772,0,0,1-1.019-12.352h14.508v12.352Zm-.025-27.168h13.514V881.3h-14.517A86.911,86.911,0,0,1,1918.919,868.951Zm6.066-18.541a31.851,31.851,0,0,1,7.448-1.151v17.22h-13.11A50.529,50.529,0,0,1,1924.985,850.41Zm-20.137,16.069a33.086,33.086,0,0,1,17.163-15.1,52.617,52.617,0,0,0-5.114,15.1ZM1915.49,881.3h-14.652a33.679,33.679,0,0,1,2.8-12.352h12.858A86.992,86.992,0,0,0,1915.49,881.3Zm1.036,14.816h-12.8a33.5,33.5,0,0,1-2.907-12.352H1915.5A85.489,85.489,0,0,0,1916.526,896.119Zm.387,2.464a51.342,51.342,0,0,0,5.166,15.133,32.927,32.927,0,0,1-17.189-15.133Zm15.52,0v17.228a31.6,31.6,0,0,1-7.364-1.125,49.431,49.431,0,0,1-5.695-16.1Zm15.487,0a50.113,50.113,0,0,1-5.662,16.043,32.479,32.479,0,0,1-7.406,1.142V898.583Zm-13.068-14.816h14.508a86.868,86.868,0,0,1-1.019,12.352h-13.489Zm14.517-2.464h-14.517V868.951h13.514A86.892,86.892,0,0,1,1949.369,881.3Zm2.418,2.464h14.332a33.7,33.7,0,0,1-2.9,12.352h-12.452A86.868,86.868,0,0,0,1951.787,883.767Zm10.271,14.816a32.8,32.8,0,0,1-16.8,15.03,50.951,50.951,0,0,0,5.115-15.03Z" fill="#002450" fill-rule="evenodd"></path></g><path id="Path_99" data-name="Path 99" d="M2008.418,540.13a49.623,49.623,0,0,0-36.4,83.376l-123.275,98.62a69.5,69.5,0,0,0-102.527-19.8l-117.16-84.816a70.029,70.029,0,1,0-3.572,6.186l115.2,83.395a69.454,69.454,0,0,0-7.98,91.429l-86.368,71.5a57.764,57.764,0,1,0,4.181,5.763l86.682-71.762a69.482,69.482,0,0,0,103.129-.008l59.067,51.766a43.029,43.029,0,1,0,4.9-5.152l-59.471-52.121a69.469,69.469,0,0,0,7.268-69.966l125.172-100.137a49.64,49.64,0,1,0,31.155-88.278ZM1566.856,648.559a62.688,62.688,0,1,1,62.688-62.688A62.759,62.759,0,0,1,1566.856,648.559Zm85.559,258.2a50.767,50.767,0,1,1-50.766-50.767A50.824,50.824,0,0,1,1652.415,906.761Zm280.428-59.918a35.855,35.855,0,1,1-35.855,35.855A35.9,35.9,0,0,1,1932.843,846.843Zm-144.086-26a63.492,63.492,0,1,1,63.492-63.492A63.564,63.564,0,0,1,1788.757,820.843Zm219.661-188.518a42.544,42.544,0,1,1,42.545-42.544A42.593,42.593,0,0,1,2008.418,632.325Z" fill="#002450"></path><g id="Group_63" data-name="Group 63"><path id="Path_100" data-name="Path 100" d="M1567.845,572.644a9.335,9.335,0,1,0,9.335,9.335A9.335,9.335,0,0,0,1567.845,572.644Z" fill="#002450"></path><path id="Path_101" data-name="Path 101" d="M1616.366,574.167a22.5,22.5,0,0,0-9.7-7.271l-.005-.006a17.869,17.869,0,0,0-24.835-12.354l-.011,0a26.032,26.032,0,0,0-45.953,10.938.008.008,0,0,1-.008.007,22.291,22.291,0,0,0,2.046,44.507h60.525a22.439,22.439,0,0,0,22.522-22.164A22.08,22.08,0,0,0,1616.366,574.167Zm-26.57,10.759a.81.81,0,0,1-.714.881l-5.67.626a16.122,16.122,0,0,1-1.409,3.4l3.566,4.451a.81.81,0,0,1-.118,1.128,33.973,33.973,0,0,0-4.168,4.168.809.809,0,0,1-1.128.118l-4.452-3.566a16.057,16.057,0,0,1-3.4,1.409l-.627,5.67a.808.808,0,0,1-.88.714,34.125,34.125,0,0,0-5.9,0,.809.809,0,0,1-.881-.714l-.626-5.67a16.082,16.082,0,0,1-3.4-1.409l-4.452,3.566a.809.809,0,0,1-1.128-.118,34.049,34.049,0,0,0-4.168-4.168.809.809,0,0,1-.118-1.128q1.782-2.226,3.566-4.451a16.109,16.109,0,0,1-1.409-3.4l-5.67-.626a.81.81,0,0,1-.714-.881,34.149,34.149,0,0,0,0-5.9.811.811,0,0,1,.714-.881l5.67-.626a16.083,16.083,0,0,1,1.409-3.4l-3.566-4.451a.811.811,0,0,1,.118-1.128,34.053,34.053,0,0,0,4.168-4.169.812.812,0,0,1,1.129-.118l4.451,3.566a16.088,16.088,0,0,1,3.4-1.409q.312-2.835.626-5.669a.809.809,0,0,1,.881-.715,33.943,33.943,0,0,0,5.9,0,.809.809,0,0,1,.88.715l.627,5.669a16.144,16.144,0,0,1,3.4,1.409l4.45-3.566a.81.81,0,0,1,1.128.118,34.122,34.122,0,0,0,4.169,4.169.809.809,0,0,1,.118,1.127L1582,574.121a16.1,16.1,0,0,1,1.409,3.4l5.67.626a.811.811,0,0,1,.714.881A34.125,34.125,0,0,0,1589.8,584.926Z" fill="#002450"></path></g></g></g><g id="Group_68" data-name="Group 68"><g id="Group_67" data-name="Group 67"><g id="Group_66" data-name="Group 66"><path id="Path_102" data-name="Path 102" d="M1095.978,776.295l-.009-.009a24.418,24.418,0,0,0-17.215-7.963c-94.721-3.049-147.036-38.61-152.848-42.776a23.891,23.891,0,0,0-16.683-6.529V733.93a9.2,9.2,0,0,1,6.927,2.982c2.363,1.849,58.126,42.995,162.121,46.341a9.355,9.355,0,0,1,9.033,9.965c-4.943,74.907-18.235,136.268-40.635,187.592-29.151,66.795-74,115.2-133.317,143.879a9.338,9.338,0,0,1-4.071.933c-.019,0-.038-.007-.058-.007v14.943c.02,0,.04,0,.06,0a24.473,24.473,0,0,0,10.574-2.422c62.615-30.276,109.888-81.2,140.505-151.354,23.1-52.928,36.789-115.922,41.849-192.57A24.425,24.425,0,0,0,1095.978,776.295Z" fill="#002450"></path><path id="Path_103" data-name="Path 103" d="M905,1124.586c-59.209-28.689-103.992-77.061-133.11-143.778-22.4-51.323-35.691-112.685-40.634-187.591a9.353,9.353,0,0,1,9.033-9.965c104.147-3.352,159.925-44.615,162.133-46.35a9.329,9.329,0,0,1,6.8-2.972V719.018a24.181,24.181,0,0,0-16.552,6.517c-5.991,4.286-58.338,39.745-152.863,42.785a24.3,24.3,0,0,0-23.46,25.879c5.063,76.659,18.751,139.653,41.849,192.584,30.565,70.026,77.721,120.894,140.164,151.188a24.406,24.406,0,0,0,10.862,2.587v-14.943A9.343,9.343,0,0,1,905,1124.586Z" fill="#002450"></path><path id="Path_104" data-name="Path 104" d="M909.281,752.383v0c3.025,3.715,60.8,43.718,160.439,46.924-7.63,115.626-40.019,249.613-160.44,307.835v0l-.057-.029v18.5c.02,0,.039.007.058.007a9.338,9.338,0,0,0,4.071-.933c59.312-28.676,104.166-77.084,133.317-143.879,22.4-51.324,35.692-112.685,40.635-187.592a9.355,9.355,0,0,0-9.033-9.965c-103.995-3.346-159.758-44.492-162.121-46.341a9.2,9.2,0,0,0-6.927-2.982v18.512C909.237,752.426,909.269,752.4,909.281,752.383Z" fill="#0072ff"></path><path id="Path_105" data-name="Path 105" d="M740.29,783.252a9.353,9.353,0,0,0-9.033,9.965c4.943,74.906,18.235,136.268,40.634,187.591,29.118,66.717,73.9,115.089,133.11,143.778a9.343,9.343,0,0,0,4.222,1.029v-18.5c-120.373-58.237-152.753-192.2-160.382-307.8,99.249-3.193,156.938-42.881,160.382-46.867V733.93a9.329,9.329,0,0,0-6.8,2.972C900.215,738.637,844.437,779.9,740.29,783.252Z" fill="#0072ff"></path><path id="Path_106" data-name="Path 106" d="M909.281,752.387v0c-.012.015-.044.043-.058.059-3.444,3.986-61.133,43.674-160.382,46.867,7.629,115.607,40.009,249.568,160.382,307.8l.057.029v0c120.421-58.222,152.81-192.209,160.44-307.835C970.078,796.1,912.306,756.1,909.281,752.387Z" fill="url(#linear-gradient-9)"></path></g></g><path id="Path_107" data-name="Path 107" d="M835.514,891.126l41.616,80.126a2.131,2.131,0,0,0,3.261.65L1009.3,863.767a2.131,2.131,0,0,0-2.444-3.473L889.6,928.74a2.131,2.131,0,0,1-2.433-.2L838.764,888.5A2.132,2.132,0,0,0,835.514,891.126Z" fill="url(#linear-gradient-10)"></path></g></g></g></g></g></g></g></svg>