<svg xmlns="http://www.w3.org/2000/svg" xmlns:xlink="http://www.w3.org/1999/xlink" width="800" height="600" viewBox="0 0 800 600"><defs><clipPath id="clip-path"><rect id="Rectangle_100" data-name="Rectangle 100" width="800" height="600" transform="translate(0)" fill="none"></rect></clipPath><linearGradient id="linear-gradient" y1="0.5" x2="1" y2="0.5" gradientUnits="objectBoundingBox"><stop offset="0" stop-color="#00c6ff"></stop><stop offset="1" stop-color="#0072ff"></stop></linearGradient></defs><g id="Group_31" data-name="Group 31" transform="translate(0)" clip-path="url(#clip-path)"><g id="Group_36" data-name="Group 36"><g id="Group_35" data-name="Group 35" transform="translate(-88.434 -140.367)"><g id="Group_34" data-name="Group 34" transform="translate(188.434 186.463)"><g id="Group_33" data-name="Group 33"><g id="Group_30" data-name="Group 30"><g id="Group_7" data-name="Group 7" transform="translate(210.492 216.923)"><g id="Group_1" data-name="Group 1" transform="translate(125.502 109.18)"><path id="Path_1" data-name="Path 1" d="M351.829,287.764H300.551a3.524,3.524,0,0,0-2.6,1.165l-.055-.084-4.777,5.4,3.876,3.39V398.332a3.561,3.561,0,0,0,3.56,3.557l51.252.209a3.563,3.563,0,0,0,3.58-3.564V291.321A3.553,3.553,0,0,0,351.829,287.764Z" transform="translate(-292.125 -287.764)" fill="#3d51c6"></path><path id="Path_2" data-name="Path 2" d="M311.488,327.474l4.19-2.04-.629-2.569-2.515-.782-2.3.94Z" transform="translate(-254.137 -211.605)" fill="#3d51c6"></path><rect id="Rectangle_1" data-name="Rectangle 1" width="58.394" height="111.56" rx="1.105" transform="translate(0 5.406)" fill="#00c6ff"></rect></g><path id="Path_3" data-name="Path 3" d="M545.769,253.848H274.576a13.548,13.548,0,0,0-9.371,3.773L255,266.554l5.949,3.49V415.394a13.632,13.632,0,0,0,13.63,13.633h263.56l-.093.27,8.379,3.782,8.112-7.3-.013-.016a13.544,13.544,0,0,0,4.88-10.372V267.478A13.63,13.63,0,0,0,545.769,253.848Z" transform="translate(-251.212 -253.848)" fill="#002350"></path><rect id="Rectangle_2" data-name="Rectangle 2" width="298.456" height="175.179" rx="4.234" transform="translate(0 8.65)" fill="#00c6ff"></rect><rect id="Rectangle_3" data-name="Rectangle 3" width="279.697" height="157.882" rx="3.892" transform="translate(9.381 17.299)" fill="#dbe6fd"></rect><g id="Group_2" data-name="Group 2" transform="translate(86.48 221.091)"><rect id="Rectangle_4" data-name="Rectangle 4" width="144.902" height="14.059" rx="1.105" fill="#3d51c6"></rect></g><g id="Group_3" data-name="Group 3" transform="translate(80.199 221.091)"><rect id="Rectangle_5" data-name="Rectangle 5" width="144.902" height="14.059" rx="1.105" fill="url(#linear-gradient)"></rect></g><g id="Group_4" data-name="Group 4" transform="translate(23.109 35.9)"><rect id="Rectangle_6" data-name="Rectangle 6" width="102.393" height="22.245" fill="url(#linear-gradient)"></rect><rect id="Rectangle_7" data-name="Rectangle 7" width="48.011" height="22.245" transform="translate(112.296)" fill="#fff"></rect><rect id="Rectangle_8" data-name="Rectangle 8" width="76.121" height="22.245" transform="translate(171.3)" fill="#fff"></rect></g><g id="Group_5" data-name="Group 5" transform="translate(23.109 86.39)"><rect id="Rectangle_9" data-name="Rectangle 9" width="35.238" height="22.245" fill="#9fb8fc"></rect><rect id="Rectangle_10" data-name="Rectangle 10" width="109.111" height="22.245" transform="translate(51.195)" fill="url(#linear-gradient)"></rect><rect id="Rectangle_11" data-name="Rectangle 11" width="76.121" height="22.245" transform="translate(171.3)" fill="#fff"></rect></g><g id="Group_6" data-name="Group 6" transform="translate(23.109 133.291)"><rect id="Rectangle_12" data-name="Rectangle 12" width="112.296" height="22.245" fill="url(#linear-gradient)"></rect><rect id="Rectangle_13" data-name="Rectangle 13" width="64.98" height="22.245" transform="translate(126.118)" fill="#fff"></rect><rect id="Rectangle_14" data-name="Rectangle 14" width="38.061" height="22.245" transform="translate(209.36)" fill="#fff"></rect></g></g><g id="Group_26" data-name="Group 26" transform="translate(0 292.487)"><g id="Group_16" data-name="Group 16" transform="translate(12.675)"><rect id="Rectangle_15" data-name="Rectangle 15" width="195.823" height="64.537" transform="translate(27.768 45.939)" fill="#3349b2"></rect><g id="Group_11" data-name="Group 11"><rect id="Rectangle_16" data-name="Rectangle 16" width="26.068" height="52.138" transform="translate(26.068 63.169) rotate(180)" fill="#3d51c6"></rect><rect id="Rectangle_17" data-name="Rectangle 17" width="26.071" height="52.138" transform="translate(249.663 63.169) rotate(180)" fill="#002350"></rect><path id="Rectangle_18" data-name="Rectangle 18" d="M1.4,0H222.193a1.4,1.4,0,0,1,1.4,1.4V72.8a1.4,1.4,0,0,1-1.4,1.4H1.4A1.4,1.4,0,0,1,0,72.8V1.4A1.4,1.4,0,0,1,1.4,0Z" transform="translate(13.034)" fill="#00c6ff"></path><g id="Group_8" data-name="Group 8" transform="translate(33.465 18.648)"><rect id="Rectangle_19" data-name="Rectangle 19" width="6.602" height="6.602" fill="#3d51c6"></rect><rect id="Rectangle_20" data-name="Rectangle 20" width="6.602" height="6.602" transform="translate(18.846)" fill="#3d51c6"></rect><rect id="Rectangle_21" data-name="Rectangle 21" width="6.602" height="6.602" transform="translate(37.696)" fill="#3d51c6"></rect><rect id="Rectangle_22" data-name="Rectangle 22" width="6.601" height="6.602" transform="translate(56.543)" fill="#3d51c6"></rect><rect id="Rectangle_23" data-name="Rectangle 23" width="6.602" height="6.602" transform="translate(75.392)" fill="#3d51c6"></rect></g><g id="Group_9" data-name="Group 9" transform="translate(43.685 34.514)"><rect id="Rectangle_24" data-name="Rectangle 24" width="6.605" height="6.602" fill="#3d51c6"></rect><rect id="Rectangle_25" data-name="Rectangle 25" width="6.602" height="6.602" transform="translate(18.85)" fill="#3d51c6"></rect><rect id="Rectangle_26" data-name="Rectangle 26" width="6.602" height="6.602" transform="translate(37.696)" fill="#3d51c6"></rect><rect id="Rectangle_27" data-name="Rectangle 27" width="6.602" height="6.602" transform="translate(56.545)" fill="#3d51c6"></rect><rect id="Rectangle_28" data-name="Rectangle 28" width="6.602" height="6.602" transform="translate(75.395)" fill="#3d51c6"></rect></g><g id="Group_10" data-name="Group 10" transform="translate(33.465 50.381)"><rect id="Rectangle_29" data-name="Rectangle 29" width="6.602" height="6.601" fill="#3d51c6"></rect><rect id="Rectangle_30" data-name="Rectangle 30" width="6.602" height="6.601" transform="translate(18.846)" fill="#3d51c6"></rect><rect id="Rectangle_31" data-name="Rectangle 31" width="6.602" height="6.601" transform="translate(37.696)" fill="#3d51c6"></rect><rect id="Rectangle_32" data-name="Rectangle 32" width="6.601" height="6.601" transform="translate(56.543)" fill="#3d51c6"></rect><rect id="Rectangle_33" data-name="Rectangle 33" width="6.602" height="6.601" transform="translate(75.392)" fill="#3d51c6"></rect></g><rect id="Rectangle_34" data-name="Rectangle 34" width="45.546" height="22.056" transform="translate(140.447 26.787)" fill="#3d51c6"></rect><path id="Path_4" data-name="Path 4" d="M271.932,295.066a9.023,9.023,0,1,0-9.02,9.023A9.023,9.023,0,0,0,271.932,295.066Z" transform="translate(-55.861 -257.967)" fill="#3d51c6"></path></g><g id="Group_15" data-name="Group 15" transform="translate(0 85.228)"><rect id="Rectangle_35" data-name="Rectangle 35" width="26.068" height="52.138" transform="translate(26.068 63.166) rotate(180)" fill="#3d51c6"></rect><rect id="Rectangle_36" data-name="Rectangle 36" width="26.071" height="52.138" transform="translate(249.663 63.166) rotate(180)" fill="#002350"></rect><path id="Rectangle_37" data-name="Rectangle 37" d="M1.4,0H222.193a1.4,1.4,0,0,1,1.4,1.4V72.8a1.4,1.4,0,0,1-1.4,1.4H1.4A1.4,1.4,0,0,1,0,72.8V1.4A1.4,1.4,0,0,1,1.4,0Z" transform="translate(13.034)" fill="#00c6ff"></path><g id="Group_12" data-name="Group 12" transform="translate(33.465 18.645)"><rect id="Rectangle_38" data-name="Rectangle 38" width="6.602" height="6.602" fill="#3d51c6"></rect><rect id="Rectangle_39" data-name="Rectangle 39" width="6.602" height="6.602" transform="translate(18.846)" fill="#3d51c6"></rect><rect id="Rectangle_40" data-name="Rectangle 40" width="6.602" height="6.602" transform="translate(37.696)" fill="#3d51c6"></rect><rect id="Rectangle_41" data-name="Rectangle 41" width="6.601" height="6.602" transform="translate(56.543)" fill="#3d51c6"></rect><rect id="Rectangle_42" data-name="Rectangle 42" width="6.602" height="6.602" transform="translate(75.392)" fill="#3d51c6"></rect></g><g id="Group_13" data-name="Group 13" transform="translate(43.685 34.511)"><rect id="Rectangle_43" data-name="Rectangle 43" width="6.605" height="6.602" fill="#3d51c6"></rect><rect id="Rectangle_44" data-name="Rectangle 44" width="6.602" height="6.602" transform="translate(18.85)" fill="#3d51c6"></rect><rect id="Rectangle_45" data-name="Rectangle 45" width="6.602" height="6.602" transform="translate(37.696)" fill="#3d51c6"></rect><rect id="Rectangle_46" data-name="Rectangle 46" width="6.602" height="6.602" transform="translate(56.545)" fill="#3d51c6"></rect><rect id="Rectangle_47" data-name="Rectangle 47" width="6.602" height="6.602" transform="translate(75.395)" fill="#3d51c6"></rect></g><g id="Group_14" data-name="Group 14" transform="translate(33.465 50.378)"><rect id="Rectangle_48" data-name="Rectangle 48" width="6.602" height="6.605" fill="#3d51c6"></rect><rect id="Rectangle_49" data-name="Rectangle 49" width="6.602" height="6.605" transform="translate(18.846)" fill="#3d51c6"></rect><rect id="Rectangle_50" data-name="Rectangle 50" width="6.602" height="6.605" transform="translate(37.696)" fill="#3d51c6"></rect><rect id="Rectangle_51" data-name="Rectangle 51" width="6.601" height="6.605" transform="translate(56.543)" fill="#3d51c6"></rect><rect id="Rectangle_52" data-name="Rectangle 52" width="6.602" height="6.605" transform="translate(75.392)" fill="#3d51c6"></rect></g><rect id="Rectangle_53" data-name="Rectangle 53" width="45.546" height="22.056" transform="translate(140.447 26.785)" fill="#3d51c6"></rect><path id="Path_5" data-name="Path 5" d="M271.932,321.538a9.023,9.023,0,1,0-9.02,9.026A9.02,9.02,0,0,0,271.932,321.538Z" transform="translate(-55.861 -284.443)" fill="#3d51c6"></path></g></g><g id="Group_25" data-name="Group 25"><rect id="Rectangle_54" data-name="Rectangle 54" width="195.827" height="64.537" transform="translate(27.768 45.939)" fill="#002350"></rect><g id="Group_20" data-name="Group 20"><rect id="Rectangle_55" data-name="Rectangle 55" width="26.071" height="52.138" transform="translate(26.071 63.169) rotate(180)" fill="#002350"></rect><rect id="Rectangle_56" data-name="Rectangle 56" width="26.068" height="52.138" transform="translate(249.663 63.169) rotate(180)" fill="#002350"></rect><path id="Rectangle_57" data-name="Rectangle 57" d="M1.4,0H222.193a1.4,1.4,0,0,1,1.4,1.4V72.8a1.4,1.4,0,0,1-1.4,1.4H1.4A1.4,1.4,0,0,1,0,72.8V1.4A1.4,1.4,0,0,1,1.4,0Z" transform="translate(13.037)" fill="#00c6ff"></path><path id="Rectangle_58" data-name="Rectangle 58" d="M1.255,0H208.97a1.255,1.255,0,0,1,1.255,1.255V62.248A1.255,1.255,0,0,1,208.97,63.5H1.256A1.256,1.256,0,0,1,0,62.247V1.255A1.255,1.255,0,0,1,1.255,0Z" transform="translate(19.72 5.347)" fill="#d3e1fd"></path><g id="Group_17" data-name="Group 17" transform="translate(33.465 18.648)"><rect id="Rectangle_59" data-name="Rectangle 59" width="6.602" height="6.602" fill="#fff"></rect><rect id="Rectangle_60" data-name="Rectangle 60" width="6.602" height="6.602" transform="translate(18.85)" fill="#fff"></rect><rect id="Rectangle_61" data-name="Rectangle 61" width="6.602" height="6.602" transform="translate(37.696)" fill="#fff"></rect><rect id="Rectangle_62" data-name="Rectangle 62" width="6.605" height="6.602" transform="translate(56.543)" fill="#fff"></rect><rect id="Rectangle_63" data-name="Rectangle 63" width="6.602" height="6.602" transform="translate(75.392)" fill="#fff"></rect></g><g id="Group_18" data-name="Group 18" transform="translate(43.688 34.514)"><rect id="Rectangle_64" data-name="Rectangle 64" width="6.602" height="6.602" fill="#fff"></rect><rect id="Rectangle_65" data-name="Rectangle 65" width="6.602" height="6.602" transform="translate(18.846)" fill="#fff"></rect><rect id="Rectangle_66" data-name="Rectangle 66" width="6.601" height="6.602" transform="translate(37.696)" fill="#fff"></rect><rect id="Rectangle_67" data-name="Rectangle 67" width="6.602" height="6.602" transform="translate(56.542)" fill="#fff"></rect><rect id="Rectangle_68" data-name="Rectangle 68" width="6.602" height="6.602" transform="translate(75.392)" fill="#fff"></rect></g><g id="Group_19" data-name="Group 19" transform="translate(33.465 50.381)"><rect id="Rectangle_69" data-name="Rectangle 69" width="6.602" height="6.601" fill="#fff"></rect><rect id="Rectangle_70" data-name="Rectangle 70" width="6.602" height="6.601" transform="translate(18.85)" fill="#fff"></rect><rect id="Rectangle_71" data-name="Rectangle 71" width="6.602" height="6.601" transform="translate(37.696)" fill="#fff"></rect><rect id="Rectangle_72" data-name="Rectangle 72" width="6.605" height="6.601" transform="translate(56.543)" fill="#fff"></rect><rect id="Rectangle_73" data-name="Rectangle 73" width="6.602" height="6.601" transform="translate(75.392)" fill="#fff"></rect></g><rect id="Rectangle_74" data-name="Rectangle 74" width="45.546" height="22.056" transform="translate(140.447 26.787)" fill="url(#linear-gradient)"></rect><path id="Path_6" data-name="Path 6" d="M268,295.066a9.026,9.026,0,1,0-9.026,9.023A9.026,9.026,0,0,0,268,295.066Z" transform="translate(-51.925 -257.967)" fill="#002350"></path></g><g id="Group_24" data-name="Group 24" transform="translate(0 85.228)"><rect id="Rectangle_75" data-name="Rectangle 75" width="26.071" height="52.138" transform="translate(26.071 63.166) rotate(180)" fill="#002350"></rect><rect id="Rectangle_76" data-name="Rectangle 76" width="26.068" height="52.138" transform="translate(249.663 63.166) rotate(180)" fill="#002350"></rect><path id="Rectangle_77" data-name="Rectangle 77" d="M1.4,0H222.193a1.4,1.4,0,0,1,1.4,1.4V72.8a1.4,1.4,0,0,1-1.4,1.4H1.4a1.4,1.4,0,0,1-1.4-1.4V1.4A1.4,1.4,0,0,1,1.4,0Z" transform="translate(13.037)" fill="#00c6ff"></path><path id="Rectangle_78" data-name="Rectangle 78" d="M1.255,0H208.97a1.255,1.255,0,0,1,1.255,1.255V62.247a1.256,1.256,0,0,1-1.256,1.256H1.256A1.256,1.256,0,0,1,0,62.247V1.255A1.255,1.255,0,0,1,1.255,0Z" transform="translate(19.72 5.344)" fill="#d3e1fd"></path><g id="Group_21" data-name="Group 21" transform="translate(33.465 18.645)"><rect id="Rectangle_79" data-name="Rectangle 79" width="6.602" height="6.602" fill="#fff"></rect><rect id="Rectangle_80" data-name="Rectangle 80" width="6.602" height="6.602" transform="translate(18.85)" fill="#fff"></rect><rect id="Rectangle_81" data-name="Rectangle 81" width="6.602" height="6.602" transform="translate(37.696)" fill="#fff"></rect><rect id="Rectangle_82" data-name="Rectangle 82" width="6.605" height="6.602" transform="translate(56.543)" fill="#fff"></rect><rect id="Rectangle_83" data-name="Rectangle 83" width="6.602" height="6.602" transform="translate(75.392)" fill="#fff"></rect></g><g id="Group_22" data-name="Group 22" transform="translate(43.688 34.511)"><rect id="Rectangle_84" data-name="Rectangle 84" width="6.602" height="6.602" fill="#fff"></rect><rect id="Rectangle_85" data-name="Rectangle 85" width="6.602" height="6.602" transform="translate(18.846)" fill="#fff"></rect><rect id="Rectangle_86" data-name="Rectangle 86" width="6.601" height="6.602" transform="translate(37.696)" fill="#fff"></rect><rect id="Rectangle_87" data-name="Rectangle 87" width="6.602" height="6.602" transform="translate(56.542)" fill="#fff"></rect><rect id="Rectangle_88" data-name="Rectangle 88" width="6.602" height="6.602" transform="translate(75.392)" fill="#fff"></rect></g><g id="Group_23" data-name="Group 23" transform="translate(33.465 50.378)"><rect id="Rectangle_89" data-name="Rectangle 89" width="6.602" height="6.605" fill="#fff"></rect><rect id="Rectangle_90" data-name="Rectangle 90" width="6.602" height="6.605" transform="translate(18.85)" fill="#fff"></rect><rect id="Rectangle_91" data-name="Rectangle 91" width="6.602" height="6.605" transform="translate(37.696)" fill="#fff"></rect><rect id="Rectangle_92" data-name="Rectangle 92" width="6.605" height="6.605" transform="translate(56.543)" fill="#fff"></rect><rect id="Rectangle_93" data-name="Rectangle 93" width="6.602" height="6.605" transform="translate(75.392)" fill="#fff"></rect></g><rect id="Rectangle_94" data-name="Rectangle 94" width="45.546" height="22.056" transform="translate(140.447 26.785)" fill="url(#linear-gradient)"></rect><path id="Path_7" data-name="Path 7" d="M268,321.538a9.026,9.026,0,1,0-9.026,9.026A9.023,9.023,0,0,0,268,321.538Z" transform="translate(-51.925 -284.443)" fill="#002350"></path></g></g></g><g id="Group_27" data-name="Group 27" transform="translate(7.621 19.281)"><path id="Path_8" data-name="Path 8" d="M509.145,310.2h-.052A50.294,50.294,0,0,0,449.6,262.819a86.622,86.622,0,0,0-171.4,8.952A70.48,70.48,0,1,0,262.231,410.9H509.145a50.349,50.349,0,0,0,0-100.7Z" transform="translate(-188.699 -192.452)" fill="url(#linear-gradient)"></path><path id="Path_9" data-name="Path 9" d="M497.978,311.281h-.051a48.715,48.715,0,0,0-57.578-45.86,83.834,83.834,0,0,0-165.879,8.669,68.209,68.209,0,1,0-15.458,134.644H497.978a48.726,48.726,0,0,0,0-97.453Z" transform="translate(-190.801 -181.634)" fill="#fff"></path></g><path id="Rectangle_95" data-name="Rectangle 95" d="M0,0H19.742a0,0,0,0,1,0,0V8.812a2.3,2.3,0,0,1-2.3,2.3H2.3A2.3,2.3,0,0,1,0,8.812V0A0,0,0,0,1,0,0Z" transform="translate(87.222 247.265)" fill="url(#linear-gradient)"></path><path id="Rectangle_96" data-name="Rectangle 96" d="M0,0H19.742a0,0,0,0,1,0,0V8.812a2.3,2.3,0,0,1-2.3,2.3H2.3A2.3,2.3,0,0,1,0,8.812V0A0,0,0,0,1,0,0Z" transform="translate(106.964 292.487) rotate(180)" fill="url(#linear-gradient)"></path><path id="Rectangle_97" data-name="Rectangle 97" d="M0,0H19.742a0,0,0,0,1,0,0V8.812a2.3,2.3,0,0,1-2.3,2.3H2.3A2.3,2.3,0,0,1,0,8.812V0A0,0,0,0,1,0,0Z" transform="translate(287.472 247.265)" fill="url(#linear-gradient)"></path><path id="Rectangle_98" data-name="Rectangle 98" d="M0,0H19.742a0,0,0,0,1,0,0V8.815a2.3,2.3,0,0,1-2.3,2.3H2.3A2.3,2.3,0,0,1,0,8.815V0A0,0,0,0,1,0,0Z" transform="translate(387.221 400.231)" fill="url(#linear-gradient)"></path><rect id="Rectangle_99" data-name="Rectangle 99" width="3.219" height="25.08" transform="translate(95.483 256.894)" fill="url(#linear-gradient)"></rect><g id="Group_29" data-name="Group 29" transform="translate(358.964)"><path id="Path_10" data-name="Path 10" d="M311.549,242.98c-.628-.109-1.249-.216-1.874-.322-2.025-.341-6.116,1.365-4.075,1.709.621.106,6.773,1.635,7.4,1.738C315.025,246.453,313.587,243.324,311.549,242.98Z" transform="translate(-288.622 -61.857)" fill="#f4d8d5"></path><path id="Path_11" data-name="Path 11" d="M368.765,321.367s5.724,12.687-.747,16.112-14.779-.222-18.687-.541-16.163,3.3-24.317,2.2-11.457-4.1-10.3-6.261S336.2,324.18,336.2,324.18Z" transform="translate(-267.665 112.909)" fill="#0071ff"></path><path id="Path_12" data-name="Path 12" d="M368.108,305.029c2.051,17-4.529,40.378-8.521,71.384-2.559,19.885-3.4,33.869-3.4,33.869s-29.87,8.267-35.375,6.322,23.12-12.033,23.12-12.033-9.95-111.105-3.741-118.38S364.625,276.2,368.108,305.029Z" transform="translate(-255.191 24.11)" fill="#f4d8d5"></path><path id="Path_13" data-name="Path 13" d="M302.293,230.1s63.932,6.734,69.9,9.461,9.448,18.661,2.041,20.6c-9.413,2.463-72.794-20.277-72.794-20.277Z" transform="translate(-296.615 -89.634)" fill="#f4d8d5"></path><path id="Path_14" data-name="Path 14" d="M326.57,366.806,325.356,251.7l42.441-.2s-11.576,79.056-11.022,123.66C351.286,380.612,336.967,377.947,326.57,366.806Z" transform="translate(-243.548 -42.144)" fill="#f4d8d5"></path><path id="Path_15" data-name="Path 15" d="M341.385,194.459,324.839,315.991s79.355,5.907,92.277,2.585c0,0-6.654-108.009-21.224-122.546S341.385,194.459,341.385,194.459Z" transform="translate(-244.696 -180.532)" fill="#000038"></path><path id="Path_16" data-name="Path 16" d="M348.962,212.489c-7.523-3.312-14.718,1.275-17.058,9.384s-12.1,58.588-11.418,61.556,3.615,15.816,18.5,8.067c10.285-16.678,17.016-60.259,17.135-64.74S353.3,214.4,348.962,212.489Z" transform="translate(-254.432 -131.117)" fill="#f4d8d5"></path><path id="Path_17" data-name="Path 17" d="M356.349,287.556v11.811s-19.379,2.215-30.45-4.983l-.373-12.181Z" transform="translate(-243.171 25.999)" fill="#dbb5bf"></path><path id="Path_18" data-name="Path 18" d="M386.533,320.543s6.957,12.056.856,16.105-14.728,1.249-18.648,1.317-15.755,4.893-23.979,4.6-11.8-2.942-10.871-5.2,20.519-10.787,20.519-10.787Z" transform="translate(-224.93 111.08)" fill="#0071ff"></path><path id="Path_19" data-name="Path 19" d="M375.892,302.794c3.731,16.711-.5,40.625-1.391,71.874-.576,20.042-.022,34.039-.022,34.039s-28.9,11.193-34.57,9.8,21.806-14.267,21.806-14.267-20.931-109.57-15.471-117.425S369.56,274.443,375.892,302.794Z" transform="translate(-212.965 23.043)" fill="#f4d8d5"></path><path id="Path_20" data-name="Path 20" d="M349.886,369.138,337.251,254.717l42.213-4.413s-3.67,79.812,1.31,124.14C375.852,380.425,361.337,379.189,349.886,369.138Z" transform="translate(-217.152 -44.79)" fill="#f4d8d5"></path><path id="Path_21" data-name="Path 21" d="M364.909,272.934l9,34.323.908,11.64s-17.622,4.429-30.077,2.3l-5.167-49.282Z" transform="translate(-212.003 3.157)" fill="#dbb5bf"></path><path id="Path_22" data-name="Path 22" d="M421.449,385.193s-11.586,2.488-18.513,3.943c-2.3.483-3.8-35.523-6.648-35.063-3.048.486-5.537,26.944-3.667,36.66-20.744,2.025-48.86.628-71.04-15.668,9.983-5.991,2.3-99.777,15.359-136.337,0,0,19.724,12.967,68.948.679,0,0-.061-.264-.209-.734,6.084,11.28,14.264,24.388,11.518,43.613C407.1,353.539,421.449,385.193,421.449,385.193Z" transform="translate(-251.923 -70.598)" fill="#002350"></path><path id="Path_23" data-name="Path 23" d="M401.047,299.655c.148.47.209.734.209.734-49.224,12.287-68.948-.679-68.948-.679a47.284,47.284,0,0,0,2.92-14.908c.5-21.5-12.635-30.955-11.489-43.053,1.233-12.976,12.906-29.886,12.906-29.886s58.823-3.57,74.681,5.788c0,0-17.332,45.445-16.121,65.761a21,21,0,0,0,.56,3.956A55.361,55.361,0,0,0,401.047,299.655Z" transform="translate(-247.292 -131.579)" fill="#0071ff"></path><path id="Path_24" data-name="Path 24" d="M334.283,215.183l-.9,17.618s1.593,10.227,8.131,10.227c5.2,0,18.159-7.6,20.673-11.409l1.387-29.809Z" transform="translate(-225.731 -152.402)" fill="#f4d8d5"></path><path id="Path_25" data-name="Path 25" d="M333.461,222.243s9.686,2.179,16.791-4.938,5.44-12.481,5.44-12.481l-21.887,8.817Z" transform="translate(-225.562 -145.716)" fill="#dbb5bf"></path><path id="Path_26" data-name="Path 26" d="M347.314,252.715l-.9-.129c-12.336-1.774-17.045-13.124-15.767-26.31.834-8.592,1.725-34.461,1.725-34.461a2.922,2.922,0,0,1,3.232-2.575L375.571,195a2.919,2.919,0,0,1,2.369,3.383l-4.867,33.8C371.183,245.3,359.649,254.5,347.314,252.715Z" transform="translate(-232.268 -180.361)" fill="#f4d8d5"></path><path id="Path_27" data-name="Path 27" d="M330.728,197.289l-.026,10.861s26.432,2.434,36.7-3.242,2.3-10.688,2.3-10.688l-12.96-1.355S332.015,192.766,330.728,197.289Z" transform="translate(-231.685 -172.253)" fill="#dbb5bf"></path><path id="Path_28" data-name="Path 28" d="M345.9,217.783c-1.484-.28-3.341-.129-4.761-.5.573-1.368,1.787-8.557.8-6.741-.882,1.622-2.64,5.144-3.412,6.812-2.543-.824-8.817,1.365-10.832.154-.934-5.489,2.894-18.761,7.906-22.872,9.4-7.71,39.988-14.8,45.763,2.7,0,0,8.183,1.433,9.925,7.581s3.02,35.485-12.1,35.382c.831-3.535-3.882-12.078-5.292-16.495s1.387-12.79,1.387-12.79-4.059,7.887-11.634,7.681c-.058-2.308-.148-4.613-.051-6.918.087-2.067-3.2,4.42-3.145,6.8-3.853-.187-7.211.032-11.338-.589,1.181-2.817,1.375-6.277,2.73-9.02C352.767,207.112,347.835,214.725,345.9,217.783Z" transform="translate(-238.675 -186.463)" fill="#000038"></path><path id="Path_29" data-name="Path 29" d="M343.1,202.652s1.594-6.506,7.031-4.3c7.742,3.135,4.288,16.8-5.508,14.705C340.982,212.27,340.679,205.166,343.1,202.652Z" transform="translate(-207.642 -161.098)" fill="#f4d8d5"></path><path id="Path_30" data-name="Path 30" d="M342.464,202.017c-.1-1.239,1.017-4.03,3.686-3.435s4.111,3.554,3.689,6.084-1.944,5.112-3.187,4.562,1.053-3.1.837-4.648-1.664-2.978-2.607-2.16S342.551,203.163,342.464,202.017Z" transform="translate(-205.596 -159.751)" fill="#dbb5bf"></path><path id="Path_31" data-name="Path 31" d="M359.066,237.46s-5.707,40.374-5.312,45.039l-9.207,2.205s-1.722-10.333,0-15.5-.493-23.625-1.967-27.07,4.429-30.266,7.137-30.514,12.793,2.707,12.793,2.707Z" transform="translate(-205.842 -130.667)" fill="#0071ff"></path><path id="Path_32" data-name="Path 32" d="M354.492,212.337c-8.215,1.416-11.483,8.07-9.088,16.208s21.385,56.119,23.564,58.234,19.717,15.726,19.518-.515c-.251-19.807-17.444-63.324-19.769-67.167S359.224,211.516,354.492,212.337Z" transform="translate(-200.759 -129.298)" fill="#f4d8d5"></path><path id="Path_33" data-name="Path 33" d="M356.115,238.9s11.512,13.7,11.811,32.967c.171,11.1-2.707,26.574-2.952,32.478s-.621,69.756,6.7,80.34l-10.15,2.344s-4.182-13.041-5.411-24.115-2.707-51.184.493-66.44-12.6-54.928-12.6-54.928Z" transform="translate(-202.15 -70.092)" fill="#002350"></path><path id="Path_34" data-name="Path 34" d="M395.312,250.95c-49.224,12.287-68.948-.679-68.948-.679-.267-2.595,2.859-14.937,2.859-14.937.032,0,.032,0,.061.029,32.1,8.206,59.618-1.89,59.618-1.89.119.148.238.322.357.5,2.154,3.28,5.048,13.437,5.843,16.244C395.251,250.686,395.312,250.95,395.312,250.95Z" transform="translate(-241.347 -82.14)" fill="#678aed"></path><path id="Path_35" data-name="Path 35" d="M333.461,240.89s60.639-10.391,66.662-9.242,16.73,15.03,10.179,18.983c-8.331,5.032-75.943.39-75.943.39Z" transform="translate(-225.562 -86.386)" fill="#f4d8d5"></path><path id="Path_36" data-name="Path 36" d="M351.3,205.151s-5.9,41.707-11.441,56.106c0,0,6.644,1.474,10.333.737,0,0,8.859-47.244,8.122-50.566S351.3,205.151,351.3,205.151Z" transform="translate(-211.364 -144.99)" fill="#000038"></path><path id="Path_37" data-name="Path 37" d="M333.056,202.913s3.828,1.6,5.07,1.2-.721,2.372-2.147,1.677A10.337,10.337,0,0,1,333.056,202.913Z" transform="translate(-226.461 -149.957)" fill="#dbb5bf"></path><g id="Group_28" data-name="Group 28" transform="translate(0 113.36)"><path id="Path_38" data-name="Path 38" d="M390.6,244.955l-62.848-7.979,2.235,10.506Z" transform="translate(-238.223 -187.725)" fill="#fff"></path><path id="Path_39" data-name="Path 39" d="M393.163,281.241,313.2,284.579l-11.7-54.97a3.926,3.926,0,0,1,3.438-4.912l72.3-3.016a3.993,3.993,0,0,1,3.95,3.287Z" transform="translate(-296.721 -221.677)" fill="#00c6ff"></path><path id="Path_40" data-name="Path 40" d="M391.711,281.3l-79.964,3.338-11.7-54.97a3.921,3.921,0,0,1,3.441-4.909l72.3-3.02a3.994,3.994,0,0,1,3.95,3.29Z" transform="translate(-299.943 -221.544)" fill="#fff"></path><path id="Path_41" data-name="Path 41" d="M390.791,246.207l-86.8,3.622-.377-6.055,86.807-3.622Z" transform="translate(-291.805 -180.678)" fill="#00c6ff"></path><path id="Path_42" data-name="Path 42" d="M386.218,245.51l-55.942,2.336-.374-6.058,55.939-2.333Z" transform="translate(-233.459 -182.225)" fill="#00c6ff"></path></g><path id="Path_43" data-name="Path 43" d="M323.123,245.353a12.213,12.213,0,0,0-1.394,1.938,7.19,7.19,0,0,1,1.568-3.229c1.22-1.487-1.651-3.386-3.016-1.954-.1.109-.174.232-.28.341l-.016-.013c-.061.071-.1.151-.155.222a12.826,12.826,0,0,0-2.624,4.043,16.4,16.4,0,0,0-.467,3.641c-1.033-3.345,1.558-6.976,1.944-10.488.19-1.7-2.62-2.041-3.573-.814a38.055,38.055,0,0,0-2.7,3.844c.106-.4.212-.8.3-1.172.4-1.819-2.228-2.743-3.509-1.239-3.432,4.03-3.869,11.335.319,15.027a1.928,1.928,0,0,0,2.353.155c1.156.821,3.522.274,4.108.032a6.584,6.584,0,0,0,4.693-.486c1.413.657,1.961.927,3.21-.357a3.6,3.6,0,0,0,.882-2.366c.18-2.115.19-3.586,1.671-5.5C327.81,245.205,324.562,243.727,323.123,245.353Z" transform="translate(-285.388 -71.409)" fill="#f4d8d5"></path><path id="Path_44" data-name="Path 44" d="M343.959,236.225a3.821,3.821,0,0,0-.843-1.639c-4.2-4.591-10.417,5.36-12.4,9.95a2.966,2.966,0,0,0,.682,3.5,1.476,1.476,0,0,0,2.807.1,10.033,10.033,0,0,1,1.983-2.414c-.515,2.147-1.233,4.793-1.146,6.026.068.95.75,1.925,1.455,1.893,1.445-.055,1.806-.737,2.582-2.389.66-1.4,1.268-2.662,1.906-3.786-.75,1.989-.943,3.934.3,5.45a1.736,1.736,0,0,0,2.791-.045,5.956,5.956,0,0,0,.712-1.7c.869-1.964,1.857-5.865,3.805-6.577-1.14,2.746-3.493,5.466-1.713,8.64,1.545,2.762,3.956-.158,5.205-2.173C357.9,241.672,349.207,237.471,343.959,236.225Z" transform="translate(-232.272 -82.291)" fill="#f4d8d5"></path></g><path id="Path_45" data-name="Path 45" d="M372.634,433.793h-3.045a11.283,11.283,0,0,1-11.27-11.273v-65.9a8.063,8.063,0,0,0-8.054-8.051H291.286a11.286,11.286,0,0,1-11.273-11.273V266.726h3.219v70.567a8.062,8.062,0,0,0,8.054,8.054h58.978a11.286,11.286,0,0,1,11.273,11.27v65.9a8.061,8.061,0,0,0,8.051,8.054h3.045a8.062,8.062,0,0,0,8.054-8.054v-2.83h3.219v2.83A11.286,11.286,0,0,1,372.634,433.793Z" transform="translate(14.794 -8.347)" fill="url(#linear-gradient)"></path></g></g></g></g></g></g></svg>